<?xml version="1.0" encoding="UTF-8"?>
<svg id="_レイヤー_2" data-name="レイヤー 2" xmlns="http://www.w3.org/2000/svg" xmlns:xlink="http://www.w3.org/1999/xlink" viewBox="0 0 334.0598048 75.8756816">
  <defs>
    <style>
      .cls-1 {
        fill: #f29600;
      }

      .cls-1, .cls-2 {
        stroke-width: 0px;
      }

      .cls-2 {
        fill: url(#_名称未設定グラデーション_3);
      }

      .cls-3 {
        filter: url(#luminosity-noclip);
      }

      .cls-4 {
        mask: url(#mask);
      }

      .cls-5 {
        fill: #fff;
        stroke: #fff;
        stroke-miterlimit: 10;
        stroke-width: 1.3659169px;
      }
    </style>
    <filter id="luminosity-noclip" x="-30.3150726" y="-15.3774006" width="191.3827312" height="91.2530822" color-interpolation-filters="sRGB" filterUnits="userSpaceOnUse">
      <feFlood flood-color="#fff" result="bg"/>
      <feBlend in="SourceGraphic" in2="bg"/>
    </filter>
    <linearGradient id="_名称未設定グラデーション_3" data-name="名称未設定グラデーション 3" x1="65.376293" y1="34.989898" x2="65.376293" y2="-15.3774006" gradientUnits="userSpaceOnUse">
      <stop offset="0" stop-color="#fff"/>
      <stop offset="1" stop-color="#231815"/>
    </linearGradient>
    <mask id="mask" x="-30.3150726" y="-15.3774006" width="191.3827312" height="91.2530822" maskUnits="userSpaceOnUse">
      <g class="cls-3">
        <rect class="cls-2" x="-30.3150726" y="-15.3774006" width="191.3827312" height="50.3672986"/>
      </g>
    </mask>
  </defs>
  <g id="equipment">
    <g>
      <path class="cls-1" d="m71.1467189,64.6461894c-.2939453.4082031-.4765625.8984375-.5478516,1.4716797-.0576172.3652344-.1289062.5761719-.2148438.6337891-.0644531.0576172-.2646484.0927734-.6015625.1074219-2.6640625.1503906-5.2314453.2255859-7.7021484.2255859-2.5136719,0-4.2431641-.1972656-5.1884766-.5908203-.9238281-.3798828-1.6933594-1.0419922-2.3095703-1.9873047-.4580078.4873047-1.1425781,1.1103516-2.0517578,1.8691406-.2431641.2216797-.3974609.3759766-.4619141.4619141-.1074219.1503906-.2109375.2255859-.3115234.2255859-.1220703,0-.2294922-.0966797-.3222656-.2900391-.2792969-.5087891-.5800781-1.1816406-.9023438-2.0195312.5517578-.2646484.9814453-.5087891,1.2890625-.7304688.4794922-.3076172,1.03125-.7626953,1.6542969-1.3642578v-4.9091797h-.9023438l-1.5361328.0537109c-.1289062,0-.2080078-.0175781-.2363281-.0537109-.0214844-.0283203-.0322266-.1005859-.0322266-.2148438v-1.6757812c0-.1142578.0175781-.1826172.0537109-.2041016.0283203-.0214844.1005859-.0322266.2148438-.0322266l1.5361328.0429688h1.2353516l1.6113281-.0429688c.1142578,0,.1826172.0146484.2041016.0429688s.0322266.0927734.0322266.1933594l-.0429688,2.1376953v4.8447266c.3652344.8525391,1.0458984,1.4677734,2.0410156,1.8476562.8164062.2646484,2.1738281.3974609,4.0712891.3974609,3.3447266,0,6.484375-.1464844,9.4208984-.4404297Zm-19.8193359-15.2753906c-.0712891-.0576172-.1074219-.1074219-.1074219-.1503906s.0712891-.1181641.2148438-.2255859l1.1171875-.8056641c.1503906-.1005859.2509766-.1503906.3007812-.1503906.0429688,0,.1035156.0361328.1826172.1074219,1.0957031,1.0166016,2.0195312,2.109375,2.7714844,3.2763672.0498047.0712891.0751953.1289062.0751953.171875,0,.0644531-.0683594.1542969-.2041016.2685547l-1.1601562.9453125c-.1289062.1005859-.2255859.1503906-.2900391.1503906-.0712891,0-.1357422-.0498047-.1933594-.1503906-.8808594-1.4248047-1.7832031-2.5712891-2.7070312-3.4375Zm9.109375.2578125h-2.0302734l-1.9121094.0537109c-.1142578,0-.1865234-.0146484-.2148438-.0429688-.0214844-.0283203-.0322266-.0966797-.0322266-.2041016v-1.1708984c0-.1142578.0175781-.1826172.0537109-.2041016.0214844-.0214844.0859375-.0322266.1933594-.0322266l1.9121094.0429688h2.2451172l1.5576172-.0429688c.1289062,0,.2080078.0146484.2363281.0429688.0214844.0283203.0322266.0966797.0322266.2041016l-.0429688,1.4072266v.9238281l.0429688,1.4072266c0,.1005859-.0146484.1611328-.0429688.1826172-.0361328.0214844-.1113281.0322266-.2255859.0322266l-1.5576172-.0429688h-2.2236328v.5478516c0,.4150391.046875.6699219.1396484.7626953.1142578.1005859.4873047.1503906,1.1171875.1503906.6728516,0,1.078125-.0683594,1.2138672-.2041016.0791016-.0927734.1289062-.4228516.1503906-.9882812.3935547.1933594.8769531.3691406,1.4501953.5263672.2646484.0712891.3974609.1826172.3974609.3330078,0,.0712891-.0146484.1972656-.0429688.3759766-.0791016.4511719-.2324219.7802734-.4619141.9882812-.2001953.1787109-.5371094.296875-1.0097656.3544922-.3652344.0429688-.9599609.0644531-1.7832031.0644531-1.4892578,0-2.3779297-.1181641-2.6640625-.3544922-.3505859-.2792969-.5263672-.8378906-.5263672-1.6757812v-1.1923828l-.0429688-.8808594c0-.1142578.0175781-.1826172.0537109-.2041016.0283203-.0214844.1005859-.0322266.2148438-.0322266l1.4179688.0429688h2.3847656v-1.1708984Zm-.7089844,11.7304688l-3.0400391.0429688c-.1142578,0-.1826172-.0175781-.2041016-.0537109-.0214844-.0283203-.0322266-.1005859-.0322266-.2148438v-1.1923828c0-.1142578.0146484-.1826172.0429688-.2041016s.0927734-.0322266.1933594-.0322266l3.0400391.0429688h.2900391v-1.375l-2.578125.0429688c-.1289062,0-.2041016-.0146484-.2255859-.0429688-.0283203-.0361328-.0429688-.1113281-.0429688-.2255859v-1.1923828c0-.1142578.0175781-.1826172.0537109-.2041016.0283203-.0214844.1005859-.0322266.2148438-.0322266l2.578125.0429688c-.0214844-.4658203-.0683594-.9345703-.1396484-1.4072266.8808594.0498047,1.5507812.1005859,2.0087891.1503906.2363281.0283203.3544922.1035156.3544922.2255859,0,.0644531-.0429688.1757812-.1289062.3330078-.0791016.1435547-.1181641.3759766-.1181641.6982422h2.7929688c0-.5439453-.0429688-1.0136719-.1289062-1.4072266.9023438.0498047,1.5683594.1005859,1.9980469.1503906.2363281.0283203.3544922.1113281.3544922.2470703,0,.0644531-.0429688.1757812-.1289062.3330078-.0791016.1142578-.1181641.3330078-.1181641.6552734v.0429688c.7451172-.0068359,1.3896484-.0214844,1.9335938-.0429688.0927734,0,.2363281-.0068359.4296875-.0214844h.1503906c.1289062,0,.2041016.0146484.2255859.0429688s.0322266.0927734.0322266.1933594v1.1923828c0,.1289062-.0126953.2060547-.0380859.2314453-.0244141.0244141-.0976562.0371094-.2197266.0371094-.0283203,0-.1357422-.0039062-.3222656-.0107422-.6445312-.0146484-1.375-.0253906-2.1914062-.0322266v1.375h.3974609l3.0400391-.0429688c.1142578,0,.1826172.0146484.2041016.0429688s.0322266.0927734.0322266.1933594v1.1923828c0,.1220703-.0126953.1972656-.0380859.2255859-.0244141.0283203-.0908203.0429688-.1982422.0429688l-3.0400391-.0429688h-1.1386719c1.1601562.7021484,2.6318359,1.2353516,4.4150391,1.6005859-.3154297.34375-.5761719.7265625-.7841797,1.1494141-.1865234.3652344-.3691406.5478516-.5478516.5478516-.0498047,0-.2216797-.0429688-.515625-.1289062-1.4677734-.4794922-2.8466797-1.1640625-4.1357422-2.0517578-.0712891-.0498047-.1074219-.0966797-.1074219-.1396484,0-.0361328.0605469-.1113281.1826172-.2255859l.7412109-.7519531h-4.2646484c.4511719.2724609.8232422.5224609,1.1171875.7519531.2080078.1435547.3115234.2509766.3115234.3222656,0,.1142578-.0966797.1972656-.2900391.2470703-.0498047.0146484-.1611328.0791016-.3330078.1933594-.1650391.1074219-.2861328.1826172-.3652344.2255859-.7451172.4873047-1.6474609.9277344-2.7070312,1.3212891-.2861328.1005859-.4619141.1503906-.5263672.1503906-.1357422,0-.34375-.1611328-.6230469-.4833984-.2646484-.3291016-.6015625-.6376953-1.0097656-.9238281,1.3388672-.3798828,2.4023438-.7841797,3.1904297-1.2138672.2861328-.1503906.5732422-.3476562.859375-.5908203h-.9023438Zm2.2666016-1.6113281h2.7929688v-1.375h-2.7929688v1.375Zm5.6933594-10.1191406h-2.0410156l-1.890625.0537109c-.1289062,0-.2080078-.0146484-.2363281-.0429688-.0214844-.0283203-.0322266-.0966797-.0322266-.2041016v-1.1708984c0-.1142578.0175781-.1826172.0537109-.2041016.0283203-.0214844.1005859-.0322266.2148438-.0322266l1.890625.0429688h2.3310547l1.5576172-.0429688c.1220703,0,.1933594.0146484.2148438.0429688s.0322266.0966797.0322266.2041016l-.0429688,1.4072266v.9238281l.0429688,1.4072266c0,.1435547-.0820312.2148438-.2470703.2148438l-1.5576172-.0429688h-2.2236328v.5693359c0,.4013672.046875.6484375.1396484.7412109.1220703.1005859.515625.1503906,1.1816406.1503906.6728516,0,1.0703125-.0576172,1.1923828-.171875.1220703-.1074219.1933594-.4472656.2148438-1.0205078.4580078.2431641.9492188.4121094,1.4716797.5048828.3076172.0498047.4619141.1650391.4619141.34375,0,.0791016-.0146484.2148438-.0429688.4082031-.0791016.4443359-.2324219.7587891-.4619141.9453125-.2080078.1865234-.5761719.3115234-1.1064453.3759766-.3935547.0429688-1.0273438.0644531-1.9013672.0644531-1.5615234,0-2.4853516-.1181641-2.7714844-.3544922-.3222656-.2861328-.4833984-.8447266-.4833984-1.6757812v-1.1923828l-.0429688-.8808594c0-.1142578.0146484-.1826172.0429688-.2041016s.0927734-.0322266.1933594-.0322266l1.4716797.0429688h2.3740234v-1.1708984Z"/>
      <path class="cls-1" d="m71.6691798,58.3082988c.5800781-.2363281,1.2246094-.6337891,1.9335938-1.1923828.8955078-.7021484,2.2089844-1.8369141,3.9423828-3.4052734.6728516-.6162109,1.3105469-.9238281,1.9121094-.9238281.3867188,0,.7236328.0683594,1.0097656.2041016.2431641.1142578.5439453.3183594.9023438.6123047,2.9863281,2.3847656,4.5693359,3.6455078,4.7480469,3.78125,1.3173828.9453125,3.0507812,2.0234375,5.1992188,3.2333984.171875.0712891.2578125.1757812.2578125.3115234,0,.0498047-.0146484.1005859-.0429688.1503906-.2939453.7949219-.6513672,1.4863281-1.0742188,2.0732422-.1074219.1435547-.2041016.2148438-.2900391.2148438-.0927734,0-.1972656-.0361328-.3115234-.1074219-1.0810547-.6298828-2.6640625-1.7617188-4.7480469-3.3945312-1.0810547-.8095703-2.6210938-2.1054688-4.6191406-3.8886719-.3583984-.3369141-.6806641-.5048828-.9667969-.5048828-.1650391,0-.4150391.1542969-.7519531.4619141l-3.6953125,3.6201172c-.3652344.3935547-.6269531.7158203-.7841797.9667969-.1142578.1787109-.2470703.2685547-.3974609.2685547s-.2900391-.0644531-.4189453-.1933594c-.5009766-.5009766-1.1025391-1.2636719-1.8046875-2.2880859Zm13.0410156-6.6064453l1.1708984-.8056641c.0429688-.0429688.0859375-.0644531.1289062-.0644531.0576172,0,.125.0322266.2041016.0966797.7519531.5800781,1.4462891,1.3681641,2.0839844,2.3632812.0429688.0576172.0644531.1113281.0644531.1611328,0,.0644531-.0429688.1289062-.1289062.1933594l-.9238281.6767578c-.0644531.0429688-.1220703.0644531-.171875.0644531-.0712891,0-.1396484-.046875-.2041016-.1396484-.6806641-1.0380859-1.421875-1.8867188-2.2236328-2.5458984Zm2.0302734-1.4501953l1.0957031-.7949219c.0576172-.0361328.1035156-.0537109.1396484-.0537109.0498047,0,.1142578.0322266.1933594.0966797.8447266.6445312,1.5429688,1.4003906,2.0947266,2.2666016.0429688.0712891.0644531.1328125.0644531.1826172,0,.0791016-.046875.1503906-.1396484.2148438l-.8808594.6875c-.0644531.0429688-.1220703.0644531-.171875.0644531-.0712891,0-.1357422-.046875-.1933594-.1396484-.6162109-.9814453-1.3496094-1.8222656-2.2021484-2.5244141Z"/>
      <path class="cls-1" d="m103.1603907,51.1969707c-1.375.2509766-2.7929688.5302734-4.2539062.8378906-.3798828.0859375-.6875.1757812-.9238281.2685547-.1787109.0712891-.3261719.1074219-.4404297.1074219-.2148438,0-.3759766-.125-.4833984-.3759766-.2294922-.4511719-.4833984-1.2421875-.7626953-2.3740234.3720703.0498047.7695312.0751953,1.1923828.0751953.2861328,0,.5693359-.0107422.8486328-.0322266,1.5107422-.1503906,3.1757812-.4013672,4.9951172-.7519531.6083984-.1220703,1.0097656-.2324219,1.203125-.3330078.2001953-.1142578.3398438-.171875.4189453-.171875.171875,0,.3398438.0576172.5048828.171875.5869141.4511719,1.078125.9199219,1.4716797,1.4072266.1650391.1865234.2470703.3652344.2470703.5371094,0,.2363281-.125.4121094-.3759766.5263672-.2509766.1220703-.5732422.3544922-.9667969.6982422-.4511719.4443359-1.2851562,1.2783203-2.5029297,2.5029297-.9091797.9091797-1.6582031,1.6474609-2.2451172,2.2128906l.0214844.0644531c1.1601562-.6591797,2.3271484-.9882812,3.5019531-.9882812,1.7255859,0,3.1005859.5478516,4.125,1.6435547.8876953.9599609,1.3320312,2.1738281,1.3320312,3.6416016,0,1.9697266-.7841797,3.5019531-2.3525391,4.5976562-1.3603516.9521484-3.1367188,1.4287109-5.328125,1.4287109-1.4892578,0-2.6279297-.3222656-3.4160156-.9667969-.6875-.5585938-1.03125-1.3144531-1.03125-2.2666016,0-.7949219.3398438-1.4570312,1.0205078-1.9873047.5947266-.4658203,1.2890625-.6982422,2.0839844-.6982422,1.1171875,0,2.0410156.3076172,2.7714844.9238281.6591797.5517578,1.1132812,1.3144531,1.3642578,2.2880859.8310547-.3798828,1.421875-.8525391,1.7724609-1.4179688.3154297-.515625.4726562-1.1601562.4726562-1.9335938,0-1.0673828-.3613281-1.9082031-1.0849609-2.5244141-.6230469-.5302734-1.4140625-.7949219-2.3740234-.7949219-1.9267578,0-3.8027344.7773438-5.6289062,2.3310547-.2792969.2578125-.9169922.8808594-1.9121094,1.8691406-.1650391.1650391-.2900391.2470703-.3759766.2470703s-.1972656-.0644531-.3330078-.1933594c-.4013672-.3505859-.8310547-.8310547-1.2890625-1.4394531-.0498047-.0576172-.0751953-.1181641-.0751953-.1826172,0-.0927734.0605469-.2001953.1826172-.3222656,1.6396484-1.3251953,3.3769531-2.9433594,5.2099609-4.8554688,1.4970703-1.546875,2.6357422-2.8037109,3.4160156-3.7705078Zm-.1611328,13.5351562c-.2939453-1.2607422-.9169922-1.890625-1.8691406-1.890625-.3291016,0-.5947266.0927734-.7949219.2792969-.171875.1503906-.2578125.3369141-.2578125.5585938,0,.7587891.6376953,1.1386719,1.9121094,1.1386719.3798828,0,.7158203-.0283203,1.0097656-.0859375Z"/>
      <path class="cls-1" d="m121.4504298,52.9801738c.0927734-1.0527344.1464844-2.0410156.1611328-2.9648438,0-.6162109-.0537109-1.1962891-.1611328-1.7402344,1.2246094.1142578,2.1767578.2685547,2.8574219.4619141.2509766.0791016.3759766.2324219.3759766.4619141,0,.1289062-.0361328.2685547-.1074219.4189453-.1503906.2509766-.2470703.5947266-.2900391,1.03125-.0068359.1435547-.0361328.5048828-.0859375,1.0849609-.0283203.4228516-.0644531.8310547-.1074219,1.2246094h3.3408203l3.0615234-.0429688c.3076172,0,.4619141.1005859.4619141.3007812,0,.0068359-.0283203.7880859-.0859375,2.3417969-.1074219,3.2871094-.3798828,5.6972656-.8164062,7.2294922-.2363281.9169922-.5761719,1.6113281-1.0205078,2.0839844-.4013672.4296875-.9277344.7265625-1.5791016.8916016-.6083984.1572266-1.3466797.2363281-2.2128906.2363281-.2646484,0-.4404297-.1464844-.5263672-.4404297-.2861328-.8017578-.7128906-1.4677734-1.2783203-1.9980469.3798828.0146484.7050781.0214844.9775391.0214844.8808594,0,1.5507812-.0712891,2.0087891-.2148438.3222656-.1074219.5654297-.2832031.7304688-.5263672.1572266-.2216797.296875-.5625.4189453-1.0205078.3798828-1.6044922.5976562-3.8027344.6552734-6.5957031h-4.4472656c-.4443359,2.7138672-1.0957031,4.7441406-1.9550781,6.0908203-1.1025391,1.7978516-2.6572266,3.3085938-4.6621094,4.5332031-.1865234.1142578-.3544922.171875-.5048828.171875s-.2900391-.0712891-.4189453-.2148438c-.4658203-.515625-1.0810547-.9414062-1.8476562-1.2783203,2.234375-1.1240234,3.9570312-2.6210938,5.1669922-4.4902344.7304688-1.1748047,1.2607422-2.7568359,1.5898438-4.7480469h-1.9873047c-.9667969,0-2.0195312.0390625-3.1582031.1181641h-.0537109c-.1650391,0-.2578125-.125-.2792969-.3759766-.0644531-.3583984-.125-1.0703125-.1826172-2.1376953.9238281.0576172,2.1416016.0859375,3.6523438.0859375h2.3095703Z"/>
      <path class="cls-1" d="m136.7961329,53.5817363c1.1171875.1142578,2.4667969.171875,4.0498047.171875h7.5410156c.4941406,0,.8847656-.0820312,1.1708984-.2470703.1074219-.0859375.2001953-.1289062.2792969-.1289062.0927734,0,.2041016.0498047.3330078.1503906.5869141.4658203,1.0810547.9199219,1.4824219,1.3642578.1435547.1503906.2148438.3046875.2148438.4619141s-.0820312.296875-.2470703.4189453c-.2724609.2294922-.5195312.5732422-.7412109,1.03125-1.1748047,2.4990234-2.5136719,4.5224609-4.0175781,6.0693359-1.3251953,1.3681641-2.9794922,2.5888672-4.9628906,3.6630859-.2080078.1005859-.3544922.1503906-.4404297.1503906-.1435547,0-.3046875-.0859375-.4833984-.2578125-.4726562-.4228516-1.1533203-.8056641-2.0410156-1.1494141,2.3203125-1.0742188,4.2753906-2.4101562,5.8652344-4.0068359,1.5400391-1.546875,2.6640625-3.2695312,3.3730469-5.1669922l-7.5087891.0214844c-1.2246094,0-2.3242188.0283203-3.2978516.0859375-.171875,0-.2792969-.1396484-.3222656-.4189453-.0712891-.2861328-.1542969-1.0244141-.2470703-2.2128906Zm1.9121094-4.6943359c1.0458984.1005859,2.2490234.1503906,3.609375.1503906h3.9638672c.8876953,0,2.0371094-.0361328,3.4482422-.1074219.1787109,0,.2685547.1142578.2685547.34375.0214844.2861328.0322266.5732422.0322266.859375,0,.2939453-.0107422.5800781-.0322266.859375,0,.2939453-.1035156.4404297-.3115234.4404297h-.0859375l-3.1044922-.0429688h-4.3505859c-1.203125,0-2.2089844.0283203-3.0185547.0859375-.1865234,0-.2900391-.1611328-.3115234-.4833984-.0712891-.5087891-.1074219-1.2099609-.1074219-2.1054688Z"/>
      <path class="cls-1" d="m156.4826564,56.1276347c1.1455078.1787109,2.7285156.2685547,4.7480469.2685547h7.0898438c.6943359,0,1.5898438-.0107422,2.6855469-.0322266,1.3964844-.0214844,2.1875-.0361328,2.3740234-.0429688h.1074219c.1933594,0,.2900391.1035156.2900391.3115234.0214844.3369141.0322266.6835938.0322266,1.0419922,0,.3505859-.0107422.6943359-.0322266,1.03125,0,.2216797-.1035156.3330078-.3115234.3330078h-.0859375c-2.1982422-.0283203-3.8349609-.0429688-4.9091797-.0429688h-7.9169922l-3.2333984.2685547c-.2792969,0-.4472656-.1542969-.5048828-.4619141-.1289062-.5800781-.2402344-1.4716797-.3330078-2.6748047Z"/>
      <path class="cls-1" d="m176.0402736,62.2614238c2.0625-1.8261719,3.6523438-4.0107422,4.7695312-6.5527344.5947266-1.3320312.9277344-2.4169922.9990234-3.2548828,1.2314453.4365234,2.1376953.8095703,2.7177734,1.1171875.1787109.0791016.2685547.1972656.2685547.3544922,0,.1503906-.0751953.296875-.2255859.4404297-.2080078.2080078-.4619141.6552734-.7626953,1.3427734-1.3535156,3.0507812-2.921875,5.5146484-4.7050781,7.390625-.2001953.2216797-.4082031.3330078-.6230469.3330078-.1650391,0-.3330078-.0712891-.5048828-.2148438-.4794922-.3867188-1.1240234-.7050781-1.9335938-.9560547Zm11.2470703-8.3574219c.2431641-.1650391.6054688-.4121094,1.0849609-.7412109.3222656-.2148438.5439453-.3652344.6660156-.4511719.1142578-.0859375.21875-.1289062.3115234-.1289062.1005859,0,.2109375.0576172.3330078.171875,2.2705078,2.2773438,4.1103516,4.9697266,5.5214844,8.078125.0576172.1005859.0859375.2041016.0859375.3115234,0,.1289062-.0712891.2470703-.2148438.3544922-.5087891.4013672-1.1171875.7880859-1.8261719,1.1601562-.1074219.0498047-.1933594.0751953-.2578125.0751953-.1289062,0-.2216797-.0898438-.2792969-.2685547-1.5537109-3.5166016-3.3623047-6.3701172-5.4248047-8.5615234Zm3.1582031-3.0078125l1.1708984-.8164062c.0429688-.0361328.0859375-.0537109.1289062-.0537109.0576172,0,.125.0322266.2041016.0966797.7519531.5800781,1.4462891,1.3642578,2.0839844,2.3525391.0429688.0644531.0644531.1181641.0644531.1611328,0,.0712891-.0429688.1357422-.1289062.1933594l-.9238281.6767578c-.0644531.0498047-.1220703.0751953-.171875.0751953-.0712891,0-.1396484-.046875-.2041016-.1396484-.6806641-1.0458984-1.421875-1.8945312-2.2236328-2.5458984Zm2.0302734-1.4609375l1.0957031-.7841797c.0576172-.0361328.1035156-.0537109.1396484-.0537109.0498047,0,.1142578.0322266.1933594.0966797.8525391.6445312,1.5507812,1.4003906,2.0947266,2.2666016.0429688.0644531.0644531.125.0644531.1826172,0,.0712891-.046875.1435547-.1396484.2148438l-.8808594.6767578c-.0644531.0498047-.1220703.0751953-.171875.0751953-.0712891,0-.1357422-.046875-.1933594-.1396484-.6230469-.9814453-1.3574219-1.8261719-2.2021484-2.5351562Z"/>
      <path class="cls-1" d="m201.5480861,48.8014629c1.4179688.171875,2.3310547.3261719,2.7392578.4619141.2509766.0644531.3759766.1826172.3759766.3544922,0,.0712891-.0322266.1826172-.0966797.3330078-.1572266.3369141-.2363281,1.03125-.2363281,2.0839844v4.4472656c0,.2724609.0175781,1.1962891.0537109,2.7714844,0,.2939453-.1572266.4404297-.4726562.4404297h-1.7724609c-.2724609,0-.4082031-.1074219-.4082031-.3222656v-.0537109l.0644531-2.9970703v-4.3076172c0-1.3535156-.0820312-2.4238281-.2470703-3.2119141Zm1.1171875,16.4570312c2.4707031-.7587891,4.2578125-1.8300781,5.3603516-3.2119141.9882812-1.2177734,1.4824219-3.1757812,1.4824219-5.8759766v-4.1572266c0-1.5830078-.0820312-2.7783203-.2470703-3.5878906,1.2246094.1074219,2.1806641.2685547,2.8681641.4833984.2001953.0644531.3007812.1894531.3007812.3759766,0,.1357422-.0283203.2539062-.0859375.3544922-.1289062.3076172-.1933594,1.1064453-.1933594,2.3955078v4.0927734c0,1.7685547-.1572266,3.2333984-.4726562,4.3935547-.2792969,1.0527344-.7197266,1.9804688-1.3212891,2.7822266-.5654297.7587891-1.3320312,1.4677734-2.2988281,2.1269531-.8232422.5654297-1.6689453,1.0097656-2.5351562,1.3320312-.1933594.0712891-.3476562.1074219-.4619141.1074219-.1787109,0-.3544922-.0898438-.5263672-.2685547-.5224609-.5224609-1.1455078-.9707031-1.8691406-1.3427734Z"/>
      <path class="cls-1" d="m229.054922,53.8395488v7.4980469h3.1474609c.9306641,0,2.4101562-.0283203,4.4365234-.0859375h.0644531c.1933594,0,.2900391.1181641.2900391.3544922.0146484.3007812.0214844.5947266.0214844.8808594,0,.2792969-.0068359.5693359-.0214844.8701172,0,.2646484-.1113281.3974609-.3330078.3974609-1.3818359-.0576172-2.8613281-.0859375-4.4365234-.0859375h-8.8515625c-.2939453,0-.9130859.0146484-1.8583984.0429688-.8876953.0214844-1.6181641.0361328-2.1914062.0429688h-.0859375c-.1357422,0-.2294922-.0361328-.2792969-.1074219-.0283203-.0498047-.0605469-.1611328-.0966797-.3330078-.1005859-.5654297-.1503906-1.2529297-.1503906-2.0625,1.3037109.0712891,2.8574219.1074219,4.6621094.1074219h2.9970703v-7.5195312h-1.71875c-1.0888672,0-2.2236328.0283203-3.4052734.0859375-.1865234.0146484-.3115234-.1396484-.3759766-.4619141-.1220703-.5869141-.1826172-1.2675781-.1826172-2.0410156.5869141.0576172,1.8583984.0859375,3.8134766.0859375h6.2197266c1.7041016,0,2.9902344-.0214844,3.8564453-.0644531h.0429688c.1572266,0,.2363281.1181641.2363281.3544922.0146484.2861328.0214844.5732422.0214844.859375,0,.2792969-.0068359.5625-.0214844.8486328-.0214844.2792969-.1220703.4189453-.3007812.4189453-1.3037109-.0576172-2.5673828-.0859375-3.7919922-.0859375h-1.7080078Z"/>
      <path class="cls-1" d="m240.0822657,56.1276347c1.1455078.1787109,2.7285156.2685547,4.7480469.2685547h7.0898438c.6943359,0,1.5898438-.0107422,2.6855469-.0322266,1.3964844-.0214844,2.1875-.0361328,2.3740234-.0429688h.1074219c.1933594,0,.2900391.1035156.2900391.3115234.0214844.3369141.0322266.6835938.0322266,1.0419922,0,.3505859-.0107422.6943359-.0322266,1.03125,0,.2216797-.1035156.3330078-.3115234.3330078h-.0859375c-2.1982422-.0283203-3.8349609-.0429688-4.9091797-.0429688h-7.9169922l-3.2333984.2685547c-.2792969,0-.4472656-.1542969-.5048828-.4619141-.1289062-.5800781-.2402344-1.4716797-.3330078-2.6748047Z"/>
      <path class="cls-1" d="m260.8537501,56.2135722c.0429688-.0644531.2861328-.4619141.7304688-1.1923828.1933594-.3154297.3398438-.5410156.4404297-.6767578.1074219-.1503906.21875-.2255859.3330078-.2255859.0283203,0,.0537109.0039062.0751953.0107422,1.5253906.5087891,2.9365234,1.2285156,4.2324219,2.1591797.1572266.1142578.2363281.2216797.2363281.3222656,0,.0498047-.0283203.1328125-.0859375.2470703-.1865234.4511719-.5087891,1.0097656-.9667969,1.6757812-.1220703.1435547-.21875.2148438-.2900391.2148438-.0644531,0-.1503906-.0429688-.2578125-.1289062-1.2529297-.9238281-2.7353516-1.7255859-4.4472656-2.40625Zm1.7402344,7.3691406c.9306641-.1787109,1.9267578-.5371094,2.9863281-1.0742188,2.3779297-1.2529297,4.3867188-2.5205078,6.0263672-3.8027344,2.2705078-1.7333984,4.3828125-3.78125,6.3378906-6.1445312.1005859.6943359.3154297,1.5185547.6445312,2.4707031.0712891.171875.1074219.3115234.1074219.4189453,0,.171875-.0791016.3398438-.2363281.5048828-1.6757812,1.7900391-3.5410156,3.484375-5.5966797,5.0810547-1.7041016,1.2958984-3.8955078,2.6748047-6.5742188,4.1357422-.7734375.4150391-1.1992188.6660156-1.2783203.7519531-.1142578.1142578-.2324219.171875-.3544922.171875-.1572266,0-.3046875-.0898438-.4404297-.2685547-.4150391-.4150391-.9560547-1.1640625-1.6220703-2.2451172Zm.9238281-12.5361328l1.1601562-1.7617188c.1005859-.1650391.2041016-.2470703.3115234-.2470703.0644531,0,.1464844.0253906.2470703.0751953,1.6689453.6728516,3.046875,1.4863281,4.1357422,2.4384766.1142578.0791016.171875.1757812.171875.2900391,0,.0927734-.0283203.1865234-.0859375.2792969-.4228516.7587891-.7988281,1.3105469-1.1279297,1.6542969-.0498047.0859375-.1220703.1289062-.2148438.1289062s-.2041016-.0498047-.3330078-.1503906c-1.375-1.1386719-2.796875-2.0410156-4.2646484-2.7070312Z"/>
      <path class="cls-1" d="m293.5920314,58.8561504v-2.2128906h-5.0810547c-.3867188,0-.9414062.0214844-1.6650391.0644531-.6591797.0361328-1.1318359.0576172-1.4179688.0644531-.1933594.0214844-.3046875-.1464844-.3330078-.5048828-.0283203-.3652344-.0644531-.9667969-.1074219-1.8046875.8378906.0712891,2.0126953.1074219,3.5234375.1074219h3.8242188c1.5253906,0,2.6103516-.0146484,3.2548828-.0429688.2216797,0,.3330078.0966797.3330078.2900391v.0644531l-.0429688,2.8789062v5.0703125c0,.6162109.0283203,1.6582031.0859375,3.1259766,0,.171875-.0390625.2832031-.1181641.3330078-.0644531.0429688-.1865234.0712891-.3652344.0859375-.4726562.0283203-.9707031.0429688-1.4931641.0429688-.1787109,0-.2939453-.0253906-.34375-.0751953-.0361328-.0429688-.0537109-.125-.0537109-.2470703v-.6660156h-5.2099609c-.8955078,0-1.9082031.0361328-3.0400391.1074219-.1865234,0-.2900391-.1464844-.3115234-.4404297-.0712891-.4873047-.1074219-1.0957031-.1074219-1.8261719.7949219.0576172,1.9765625.0859375,3.5449219.0859375h5.1240234v-2.4277344h-4.6621094c-.7304688,0-1.7363281.0283203-3.0185547.0859375-.2294922,0-.3544922-.1611328-.3759766-.4833984-.0576172-.3867188-.0859375-.9814453-.0859375-1.7832031.9882812.0712891,2.1337891.1074219,3.4375.1074219h4.7050781Z"/>
      <path class="cls-1" d="m303.4162501,52.07783c.3652344-.4443359.8769531-1.0166016,1.5361328-1.71875.0927734-.1142578.1972656-.171875.3115234-.171875.0644531,0,.1611328.0361328.2900391.1074219,1.3681641.7304688,2.7675781,1.7724609,4.2001953,3.1259766.1289062.1289062.1933594.2324219.1933594.3115234s-.0429688.171875-.1289062.2792969c-.4794922.6376953-.9345703,1.1884766-1.3642578,1.6542969-.1220703.1142578-.2109375.171875-.2685547.171875-.0712891,0-.1650391-.0576172-.2792969-.171875-1.3388672-1.3818359-2.8359375-2.578125-4.4902344-3.5878906Zm.4833984,10.9785156c1.1748047-.3222656,2.1660156-.6875,2.9755859-1.0957031,1.4179688-.7373047,2.5957031-1.4140625,3.5341797-2.0302734.8232422-.5371094,1.7548828-1.2246094,2.7929688-2.0625,1.4755859-1.1962891,2.6464844-2.2275391,3.5126953-3.09375.8232422-.8310547,1.6650391-1.7939453,2.5244141-2.8896484.1142578.9667969.3183594,1.8222656.6123047,2.5673828.0712891.171875.1074219.3115234.1074219.4189453,0,.1650391-.1181641.3867188-.3544922.6660156-1.2822266,1.4970703-2.96875,3.0507812-5.0595703,4.6621094-1.8193359,1.4248047-4.0322266,2.8613281-6.6386719,4.3076172-.7734375.4658203-1.2636719.8056641-1.4716797,1.0205078-.1503906.1435547-.2832031.2148438-.3974609.2148438s-.2402344-.0791016-.3759766-.2363281c-.6806641-.7666016-1.2675781-1.5830078-1.7617188-2.4492188Z"/>
      <path class="cls-1" d="m334.0598048,48.3610332l-.5908203,13.0947266h-2.2236328l-.6123047-13.0947266h3.4267578Zm-3.2978516,15.2324219h3.1259766v2.9648438h-3.1259766v-2.9648438Z"/>
    </g>
    <g class="cls-4">
      <g>
        <path class="cls-1" d="m59.3902859,16.8823667c.9788524.2524556.5936428-5.0513486.8209676-5.4312713.0155124-.2683552-.1892952-.4984812-.4576293-.5140992-.9794203-.2529839-.5932436,5.0515943-.8209674,5.4312676-.0154871.2683478.1893194.4984742.4576291.5141029Z"/>
        <path class="cls-1" d="m67.5490094,24.4997321c.2501502.0977755.5324678-.025917.6301729-.2760931l7.0839138-18.0560948c.0978909-.2502439-.0257678-.5324905-.2760931-.6301729-.2502895-.0979898-.5325116.0256581-.6301503.2760832l-7.0840436,18.0558599c-.0977503.2505032.0257904.5324806.2762003.6304176Z"/>
        <path class="cls-1" d="m105.6715689,6.5300403c.0486104.3487961-7.7526096,5.7922648-4.9194819,5.6472712.4115262-.5495814,8.0217014-6.200572,4.9194819-5.6472712Z"/>
        <path class="cls-1" d="m148.5461932,8.0994117l-51.0738464,23.4494474c-1.8949074,3.69549,51.2596854-23.3248425,51.4645465-22.5565222.5669721-.2395971.1943801-1.1597277-.3907001-.8929252Z"/>
        <path class="cls-1" d="m10.9904464,47.1326868c.6241354.0478929.6908829-.944366.0565042-.9716019-.3323659.191834-8.0826125-.9973365-7.7792589.0331411-.4487035.984205,7.4438199.7129443,7.7227548.9384608Z"/>
        <path class="cls-1" d="m24.9569389,37.3516866c.5786062.2360044.9497079-.6839109.353917-.9065293.0000555.0000186-24.1977758-9.245668-24.1977758-9.245668-.2502876-.0979906-.5325342.025668-.6301729.2760931-.0978683.250234.0257904.5324806.2760931.6301729l24.1979386,9.2459313Z"/>
        <path class="cls-1" d="m25.8573982,14.3064305c.4157685.4769989,1.1529998-.1820035.7268906-.6469469-.3706596-.0992495-5.0108197-6.4217534-5.5250694-5.4783483-1.0130562.3782442,4.7606101,5.7688421,4.7981788,6.1252952Z"/>
        <path class="cls-1" d="m88.9222621,35.2948463l-9.7610974,4.2765595c-.3937678-.8518924-.8333831-1.6688223-1.3121796-2.4515519.1769275-.6397827,46.114948-27.7398288,45.2782724-28.8357411-.6752344-1.2354776-45.1243204,28.1620635-45.8027337,28.0160239-.5201318-.7770161-1.0804944-1.5170968-1.6786482-2.2168776.062298-.6173738,21.8283267-18.1680088,20.8376656-19.06284-.8360095-1.0887316-20.8210413,18.3526003-21.4860908,18.3369278-.6341881-.6830308-1.3049252-1.3243224-2.0076628-1.9227467-.0056757-.7144841,18.5494625-22.4386675,17.4989373-23.2641792-.987612-.9552312-17.6207726,22.5470222-18.2523518,22.6480849-.7318361-.5733666-1.4943319-1.10247-2.2835504-1.5847179-.05607-.3760417,6.2434094-9.3125368,5.103437-9.4821056-.648723-.941918-5.6213849,8.9058872-5.9440467,8.9917468-.8105666-.4512814-1.6461046-.8546371-2.5018561-1.2090599,1.2756461-2.1939948-.220009-2.7348532-.9065688-.3537721-.8693743-.3196072-1.7571226-.589279-2.6589315-.8070258l3.8028233-17.7359084c.0573917-.2623975-.108841-.5218496-.3714283-.5792748-1.1940557-.1243878-3.9223534,17.5290741-4.381567,18.1048872-.907084-.1805215-1.8262537-.3091375-2.7529134-.3837487-.1888553-.3622921.9530369-7.5759502-.0706013-7.3152813-.9853357-.4034384-.6759508,6.9537781-.9008433,7.2582204-.922435-.0364727-1.8504517-.0193101-2.7798149.0528993-2.2473193-23.5155603-4.1375574-23.0197547-.9684083.094537-.9142038.1089405-1.8280232.2713527-2.7372545.4899742C51.2998405,25.7693438,45.8307998-.1760063,44.5166609.0009006c-1.2003621.4976533,6.6386683,25.8410593,6.4271575,26.6070757-.8825.2508078-1.759127.5544326-2.6259896.9136322-.3350416-.1690302-4.9257972-13.1806017-5.7283687-12.3297325-1.1631472-.1259633,4.9706531,12.4607866,4.836994,12.720264-.8517486.3937632-1.6692374.8323691-2.4518798,1.3110982l-12.0134654-19.8170268c-.1450479-.2264108-.4474717-.2918756-.6721775-.1471371-.8976774.928908,11.7872056,19.6227909,11.8653119,20.4877566-.7771028.5202-1.5160681,1.0819105-2.215936,1.6801316-.3263273-.0149334-7.9209149-8.9082296-8.2800328-7.8432622-1.1699269.3712226,7.5788883,8.1636905,7.5540668,8.4910984-.6831287.634231-1.3248181,1.3047924-1.9233296,2.0075973-.7004565.0214162-31.3452035-26.6473645-32.1640557-25.5414978-.9514127,1.0289451,31.4561714,25.6144361,31.5474165,26.2943344-.5733666.7318361-1.1019527,1.4947469-1.584192,2.2839919-.8287466-.0086244-20.8723187-12.7945506-21.6720454-11.7701943-.1370735.2323341-.05902.5303903.1727709.6661195l21.0097015,11.9451267c-.4512682.8105608-.8548378,1.6459593-1.2092396,2.5016723-.4071239.0648871-6.7755556-3.2017997-6.853391-2.1516473-.6775331.8142182,6.2734024,2.7485383,6.4988963,3.0579785-.3196066.8693157-.589517,1.7570519-.8072501,2.6588257l-22.1317145-4.5324217c-.2625872-.0574252-.5217272.1087874-.5792748.3714283-.0573809.262422.108841.5218496.3714283.5792748l22.1301753,4.5321043c-.180546.9070948-.3084843,1.8263467-.3830845,2.7530315l-19.9795133-1.2947634c-.2680251-.0155784-.4984065.1893119-.5140094.4573478-.0157159.2683771.1890779.4985382.457455.5142541l19.9782007,1.2946967c-.0364774.9222912-.0197753,1.8501888.0524156,2.7794434C33.1904518,51.9876024-.2333333,54.4772322.0012288,55.8185453c.0571983,1.3860557,33.1778934-3.7625885,33.7225604-3.3682635.1089328.9141197.2731118,1.8277775.4916904,2.7369109-.6297664.5329869-19.0768719,4.958743-18.9282626,6.1336499.7654592,1.1213274,18.2192379-5.3055808,19.1753363-5.192432.2508369.882633.5533666,1.7596233.9126795,2.6266112-.2661252.6400449-35.1287844,15.8345068-34.5162456,17.0473524.5053076,1.3569973,34.6999176-16.5779707,35.3492712-16.3487912-3.9195496-11.6662119-.4360186-25.5715298,12.0528894-30.8508744,12.3437412-5.5947474,24.9326626,1.2594316,30.848466,12.0542305-.4782973-.1417657,13.6351462-5.0070801,9.8126483-5.3620926Z"/>
      </g>
    </g>
    <g>
      <g>
        <path class="cls-5" d="m18.6303124,23.0844467c-.2008955,2.2939595-.6347682,4.0311455-.5341883,7.2266207,2.2251086-1.4476344,3.9676135-4.3688279,3.0840601-7.0662231-.5163781-5.0970305-16.4248467.4049128-12.0113382,3.3809505.2320364.090039-.2282579.3790016-.4561124.4536892-5.8875724-.8856405,1.0869199-4.9475935,4.4600288-6.0236091,6.5162301-3.0223587,11.8710844,1.63142,8.2336658,7.4249937-.2579884.443408-.281973.7553852.2111239.5663295,2.0266678-.9269888,8.3228728-2.1005891,6.4890032.1701871-.5244002.1715065-2.8764865-.385432-5.906581.6070225-2.9694627.812938-2.7261326,2.0099435-4.1055255,1.482906.1652133,3.2225011-.0945434,6.7967282,1.1459741,9.2756359-2.7282881,5.6746052-2.4394068-17.0624014-1.772574-16.4262463-.550542-1.3533827.4824662-1.7973329,1.1624636-1.0722565Z"/>
        <path class="cls-5" d="m24.7280657,28.2218427c-.0572282-.1747708.241875-.4939787.4697295-.5685781,2.4012041-.231266,1.238352,2.6828898,1.5320194,5.1396083.0134056.2722889.1581955.2523605.2148064.0401136.4685831-1.3423487,2.9885622-5.8179614,4.0819817-6.1761445,2.3082448-.1271049,2.6533488,4.2865218-.067072,1.8748033-1.8483247,1.1498323-4.3437723,5.9142754-4.0010656,8.8876185-2.6040561,2.3500905-.6509153-6.9991127-1.8536105-8.7400367-.1220397.0124332-.3194725-.2824373-.3767888-.4573844Z"/>
        <path class="cls-5" d="m34.9936871,24.7490896c.5275364-3.4248683,3.6678885,3.6590386,8.4461361-.5540286-1.38643-2.1238093-.0145634-3.3095811,1.8292227-1.7330528-.5942212,2.7104232.6522703,5.3177782,2.7564955,7.3383464.2411113.1974128.4070642.0877181.4730221-.4038797,1.1478606-6.1404727,1.5667899-11.1801064,3.8825208-8.7107613.843206.4075544,2.348668.9474731,1.0738053,1.5841118-.6035091-.0024892-1.9180724-1.367275-2.4399408.329013-.3634072.8934359-1.4194388,4.4470491-1.5099104,7.0209938-1.0889025,3.7354122-3.947325-.0346933-5.6131216-4.6604358-1.0081504.7728006-2.0152426,1.2408547-3.0113124,1.5117406,1.4779024,2.7029447-4.9134055,13.4086981-6.5126579,5.1473745-.2057873-1.3981803.3788394-3.3872337-.4227958-5.8347297-.1389701-.4244936.5863903-.8280889,1.0485363-1.0346922Zm1.122254,1.346934c.3854596,1.3058542-1.5753963,4.8186985.2411976,7.3599287.5659929.7271426,1.3085481-.3178665,1.8475863-1.2136769.2957399-.6899441,2.3432174-3.9622622,1.2516125-5.4982244-1.2062885.0910007-2.3285425-.1774161-3.3403964-.6480274Z"/>
        <path class="cls-5" d="m64.5839099,18.7352827c-.216897,2.1823899-7.5356314,14.0092855-9.9822155,6.7261554-.5899602-2.6270688.3051825-7.2249362,2.8578232-8.3749911,4.0079711,1.5974605,1.302759,5.6160064-1.2757144,8.6588888,2.4630546,2.717695,6.618779-4.2211497,7.9257919-7.379964.1740653-.08474.6689258-.1915248.4743148.3699109Zm-8.7437402,5.9610759c1.1899754-1.2192509,3.0772703-4.1603728,2.6157415-5.7237862-2.1251018-1.6495216-3.0897353,2.8465631-2.6157415,5.7237862Z"/>
        <path class="cls-5" d="m72.7871129,22.9065897c.6753629-.2486647,1.4154491-.684798,2.2227277-1.9168348,1.1007892.6503838-1.6948608,2.9660092-2.1603853,3.0304769-2.8628181.4674801-3.4136515-4.548845-3.7767941-6.7551573-.6426485,1.4272651-1.2805353,2.7148547-1.5881917,4.7789484.1905548,1.0438629-.1420563.8760582-.3545677,1.3054017-3.40756,3.782627-2.6896323-6.812583-2.8227366-7.9245168,3.0282757-2.4941918.8540669,5.0570403,1.620689,6.4097562.6939135,1.6060288,2.9479632-8.2203549,3.244669-7.4221975,1.2069171-.453248,1.4442838.9629249,1.3184154,1.94566-.1647249,1.9620977.7953679,6.8188199,2.2961743,6.5484632Z"/>
        <path class="cls-5" d="m84.9622502,15.0198611c1.4283754,4.1892264,4.2829827.9735896,4.7716295-2.5306488,2.1297949,1.6245899-3.4476191,9.1434036-5.6571229,3.6778574-12.3803671,15.5545884-9.7289954-10.0112499-3.7055192-4.1511416.3787084,1.0654728-1.0551849,1.7698176-1.627105.8095989-4.4946302,3.4769279-2.4489381,12.5492292,5.0363429,2.3601106-.9306482-3.053728,1.0573096-9.9298487,4.5981221-6.3731625-.1530101,2.181233-1.9794593,3.921304-3.4163473,6.207386Zm-.2360551-1.0287842c1.4948102-1.9828809,2.616976-3.8714103,2.394324-4.6282505-1.5016322-1.7559788-2.7338808,2.490196-2.394324,4.6282505Z"/>
      </g>
      <g>
        <path class="cls-1" d="m18.6266971,23.0847113c-.2008962,2.2938928-.6350332,4.0313447-.5341883,7.2266207,2.2251086-1.4477226,3.9675254-4.3689161,3.0841483-7.0663113-.5165072-5.0969331-16.4253232.404869-12.0113381,3.3811267.2319481.0898628-.2284344.3789135-.4562889.4535129-5.8873805-.8855121,1.0872185-4.9474459,4.4600288-6.0236091,6.5162085-3.0223799,11.8712602,1.6315145,8.2336659,7.4250819-.2579884.4433198-.2819731.7554734.2111238.5662413,2.0267973-.9267233,8.323104-2.1004217,6.4890032.1704517-.5244001.1714183-2.8763983-.3856966-5.9064928.6067579-2.9695615.8129151-2.7260896,2.0102102-4.1056136,1.482906.1653207,3.222901-.0945028,6.796777,1.1460623,9.2758122-2.728357,5.6739117-2.4394482-17.0622838-1.7726622-16.4264227-.5503755-1.3535184.4826242-1.797203,1.1625518-1.0721683Z"/>
        <path class="cls-1" d="m24.7244504,28.2221072c-.0573163-.1747708.2417868-.4939787.4696413-.5685781,2.4013381-.231413,1.238349,2.6829914,1.5321958,5.1396083.0133173.2722007.1581954.2525368.2148063.04029.4684068-1.3425251,2.9883859-5.8181378,4.0818935-6.1763208,2.308254-.1270271,2.6533445,4.2865542-.0671601,1.8748032-1.8484581,1.149884-4.3436063,5.9143315-4.0010657,8.8875304-2.6038783,2.3503526-.6509403-6.9990055-1.8534341-8.7398603-.1222161.0123451-.3195607-.2825255-.376877-.4574726Z"/>
        <path class="cls-1" d="m34.9900718,24.749266c.527686-3.4245144,3.6680095,3.6591939,8.4461361-.5538522-1.3863392-2.123831-.0147256-3.3097563,1.8292227-1.733141-.5942498,2.7101388.6523236,5.3179905,2.7564073,7.3382583.2411114.1974128.4070642.0878063.4730221-.4038797,1.1480048-6.1405397,1.5666664-11.1796146,3.882609-8.7106731.8433635.4075471,2.3484886.9475097,1.0737172,1.5841118-.6033574-.0025121-1.9182455-1.3674371-2.4398526.3291011-.3634954.8932597-1.4194388,4.446961-1.5098222,7.0208175-1.0887244,3.7355771-3.9478004-.0346546-5.6131216-4.6603477-1.0082385.7727125-2.0153308,1.2410311-3.0114006,1.5118287,1.4778587,2.7027223-4.9133763,13.4087956-6.5127458,5.1471981-.2056994-1.3981803.3789273-3.3871455-.4226197-5.8344651-.1391464-.4244936.5863903-.8283534,1.0484482-1.0349568Zm1.1223422,1.346934c.3851764,1.306062-1.5755276,4.8187338.2411093,7.360105.5659048.7269662,1.3085482-.3180429,1.8476746-1.2138533.2957546-.6897649,2.3428748-3.9622061,1.2516125-5.498048-1.2062885.0909125-2.3286307-.1775925-3.3403964-.6482037Z"/>
        <path class="cls-1" d="m64.5802945,18.7355472c-.2168311,2.1823897-7.5358375,14.0092907-9.9821274,6.7260673-.5901835-2.6270533.3052845-7.2246377,2.8577351-8.3749911,4.0078925,1.597648,1.3029027,5.615893-1.2757144,8.658977,2.4629472,2.7176997,6.6188849-4.2210169,7.9257037-7.3800522.1740653-.08474.669014-.1913484.474403.369999Zm-8.743652,5.9610759c1.1898873-1.219339,3.0771821-4.160461,2.6155651-5.7237862-2.1249154-1.6496009-3.0896648,2.8465149-2.6155651,5.7237862Z"/>
        <path class="cls-1" d="m72.7834094,22.9070306c.675451-.2489293,1.4154491-.6848862,2.2228159-1.9170994,1.1012274.6502595-1.6948902,2.966087-2.1603853,3.0304769-2.8629299.467579-3.4135767-4.548853-3.7768822-6.7550692-.6424721,1.4273533-1.2803589,2.7148547-1.5881036,4.7789484.1904666,1.0438629-.1419682.8760582-.3545677,1.3053135-3.4075912,3.7828061-2.6895728-6.8121942-2.8227365-7.9243404,3.0282779-2.4941709.8541129,5.057052,1.6206007,6.4096681.6936556,1.6072324,2.9481232-8.220575,3.2447572-7.4221977,1.2069482-.4533926,1.4441582.962978,1.3183273,1.9458364-.1645486,1.9618332.7955442,6.8187319,2.2961742,6.5484633Z"/>
        <path class="cls-1" d="m84.9586349,15.0200374c1.4282577,4.1892552,4.2829495.9736113,4.7715414-2.5305606,2.1301594,1.6241344-3.4472892,9.1435407-5.6570348,3.6780337-12.3803353,15.554224-9.7289255-10.0113426-3.7056075-4.1514062.3790092,1.0652953-1.05506,1.7698903-1.6270168.8096871-4.4946779,3.4769347-2.4491018,12.5491627,5.0363429,2.3601106-.9305609-3.0537098,1.0571906-9.9298621,4.5981221-6.3731624-.152839,2.1811942-1.979546,3.921251-3.4163473,6.2072978Zm-.235967-1.0286961c1.494722-1.9829691,2.6168878-3.8714103,2.3942359-4.6282505-1.5017509-1.7555194-2.7338537,2.4900296-2.3942359,4.6282505Z"/>
      </g>
    </g>
  </g>
</svg>