<?xml version="1.0" encoding="utf-8"?>
<!-- Generator: Adobe Illustrator 28.0.0, SVG Export Plug-In . SVG Version: 6.00 Build 0)  -->
<svg version="1.1" id="_レイヤー_2" xmlns="http://www.w3.org/2000/svg" xmlns:xlink="http://www.w3.org/1999/xlink" x="0px"
	 y="0px" viewBox="0 0 149.2 75.9" style="enable-background:new 0 0 149.2 75.9;" xml:space="preserve">
<style type="text/css">
	.st0{fill:#34403B;}
</style>
<g id="equipment">
	<g>
		<g>
			<path class="st0" d="M75.1,64.4c-0.3,0.5-0.6,1.1-0.6,1.7c-0.1,0.4-0.2,0.7-0.3,0.7c-0.1,0.1-0.3,0.1-0.7,0.1
				c-3.1,0.2-6.2,0.3-9.1,0.3c-3,0-5-0.2-6.1-0.7c-1.1-0.4-2-1.2-2.7-2.3c-0.5,0.6-1.3,1.3-2.4,2.2c-0.3,0.3-0.5,0.4-0.5,0.5
				c-0.1,0.2-0.2,0.3-0.4,0.3c-0.1,0-0.3-0.1-0.4-0.3c-0.3-0.6-0.7-1.4-1.1-2.4c0.7-0.3,1.2-0.6,1.5-0.9c0.6-0.4,1.2-0.9,2-1.6v-5.8
				h-1.1l-1.8,0.1c-0.2,0-0.2,0-0.3-0.1c0,0,0-0.1,0-0.3v-2c0-0.1,0-0.2,0.1-0.2c0,0,0.1,0,0.3,0l1.8,0.1h1.5l1.9-0.1
				c0.1,0,0.2,0,0.2,0.1s0,0.1,0,0.2l-0.1,2.5v5.7c0.4,1,1.2,1.7,2.4,2.2c1,0.3,2.6,0.5,4.8,0.5C67.9,65,71.6,64.8,75.1,64.4z
				 M51.6,46.4c-0.1-0.1-0.1-0.1-0.1-0.2s0.1-0.1,0.3-0.3l1.3-1c0.2-0.1,0.3-0.2,0.4-0.2c0.1,0,0.1,0,0.2,0.1
				c1.3,1.2,2.4,2.5,3.3,3.9C57,48.9,57,49,57,49c0,0.1-0.1,0.2-0.2,0.3l-1.4,1.1c-0.2,0.1-0.3,0.2-0.3,0.2c-0.1,0-0.2-0.1-0.2-0.2
				C53.8,48.8,52.7,47.4,51.6,46.4z M62.4,46.7H60l-2.3,0.1c-0.1,0-0.2,0-0.3-0.1c0,0,0-0.1,0-0.2v-1.4c0-0.1,0-0.2,0.1-0.2
				c0,0,0.1,0,0.2,0l2.3,0.1h2.7l1.8-0.1c0.2,0,0.2,0,0.3,0.1c0,0,0,0.1,0,0.2l-0.1,1.7v1.1l0.1,1.7c0,0.1,0,0.2-0.1,0.2
				c0,0-0.1,0-0.3,0l-1.8-0.1H60v0.6c0,0.5,0.1,0.8,0.2,0.9c0.1,0.1,0.6,0.2,1.3,0.2c0.8,0,1.3-0.1,1.4-0.2c0.1-0.1,0.2-0.5,0.2-1.2
				c0.5,0.2,1,0.4,1.7,0.6c0.3,0.1,0.5,0.2,0.5,0.4c0,0.1,0,0.2-0.1,0.4c-0.1,0.5-0.3,0.9-0.5,1.2c-0.2,0.2-0.6,0.4-1.2,0.4
				c-0.4,0.1-1.1,0.1-2.1,0.1c-1.8,0-2.8-0.1-3.1-0.4c-0.4-0.3-0.6-1-0.6-2v-1.4l-0.1-1c0-0.1,0-0.2,0.1-0.2c0,0,0.1,0,0.3,0
				l1.7,0.1h2.8V46.7z M61.6,60.6L58,60.6c-0.1,0-0.2,0-0.2-0.1c0,0,0-0.1,0-0.3v-1.4c0-0.1,0-0.2,0.1-0.2s0.1,0,0.2,0l3.6,0.1h0.3
				V57l-3,0.1c-0.2,0-0.2,0-0.3-0.1c0,0-0.1-0.1-0.1-0.3v-1.4c0-0.1,0-0.2,0.1-0.2c0,0,0.1,0,0.3,0l3,0.1c0-0.5-0.1-1.1-0.2-1.7
				c1,0.1,1.8,0.1,2.4,0.2c0.3,0,0.4,0.1,0.4,0.3c0,0.1-0.1,0.2-0.2,0.4c-0.1,0.2-0.1,0.4-0.1,0.8h3.3c0-0.6-0.1-1.2-0.2-1.7
				c1.1,0.1,1.9,0.1,2.4,0.2c0.3,0,0.4,0.1,0.4,0.3c0,0.1-0.1,0.2-0.2,0.4c-0.1,0.1-0.1,0.4-0.1,0.8v0.1c0.9,0,1.6,0,2.3-0.1
				c0.1,0,0.3,0,0.5,0h0.2c0.2,0,0.2,0,0.3,0.1s0,0.1,0,0.2v1.4c0,0.2,0,0.2,0,0.3c0,0-0.1,0-0.3,0c0,0-0.2,0-0.4,0
				c-0.8,0-1.6,0-2.6,0v1.6h0.5l3.6-0.1c0.1,0,0.2,0,0.2,0.1s0,0.1,0,0.2v1.4c0,0.1,0,0.2,0,0.3c0,0-0.1,0.1-0.2,0.1l-3.6-0.1H69
				c1.4,0.8,3.1,1.5,5.2,1.9c-0.4,0.4-0.7,0.9-0.9,1.4c-0.2,0.4-0.4,0.6-0.6,0.6c-0.1,0-0.3-0.1-0.6-0.2c-1.7-0.6-3.4-1.4-4.9-2.4
				c-0.1-0.1-0.1-0.1-0.1-0.2c0,0,0.1-0.1,0.2-0.3l0.9-0.9h-5c0.5,0.3,1,0.6,1.3,0.9c0.2,0.2,0.4,0.3,0.4,0.4c0,0.1-0.1,0.2-0.3,0.3
				c-0.1,0-0.2,0.1-0.4,0.2c-0.2,0.1-0.3,0.2-0.4,0.3c-0.9,0.6-1.9,1.1-3.2,1.6c-0.3,0.1-0.5,0.2-0.6,0.2c-0.2,0-0.4-0.2-0.7-0.6
				c-0.3-0.4-0.7-0.8-1.2-1.1c1.6-0.4,2.8-0.9,3.8-1.4c0.3-0.2,0.7-0.4,1-0.7H61.6z M64.2,58.7h3.3V57h-3.3V58.7z M71,46.7h-2.4
				l-2.2,0.1c-0.2,0-0.2,0-0.3-0.1c0,0,0-0.1,0-0.2v-1.4c0-0.1,0-0.2,0.1-0.2c0,0,0.1,0,0.3,0l2.2,0.1h2.8l1.8-0.1
				c0.1,0,0.2,0,0.3,0.1s0,0.1,0,0.2l-0.1,1.7v1.1l0.1,1.7c0,0.2-0.1,0.3-0.3,0.3l-1.8-0.1h-2.6v0.7c0,0.5,0.1,0.8,0.2,0.9
				c0.1,0.1,0.6,0.2,1.4,0.2c0.8,0,1.3-0.1,1.4-0.2c0.1-0.1,0.2-0.5,0.3-1.2c0.5,0.3,1.1,0.5,1.7,0.6c0.4,0.1,0.5,0.2,0.5,0.4
				c0,0.1,0,0.3-0.1,0.5c-0.1,0.5-0.3,0.9-0.5,1.1c-0.2,0.2-0.7,0.4-1.3,0.4c-0.5,0.1-1.2,0.1-2.2,0.1c-1.8,0-2.9-0.1-3.3-0.4
				c-0.4-0.3-0.6-1-0.6-2v-1.4l-0.1-1c0-0.1,0-0.2,0.1-0.2s0.1,0,0.2,0l1.7,0.1H71V46.7z"/>
			<path class="st0" d="M77,56.9c0.7-0.3,1.4-0.7,2.3-1.4c1.1-0.8,2.6-2.2,4.7-4c0.8-0.7,1.5-1.1,2.3-1.1c0.5,0,0.9,0.1,1.2,0.2
				c0.3,0.1,0.6,0.4,1.1,0.7c3.5,2.8,5.4,4.3,5.6,4.5c1.6,1.1,3.6,2.4,6.1,3.8c0.2,0.1,0.3,0.2,0.3,0.4c0,0.1,0,0.1-0.1,0.2
				c-0.3,0.9-0.8,1.8-1.3,2.5c-0.1,0.2-0.2,0.3-0.3,0.3c-0.1,0-0.2,0-0.4-0.1c-1.3-0.7-3.1-2.1-5.6-4c-1.3-1-3.1-2.5-5.5-4.6
				c-0.4-0.4-0.8-0.6-1.1-0.6c-0.2,0-0.5,0.2-0.9,0.5L81,58.4c-0.4,0.5-0.7,0.8-0.9,1.1c-0.1,0.2-0.3,0.3-0.5,0.3s-0.3-0.1-0.5-0.2
				C78.5,59.1,77.8,58.2,77,56.9z M92.4,49.1l1.4-1c0.1-0.1,0.1-0.1,0.2-0.1c0.1,0,0.1,0,0.2,0.1c0.9,0.7,1.7,1.6,2.5,2.8
				c0.1,0.1,0.1,0.1,0.1,0.2c0,0.1-0.1,0.2-0.2,0.2l-1.1,0.8c-0.1,0.1-0.1,0.1-0.2,0.1c-0.1,0-0.2-0.1-0.2-0.2
				C94.2,50.9,93.3,49.9,92.4,49.1z M94.8,47.4l1.3-0.9c0.1,0,0.1-0.1,0.2-0.1c0.1,0,0.1,0,0.2,0.1c1,0.8,1.8,1.7,2.5,2.7
				c0.1,0.1,0.1,0.2,0.1,0.2c0,0.1-0.1,0.2-0.2,0.3l-1,0.8c-0.1,0.1-0.1,0.1-0.2,0.1c-0.1,0-0.2-0.1-0.2-0.2
				C96.7,49.3,95.8,48.3,94.8,47.4z"/>
			<path class="st0" d="M115.5,48.5c-1.6,0.3-3.3,0.6-5,1c-0.4,0.1-0.8,0.2-1.1,0.3c-0.2,0.1-0.4,0.1-0.5,0.1
				c-0.3,0-0.4-0.1-0.6-0.4c-0.3-0.5-0.6-1.5-0.9-2.8c0.4,0.1,0.9,0.1,1.4,0.1c0.3,0,0.7,0,1,0c1.8-0.2,3.8-0.5,5.9-0.9
				c0.7-0.1,1.2-0.3,1.4-0.4c0.2-0.1,0.4-0.2,0.5-0.2c0.2,0,0.4,0.1,0.6,0.2c0.7,0.5,1.3,1.1,1.7,1.7c0.2,0.2,0.3,0.4,0.3,0.6
				c0,0.3-0.1,0.5-0.4,0.6c-0.3,0.1-0.7,0.4-1.1,0.8c-0.5,0.5-1.5,1.5-3,3c-1.1,1.1-2,1.9-2.7,2.6l0,0.1c1.4-0.8,2.8-1.2,4.1-1.2
				c2,0,3.7,0.6,4.9,1.9c1,1.1,1.6,2.6,1.6,4.3c0,2.3-0.9,4.1-2.8,5.4c-1.6,1.1-3.7,1.7-6.3,1.7c-1.8,0-3.1-0.4-4-1.1
				c-0.8-0.7-1.2-1.6-1.2-2.7c0-0.9,0.4-1.7,1.2-2.3c0.7-0.5,1.5-0.8,2.5-0.8c1.3,0,2.4,0.4,3.3,1.1c0.8,0.7,1.3,1.6,1.6,2.7
				c1-0.4,1.7-1,2.1-1.7c0.4-0.6,0.6-1.4,0.6-2.3c0-1.3-0.4-2.3-1.3-3c-0.7-0.6-1.7-0.9-2.8-0.9c-2.3,0-4.5,0.9-6.7,2.8
				c-0.3,0.3-1.1,1-2.3,2.2c-0.2,0.2-0.3,0.3-0.4,0.3s-0.2-0.1-0.4-0.2c-0.5-0.4-1-1-1.5-1.7c-0.1-0.1-0.1-0.1-0.1-0.2
				c0-0.1,0.1-0.2,0.2-0.4c1.9-1.6,4-3.5,6.2-5.7C113.2,51.2,114.6,49.7,115.5,48.5z M115.3,64.5c-0.3-1.5-1.1-2.2-2.2-2.2
				c-0.4,0-0.7,0.1-0.9,0.3c-0.2,0.2-0.3,0.4-0.3,0.7c0,0.9,0.8,1.3,2.3,1.3C114.6,64.6,114.9,64.6,115.3,64.5z"/>
			<path class="st0" d="M142.7,45.2L142,60.7h-2.6l-0.7-15.5H142.7z M138.8,63.2h3.7v3.5h-3.7C138.8,66.7,138.8,63.2,138.8,63.2z"/>
		</g>
		<g>
			<g>
				<path class="st0" d="M59.4,16.9c1,0.3,0.6-5.1,0.8-5.4c0-0.3-0.2-0.5-0.5-0.5c-1-0.3-0.6,5.1-0.8,5.4
					C58.9,16.6,59.1,16.9,59.4,16.9z"/>
				<path class="st0" d="M67.5,24.5c0.3,0.1,0.5,0,0.6-0.3l7.1-18.1c0.1-0.3,0-0.5-0.3-0.6c-0.3-0.1-0.5,0-0.6,0.3l-7.1,18.1
					C67.2,24.1,67.3,24.4,67.5,24.5z"/>
				<path class="st0" d="M105.7,6.5c0,0.3-7.8,5.8-4.9,5.6C101.2,11.6,108.8,6,105.7,6.5z"/>
				<path class="st0" d="M148.5,8.1L97.5,31.5C95.6,35.2,148.7,8.2,148.9,9C149.5,8.8,149.1,7.8,148.5,8.1z"/>
				<path class="st0" d="M11,47.1c0.6,0,0.7-0.9,0.1-1c-0.3,0.2-8.1-1-7.8,0C2.8,47.2,10.7,46.9,11,47.1z"/>
				<path class="st0" d="M25,37.4c0.6,0.2,0.9-0.7,0.4-0.9c0,0-24.2-9.2-24.2-9.2c-0.3-0.1-0.5,0-0.6,0.3c-0.1,0.3,0,0.5,0.3,0.6
					L25,37.4z"/>
				<path class="st0" d="M25.9,14.3c0.4,0.5,1.2-0.2,0.7-0.6c-0.4-0.1-5-6.4-5.5-5.5C20,8.6,25.8,13.9,25.9,14.3z"/>
				<path class="st0" d="M88.9,35.3l-9.8,4.3c-0.4-0.9-0.8-1.7-1.3-2.5C78,36.5,124,9.4,123.1,8.3C122.5,7,78,36.4,77.3,36.3
					c-0.5-0.8-1.1-1.5-1.7-2.2c0.1-0.6,21.8-18.2,20.8-19.1C95.6,13.9,75.7,33.4,75,33.4c-0.6-0.7-1.3-1.3-2-1.9
					C73,30.7,91.5,9,90.5,8.2c-1-1-17.6,22.5-18.3,22.6c-0.7-0.6-1.5-1.1-2.3-1.6c-0.1-0.4,6.2-9.3,5.1-9.5c-0.6-0.9-5.6,8.9-5.9,9
					c-0.8-0.5-1.6-0.9-2.5-1.2c1.3-2.2-0.2-2.7-0.9-0.4c-0.9-0.3-1.8-0.6-2.7-0.8l3.8-17.7c0.1-0.3-0.1-0.5-0.4-0.6
					c-1.2-0.1-3.9,17.5-4.4,18.1c-0.9-0.2-1.8-0.3-2.8-0.4c-0.2-0.4,1-7.6-0.1-7.3c-1-0.4-0.7,7-0.9,7.3c-0.9,0-1.9,0-2.8,0.1
					c-2.2-23.5-4.1-23-1,0.1c-0.9,0.1-1.8,0.3-2.7,0.5C51.3,25.8,45.8-0.2,44.5,0c-1.2,0.5,6.6,25.8,6.4,26.6
					c-0.9,0.3-1.8,0.6-2.6,0.9c-0.3-0.2-4.9-13.2-5.7-12.3c-1.2-0.1,5,12.5,4.8,12.7c-0.9,0.4-1.7,0.8-2.5,1.3L33,9.4
					c-0.1-0.2-0.4-0.3-0.7-0.1c-0.9,0.9,11.8,19.6,11.9,20.5c-0.8,0.5-1.5,1.1-2.2,1.7c-0.3,0-7.9-8.9-8.3-7.8
					c-1.2,0.4,7.6,8.2,7.6,8.5c-0.7,0.6-1.3,1.3-1.9,2C38.6,34.1,7.9,7.4,7.1,8.5c-1,1,31.5,25.6,31.5,26.3
					c-0.6,0.7-1.1,1.5-1.6,2.3c-0.8,0-20.9-12.8-21.7-11.8c-0.1,0.2-0.1,0.5,0.2,0.7l21,11.9c-0.5,0.8-0.9,1.6-1.2,2.5
					c-0.4,0.1-6.8-3.2-6.9-2.2c-0.7,0.8,6.3,2.7,6.5,3.1c-0.3,0.9-0.6,1.8-0.8,2.7l-22.1-4.5c-0.3-0.1-0.5,0.1-0.6,0.4
					c-0.1,0.3,0.1,0.5,0.4,0.6L34,45c-0.2,0.9-0.3,1.8-0.4,2.8l-20-1.3c-0.3,0-0.5,0.2-0.5,0.5c0,0.3,0.2,0.5,0.5,0.5l20,1.3
					c0,0.9,0,1.9,0.1,2.8C33.2,52-0.2,54.5,0,55.8c0.1,1.4,33.2-3.8,33.7-3.4c0.1,0.9,0.3,1.8,0.5,2.7c-0.6,0.5-19.1,5-18.9,6.1
					c0.8,1.1,18.2-5.3,19.2-5.2c0.3,0.9,0.6,1.8,0.9,2.6c-0.3,0.6-35.1,15.8-34.5,17c0.5,1.4,34.7-16.6,35.3-16.3
					c-3.9-11.7-0.4-25.6,12.1-30.9c12.3-5.6,24.9,1.3,30.8,12.1C78.6,40.5,92.7,35.6,88.9,35.3z"/>
			</g>
		</g>
	</g>
</g>
</svg>
