<?xml version="1.0" encoding="utf-8"?>
<!-- Generator: Adobe Illustrator 28.0.0, SVG Export Plug-In . SVG Version: 6.00 Build 0)  -->
<svg version="1.1" id="_レイヤー_2" xmlns="http://www.w3.org/2000/svg" xmlns:xlink="http://www.w3.org/1999/xlink" x="0px"
	 y="0px" viewBox="0 0 334.1 75.9" style="enable-background:new 0 0 334.1 75.9;" xml:space="preserve">
<style type="text/css">
	.st0{fill:#34403B;}
</style>
<g id="equipment">
	<g>
		<path class="st0" d="M71.1,64.6c-0.3,0.4-0.5,0.9-0.5,1.5c-0.1,0.4-0.1,0.6-0.2,0.6c-0.1,0.1-0.3,0.1-0.6,0.1
			c-2.7,0.2-5.2,0.2-7.7,0.2c-2.5,0-4.2-0.2-5.2-0.6c-0.9-0.4-1.7-1-2.3-2c-0.5,0.5-1.1,1.1-2.1,1.9c-0.2,0.2-0.4,0.4-0.5,0.5
			c-0.1,0.2-0.2,0.2-0.3,0.2c-0.1,0-0.2-0.1-0.3-0.3c-0.3-0.5-0.6-1.2-0.9-2c0.6-0.3,1-0.5,1.3-0.7c0.5-0.3,1-0.8,1.7-1.4v-4.9h-0.9
			L51,57.8c-0.1,0-0.2,0-0.2-0.1c0,0,0-0.1,0-0.2v-1.7c0-0.1,0-0.2,0.1-0.2c0,0,0.1,0,0.2,0l1.5,0h1.2l1.6,0c0.1,0,0.2,0,0.2,0
			s0,0.1,0,0.2l0,2.1v4.8c0.4,0.9,1,1.5,2,1.8c0.8,0.3,2.2,0.4,4.1,0.4C65.1,65.1,68.2,64.9,71.1,64.6z M51.3,49.4
			c-0.1-0.1-0.1-0.1-0.1-0.2s0.1-0.1,0.2-0.2l1.1-0.8c0.2-0.1,0.3-0.2,0.3-0.2c0,0,0.1,0,0.2,0.1c1.1,1,2,2.1,2.8,3.3
			c0,0.1,0.1,0.1,0.1,0.2c0,0.1-0.1,0.2-0.2,0.3l-1.2,0.9c-0.1,0.1-0.2,0.2-0.3,0.2c-0.1,0-0.1,0-0.2-0.2
			C53.2,51.4,52.3,50.2,51.3,49.4z M60.4,49.6h-2l-1.9,0.1c-0.1,0-0.2,0-0.2,0c0,0,0-0.1,0-0.2v-1.2c0-0.1,0-0.2,0.1-0.2
			c0,0,0.1,0,0.2,0l1.9,0h2.2l1.6,0c0.1,0,0.2,0,0.2,0c0,0,0,0.1,0,0.2l0,1.4v0.9l0,1.4c0,0.1,0,0.2,0,0.2c0,0-0.1,0-0.2,0l-1.6,0
			h-2.2v0.5c0,0.4,0,0.7,0.1,0.8c0.1,0.1,0.5,0.2,1.1,0.2c0.7,0,1.1-0.1,1.2-0.2c0.1-0.1,0.1-0.4,0.2-1c0.4,0.2,0.9,0.4,1.5,0.5
			c0.3,0.1,0.4,0.2,0.4,0.3c0,0.1,0,0.2,0,0.4c-0.1,0.5-0.2,0.8-0.5,1c-0.2,0.2-0.5,0.3-1,0.4c-0.4,0-1,0.1-1.8,0.1
			c-1.5,0-2.4-0.1-2.7-0.4c-0.4-0.3-0.5-0.8-0.5-1.7v-1.2l0-0.9c0-0.1,0-0.2,0.1-0.2c0,0,0.1,0,0.2,0l1.4,0h2.4V49.6z M59.7,61.4
			l-3,0c-0.1,0-0.2,0-0.2-0.1c0,0,0-0.1,0-0.2v-1.2c0-0.1,0-0.2,0-0.2s0.1,0,0.2,0l3,0H60v-1.4l-2.6,0c-0.1,0-0.2,0-0.2,0
			c0,0,0-0.1,0-0.2V57c0-0.1,0-0.2,0.1-0.2c0,0,0.1,0,0.2,0l2.6,0c0-0.5-0.1-0.9-0.1-1.4c0.9,0,1.6,0.1,2,0.2c0.2,0,0.4,0.1,0.4,0.2
			c0,0.1,0,0.2-0.1,0.3C62,56.2,62,56.4,62,56.8h2.8c0-0.5,0-1-0.1-1.4c0.9,0,1.6,0.1,2,0.2c0.2,0,0.4,0.1,0.4,0.2
			c0,0.1,0,0.2-0.1,0.3c-0.1,0.1-0.1,0.3-0.1,0.7v0c0.7,0,1.4,0,1.9,0c0.1,0,0.2,0,0.4,0h0.2c0.1,0,0.2,0,0.2,0s0,0.1,0,0.2v1.2
			c0,0.1,0,0.2,0,0.2c0,0-0.1,0-0.2,0c0,0-0.1,0-0.3,0c-0.6,0-1.4,0-2.2,0v1.4h0.4l3,0c0.1,0,0.2,0,0.2,0s0,0.1,0,0.2v1.2
			c0,0.1,0,0.2,0,0.2c0,0-0.1,0-0.2,0l-3,0H66c1.2,0.7,2.6,1.2,4.4,1.6c-0.3,0.3-0.6,0.7-0.8,1.1c-0.2,0.4-0.4,0.5-0.5,0.5
			c0,0-0.2,0-0.5-0.1c-1.5-0.5-2.8-1.2-4.1-2.1c-0.1,0-0.1-0.1-0.1-0.1c0,0,0.1-0.1,0.2-0.2l0.7-0.8H61c0.5,0.3,0.8,0.5,1.1,0.8
			c0.2,0.1,0.3,0.3,0.3,0.3c0,0.1-0.1,0.2-0.3,0.2c0,0-0.2,0.1-0.3,0.2c-0.2,0.1-0.3,0.2-0.4,0.2c-0.7,0.5-1.6,0.9-2.7,1.3
			c-0.3,0.1-0.5,0.2-0.5,0.2c-0.1,0-0.3-0.2-0.6-0.5c-0.3-0.3-0.6-0.6-1-0.9c1.3-0.4,2.4-0.8,3.2-1.2c0.3-0.2,0.6-0.3,0.9-0.6H59.7z
			 M62,59.7h2.8v-1.4H62V59.7z M67.7,49.6h-2l-1.9,0.1c-0.1,0-0.2,0-0.2,0c0,0,0-0.1,0-0.2v-1.2c0-0.1,0-0.2,0.1-0.2
			c0,0,0.1,0,0.2,0l1.9,0H68l1.6,0c0.1,0,0.2,0,0.2,0s0,0.1,0,0.2l0,1.4v0.9l0,1.4c0,0.1-0.1,0.2-0.2,0.2l-1.6,0h-2.2v0.6
			c0,0.4,0,0.6,0.1,0.7c0.1,0.1,0.5,0.2,1.2,0.2c0.7,0,1.1-0.1,1.2-0.2c0.1-0.1,0.2-0.4,0.2-1c0.5,0.2,0.9,0.4,1.5,0.5
			c0.3,0,0.5,0.2,0.5,0.3c0,0.1,0,0.2,0,0.4c-0.1,0.4-0.2,0.8-0.5,0.9c-0.2,0.2-0.6,0.3-1.1,0.4c-0.4,0-1,0.1-1.9,0.1
			c-1.6,0-2.5-0.1-2.8-0.4c-0.3-0.3-0.5-0.8-0.5-1.7v-1.2l0-0.9c0-0.1,0-0.2,0-0.2s0.1,0,0.2,0l1.5,0h2.4V49.6z"/>
		<path class="st0" d="M71.7,58.3c0.6-0.2,1.2-0.6,1.9-1.2c0.9-0.7,2.2-1.8,3.9-3.4c0.7-0.6,1.3-0.9,1.9-0.9c0.4,0,0.7,0.1,1,0.2
			c0.2,0.1,0.5,0.3,0.9,0.6c3,2.4,4.6,3.6,4.7,3.8c1.3,0.9,3.1,2,5.2,3.2c0.2,0.1,0.3,0.2,0.3,0.3c0,0,0,0.1,0,0.2
			c-0.3,0.8-0.7,1.5-1.1,2.1c-0.1,0.1-0.2,0.2-0.3,0.2c-0.1,0-0.2,0-0.3-0.1c-1.1-0.6-2.7-1.8-4.7-3.4c-1.1-0.8-2.6-2.1-4.6-3.9
			c-0.4-0.3-0.7-0.5-1-0.5c-0.2,0-0.4,0.2-0.8,0.5l-3.7,3.6c-0.4,0.4-0.6,0.7-0.8,1c-0.1,0.2-0.2,0.3-0.4,0.3s-0.3-0.1-0.4-0.2
			C73,60.1,72.4,59.3,71.7,58.3z M84.7,51.7l1.2-0.8c0,0,0.1-0.1,0.1-0.1c0.1,0,0.1,0,0.2,0.1c0.8,0.6,1.4,1.4,2.1,2.4
			c0,0.1,0.1,0.1,0.1,0.2c0,0.1,0,0.1-0.1,0.2l-0.9,0.7c-0.1,0-0.1,0.1-0.2,0.1c-0.1,0-0.1,0-0.2-0.1C86.3,53.2,85.5,52.4,84.7,51.7
			z M86.7,50.3l1.1-0.8c0.1,0,0.1-0.1,0.1-0.1c0,0,0.1,0,0.2,0.1c0.8,0.6,1.5,1.4,2.1,2.3c0,0.1,0.1,0.1,0.1,0.2
			c0,0.1,0,0.2-0.1,0.2l-0.9,0.7c-0.1,0-0.1,0.1-0.2,0.1c-0.1,0-0.1,0-0.2-0.1C88.3,51.8,87.6,51,86.7,50.3z"/>
		<path class="st0" d="M103.2,51.2c-1.4,0.3-2.8,0.5-4.3,0.8c-0.4,0.1-0.7,0.2-0.9,0.3c-0.2,0.1-0.3,0.1-0.4,0.1
			c-0.2,0-0.4-0.1-0.5-0.4c-0.2-0.5-0.5-1.2-0.8-2.4c0.4,0,0.8,0.1,1.2,0.1c0.3,0,0.6,0,0.8,0c1.5-0.2,3.2-0.4,5-0.8
			c0.6-0.1,1-0.2,1.2-0.3c0.2-0.1,0.3-0.2,0.4-0.2c0.2,0,0.3,0.1,0.5,0.2c0.6,0.5,1.1,0.9,1.5,1.4c0.2,0.2,0.2,0.4,0.2,0.5
			c0,0.2-0.1,0.4-0.4,0.5c-0.3,0.1-0.6,0.4-1,0.7c-0.5,0.4-1.3,1.3-2.5,2.5c-0.9,0.9-1.7,1.6-2.2,2.2l0,0.1c1.2-0.7,2.3-1,3.5-1
			c1.7,0,3.1,0.5,4.1,1.6c0.9,1,1.3,2.2,1.3,3.6c0,2-0.8,3.5-2.4,4.6c-1.4,1-3.1,1.4-5.3,1.4c-1.5,0-2.6-0.3-3.4-1
			c-0.7-0.6-1-1.3-1-2.3c0-0.8,0.3-1.5,1-2c0.6-0.5,1.3-0.7,2.1-0.7c1.1,0,2,0.3,2.8,0.9c0.7,0.6,1.1,1.3,1.4,2.3
			c0.8-0.4,1.4-0.9,1.8-1.4c0.3-0.5,0.5-1.2,0.5-1.9c0-1.1-0.4-1.9-1.1-2.5c-0.6-0.5-1.4-0.8-2.4-0.8c-1.9,0-3.8,0.8-5.6,2.3
			c-0.3,0.3-0.9,0.9-1.9,1.9C96.3,61.9,96.1,62,96,62s-0.2-0.1-0.3-0.2c-0.4-0.4-0.8-0.8-1.3-1.4c0-0.1-0.1-0.1-0.1-0.2
			c0-0.1,0.1-0.2,0.2-0.3c1.6-1.3,3.4-2.9,5.2-4.9C101.2,53.4,102.4,52.2,103.2,51.2z M103,64.7c-0.3-1.3-0.9-1.9-1.9-1.9
			c-0.3,0-0.6,0.1-0.8,0.3c-0.2,0.2-0.3,0.3-0.3,0.6c0,0.8,0.6,1.1,1.9,1.1C102.4,64.8,102.7,64.8,103,64.7z"/>
		<path class="st0" d="M121.5,53c0.1-1.1,0.1-2,0.2-3c0-0.6-0.1-1.2-0.2-1.7c1.2,0.1,2.2,0.3,2.9,0.5c0.3,0.1,0.4,0.2,0.4,0.5
			c0,0.1,0,0.3-0.1,0.4c-0.2,0.3-0.2,0.6-0.3,1c0,0.1,0,0.5-0.1,1.1c0,0.4-0.1,0.8-0.1,1.2h3.3l3.1,0c0.3,0,0.5,0.1,0.5,0.3
			c0,0,0,0.8-0.1,2.3c-0.1,3.3-0.4,5.7-0.8,7.2c-0.2,0.9-0.6,1.6-1,2.1c-0.4,0.4-0.9,0.7-1.6,0.9c-0.6,0.2-1.3,0.2-2.2,0.2
			c-0.3,0-0.4-0.1-0.5-0.4c-0.3-0.8-0.7-1.5-1.3-2c0.4,0,0.7,0,1,0c0.9,0,1.6-0.1,2-0.2c0.3-0.1,0.6-0.3,0.7-0.5
			c0.2-0.2,0.3-0.6,0.4-1c0.4-1.6,0.6-3.8,0.7-6.6h-4.4c-0.4,2.7-1.1,4.7-2,6.1c-1.1,1.8-2.7,3.3-4.7,4.5c-0.2,0.1-0.4,0.2-0.5,0.2
			s-0.3-0.1-0.4-0.2c-0.5-0.5-1.1-0.9-1.8-1.3c2.2-1.1,4-2.6,5.2-4.5c0.7-1.2,1.3-2.8,1.6-4.7h-2c-1,0-2,0-3.2,0.1H116
			c-0.2,0-0.3-0.1-0.3-0.4c-0.1-0.4-0.1-1.1-0.2-2.1c0.9,0.1,2.1,0.1,3.7,0.1C119.1,53,121.5,53,121.5,53z"/>
		<path class="st0" d="M136.8,53.6c1.1,0.1,2.5,0.2,4,0.2h7.5c0.5,0,0.9-0.1,1.2-0.2c0.1-0.1,0.2-0.1,0.3-0.1c0.1,0,0.2,0,0.3,0.2
			c0.6,0.5,1.1,0.9,1.5,1.4c0.1,0.2,0.2,0.3,0.2,0.5s-0.1,0.3-0.2,0.4c-0.3,0.2-0.5,0.6-0.7,1c-1.2,2.5-2.5,4.5-4,6.1
			c-1.3,1.4-3,2.6-5,3.7c-0.2,0.1-0.4,0.2-0.4,0.2c-0.1,0-0.3-0.1-0.5-0.3c-0.5-0.4-1.2-0.8-2-1.1c2.3-1.1,4.3-2.4,5.9-4
			c1.5-1.5,2.7-3.3,3.4-5.2l-7.5,0c-1.2,0-2.3,0-3.3,0.1c-0.2,0-0.3-0.1-0.3-0.4C137,55.5,136.9,54.8,136.8,53.6z M138.7,48.9
			c1,0.1,2.2,0.2,3.6,0.2h4c0.9,0,2,0,3.4-0.1c0.2,0,0.3,0.1,0.3,0.3c0,0.3,0,0.6,0,0.9c0,0.3,0,0.6,0,0.9c0,0.3-0.1,0.4-0.3,0.4
			h-0.1l-3.1,0h-4.4c-1.2,0-2.2,0-3,0.1c-0.2,0-0.3-0.2-0.3-0.5C138.7,50.5,138.7,49.8,138.7,48.9z"/>
		<path class="st0" d="M156.5,56.1c1.1,0.2,2.7,0.3,4.7,0.3h7.1c0.7,0,1.6,0,2.7,0c1.4,0,2.2,0,2.4,0h0.1c0.2,0,0.3,0.1,0.3,0.3
			c0,0.3,0,0.7,0,1c0,0.4,0,0.7,0,1c0,0.2-0.1,0.3-0.3,0.3h-0.1c-2.2,0-3.8,0-4.9,0h-7.9l-3.2,0.3c-0.3,0-0.4-0.2-0.5-0.5
			C156.7,58.2,156.6,57.3,156.5,56.1z"/>
		<path class="st0" d="M176,62.3c2.1-1.8,3.7-4,4.8-6.6c0.6-1.3,0.9-2.4,1-3.3c1.2,0.4,2.1,0.8,2.7,1.1c0.2,0.1,0.3,0.2,0.3,0.4
			c0,0.2-0.1,0.3-0.2,0.4c-0.2,0.2-0.5,0.7-0.8,1.3c-1.4,3.1-2.9,5.5-4.7,7.4c-0.2,0.2-0.4,0.3-0.6,0.3c-0.2,0-0.3-0.1-0.5-0.2
			C177.5,62.8,176.8,62.5,176,62.3z M187.3,53.9c0.2-0.2,0.6-0.4,1.1-0.7c0.3-0.2,0.5-0.4,0.7-0.5c0.1-0.1,0.2-0.1,0.3-0.1
			c0.1,0,0.2,0.1,0.3,0.2c2.3,2.3,4.1,5,5.5,8.1c0.1,0.1,0.1,0.2,0.1,0.3c0,0.1-0.1,0.2-0.2,0.4c-0.5,0.4-1.1,0.8-1.8,1.2
			c-0.1,0-0.2,0.1-0.3,0.1c-0.1,0-0.2-0.1-0.3-0.3C191.2,58.9,189.3,56.1,187.3,53.9z M190.4,50.9l1.2-0.8c0,0,0.1-0.1,0.1-0.1
			c0.1,0,0.1,0,0.2,0.1c0.8,0.6,1.4,1.4,2.1,2.4c0,0.1,0.1,0.1,0.1,0.2c0,0.1,0,0.1-0.1,0.2l-0.9,0.7c-0.1,0-0.1,0.1-0.2,0.1
			c-0.1,0-0.1,0-0.2-0.1C192,52.4,191.2,51.5,190.4,50.9z M192.5,49.4l1.1-0.8c0.1,0,0.1-0.1,0.1-0.1c0,0,0.1,0,0.2,0.1
			c0.9,0.6,1.6,1.4,2.1,2.3c0,0.1,0.1,0.1,0.1,0.2c0,0.1,0,0.1-0.1,0.2L195,52c-0.1,0-0.1,0.1-0.2,0.1c-0.1,0-0.1,0-0.2-0.1
			C194.1,51,193.3,50.1,192.5,49.4z"/>
		<path class="st0" d="M201.5,48.8c1.4,0.2,2.3,0.3,2.7,0.5c0.3,0.1,0.4,0.2,0.4,0.4c0,0.1,0,0.2-0.1,0.3c-0.2,0.3-0.2,1-0.2,2.1
			v4.4c0,0.3,0,1.2,0.1,2.8c0,0.3-0.2,0.4-0.5,0.4h-1.8c-0.3,0-0.4-0.1-0.4-0.3v-0.1l0.1-3V52C201.8,50.7,201.7,49.6,201.5,48.8z
			 M202.7,65.3c2.5-0.8,4.3-1.8,5.4-3.2c1-1.2,1.5-3.2,1.5-5.9V52c0-1.6-0.1-2.8-0.2-3.6c1.2,0.1,2.2,0.3,2.9,0.5
			c0.2,0.1,0.3,0.2,0.3,0.4c0,0.1,0,0.3-0.1,0.4c-0.1,0.3-0.2,1.1-0.2,2.4v4.1c0,1.8-0.2,3.2-0.5,4.4c-0.3,1.1-0.7,2-1.3,2.8
			c-0.6,0.8-1.3,1.5-2.3,2.1c-0.8,0.6-1.7,1-2.5,1.3c-0.2,0.1-0.3,0.1-0.5,0.1c-0.2,0-0.4-0.1-0.5-0.3
			C204,66.1,203.4,65.6,202.7,65.3z"/>
		<path class="st0" d="M229.1,53.8v7.5h3.1c0.9,0,2.4,0,4.4-0.1h0.1c0.2,0,0.3,0.1,0.3,0.4c0,0.3,0,0.6,0,0.9c0,0.3,0,0.6,0,0.9
			c0,0.3-0.1,0.4-0.3,0.4c-1.4-0.1-2.9-0.1-4.4-0.1h-8.9c-0.3,0-0.9,0-1.9,0c-0.9,0-1.6,0-2.2,0h-0.1c-0.1,0-0.2,0-0.3-0.1
			c0,0-0.1-0.2-0.1-0.3c-0.1-0.6-0.2-1.3-0.2-2.1c1.3,0.1,2.9,0.1,4.7,0.1h3v-7.5h-1.7c-1.1,0-2.2,0-3.4,0.1c-0.2,0-0.3-0.1-0.4-0.5
			c-0.1-0.6-0.2-1.3-0.2-2c0.6,0.1,1.9,0.1,3.8,0.1h6.2c1.7,0,3,0,3.9-0.1h0c0.2,0,0.2,0.1,0.2,0.4c0,0.3,0,0.6,0,0.9
			c0,0.3,0,0.6,0,0.8c0,0.3-0.1,0.4-0.3,0.4c-1.3-0.1-2.6-0.1-3.8-0.1H229.1z"/>
		<path class="st0" d="M240.1,56.1c1.1,0.2,2.7,0.3,4.7,0.3h7.1c0.7,0,1.6,0,2.7,0c1.4,0,2.2,0,2.4,0h0.1c0.2,0,0.3,0.1,0.3,0.3
			c0,0.3,0,0.7,0,1c0,0.4,0,0.7,0,1c0,0.2-0.1,0.3-0.3,0.3H257c-2.2,0-3.8,0-4.9,0h-7.9l-3.2,0.3c-0.3,0-0.4-0.2-0.5-0.5
			C240.3,58.2,240.2,57.3,240.1,56.1L240.1,56.1z"/>
		<path class="st0" d="M260.9,56.2c0-0.1,0.3-0.5,0.7-1.2c0.2-0.3,0.3-0.5,0.4-0.7c0.1-0.2,0.2-0.2,0.3-0.2c0,0,0.1,0,0.1,0
			c1.5,0.5,2.9,1.2,4.2,2.2c0.2,0.1,0.2,0.2,0.2,0.3c0,0,0,0.1-0.1,0.2c-0.2,0.5-0.5,1-1,1.7c-0.1,0.1-0.2,0.2-0.3,0.2
			c-0.1,0-0.2,0-0.3-0.1C264,57.7,262.6,56.9,260.9,56.2z M262.6,63.6c0.9-0.2,1.9-0.5,3-1.1c2.4-1.3,4.4-2.5,6-3.8
			c2.3-1.7,4.4-3.8,6.3-6.1c0.1,0.7,0.3,1.5,0.6,2.5c0.1,0.2,0.1,0.3,0.1,0.4c0,0.2-0.1,0.3-0.2,0.5c-1.7,1.8-3.5,3.5-5.6,5.1
			c-1.7,1.3-3.9,2.7-6.6,4.1c-0.8,0.4-1.2,0.7-1.3,0.8c-0.1,0.1-0.2,0.2-0.4,0.2c-0.2,0-0.3-0.1-0.4-0.3
			C263.8,65.4,263.3,64.7,262.6,63.6z M263.5,51l1.2-1.8c0.1-0.2,0.2-0.2,0.3-0.2c0.1,0,0.1,0,0.2,0.1c1.7,0.7,3,1.5,4.1,2.4
			c0.1,0.1,0.2,0.2,0.2,0.3c0,0.1,0,0.2-0.1,0.3c-0.4,0.8-0.8,1.3-1.1,1.7c0,0.1-0.1,0.1-0.2,0.1s-0.2,0-0.3-0.2
			C266.4,52.6,265,51.7,263.5,51z"/>
		<path class="st0" d="M293.6,58.9v-2.2h-5.1c-0.4,0-0.9,0-1.7,0.1c-0.7,0-1.1,0.1-1.4,0.1c-0.2,0-0.3-0.1-0.3-0.5
			c0-0.4-0.1-1-0.1-1.8c0.8,0.1,2,0.1,3.5,0.1h3.8c1.5,0,2.6,0,3.3,0c0.2,0,0.3,0.1,0.3,0.3v0.1l0,2.9v5.1c0,0.6,0,1.7,0.1,3.1
			c0,0.2,0,0.3-0.1,0.3c-0.1,0-0.2,0.1-0.4,0.1c-0.5,0-1,0-1.5,0c-0.2,0-0.3,0-0.3-0.1c0,0-0.1-0.1-0.1-0.2v-0.7h-5.2
			c-0.9,0-1.9,0-3,0.1c-0.2,0-0.3-0.1-0.3-0.4c-0.1-0.5-0.1-1.1-0.1-1.8c0.8,0.1,2,0.1,3.5,0.1h5.1v-2.4h-4.7c-0.7,0-1.7,0-3,0.1
			c-0.2,0-0.4-0.2-0.4-0.5c-0.1-0.4-0.1-1-0.1-1.8c1,0.1,2.1,0.1,3.4,0.1C288.9,58.9,293.6,58.9,293.6,58.9z"/>
		<path class="st0" d="M303.4,52.1c0.4-0.4,0.9-1,1.5-1.7c0.1-0.1,0.2-0.2,0.3-0.2c0.1,0,0.2,0,0.3,0.1c1.4,0.7,2.8,1.8,4.2,3.1
			c0.1,0.1,0.2,0.2,0.2,0.3s0,0.2-0.1,0.3c-0.5,0.6-0.9,1.2-1.4,1.7c-0.1,0.1-0.2,0.2-0.3,0.2c-0.1,0-0.2-0.1-0.3-0.2
			C306.6,54.3,305.1,53.1,303.4,52.1z M303.9,63.1c1.2-0.3,2.2-0.7,3-1.1c1.4-0.7,2.6-1.4,3.5-2c0.8-0.5,1.8-1.2,2.8-2.1
			c1.5-1.2,2.6-2.2,3.5-3.1c0.8-0.8,1.7-1.8,2.5-2.9c0.1,1,0.3,1.8,0.6,2.6c0.1,0.2,0.1,0.3,0.1,0.4c0,0.2-0.1,0.4-0.4,0.7
			c-1.3,1.5-3,3.1-5.1,4.7c-1.8,1.4-4,2.9-6.6,4.3c-0.8,0.5-1.3,0.8-1.5,1c-0.2,0.1-0.3,0.2-0.4,0.2s-0.2-0.1-0.4-0.2
			C305,64.7,304.4,63.9,303.9,63.1z"/>
		<path class="st0" d="M334.1,48.4l-0.6,13.1h-2.2l-0.6-13.1H334.1z M330.8,63.6h3.1v3h-3.1C330.8,66.6,330.8,63.6,330.8,63.6z"/>
	</g>
	<g>
		<g>
			<path class="st0" d="M59.4,16.9c1,0.3,0.6-5.1,0.8-5.4c0-0.3-0.2-0.5-0.5-0.5c-1-0.3-0.6,5.1-0.8,5.4
				C58.9,16.6,59.1,16.9,59.4,16.9z"/>
			<path class="st0" d="M67.5,24.5c0.3,0.1,0.5,0,0.6-0.3l7.1-18.1c0.1-0.3,0-0.5-0.3-0.6c-0.3-0.1-0.5,0-0.6,0.3l-7.1,18.1
				C67.2,24.1,67.3,24.4,67.5,24.5z"/>
			<path class="st0" d="M105.7,6.5c0,0.3-7.8,5.8-4.9,5.6C101.2,11.6,108.8,6,105.7,6.5z"/>
			<path class="st0" d="M148.5,8.1L97.5,31.5C95.6,35.2,148.7,8.2,148.9,9C149.5,8.8,149.1,7.8,148.5,8.1z"/>
			<path class="st0" d="M11,47.1c0.6,0,0.7-0.9,0.1-1c-0.3,0.2-8.1-1-7.8,0C2.8,47.2,10.7,46.9,11,47.1z"/>
			<path class="st0" d="M25,37.4c0.6,0.2,0.9-0.7,0.4-0.9c0,0-24.2-9.2-24.2-9.2c-0.3-0.1-0.5,0-0.6,0.3c-0.1,0.3,0,0.5,0.3,0.6
				L25,37.4z"/>
			<path class="st0" d="M25.9,14.3c0.4,0.5,1.2-0.2,0.7-0.6c-0.4-0.1-5-6.4-5.5-5.5C20,8.6,25.8,13.9,25.9,14.3z"/>
			<path class="st0" d="M88.9,35.3l-9.8,4.3c-0.4-0.9-0.8-1.7-1.3-2.5C78,36.5,124,9.4,123.1,8.3C122.5,7,78,36.4,77.3,36.3
				c-0.5-0.8-1.1-1.5-1.7-2.2c0.1-0.6,21.8-18.2,20.8-19.1C95.6,13.9,75.7,33.4,75,33.4c-0.6-0.7-1.3-1.3-2-1.9
				C73,30.7,91.5,9,90.5,8.2c-1-1-17.6,22.5-18.3,22.6c-0.7-0.6-1.5-1.1-2.3-1.6c-0.1-0.4,6.2-9.3,5.1-9.5c-0.6-0.9-5.6,8.9-5.9,9
				c-0.8-0.5-1.6-0.9-2.5-1.2c1.3-2.2-0.2-2.7-0.9-0.4c-0.9-0.3-1.8-0.6-2.7-0.8l3.8-17.7c0.1-0.3-0.1-0.5-0.4-0.6
				c-1.2-0.1-3.9,17.5-4.4,18.1c-0.9-0.2-1.8-0.3-2.8-0.4c-0.2-0.4,1-7.6-0.1-7.3c-1-0.4-0.7,7-0.9,7.3c-0.9,0-1.9,0-2.8,0.1
				c-2.2-23.5-4.1-23-1,0.1c-0.9,0.1-1.8,0.3-2.7,0.5C51.3,25.8,45.8-0.2,44.5,0c-1.2,0.5,6.6,25.8,6.4,26.6
				c-0.9,0.3-1.8,0.6-2.6,0.9c-0.3-0.2-4.9-13.2-5.7-12.3c-1.2-0.1,5,12.5,4.8,12.7c-0.9,0.4-1.7,0.8-2.5,1.3L33,9.4
				c-0.1-0.2-0.4-0.3-0.7-0.1c-0.9,0.9,11.8,19.6,11.9,20.5c-0.8,0.5-1.5,1.1-2.2,1.7c-0.3,0-7.9-8.9-8.3-7.8
				c-1.2,0.4,7.6,8.2,7.6,8.5c-0.7,0.6-1.3,1.3-1.9,2C38.6,34.1,7.9,7.4,7.1,8.5c-1,1,31.5,25.6,31.5,26.3c-0.6,0.7-1.1,1.5-1.6,2.3
				c-0.8,0-20.9-12.8-21.7-11.8c-0.1,0.2-0.1,0.5,0.2,0.7l21,11.9c-0.5,0.8-0.9,1.6-1.2,2.5c-0.4,0.1-6.8-3.2-6.9-2.2
				c-0.7,0.8,6.3,2.7,6.5,3.1c-0.3,0.9-0.6,1.8-0.8,2.7l-22.1-4.5c-0.3-0.1-0.5,0.1-0.6,0.4c-0.1,0.3,0.1,0.5,0.4,0.6L34,45
				c-0.2,0.9-0.3,1.8-0.4,2.8l-20-1.3c-0.3,0-0.5,0.2-0.5,0.5c0,0.3,0.2,0.5,0.5,0.5l20,1.3c0,0.9,0,1.9,0.1,2.8
				C33.2,52-0.2,54.5,0,55.8c0.1,1.4,33.2-3.8,33.7-3.4c0.1,0.9,0.3,1.8,0.5,2.7c-0.6,0.5-19.1,5-18.9,6.1
				c0.8,1.1,18.2-5.3,19.2-5.2c0.3,0.9,0.6,1.8,0.9,2.6c-0.3,0.6-35.1,15.8-34.5,17c0.5,1.4,34.7-16.6,35.3-16.3
				c-3.9-11.7-0.4-25.6,12.1-30.9c12.3-5.6,24.9,1.3,30.8,12.1C78.6,40.5,92.7,35.6,88.9,35.3z"/>
		</g>
	</g>
</g>
</svg>
