<?xml version="1.0" encoding="UTF-8"?>
<svg id="_レイヤー_2" data-name="レイヤー 2" xmlns="http://www.w3.org/2000/svg" xmlns:xlink="http://www.w3.org/1999/xlink" viewBox="0 0 149.2181006 75.8756816">
  <defs>
    <style>
      .cls-1 {
        fill: #f29600;
      }

      .cls-1, .cls-2 {
        stroke-width: 0px;
      }

      .cls-2 {
        fill: url(#_名称未設定グラデーション_3);
      }

      .cls-3 {
        filter: url(#luminosity-noclip);
      }

      .cls-4 {
        mask: url(#mask);
      }

      .cls-5 {
        fill: #fff;
        stroke: #fff;
        stroke-miterlimit: 10;
        stroke-width: 1.3659169px;
      }
    </style>
    <filter id="luminosity-noclip" x="-30.3150726" y="-15.3774006" width="191.3827312" height="91.2530822" color-interpolation-filters="sRGB" filterUnits="userSpaceOnUse">
      <feFlood flood-color="#fff" result="bg"/>
      <feBlend in="SourceGraphic" in2="bg"/>
    </filter>
    <linearGradient id="_名称未設定グラデーション_3" data-name="名称未設定グラデーション 3" x1="65.376293" y1="34.989898" x2="65.376293" y2="-15.3774006" gradientUnits="userSpaceOnUse">
      <stop offset="0" stop-color="#fff"/>
      <stop offset="1" stop-color="#231815"/>
    </linearGradient>
    <mask id="mask" x="-30.3150726" y="-15.3774006" width="191.3827312" height="91.2530822" maskUnits="userSpaceOnUse">
      <g class="cls-3">
        <rect class="cls-2" x="-30.3150726" y="-15.3774006" width="191.3827312" height="50.3672986"/>
      </g>
    </mask>
  </defs>
  <g id="equipment">
    <g>
      <g>
        <path class="cls-1" d="m75.0510157,64.4391582c-.3466797.4824219-.5625,1.0625-.6474609,1.7392578-.0673828.4316406-.1523438.6816406-.2539062.7490234-.0761719.0673828-.3134766.1103516-.7109375.1269531-3.1484375.1777344-6.1826172.2666016-9.1025391.2666016-2.9707031,0-5.0146484-.2324219-6.1318359-.6982422-1.0917969-.4482422-2.0019531-1.2314453-2.7294922-2.3486328-.5419922.5751953-1.3496094,1.3115234-2.4248047,2.2089844-.2880859.2626953-.4697266.4443359-.5458984.5458984-.1269531.1777344-.25.2666016-.3681641.2666016-.1435547,0-.2705078-.1142578-.3808594-.3427734-.3300781-.6005859-.6855469-1.3964844-1.0664062-2.3867188.6513672-.3134766,1.1591797-.6005859,1.5234375-.8632812.5673828-.3642578,1.21875-.9013672,1.9550781-1.6123047v-5.8017578h-1.0664062l-1.8154297.0634766c-.1523438,0-.2451172-.0214844-.2792969-.0634766-.0253906-.0341797-.0380859-.1181641-.0380859-.2539062v-1.9804688c0-.1357422.0214844-.2158203.0634766-.2412109.0341797-.0253906.1181641-.0380859.2539062-.0380859l1.8154297.0507812h1.4599609l1.9042969-.0507812c.1357422,0,.2158203.0166016.2412109.0507812s.0380859.1103516.0380859.2285156l-.0507812,2.5263672v5.7255859c.4316406,1.0068359,1.2353516,1.7353516,2.4121094,2.1835938.9648438.3134766,2.5683594.4697266,4.8115234.4697266,3.9521484,0,7.6640625-.1738281,11.1337891-.5205078Zm-23.4228516-18.0527344c-.0849609-.0673828-.1269531-.1269531-.1269531-.1777344s.0849609-.1396484.2539062-.2666016l1.3203125-.9521484c.1777344-.1181641.2958984-.1777344.3554688-.1777344.0507812,0,.1230469.0419922.2158203.1269531,1.2949219,1.2021484,2.3867188,2.4921875,3.2753906,3.8720703.0595703.0849609.0888672.1523438.0888672.203125,0,.0761719-.0800781.1816406-.2412109.3173828l-1.3710938,1.1171875c-.1523438.1181641-.2666016.1777344-.3427734.1777344-.0849609,0-.1611328-.0595703-.2285156-.1777344-1.0410156-1.6845703-2.1074219-3.0380859-3.1992188-4.0625Zm10.765625.3046875h-2.3994141l-2.2597656.0634766c-.1357422,0-.2197266-.0166016-.2539062-.0507812-.0253906-.0341797-.0380859-.1142578-.0380859-.2412109v-1.3837891c0-.1357422.0214844-.2158203.0634766-.2412109.0253906-.0253906.1015625-.0380859.2285156-.0380859l2.2597656.0507812h2.6533203l1.8408203-.0507812c.1523438,0,.2451172.0166016.2792969.0507812.0253906.0341797.0380859.1142578.0380859.2412109l-.0507812,1.6630859v1.0917969l.0507812,1.6630859c0,.1181641-.0166016.1904297-.0507812.2158203-.0419922.0253906-.1308594.0380859-.2666016.0380859l-1.8408203-.0507812h-2.6279297v.6474609c0,.4912109.0546875.7910156.1650391.9013672.1357422.1181641.5751953.1777344,1.3203125.1777344.7958984,0,1.2734375-.0800781,1.4345703-.2412109.0927734-.1103516.1523438-.4990234.1777344-1.1679688.4658203.2285156,1.0371094.4355469,1.7138672.6220703.3134766.0849609.4697266.2158203.4697266.3935547,0,.0849609-.0166016.2324219-.0507812.4443359-.0927734.5332031-.2753906.9228516-.5458984,1.1679688-.2373047.2119141-.6347656.3515625-1.1933594.4189453-.4316406.0507812-1.1337891.0761719-2.1074219.0761719-1.7607422,0-2.8095703-.1396484-3.1484375-.4189453-.4150391-.3300781-.6220703-.9902344-.6220703-1.9804688v-1.4091797l-.0507812-1.0410156c0-.1357422.0214844-.2158203.0634766-.2412109.0341797-.0253906.1181641-.0380859.2539062-.0380859l1.6757812.0507812h2.8183594v-1.3837891Zm-.8378906,13.8632812l-3.5927734.0507812c-.1357422,0-.2158203-.0214844-.2412109-.0634766-.0253906-.0341797-.0380859-.1181641-.0380859-.2539062v-1.4091797c0-.1357422.0166016-.2158203.0507812-.2412109s.1103516-.0380859.2285156-.0380859l3.5927734.0507812h.3427734v-1.625l-3.046875.0507812c-.1523438,0-.2412109-.0166016-.2666016-.0507812-.0341797-.0419922-.0507812-.1308594-.0507812-.2666016v-1.4091797c0-.1357422.0214844-.2158203.0634766-.2412109.0341797-.0253906.1181641-.0380859.2539062-.0380859l3.046875.0507812c-.0253906-.5498047-.0800781-1.1044922-.1650391-1.6630859,1.0410156.0595703,1.8320312.1181641,2.3740234.1777344.2792969.0341797.4189453.1230469.4189453.2666016,0,.0761719-.0507812.2070312-.1523438.3935547-.0927734.1689453-.1396484.4443359-.1396484.8251953h3.3007812c0-.6435547-.0507812-1.1972656-.1523438-1.6630859,1.0664062.0595703,1.8535156.1181641,2.3613281.1777344.2792969.0341797.4189453.1308594.4189453.2919922,0,.0761719-.0507812.2070312-.1523438.3935547-.0927734.1357422-.1396484.3935547-.1396484.7744141v.0507812c.8798828-.0087891,1.6416016-.0253906,2.2851562-.0507812.1103516,0,.2792969-.0087891.5078125-.0253906h.1777344c.1523438,0,.2412109.0166016.2666016.0507812s.0380859.1103516.0380859.2285156v1.4091797c0,.1523438-.0146484.2431641-.0439453.2724609-.0302734.0302734-.1171875.0449219-.2607422.0449219-.0341797,0-.1611328-.0039062-.3808594-.0126953-.7617188-.0166016-1.625-.0292969-2.5898438-.0380859v1.625h.4697266l3.5927734-.0507812c.1357422,0,.2158203.0166016.2412109.0507812s.0380859.1103516.0380859.2285156v1.4091797c0,.1435547-.0146484.2324219-.0439453.2666016-.0302734.0341797-.1083984.0507812-.2353516.0507812l-3.5927734-.0507812h-1.3457031c1.3710938.8291016,3.1103516,1.4599609,5.2177734,1.8916016-.3720703.40625-.6816406.859375-.9267578,1.3583984-.2197266.4316406-.4355469.6474609-.6474609.6474609-.0595703,0-.2626953-.0507812-.609375-.1523438-1.7353516-.5673828-3.3642578-1.375-4.8876953-2.4248047-.0849609-.0595703-.1269531-.1142578-.1269531-.1650391,0-.0419922.0722656-.1308594.2158203-.2666016l.8759766-.8886719h-5.0400391c.5332031.3212891.9736328.6181641,1.3203125.8886719.2451172.1689453.3681641.2958984.3681641.3808594,0,.1357422-.1142578.2324219-.3427734.2919922-.0595703.0166016-.1904297.0927734-.3935547.2285156-.1943359.1269531-.3388672.2158203-.4316406.2666016-.8798828.5751953-1.9462891,1.0957031-3.1992188,1.5615234-.3388672.1181641-.5458984.1777344-.6220703.1777344-.1611328,0-.40625-.1904297-.7363281-.5712891-.3134766-.3896484-.7109375-.7529297-1.1933594-1.0917969,1.5830078-.4482422,2.8398438-.9267578,3.7705078-1.4345703.3388672-.1777344.6767578-.4101562,1.015625-.6982422h-1.0664062Zm2.6787109-1.9042969h3.3007812v-1.625h-3.3007812v1.625Zm6.7285156-11.9589844h-2.4121094l-2.234375.0634766c-.1523438,0-.2451172-.0166016-.2792969-.0507812-.0253906-.0341797-.0380859-.1142578-.0380859-.2412109v-1.3837891c0-.1357422.0214844-.2158203.0634766-.2412109.0341797-.0253906.1181641-.0380859.2539062-.0380859l2.234375.0507812h2.7548828l1.8408203-.0507812c.1435547,0,.2285156.0166016.2539062.0507812s.0380859.1142578.0380859.2412109l-.0507812,1.6630859v1.0917969l.0507812,1.6630859c0,.1689453-.0976562.2539062-.2919922.2539062l-1.8408203-.0507812h-2.6279297v.6728516c0,.4736328.0546875.765625.1650391.8759766.1435547.1181641.609375.1777344,1.3964844.1777344.7958984,0,1.265625-.0673828,1.4091797-.203125.1435547-.1269531.2285156-.5292969.2539062-1.2060547.5419922.2880859,1.1210938.4863281,1.7392578.5966797.3642578.0595703.5458984.1943359.5458984.40625,0,.0927734-.0166016.2539062-.0507812.4824219-.0927734.5244141-.2753906.8974609-.5458984,1.1171875-.2451172.2197266-.6816406.3681641-1.3076172.4443359-.4658203.0507812-1.2148438.0761719-2.2470703.0761719-1.8447266,0-2.9365234-.1396484-3.2753906-.4189453-.3808594-.3388672-.5712891-.9990234-.5712891-1.9804688v-1.4091797l-.0507812-1.0410156c0-.1357422.0166016-.2158203.0507812-.2412109s.1103516-.0380859.2285156-.0380859l1.7392578.0507812h2.8056641v-1.3837891Z"/>
        <path class="cls-1" d="m76.9680079,56.9489238c.6855469-.2792969,1.4472656-.7490234,2.2851562-1.4091797,1.0576172-.8291016,2.6113281-2.1708984,4.6591797-4.0244141.7958984-.7275391,1.5488281-1.0917969,2.2597656-1.0917969.4570312,0,.8544922.0800781,1.1933594.2412109.2880859.1357422.6435547.3769531,1.0664062.7236328,3.5292969,2.8183594,5.3994141,4.3076172,5.6113281,4.46875,1.5576172,1.1171875,3.6054688,2.390625,6.1445312,3.8212891.203125.0849609.3046875.2070312.3046875.3681641,0,.0595703-.0166016.1181641-.0507812.1777344-.3466797.9394531-.7705078,1.7558594-1.2695312,2.4501953-.1269531.1689453-.2412109.2539062-.3427734.2539062-.1103516,0-.2324219-.0419922-.3681641-.1269531-1.2783203-.7451172-3.1484375-2.0820312-5.6113281-4.0117188-1.2783203-.9560547-3.0976562-2.4882812-5.4589844-4.5957031-.4228516-.3974609-.8037109-.5966797-1.1425781-.5966797-.1943359,0-.4912109.1816406-.8886719.5458984l-4.3671875,4.2783203c-.4316406.4658203-.7402344.8466797-.9267578,1.1425781-.1357422.2119141-.2919922.3173828-.4697266.3173828s-.3427734-.0761719-.4951172-.2285156c-.5927734-.5927734-1.3037109-1.4941406-2.1328125-2.7041016Zm15.4121094-7.8076172l1.3837891-.9521484c.0507812-.0507812.1015625-.0761719.1523438-.0761719.0673828,0,.1484375.0380859.2412109.1142578.8886719.6855469,1.7099609,1.6162109,2.4628906,2.7929688.0507812.0673828.0761719.1308594.0761719.1904297,0,.0761719-.0507812.1523438-.1523438.2285156l-1.0917969.7998047c-.0761719.0507812-.1435547.0761719-.203125.0761719-.0849609,0-.1650391-.0546875-.2412109-.1650391-.8037109-1.2275391-1.6796875-2.2304688-2.6279297-3.0087891Zm2.3994141-1.7138672l1.2949219-.9394531c.0673828-.0419922.1230469-.0634766.1650391-.0634766.0595703,0,.1357422.0380859.2285156.1142578.9990234.7617188,1.8242188,1.6542969,2.4755859,2.6787109.0507812.0849609.0761719.15625.0761719.2158203,0,.0927734-.0546875.1777344-.1650391.2539062l-1.0410156.8125c-.0761719.0507812-.1435547.0761719-.203125.0761719-.0849609,0-.1611328-.0546875-.2285156-.1650391-.7275391-1.1591797-1.5957031-2.1542969-2.6025391-2.9833984Z"/>
        <path class="cls-1" d="m115.4855861,48.5446269c-1.625.2958984-3.3007812.6259766-5.0273438.9902344-.4482422.1015625-.8125.2070312-1.0917969.3173828-.2119141.0849609-.3847656.1269531-.5205078.1269531-.2539062,0-.4443359-.1484375-.5712891-.4443359-.2705078-.5332031-.5712891-1.46875-.9013672-2.8056641.4404297.0595703.9101562.0888672,1.4091797.0888672.3388672,0,.6728516-.0126953,1.0029297-.0380859,1.7861328-.1777344,3.7539062-.4736328,5.9033203-.8886719.7197266-.1435547,1.1933594-.2753906,1.421875-.3935547.2373047-.1357422.4023438-.203125.4951172-.203125.203125,0,.4023438.0673828.5966797.203125.6943359.5332031,1.2734375,1.0878906,1.7392578,1.6630859.1943359.2197266.2919922.4316406.2919922.6347656,0,.2792969-.1484375.4863281-.4443359.6220703-.2958984.1435547-.6767578.4189453-1.1425781.8251953-.5332031.5244141-1.5195312,1.5107422-2.9580078,2.9580078-1.0751953,1.0751953-1.9589844,1.9462891-2.6533203,2.6152344l.0253906.0761719c1.3710938-.7783203,2.7509766-1.1679688,4.1386719-1.1679688,2.0400391,0,3.6650391.6474609,4.875,1.9423828,1.0498047,1.1337891,1.5742188,2.5683594,1.5742188,4.3037109,0,2.3271484-.9267578,4.1386719-2.7802734,5.4335938-1.6083984,1.1259766-3.7070312,1.6884766-6.296875,1.6884766-1.7607422,0-3.1064453-.3808594-4.0371094-1.1425781-.8125-.6601562-1.21875-1.5527344-1.21875-2.6787109,0-.9394531.4023438-1.7226562,1.2060547-2.3486328.7021484-.5498047,1.5234375-.8251953,2.4628906-.8251953,1.3203125,0,2.4121094.3642578,3.2753906,1.0917969.7783203.6513672,1.3164062,1.5527344,1.6123047,2.7041016.9814453-.4482422,1.6796875-1.0068359,2.0947266-1.6757812.3720703-.609375.5585938-1.3710938.5585938-2.2851562,0-1.2607422-.4277344-2.2558594-1.2822266-2.9833984-.7363281-.6259766-1.671875-.9394531-2.8056641-.9394531-2.2763672,0-4.4941406.9179688-6.6523438,2.7548828-.3300781.3046875-1.0830078,1.0410156-2.2597656,2.2089844-.1943359.1943359-.3427734.2919922-.4443359.2919922s-.2324219-.0761719-.3935547-.2285156c-.4736328-.4150391-.9814453-.9814453-1.5234375-1.7011719-.0595703-.0673828-.0888672-.1396484-.0888672-.2158203,0-.1103516.0722656-.2373047.2158203-.3808594,1.9384766-1.5654297,3.9902344-3.4785156,6.1572266-5.7382812,1.7685547-1.828125,3.1142578-3.3134766,4.0371094-4.4560547Zm-.1904297,15.9960938c-.3466797-1.4892578-1.0830078-2.234375-2.2089844-2.234375-.3896484,0-.7021484.1103516-.9394531.3300781-.203125.1777344-.3046875.3974609-.3046875.6601562,0,.8974609.7529297,1.3457031,2.2597656,1.3457031.4482422,0,.8466797-.0341797,1.1933594-.1015625Z"/>
        <path class="cls-1" d="m142.6662501,45.1930644l-.6982422,15.4755859h-2.6279297l-.7236328-15.4755859h4.0498047Zm-3.8974609,18.0019531h3.6943359v3.5039062h-3.6943359v-3.5039062Z"/>
      </g>
      <g class="cls-4">
        <g>
          <path class="cls-1" d="m59.3902859,16.8823667c.9788524.2524556.5936428-5.0513486.8209676-5.4312713.0155124-.2683552-.1892952-.4984812-.4576293-.5140992-.9794203-.2529839-.5932436,5.0515943-.8209674,5.4312676-.0154871.2683478.1893194.4984742.4576291.5141029Z"/>
          <path class="cls-1" d="m67.5490094,24.4997321c.2501502.0977755.5324678-.025917.6301729-.2760931l7.0839138-18.0560948c.0978909-.2502439-.0257678-.5324905-.2760931-.6301729-.2502895-.0979898-.5325116.0256581-.6301503.2760832l-7.0840436,18.0558599c-.0977503.2505032.0257904.5324806.2762003.6304176Z"/>
          <path class="cls-1" d="m105.6715689,6.5300403c.0486104.3487961-7.7526096,5.7922648-4.9194819,5.6472712.4115262-.5495814,8.0217014-6.200572,4.9194819-5.6472712Z"/>
          <path class="cls-1" d="m148.5461932,8.0994117l-51.0738464,23.4494474c-1.8949074,3.69549,51.2596854-23.3248425,51.4645465-22.5565222.5669721-.2395971.1943801-1.1597277-.3907001-.8929252Z"/>
          <path class="cls-1" d="m10.9904464,47.1326868c.6241354.0478929.6908829-.944366.0565042-.9716019-.3323659.191834-8.0826125-.9973365-7.7792589.0331411-.4487035.984205,7.4438199.7129443,7.7227548.9384608Z"/>
          <path class="cls-1" d="m24.9569389,37.3516866c.5786062.2360044.9497079-.6839109.353917-.9065293.0000555.0000186-24.1977758-9.245668-24.1977758-9.245668-.2502876-.0979906-.5325342.025668-.6301729.2760931-.0978683.250234.0257904.5324806.2760931.6301729l24.1979386,9.2459313Z"/>
          <path class="cls-1" d="m25.8573982,14.3064305c.4157685.4769989,1.1529998-.1820035.7268906-.6469469-.3706596-.0992495-5.0108197-6.4217534-5.5250694-5.4783483-1.0130562.3782442,4.7606101,5.7688421,4.7981788,6.1252952Z"/>
          <path class="cls-1" d="m88.9222621,35.2948463l-9.7610974,4.2765595c-.3937678-.8518924-.8333831-1.6688223-1.3121796-2.4515519.1769275-.6397827,46.114948-27.7398288,45.2782724-28.8357411-.6752344-1.2354776-45.1243204,28.1620635-45.8027337,28.0160239-.5201318-.7770161-1.0804944-1.5170968-1.6786482-2.2168776.062298-.6173738,21.8283267-18.1680088,20.8376656-19.06284-.8360095-1.0887316-20.8210413,18.3526003-21.4860908,18.3369278-.6341881-.6830308-1.3049252-1.3243224-2.0076628-1.9227467-.0056757-.7144841,18.5494625-22.4386675,17.4989373-23.2641792-.987612-.9552312-17.6207726,22.5470222-18.2523518,22.6480849-.7318361-.5733666-1.4943319-1.10247-2.2835504-1.5847179-.05607-.3760417,6.2434094-9.3125368,5.103437-9.4821056-.648723-.941918-5.6213849,8.9058872-5.9440467,8.9917468-.8105666-.4512814-1.6461046-.8546371-2.5018561-1.2090599,1.2756461-2.1939948-.220009-2.7348532-.9065688-.3537721-.8693743-.3196072-1.7571226-.589279-2.6589315-.8070258l3.8028233-17.7359084c.0573917-.2623975-.108841-.5218496-.3714283-.5792748-1.1940557-.1243878-3.9223534,17.5290741-4.381567,18.1048872-.907084-.1805215-1.8262537-.3091375-2.7529134-.3837487-.1888553-.3622921.9530369-7.5759502-.0706013-7.3152813-.9853357-.4034384-.6759508,6.9537781-.9008433,7.2582204-.922435-.0364727-1.8504517-.0193101-2.7798149.0528993-2.2473193-23.5155603-4.1375574-23.0197547-.9684083.094537-.9142038.1089405-1.8280232.2713527-2.7372545.4899742C51.2998405,25.7693438,45.8307998-.1760063,44.5166609.0009006c-1.2003621.4976533,6.6386683,25.8410593,6.4271575,26.6070757-.8825.2508078-1.759127.5544326-2.6259896.9136322-.3350416-.1690302-4.9257972-13.1806017-5.7283687-12.3297325-1.1631472-.1259633,4.9706531,12.4607866,4.836994,12.720264-.8517486.3937632-1.6692374.8323691-2.4518798,1.3110982l-12.0134654-19.8170268c-.1450479-.2264108-.4474717-.2918756-.6721775-.1471371-.8976774.928908,11.7872056,19.6227909,11.8653119,20.4877566-.7771028.5202-1.5160681,1.0819105-2.215936,1.6801316-.3263273-.0149334-7.9209149-8.9082296-8.2800328-7.8432622-1.1699269.3712226,7.5788883,8.1636905,7.5540668,8.4910984-.6831287.634231-1.3248181,1.3047924-1.9233296,2.0075973-.7004565.0214162-31.3452035-26.6473645-32.1640557-25.5414978-.9514127,1.0289451,31.4561714,25.6144361,31.5474165,26.2943344-.5733666.7318361-1.1019527,1.4947469-1.584192,2.2839919-.8287466-.0086244-20.8723187-12.7945506-21.6720454-11.7701943-.1370735.2323341-.05902.5303903.1727709.6661195l21.0097015,11.9451267c-.4512682.8105608-.8548378,1.6459593-1.2092396,2.5016723-.4071239.0648871-6.7755556-3.2017997-6.853391-2.1516473-.6775331.8142182,6.2734024,2.7485383,6.4988963,3.0579785-.3196066.8693157-.589517,1.7570519-.8072501,2.6588257l-22.1317145-4.5324217c-.2625872-.0574252-.5217272.1087874-.5792748.3714283-.0573809.262422.108841.5218496.3714283.5792748l22.1301753,4.5321043c-.180546.9070948-.3084843,1.8263467-.3830845,2.7530315l-19.9795133-1.2947634c-.2680251-.0155784-.4984065.1893119-.5140094.4573478-.0157159.2683771.1890779.4985382.457455.5142541l19.9782007,1.2946967c-.0364774.9222912-.0197753,1.8501888.0524156,2.7794434C33.1904518,51.9876024-.2333333,54.4772322.0012288,55.8185453c.0571983,1.3860557,33.1778934-3.7625885,33.7225604-3.3682635.1089328.9141197.2731118,1.8277775.4916904,2.7369109-.6297664.5329869-19.0768719,4.958743-18.9282626,6.1336499.7654592,1.1213274,18.2192379-5.3055808,19.1753363-5.192432.2508369.882633.5533666,1.7596233.9126795,2.6266112-.2661252.6400449-35.1287844,15.8345068-34.5162456,17.0473524.5053076,1.3569973,34.6999176-16.5779707,35.3492712-16.3487912-3.9195496-11.6662119-.4360186-25.5715298,12.0528894-30.8508744,12.3437412-5.5947474,24.9326626,1.2594316,30.848466,12.0542305-.4782973-.1417657,13.6351462-5.0070801,9.8126483-5.3620926Z"/>
        </g>
      </g>
      <g>
        <g>
          <path class="cls-5" d="m18.6303124,23.0844467c-.2008955,2.2939595-.6347682,4.0311455-.5341883,7.2266207,2.2251086-1.4476344,3.9676135-4.3688279,3.0840601-7.0662231-.5163781-5.0970305-16.4248467.4049128-12.0113382,3.3809505.2320364.090039-.2282579.3790016-.4561124.4536892-5.8875724-.8856405,1.0869199-4.9475935,4.4600288-6.0236091,6.5162301-3.0223587,11.8710844,1.63142,8.2336658,7.4249937-.2579884.443408-.281973.7553852.2111239.5663295,2.0266678-.9269888,8.3228728-2.1005891,6.4890032.1701871-.5244002.1715065-2.8764865-.385432-5.906581.6070225-2.9694627.812938-2.7261326,2.0099435-4.1055255,1.482906.1652133,3.2225011-.0945434,6.7967282,1.1459741,9.2756359-2.7282881,5.6746052-2.4394068-17.0624014-1.772574-16.4262463-.550542-1.3533827.4824662-1.7973329,1.1624636-1.0722565Z"/>
          <path class="cls-5" d="m24.7280657,28.2218427c-.0572282-.1747708.241875-.4939787.4697295-.5685781,2.4012041-.231266,1.238352,2.6828898,1.5320194,5.1396083.0134056.2722889.1581955.2523605.2148064.0401136.4685831-1.3423487,2.9885622-5.8179614,4.0819817-6.1761445,2.3082448-.1271049,2.6533488,4.2865218-.067072,1.8748033-1.8483247,1.1498323-4.3437723,5.9142754-4.0010656,8.8876185-2.6040561,2.3500905-.6509153-6.9991127-1.8536105-8.7400367-.1220397.0124332-.3194725-.2824373-.3767888-.4573844Z"/>
          <path class="cls-5" d="m34.9936871,24.7490896c.5275364-3.4248683,3.6678885,3.6590386,8.4461361-.5540286-1.38643-2.1238093-.0145634-3.3095811,1.8292227-1.7330528-.5942212,2.7104232.6522703,5.3177782,2.7564955,7.3383464.2411113.1974128.4070642.0877181.4730221-.4038797,1.1478606-6.1404727,1.5667899-11.1801064,3.8825208-8.7107613.843206.4075544,2.348668.9474731,1.0738053,1.5841118-.6035091-.0024892-1.9180724-1.367275-2.4399408.329013-.3634072.8934359-1.4194388,4.4470491-1.5099104,7.0209938-1.0889025,3.7354122-3.947325-.0346933-5.6131216-4.6604358-1.0081504.7728006-2.0152426,1.2408547-3.0113124,1.5117406,1.4779024,2.7029447-4.9134055,13.4086981-6.5126579,5.1473745-.2057873-1.3981803.3788394-3.3872337-.4227958-5.8347297-.1389701-.4244936.5863903-.8280889,1.0485363-1.0346922Zm1.122254,1.346934c.3854596,1.3058542-1.5753963,4.8186985.2411976,7.3599287.5659929.7271426,1.3085481-.3178665,1.8475863-1.2136769.2957399-.6899441,2.3432174-3.9622622,1.2516125-5.4982244-1.2062885.0910007-2.3285425-.1774161-3.3403964-.6480274Z"/>
          <path class="cls-5" d="m64.5839099,18.7352827c-.216897,2.1823899-7.5356314,14.0092855-9.9822155,6.7261554-.5899602-2.6270688.3051825-7.2249362,2.8578232-8.3749911,4.0079711,1.5974605,1.302759,5.6160064-1.2757144,8.6588888,2.4630546,2.717695,6.618779-4.2211497,7.9257919-7.379964.1740653-.08474.6689258-.1915248.4743148.3699109Zm-8.7437402,5.9610759c1.1899754-1.2192509,3.0772703-4.1603728,2.6157415-5.7237862-2.1251018-1.6495216-3.0897353,2.8465631-2.6157415,5.7237862Z"/>
          <path class="cls-5" d="m72.7871129,22.9065897c.6753629-.2486647,1.4154491-.684798,2.2227277-1.9168348,1.1007892.6503838-1.6948608,2.9660092-2.1603853,3.0304769-2.8628181.4674801-3.4136515-4.548845-3.7767941-6.7551573-.6426485,1.4272651-1.2805353,2.7148547-1.5881917,4.7789484.1905548,1.0438629-.1420563.8760582-.3545677,1.3054017-3.40756,3.782627-2.6896323-6.812583-2.8227366-7.9245168,3.0282757-2.4941918.8540669,5.0570403,1.620689,6.4097562.6939135,1.6060288,2.9479632-8.2203549,3.244669-7.4221975,1.2069171-.453248,1.4442838.9629249,1.3184154,1.94566-.1647249,1.9620977.7953679,6.8188199,2.2961743,6.5484632Z"/>
          <path class="cls-5" d="m84.9622502,15.0198611c1.4283754,4.1892264,4.2829827.9735896,4.7716295-2.5306488,2.1297949,1.6245899-3.4476191,9.1434036-5.6571229,3.6778574-12.3803671,15.5545884-9.7289954-10.0112499-3.7055192-4.1511416.3787084,1.0654728-1.0551849,1.7698176-1.627105.8095989-4.4946302,3.4769279-2.4489381,12.5492292,5.0363429,2.3601106-.9306482-3.053728,1.0573096-9.9298487,4.5981221-6.3731625-.1530101,2.181233-1.9794593,3.921304-3.4163473,6.207386Zm-.2360551-1.0287842c1.4948102-1.9828809,2.616976-3.8714103,2.394324-4.6282505-1.5016322-1.7559788-2.7338808,2.490196-2.394324,4.6282505Z"/>
        </g>
        <g>
          <path class="cls-1" d="m18.6266971,23.0847113c-.2008962,2.2938928-.6350332,4.0313447-.5341883,7.2266207,2.2251086-1.4477226,3.9675254-4.3689161,3.0841483-7.0663113-.5165072-5.0969331-16.4253232.404869-12.0113381,3.3811267.2319481.0898628-.2284344.3789135-.4562889.4535129-5.8873805-.8855121,1.0872185-4.9474459,4.4600288-6.0236091,6.5162085-3.0223799,11.8712602,1.6315145,8.2336659,7.4250819-.2579884.4433198-.2819731.7554734.2111238.5662413,2.0267973-.9267233,8.323104-2.1004217,6.4890032.1704517-.5244001.1714183-2.8763983-.3856966-5.9064928.6067579-2.9695615.8129151-2.7260896,2.0102102-4.1056136,1.482906.1653207,3.222901-.0945028,6.796777,1.1460623,9.2758122-2.728357,5.6739117-2.4394482-17.0622838-1.7726622-16.4264227-.5503755-1.3535184.4826242-1.797203,1.1625518-1.0721683Z"/>
          <path class="cls-1" d="m24.7244504,28.2221072c-.0573163-.1747708.2417868-.4939787.4696413-.5685781,2.4013381-.231413,1.238349,2.6829914,1.5321958,5.1396083.0133173.2722007.1581954.2525368.2148063.04029.4684068-1.3425251,2.9883859-5.8181378,4.0818935-6.1763208,2.308254-.1270271,2.6533445,4.2865542-.0671601,1.8748032-1.8484581,1.149884-4.3436063,5.9143315-4.0010657,8.8875304-2.6038783,2.3503526-.6509403-6.9990055-1.8534341-8.7398603-.1222161.0123451-.3195607-.2825255-.376877-.4574726Z"/>
          <path class="cls-1" d="m34.9900718,24.749266c.527686-3.4245144,3.6680095,3.6591939,8.4461361-.5538522-1.3863392-2.123831-.0147256-3.3097563,1.8292227-1.733141-.5942498,2.7101388.6523236,5.3179905,2.7564073,7.3382583.2411114.1974128.4070642.0878063.4730221-.4038797,1.1480048-6.1405397,1.5666664-11.1796146,3.882609-8.7106731.8433635.4075471,2.3484886.9475097,1.0737172,1.5841118-.6033574-.0025121-1.9182455-1.3674371-2.4398526.3291011-.3634954.8932597-1.4194388,4.446961-1.5098222,7.0208175-1.0887244,3.7355771-3.9478004-.0346546-5.6131216-4.6603477-1.0082385.7727125-2.0153308,1.2410311-3.0114006,1.5118287,1.4778587,2.7027223-4.9133763,13.4087956-6.5127458,5.1471981-.2056994-1.3981803.3789273-3.3871455-.4226197-5.8344651-.1391464-.4244936.5863903-.8283534,1.0484482-1.0349568Zm1.1223422,1.346934c.3851764,1.306062-1.5755276,4.8187338.2411093,7.360105.5659048.7269662,1.3085482-.3180429,1.8476746-1.2138533.2957546-.6897649,2.3428748-3.9622061,1.2516125-5.498048-1.2062885.0909125-2.3286307-.1775925-3.3403964-.6482037Z"/>
          <path class="cls-1" d="m64.5802945,18.7355472c-.2168311,2.1823897-7.5358375,14.0092907-9.9821274,6.7260673-.5901835-2.6270533.3052845-7.2246377,2.8577351-8.3749911,4.0078925,1.597648,1.3029027,5.615893-1.2757144,8.658977,2.4629472,2.7176997,6.6188849-4.2210169,7.9257037-7.3800522.1740653-.08474.669014-.1913484.474403.369999Zm-8.743652,5.9610759c1.1898873-1.219339,3.0771821-4.160461,2.6155651-5.7237862-2.1249154-1.6496009-3.0896648,2.8465149-2.6155651,5.7237862Z"/>
          <path class="cls-1" d="m72.7834094,22.9070306c.675451-.2489293,1.4154491-.6848862,2.2228159-1.9170994,1.1012274.6502595-1.6948902,2.966087-2.1603853,3.0304769-2.8629299.467579-3.4135767-4.548853-3.7768822-6.7550692-.6424721,1.4273533-1.2803589,2.7148547-1.5881036,4.7789484.1904666,1.0438629-.1419682.8760582-.3545677,1.3053135-3.4075912,3.7828061-2.6895728-6.8121942-2.8227365-7.9243404,3.0282779-2.4941709.8541129,5.057052,1.6206007,6.4096681.6936556,1.6072324,2.9481232-8.220575,3.2447572-7.4221977,1.2069482-.4533926,1.4441582.962978,1.3183273,1.9458364-.1645486,1.9618332.7955442,6.8187319,2.2961742,6.5484633Z"/>
          <path class="cls-1" d="m84.9586349,15.0200374c1.4282577,4.1892552,4.2829495.9736113,4.7715414-2.5305606,2.1301594,1.6241344-3.4472892,9.1435407-5.6570348,3.6780337-12.3803353,15.554224-9.7289255-10.0113426-3.7056075-4.1514062.3790092,1.0652953-1.05506,1.7698903-1.6270168.8096871-4.4946779,3.4769347-2.4491018,12.5491627,5.0363429,2.3601106-.9305609-3.0537098,1.0571906-9.9298621,4.5981221-6.3731624-.152839,2.1811942-1.979546,3.921251-3.4163473,6.2072978Zm-.235967-1.0286961c1.494722-1.9829691,2.6168878-3.8714103,2.3942359-4.6282505-1.5017509-1.7555194-2.7338537,2.4900296-2.3942359,4.6282505Z"/>
        </g>
      </g>
    </g>
  </g>
</svg>