<?xml version="1.0" encoding="UTF-8"?>
<svg id="_レイヤー_2" data-name="レイヤー 2" xmlns="http://www.w3.org/2000/svg" xmlns:xlink="http://www.w3.org/1999/xlink" viewBox="0 0 325 110">
  <defs>
    <style>
      .cls-1 {
        fill: #fff;
        stroke: #fff;
        stroke-miterlimit: 10;
        stroke-width: 1.9475855px;
      }

      .cls-2 {
        fill: none;
      }

      .cls-2, .cls-3, .cls-4 {
        stroke-width: 0px;
      }

      .cls-3 {
        fill: #f29600;
      }

      .cls-4 {
        fill: url(#_名称未設定グラデーション_3);
      }

      .cls-5 {
        clip-path: url(#clippath);
      }

      .cls-6 {
        filter: url(#luminosity-noclip);
      }

      .cls-7 {
        mask: url(#mask);
      }
    </style>
    <clipPath id="clippath">
      <rect class="cls-2" width="325" height="110"/>
    </clipPath>
    <filter id="luminosity-noclip" x="-14.9971874" y="-21.3195798" width="272.3284716" height="130.6911793" color-interpolation-filters="sRGB" filterUnits="userSpaceOnUse">
      <feFlood flood-color="#fff" result="bg"/>
      <feBlend in="SourceGraphic" in2="bg"/>
    </filter>
    <linearGradient id="_名称未設定グラデーション_3" data-name="名称未設定グラデーション 3" x1="121.1670484" y1="50.6423494" x2="121.1670484" y2="-21.3195798" gradientUnits="userSpaceOnUse">
      <stop offset="0" stop-color="#fff"/>
      <stop offset="1" stop-color="#231815"/>
    </linearGradient>
    <mask id="mask" x="-14.9971874" y="-21.3195798" width="272.3284716" height="130.6911793" maskUnits="userSpaceOnUse">
      <g class="cls-6">
        <rect class="cls-4" x="-14.9971874" y="-21.3195798" width="272.3284716" height="71.9619292"/>
      </g>
    </mask>
  </defs>
  <g id="_ヘッダー" data-name="ヘッダー">
    <g class="cls-5">
      <g>
        <path class="cls-3" d="m94.2736117,83.0522267c-.1938935,3.0656106-.0970626,5.4501812.2907244,7.0076416.387787,1.5569953.4846179,2.5301754.2907244,2.7734705s-.4362024.4382102-.7753423.5842803c-.3393715.1456049-.6300959.1456049-1.0178828,0-.387787-.1460701-.7753423-2.8711606-1.2115447-8.2241168-.387787-5.4018013-.4848495-13.042103-.290956-22.9692852-.5330333.243295-1.1147138.243295-1.7932251-.097225-.6300959-.3409852-.1938935-1.5574604,1.3086072-3.7471158,1.5025007-2.1901206,3.3925567-3.7471158,5.6706313-4.7691411,2.277843-.9731802,3.7803437-1.3137002,4.5556859-1.0220253.7271585.2921401,1.3086072,1.0220253,1.7448096,2.2385005.4362024,1.1680953,0,2.8711606-1.2115447,5.1096611-1.6963942,2.6278656-3.4896193,5.2557312-5.3799069,8.0780468,2.423321-1.1676301,4.7982265-1.3625453,7.2215475-.5838151.6785113.5354352,1.1147138,1.2653203,1.2601918,2.1412755.1452464.9248003,0,1.7519104-.4362024,2.5306406-2.6656299,4.5253809-6.0584183,8.1264267-10.2263173,10.9492074Zm-.290956-21.2173748c-.2423089,1.3141654-.2907244,3.3577507-.2907244,6.1800663,3.3925567-3.8443408,5.4767379-6.8611064,6.3491427-8.954002.9208203-2.1408103,1.1631292-3.4549757.8237577-3.8927207-.3391398-.3893651-1.3086072-.3409852-2.9079389.1456049-1.5509162.5354352-3.1986632,1.8007555-4.8950574,3.844806.8724048.437745,1.1631292,1.3625453.9208203,2.6762455Zm7.6577499,11.4357975c.8239894-1.6058403,1.0662983-2.9195405.6785113-4.0387908-1.5025007-.5354352-2.9563543-.5354352-4.3620241.0483799-1.3570227.6326602-2.8111079,1.1192502-4.313377,1.5086154,0,3.1633008.0968309,6.3749815.4362024,9.5866621,4.167899-3.1628356,6.6882825-5.5474061,7.5606873-7.1048666Zm13.7159365-3.2116807c5.7190468-1.2653203,9.0145409-2.0440505,9.9355929-2.2385005.8721732-.19445,2.1323649-.34052,3.6348657-.4865901s2.3749055-.1460701,2.568799-.097225c.1936618.0483799.3875553.243295.5814488.4865901.145478.243295.145478.5354352,0,.8271101-.0968309.2921401-.2423089.4865901-.387787.5354352-.1452464.0483799-.4362024.097225-.9692357.1460701-.5330333.0483799-.9208203.097225-1.2601918.0483799-.3391398-.0483799-.7753423-.0483799-1.3086072,0-.4846179.0488451-1.1631292.1460701-2.035534.3409852-.8237577.19445-2.3746739.5838151-4.7011639,1.1676301-2.3262584.5354352-3.9742371.9731802-5.0889509,1.2164752-.1938935.4382102-.6300959,1.2169404-1.4054381,2.1901206-.7755739,1.0220253-1.8902877,2.7250906-3.3927884,5.158041,4.3620241-2.9195405,7.8516434-4.7686759,10.4202107-5.5962512,2.6172145-.778265,4.7498111-1.0704052,6.3975581-.8271101,1.6963942.243295,2.8111079,1.3137002,3.5380347,3.3577507.6785113,2.0440505.6300959,4.9635911-.0968309,8.8079319-.7755739,3.844806-1.2117763,6.2289114-1.3086072,7.1048666-.0968309.9248003-.2907244,1.4113904-.4846179,1.5574604-.2423089.1460701-.5816804,0-.9694674-.3893651-.3875553-.4382102-.3391398-1.7519104.1938935-3.8931859.533265-2.1896554.8724048-4.7691411,1.1147138-7.7375267.2423089-2.9195405.145478-5.011971-.3391398-6.3261364-1.1631292-.4865901-2.423321-.6810401-3.9258217-.6326602-.0484155.3893651-.2907244,1.0220253-.7269268,2.0440505-.4362024.9731802-1.1631292,2.7250906-2.1325966,5.3041111-1.0176512,2.5790205-2.1323649,4.7691411-3.3925567,6.6182765-1.3086072,1.8491354-2.2294275,2.6767107-2.8111079,2.5306406-.5814488-.1460701-.7753423-.4382102-.6300959-.8759552.145478-.4382102.6785113-1.0708704,1.5025007-2.0924304.7755739-.9736454,2.035534-3.2605258,3.5864502-6.8615715,1.5509162-3.5526659,2.5203835-5.7423213,2.8111079-6.4722064-1.5025007.2916749-3.1502478.8759552-4.99212,1.8002903-.1452464.5838151-.2907244,1.1192502-.4362024,1.5574604-.1452464.437745-1.0660666,2.1408103-2.8108763,5.2068861-1.6963942,3.1144557-2.6656299,4.817521-3.0050014,5.2068861-.3391398.3893651-.7753423.4382102-1.2599601.1460701-.533265-.2921401.2423089-2.0440505,2.4717364-5.3045763,1.6961625-3.0167655,2.6656299-4.9635911,2.8595234-5.7907012-1.5025007.9248003-3.1988949,1.9463604-4.9437045,3.2605258-.7269268.34052-1.1147138.1460701-1.1147138-.6815052-2.6656299,4.9152112-4.1194835,7.3970067-4.4104396,7.5914567-.2907244.1949152-.5814488.2921401-.8724048.2921401-.3391398,0-.5330333-.243295-.6785113-.7298851-.1452464-.4382102.145478-1.1192502.7271585-1.9468256.6298642-.778265,1.5509162-2.2868804,2.6169828-4.477001,1.1147138-2.1896554,2.956586-5.0608161,5.4767379-8.6130168-4.9434729.87549-7.5606873,1.3137002-7.8514117,1.2648551-.2423089-.0483799-.4362024-.19445-.5816804-.4865901-.145478-.34052.0484155-.7298851.533265-1.1676301.5330333-.0488451,3.6348657-.7787302,9.3539124-2.0440505Zm-5.3799069-13.431003c-.0484155-3.5038208.290956-5.3045763,1.0178828-5.4501812.7269268-.1460701,1.1147138.0483799,1.1631292.53497.0486471.4865901,0,1.2169404-.1938935,2.1412755,2.8595234-2.0924304,6.0100028-3.1628356,9.4993905-3.2116807,1.8418722.243295,3.0534169.5354352,3.7803437.9731802.7271585.4382102,1.1147138,1.5086154,1.2601918,3.4065958.145478,1.8491354-.387787,4.379776-1.5509162,7.6886817.9692357-.437745,1.5025007-.5838151,1.6963942-.437745.1938935.1456049.2423089.3888999.1452464.7298851-.0968309.2916749-.9208203.7298851-2.6169828,1.3137002-1.0662983,1.7519104-1.8902877,2.3357255-2.423321,1.7030653-2.4719681.9736454-4.5075021,1.4602355-6.0584183,1.5574604-1.5993316.097225-2.3746739-.0488451-2.3746739-.3893651-2.1325966-3.6010458-3.2957258-7.1048666-3.3443729-10.5598423Zm2.956586,5.4018013c3.1986632-1.8496006,6.6398671-3.3582159,10.2263173-4.5746912.387787-.243295.8239894-.1460701,1.3086072.2921401.3391398-1.4597703.2907244-2.6278656-.0484155-3.4065958-.3393715-.8271101-.6300959-1.3625453-.9694674-1.7030653-4.604333-.7298851-8.3846767.3893651-11.3894465,3.4065958,0,1.8975153.2907244,3.8927207.8724048,5.9856163Zm11.2442001-3.1144557c-3.5866818,1.2648551-7.2215475,2.7734705-10.8564131,4.5253809.3875553,1.0220253.7753423,1.8491354,1.2115447,2.5790205,2.6656299-.243295,5.2344289-.9243351,7.6577499-2.0924304.9692357-1.5086154,1.6477471-3.1628356,1.9871186-5.011971Z"/>
        <path class="cls-3" d="m146.1011512,73.8614883c-1.1420762,7.2192664-1.746837,12.1779772-1.847684,14.9780348s-.2688183,4.3179514-.4367895,4.5204662c-.2015334.1686549-.4032274.2360523-.5711987.1686549-.1344091-.0677199-.3359425-.2363748-.5039138-.4724271-.2015334-.2360523-.1679713-2.0577183.0671243-5.4985354.2352561-3.4072796.7727321-7.7926284,1.6463112-13.1563689-.8735791.2360523-1.5790263.5059646-2.1837872.8771343s-1.1086746.573362-1.4783399.6410819c-.3359425.0673974-.638323,0-.8062942-.1686549-.1679713-.1689773-.2015334-.3711697-.0671243-.5736845.1006864-.1686549.537476-.4385671,1.2430838-.7420169.7054472-.2699123,1.8814067-.8432743,3.4939952-1.5856137.201694-1.6865486.4367895-2.8335951.6384835-3.5082145.1679713-.6410819.3022198-1.0796491.3696653-1.2818414.0334016-.1686549.2684971-.2025148.6381624-.1012574s.5039138.573362.3696653,1.3492389c-.1679713.8097368-.302541,1.787806-.403388,2.8674551,1.5791869-.7420169,2.7887086-1.2818414,3.6622877-1.6530111.8398564-.3373097,1.4112156-.3711697,1.6463112-.0673974.2013728.3034498.1342486.607222-.2688183.9783917-.4367895.3373097-.8064548.4721046-1.0415504.3708472-.8398564.3711697-2.2173493,1.0457891-4.1662015,2.0577183Zm2.8895556,8.3998504c-.2688183-.2025148-.2688183-.5059646,0-.8771343.2688183-.4047072,1.3774929-1.214444,3.3260239-2.361168,1.9488522-1.1470465,3.5277179-1.9229234,4.6701153-2.3614905s1.8142825-.607222,2.0831007-.5059646.4030668.3034498.4030668.6407595c-.0337227.3711697-.302541.8097368-.8398564,1.4169588-.5713593.607222-1.0081488.4724271-1.2432444-.3711697-2.6541388,1.4843562-5.2074307,3.0025724-7.626474,4.5878636-.2350956.1012574-.5039138.03386-.7727321-.1686549Zm.9407034,8.298593c0-.4385671.2688183-.7420169.8064548-.8432743.5710381-.1012574,1.7134355-.2699123,3.4939952-.4385671,1.7471582-.1686549,3.3931482-.4047072,4.9386124-.7084794,1.5120626-.2699123,2.3856417-.4721046,2.6207373-.5398245.2350956-.0673974.3696653.1351174.3696653.607222,0,.5059646-.302541.8097368-.9073018.8435968-.6381624.0673974-1.746837.2360523-3.3931482.4382447-1.6463112.2699123-4.0316318.7084794-7.2234071,1.3157014-.4705123,0-.7056078-.2021923-.7056078-.6746194Zm10.3143355-20.0380031c.2688183.607222.5039138,1.0796491.7056078,1.4843562.1679713.4047072.3359425.7758768.5039138,1.0793266.100847.3373097.0337227.5736845-.201694.6749419-.2688183.1347949-.5373154.1686549-.8061337.1009349-.2688183-.0673974-.5713593-.573362-1.0081488-1.4504963s-.6718851-1.753946-.6718851-2.6310803c-.0334016-.8771343,0-1.3830988.0671243-1.5856137.0674454-.1686549.3696653-.2360523.8735791-.2025148.4705123.03386.6384835.4385671.403388,1.1131866-.1345697.3711697-.100847.8771343.1342486,1.4169588Zm4.4684213,1.6868711c.1342486,0,.201694.1686549.201694.5059646,0,.3034498-.302541.4721046-.8401775.4385671-.6047608,0-1.0749519-.7084794-1.3437702-2.1928356-.3022198-1.4843562-.3696653-2.6988002-.201694-3.6768694.1679713-1.0122516.504235-1.4508188,1.0081488-1.3830988.5039138.1009349.6381624.3708472.4701911.8094143-.3022198,1.7204085-.100847,3.5420745.5039138,5.4988578h.201694Z"/>
        <path class="cls-3" d="m179.306417,85.0870714c0-2.3276305.0671243-4.5201437.1679713-6.5104645-2.9229571,1.1131866-4.9723351,1.9564609-6.2155795,2.5975428-1.2095216.6407595-2.150225.9780692-2.7883874,1.0457891-.6047608.0673974-.9407034-.1351174-.9073018-.5398245.0337227-.4385671.2350956-.7084794.6047608-.8432743.3359425-.1351174,1.2766459-.4724271,2.7549858-1.113509,1.4446172-.6068995,3.5948422-1.4840338,6.4506751-2.6310803.1679713-2.0241808.201694-4.1154365.1679713-6.3421321-3.4268709,1.1809065-5.9130385,1.8555259-7.525627,2.1589757-1.6129096.3037722-2.4861676.3037722-2.65446.0677199-.1679713-.2363748-.1679713-.5398245.0337227-.9109942.1679713-.3373097.5039138-.4721046.9744261-.3711697.4701911.1012574,1.4446172-.0335375,2.9900814-.4382447,1.5117415-.3711697,3.5277179-1.0122516,5.9801628-1.9229234-.0334016-.3711697-.1342486-.7758768-.3022198-1.214444-.1679713-.4047072-.1679713-.6746194.0337227-.8097368.1679713-.1012574.4030668-.2021923.6381624-.2699123.2350956-.0673974.4367895.1351174.6384835.5736845.1679713.4385671.3359425.9106717.4367895,1.3830988,2.150225-.6410819,3.5948422-1.0796491,4.3338516-1.2818414.6718851-.2363748,1.0752731-.1689773,1.1423974.1347949.0671243.3711697-.3022198.8097368-1.0415504,1.3157014-.8064548.5059646-1.3437702.7084794-1.6463112.5398245-.3022198-.1689773-1.1757989,0-2.5870146.5059646.0337227,1.9226009,0,4.0141791-.0671243,6.1396173,1.0752731-.4724271,2.1165023-1.0457891,3.1246511-1.6868711.9741049-.6407595,1.746837-1.0119292,2.3853206-1.0793266.6047608-.0677199.9407034-.03386,1.0752731.1009349.1005258.1351174.0671243.3376322-.100847.6410819s-.8735791.7420169-2.150225,1.3492389c-1.2766459.5736845-2.7549858,1.3495613-4.3675743,2.2266956-.2354167,2.361168-.2688183,4.7565185-.100847,7.2863414,3.3931482.3037722,5.7450672.9783917,7.0217132,2.0915782,1.2766459,1.0793266,1.8480052,1.7204085,1.7134355,1.8890634-.1342486.2025148-.3022198.3711697-.4701911.4724271-.1679713.1347949-.4705123.0673974-.8735791-.2025148-.4367895-.2360523-.9407034-.573362-1.4112156-1.0796491-1.948531-1.2141215-3.997909-1.8213435-6.1481341-1.8213435-.504235,2.4285655-1.8817279,4.2166939-4.0653545,5.2960205-1.948531.5059646-3.4605937.2699123-4.602991-.6407595-1.1420762-.9109942-1.0749519-1.9229234.201694-3.0025724,1.948531-2.0577183,4.3341728-3.0696474,7.1562829-3.1035074Zm-.201694,1.4508188c-2.4524448.2021923-4.1658803.7420169-5.1403064,1.6191511s-1.2766459,1.6530111-.9069806,2.1925132c1.0078276.607222,2.0827796.6410819,3.2923012.1351174,1.7134355-.8097368,2.6207373-2.1254382,2.7549858-3.9467817Z"/>
        <path class="cls-3" d="m196.4291567,69.0011158c.3696653,0,.6381624.0673974.8061337.2360523.1679713.2025148,0,1.180584-.4364684,2.9348525-.4367895,1.787806-.3362637,4.5204662.3693441,8.1634756.5713593,0,.9744261.03386,1.1761201.0677199.1679713.0673974.2350956.2360523.2013728.4721046-.0671243.2699123-.3022198.5398245-.6718851.7758768-.3696653.2025148-.9069806.1351174-1.6463112-.2021923-.8398564-2.3276305-1.2095216-4.4866062-1.0415504-6.5781844.1345697-2.0577183.3359425-3.8793842.5713593-5.4649979.1005258-.2699123.3359425-.4047072.6718851-.4047072Zm11.5238572,2.8335951c-.5039138-2.395028-.6384835-3.7445893-.4030668-4.0480391.2350956-.2699123.5039138-.3037722.7390094-.1351174.2350956.2363748.4701911.6749419.7390094,1.3157014.2354167.607222.4367895,2.8674551.6047608,6.7468393.1345697,3.8455243-.4701911,7.2528039-1.7805597,10.1537964-1.3437702,2.8674551-2.150225,4.4530687-2.4861676,4.722981-.3359425.3034498-.7390094.573362-1.2095216.8094143-.5039138.2363748-.7727321.2363748-.8064548-.0335375-.0334016-.3037722.3696653-1.0457891,1.2095216-2.2602331.8401775-1.180584,1.8480052-3.3734196,2.9904026-6.5781844.7727321-4.7565185.9069806-8.298593.4030668-10.693621Z"/>
        <path class="cls-3" d="m217.1914166,81.4142112c-.544506-.0457417-.680741-.729253-.4538273-1.9594863.2269137-1.2764106,1.361482-3.4637341,3.4041388-6.6991954,2.0422229-3.1901553,3.8579661-5.833153,5.491918-7.9294287,1.6339519-2.0509697,2.6778415-3.0991076,3.1767912-3.1444136.4538273-.0457417.7262973.0910477.8169759.3188848s.0455563.5014159-.136235.8203008c-.1813574.2735788-.544506.6835114-1.1796907,1.2306689-.6356186.592028-1.7250645,2.0962757-3.3134601,4.602484.544506.729253.6356186,2.7797871.1817912,6.1520378-.4993836,3.3722507-.4087049,8.6133757.1358011,15.5857143.1817912,1.0481379.0455563,1.6859075-.3175923,1.8684386-.408271.1367894-.7714197,0-1.0438896-.5014159-.2724699-.4556742-.544506-1.5495538-.7714197-3.2354613-.2724699-1.6406015-.3631486-4.1015038-.2724699-7.291659.0906787-3.1897197.2724699-6.4709227.4538273-9.706384-2.4509278,2.8708348-4.2662371,6.0152484-5.4008054,9.2507098,0,.5014159-.2724699.729253-.7718535.6382053Zm1.8157431-12.1219802c-.4993836-.2735788-.7718535-.5014159-.7718535-.6382053s.4087049-1.4580704,1.1801246-3.8736666c.7262973-2.4609023,1.9515442-4.6935318,3.4948174-6.7898075,1.5432732-2.0967114,2.3602492-3.1448492,2.4509278-3.235897s.3175923-.1367894.7262973-.1367894c.408271,0,.6351847.1367894.7258634.3646265.0911126.2278371-.5896284,1.3217167-1.9515442,3.281203-1.4070382,2.005228-2.5867289,4.010456-3.4948174,6.1067318-.952777,2.0962757-1.4521606,3.4632984-1.4521606,4.2378575-.136235.729253-.4087049,1.0028318-.9076546.683947Zm11.2103157,4.1468098c-1.089012.4103682-1.6339519.5014159-1.6790743.2278371-.0455563-.2735788-.0911126-.6377697-.0455563-1.0481379.0455563-.3646265.136235-.5924636.3631486-.6377697.1813574-.0457417.8620984-.3646265,2.0422229-.9570901,1.2256809-.5471576,2.9958677-1.4127644,5.4463617-2.5066439.1817912-1.5948598.2724699-3.0076242.1817912-4.3746469-2.0877792.729253-3.6310524,1.4580704-4.6293857,2.0962757-1.0438896.6377697-1.6339519.8203008-1.9515442.546722-.3180262-.1820954-.4087049-.5924636-.3631486-1.0934439.0451224-.5014159.9076546-1.0028318,2.4509278-1.6406015,1.5428393-.5924636,3.0405563-1.1849273,4.4931508-1.8684386v-3.9194083c0-.2731432.2269137-.4099326.7714197-.4099326.5449399,0,.8625322.2278371.9532109.7288174.0906787.5014159.0906787,1.4585061-.0455563,2.8255288,1.5432732-.5009803,2.6327191-1.0023962,3.3590163-1.4127644.680741-.4099326,1.2708033-.546722,1.7246306-.4099326s.680741.4556742.680741.9113485-.4993836.7745591-1.4977169,1.0938795c-.9532109.3188848-2.3602492.9113485-4.266671,1.7316492,0,.6377697-.0451224,2.0962757-.0906787,4.3746469,1.9515442-.7288174,3.4948174-1.321281,4.5842633-1.9137447,1.1345683-.5471576,1.8153093-.8203008,2.1329016-.8660424.3180262,0,.5449399.2278371.7262973.6835114.1817912.4556742,0,.8203008-.544506,1.1396212-.544506.2731432-2.7685202,1.1844916-6.6264863,2.6883037-4.4024721,2.2788068-7.1258699,3.6005235-8.1697595,4.010456Zm7.3527835,3.6000878c1.5883956-.9113485,2.8591989-1.5948598,3.8579661-2.005228.952777-.4099326,1.4977169-.546722,1.5883956-.4099326s.136235.3188848.136235.546722v.5924636c0,.1367894-.1817912.3188848-.5900623.5014159-.3631486.2278371-1.0438896.6377697-2.0422229,1.2302333-.9532109.5924636-1.9519781,1.0938795-2.9503114,1.6406015-.2269137,2.005228-.3631486,3.6000878-.4087049,4.7850151-.0451224,1.2306689-.1358011,1.8684386-.2720361,2.0509697-.136235.1820954-.3631486.2731432-.7262973.2278371-.3631486-.0457417-.544506-.3193205-.4993836-.7749947.0455563-.5009803.0455563-1.1844916.0911126-1.9137447.0451224-.7749947,0-1.9141803-.0455563-3.5547818-1.5883956.729253-2.8591989,1.4127644-3.7217311,2.005228-.9076546.6835114-1.5432732.9113485-2.0422229.6835114-.4993836-.2278371-.7262973-.5014159-.7262973-.8203008s.2269137-.6377697.680741-.9113485c.4538273-.2278371,1.0438896-.5924636,1.8608656-1.0023962.8169759-.4103682,2.1333355-1.0938795,3.9486448-1.959922.0455563-2.0047924.1813574-3.5543462.3175923-4.5114363s.3175923-1.4580704.4993836-1.5038121c.136235-.0457417.3631486-.0457417.6351847,0,.2724699.0457417.4993836.3646265.6811748.8660424-.2269137,1.4123288-.3180262,2.8250931-.2724699,4.2378575Zm4.1300021,6.8812909c1.8608656-1.0023962,2.9958677-1.4580704,3.4948174-1.2302333.4993836.2278371.5449399.6377697.1817912,1.1849273-.3631486.5924636-.6356186.9566545-.7718535,1.0481379-.1358011.0910477-.3631486.0910477-.5900623,0-.2720361-.0457417-.5896284,0-.952777.1820954-.3631486.2278371-.6356186.3646265-.8169759.5014159-.136235.1367894-1.0894459.6377697-2.8140765,1.5495538-1.7246306.9113485-3.4948174,1.6859075-5.3101267,2.3694189-1.8157431.6382053-2.8596327.9570901-3.0409901.8660424-.1817912-.0910477-.3180262-.3188848-.4538273-.729253-.136235-.3646265.680741-.9113485,2.4960503-1.6406015,3.8579661-1.6859075,6.717165-3.0533659,8.5780305-4.1015038Zm3.994201-17.4994589c.0906787-.2278371.1813574-.3188848.3175923-.2278371.0906787.1367894,1.1345683-.3646265,3.1316688-1.4127644,1.9971005-1.0934439,3.994201-1.8226969,6.0819803-2.1415818,2.0877792-.3646265,3.1316688-.5014159,3.2223475-.4556742.0906787.0910477.136235.3641909.0906787.7745591-.0451224.4099326-.2720361.7745591-.7258634,1.0023962s-.7262973.4103682-.8625322.4556742c-.136235.0914834-.7262973.1367894-1.6790743.1825311-.9987672.045306-1.7250645.1367894-2.0877792.1820954,0,.1367894,0,.4556742-.0455563.8660424-.0455563.4556742,0,1.0481379.0906787,1.7773909.0906787.7745591.136235,2.1415818.136235,4.1925515,0,2.0962757.136235,7.9747348.408271,17.6815544-.1358011,1.3670227-.2269137,2.2330651-.408271,2.6429977-.1813574.4103682-.3175923.6382053-.4538273.5924636-.136235-.045306-.5900623-.1820954-1.361482-.4099326-.8169759-.2278371-1.4070382-.546722-1.7701869-.8203008-.4087049-.3188848-.6356186-.6835114-.7262973-1.0481379s0-.5924636.3175923-.6835114c.3180262-.0457417.5900623.045306.9532109.3646265.3631486.3188848.9987672.5009803,1.8608656.546722-.0451224-2.8708348-.136235-5.1039-.2269137-6.6077121-.0906787-1.4585061-.136235-2.3698545-.136235-2.7802227,0-.3641909-.0451224-1.1844916-.0906787-2.55195-.0455563-1.321281-.0906787-3.2354613-.2269137-5.6963636-.136235-2.4151606-.1813574-3.827925-.1813574-4.1925515s-.0455563-.8656068-.0911126-1.5495538c-.0451224-.6377697-.0451224-1.2302333,0-1.7316492-.408271.1825311-1.089012.5471576-1.9515442,1.0938795-.9076546.5014159-1.4521606.8203008-1.6790743.8656068-.2269137.0914834-.5900623.2735788-1.0438896.5924636-.4542612.3193205-.7718535.1825311-.9987672-.3188848,0-.546722.0455563-.9113485.136235-1.1849273Zm2.1784579-6.5166643c-.408271-.045306-.680741-.1820954-.8169759-.4556742-.136235-.2278371-.0906787-.5014159.0455563-.8203008s.3175923-.546722.4993836-.6377697c.1813574-.0914834.8169759-.5014159,1.9966667-1.1849273,1.1350022-.6835114,2.3146929-1.275975,3.6310524-1.6406015,1.2708033-.4103682,1.9515442-.6835114,2.0426568-.7749947.0906787-.045306.1813574.1367894.3175923.5924636.136235.4103682.136235.7749947,0,1.0028318s-.2724699.4556742-.4087049.5924636c-.1358011.1820954-.680741.2731432-1.6339519.3188848-.9076546.045306-2.2235803.6377697-3.9937672,1.8684386-.7262973.8203008-1.3163595,1.1849273-1.6795082,1.1391856Z"/>
        <path class="cls-3" d="m267.1924269,60.3467709c.3175923-.1825311.8620984-.5014159,1.7246306-.9570901s2.0422229-1.0023962,3.5854961-1.7773909c1.5432732-.729253,3.1772251-1.3217167,4.9018557-1.8226969,1.7246306-.5014159,3.7217311-1.0028318,5.9457453-1.5495538,2.2691366-.546722,3.7217311-.8656068,4.4931508-.9113485s1.2708033-.0457417,1.6339519,0,.680741.0910477.9532109.2278371c.2269137.1367894.4538273.2735788.5900623.4099326.136235.1367894.136235.3193205.0906787.5471576-.0455563.1820954-.1813574.3646265-.3175923.5009803-.1817912.1367894-.3631486.2278371-.5900623.2278371-.2724699,0-.5900623,0-.9987672-.045306-.408271-.0457417-.8620984,0-1.4977169.045306-.6351847.0457417-1.3159257.1825311-2.0877792.3193205-.7714197.1367894-1.6339519.3188848-2.4960503.546722-.8169759.2278371-2.3146929.6835114-4.4480284,1.3670227-2.1784579.729253-3.7672874,1.2306689-4.811177,1.5952955-.9983333.4099326-1.905988.7745591-2.5867289,1.0934439-.7262973.2735788-1.4525945.729253-2.2695705,1.2306689-.8169759.5009803-1.4521606.9113485-1.9971005,1.321281.2269137.2278371.4538273.5014159.6811748.8203008.2269137.3193205.4538273.8203008.8165421,1.5952955.3180262.7745591.6811748,2.3694189.9987672,4.7392734.3175923,2.3241129.4538273,4.2835992.4538273,5.7421053,0,1.5495538-.0455563,3.1444136-.136235,4.7850151-.0906787,1.6406015-.2724699,3.4632984-.4993836,5.4685265-.2269137,2.005228-.408271,3.326509-.4989497,4.010456.9532109-.1367894,4.2206808-.9570901,9.8943901-2.4155962,5.6277191-1.4580704,9.3494502-2.4151606,11.0740808-2.8250931,1.7246306-.4103682,2.8596327-.6382053,3.5403737-.683947.680741-.045306,1.225247,0,1.7246306.0457417s.9532109.1820954,1.361482.4099326c.4087049.2282728.5449399.5471576.3631486,1.0028318-.1813574.5014159-.9532109.6835114-2.3602492.6377697-1.4977169-.045306-2.7685202.0914834-3.9486448.3646265-1.225247.3193205-4.8562994,1.2306689-10.9378458,2.7797871-6.0819803,1.5952955-9.5767977,2.5523856-10.303095,2.7802227-.8169759.2278371-1.4070382.1363538-1.8608656-.2735788-.4538273-.4103682-.5900623-.8660424-.408271-1.3670227.1813574-.5924636.3175923-1.4127644.408271-2.4609023s.2269137-2.3241129.4087049-3.7368772c.136235-1.3670227.2720361-2.8712704.3631486-4.3750826.0906787-1.4580704-.0455563-4.2378575-.4087049-8.3393613-.408271-4.1015038-1.225247-6.6991954-2.4509278-7.7015916-1.2708033-1.0481379-1.6790743-1.8231326-1.1801246-2.5066439.4087049-.6835114.9532109-.546722,1.5888295.3646265.6351847-.6377697,1.1801246-1.0481379,1.4977169-1.2302333Zm7.261671,22.6491006c-.4989497-.2278371-.3175923-1.3217167.5900623-3.235897.8625322-1.8684386,2.7233978-4.5114363,5.5825967-7.9747348-1.6339519-.4103682-2.8591989-.5924636-3.5854961-.5014159-.7714197.1367894-1.5883956.2278371-2.4960503.2735788-.9532109.045306-1.1350022-.1825311-.7718535-.729253.4087049-.5014159,1.2256809-.9570901,2.4053716-1.2306689,1.1801246-.3188848,3.0409901-.2278371,5.5825967.3193205,1.0438896-1.3674583,1.9519781-2.5976917,2.8140765-3.7368772.8169759-1.0481379,1.8608656-1.8684386,3.0409901-2.3698545s1.7701869-.4556742,1.8153093.1367894c0,.546722-.5900623,1.1849273-1.6790743,1.8684386-1.0894459.6377697-2.6322852,2.1873235-4.5387071,4.5114363,1.7701869.2735788,3.2223475.6382053,4.2662371,1.1391856,1.0438896.4561099,1.2708033.8660424.7718535,1.1849273-.5449399.3193205-1.5432732.4103682-3.0409901.1825311-1.4525945-.1825311-2.5416065-.4103682-3.2227814-.6835114l-5.3552491,8.5218924c-.9532109,1.8226969-1.6795082,2.55195-2.1788918,2.3241129Z"/>
        <g class="cls-7">
          <g>
            <path class="cls-3" d="m112.6492466,24.7713395c.1127966.0067229.2208246-.0141281.317731-.0567578.2308969-.1015729.3981451-.3267551.4137146-.5966899l.4363513-7.1065719c.022474-.3832824-.2689573-.7120733-.650784-.7343874-.3816921-.0229568-.7093612.2701284-.7314108.6534324l-.4363847,7.1065866c-.0224392.383267.2689906.7120586.6507825.734388Z"/>
            <path class="cls-3" d="m124.2587199,35.6545976c.1780224.0698367.3673274.0606145.5296969-.0108128s.2974554-.2049064.367009-.3836533l10.0800704-25.7975204c.139294-.3575342-.0366664-.7607921-.3928673-.9003552-.35615-.1400023-.7577386.0366589-.8966738.394452l-10.0802551,25.7971849c-.1390941.3579047.0366985.760778.3930199.9007048Z"/>
            <path class="cls-3" d="m178.5052985,9.9805248l-7.7377751,6.9123552c-.2855394.2554239-.3110535.6948027-.0569153.981406.2044607.230777.5276779.2924593.7949278.1748945.0649757-.0285832.126783-.0675662.1826682-.117363l7.7377599-6.9123902c.2855394-.2554239.3110535-.6948027.0569153-.981406-.2539765-.286716-.6912723-.3116335-.9775807-.0574966Z"/>
            <path class="cls-3" d="m239.5138379,12.2227532l-72.6756402,33.5032357c-.3502259.1540664-.5097959.5640691-.3563378.9157573.1534428.3516532.5618044.5118195.9120303.3577531L240.0695304,13.4962636c.3502627-.1540826.5097959-.5640691.3563531-.9157223-.1534581-.3516881-.5617829-.5118706-.9120456-.357788Z"/>
            <path class="cls-3" d="m43.7785903,67.9912749c.1127007.0065984.2206873-.0144428.3175937-.0570725.2308969-.1015729.3981866-.326565.4138171-.59636.0223978-.3834572-.2690488-.712283-.6509365-.734737l-10.3380995-.6056567c-.3810387-.0224107-.7092087.2704781-.7314108.6534324-.0223629.3834419.2690488.712283.6509365.734737l10.3380995.6056567Z"/>
            <path class="cls-3" d="m63.652241,54.0167386c.1780224.0698367.3673274.0606145.5296969-.0108128s.2974902-.2049217.367009-.3836533c.1391442-.357885-.0366484-.7607583-.3930199-.9007048l-34.4323565-13.2097107c-.3561473-.1400034-.7577707.036673-.8967059.3944662-.1392619.3575201.0366985.760778.3928673.9003552l34.432509,13.2100604Z"/>
            <path class="cls-3" d="m64.9335516,21.0909884c.2044454.230742.5276779.2924593.7949278.1748945.0649757-.0285832.1267067-.067741.1825004-.1177476.2857268-.2550896.3112409-.6944684.0569501-.9814213l-6.884761-7.7696629c-.2541535-.2866382-.691327-.3122345-.9774434-.0571819-.2856767.2551092-.3112409.6944684-.0569001.9814409l6.8847262,7.7696783Z"/>
            <path class="cls-3" d="m154.6718361,51.0780423l-13.8895747,6.1101048c-.5603128-1.2171354-1.1858643-2.3843183-1.8671688-3.5026378L203.135127,13.4450182c.3218615-.2070997.4155482-.6370032.209152-.960486-.2062589-.3231682-.6373626-.4179875-.9564158-.2100812l-64.2190539,40.2398931c-.7401226-1.1101563-1.5374919-2.1675416-2.3886361-3.1673485l29.5941939-26.2565459c.2855742-.2554392.3111036-.6947831.0569501-.9814213-.2538248-.2867411-.6910981-.3117101-.9775807-.0574966l-29.5962413,26.2583217c-.9024193-.9758755-1.8568462-1.8921165-2.8568081-2.747111l24.9965198-32.2624813c.2424497-.2971036.1992756-.735146-.0965823-.9783923-.2955512-.2435896-.7326518-.2002481-.9742526.0968988l-24.9977578,32.2637343c-1.0413678-.8191936-2.1263627-1.5751463-3.249383-2.2641547l7.5090169-12.596384c.193234-.331421.0822048-.7572832-.2476251-.9512043-.3300777-.1940204-.7543086-.0826614-.9473684.2486831l-7.5101707,12.5983085c-1.1533974-.6447651-2.3423281-1.2210568-3.5600215-1.727436l.7620329-1.7633607c.1391093-.3578697-.0366832-.760743-.3930199-.9007048-.3558554-.1397151-.757444.0369461-.8967059.3944661l-.7623111,1.7641499c-1.237078-.4566366-2.5003014-.8419282-3.7835324-1.1530325l5.4112356-25.3400564c.0816656-.3748986-.1548756-.745589-.5285247-.8276349-.3736905-.082236-.7428174.1554076-.8242803.5306756l-5.4104799,25.3365567c-1.2907372-.2579189-2.5986716-.4416781-3.917264-.5482784l.5499037-9.7172095c.022474-.3832824-.2689725-.7121082-.650784-.7343874-.3815179-.0230333-.7092849.2703032-.7314108.6534324l-.5500281,9.7166391c-1.3125809-.0521102-2.6331043-.0275891-3.9555436.0755794l-2.811167-24.3242285c-.0376704-.3822454-.3766802-.6612264-.757126-.6233045-.3811385.0368098-.6588315.3781303-.6207628.7602422l2.8110572,24.3223598c-1.3008683.155648-2.6011896.3876933-3.8949822.7000472L92.3281713,1.1477422c-.0967474-.3713429-.4751148-.5937537-.8450767-.4965163-.3686378.0966549-.5911722.4769714-.494503.8485155l9.6417358,37.1669955c-1.2557552.3583399-2.5031536.7921418-3.7366576,1.3053457l-7.2394429-17.2575837c-.1534581-.3516881-.5618177-.5118553-.9120456-.357788-.3502627.1540826-.5097959.5640691-.3563379.9157573l7.2394429,17.2575837c-1.2119975.5625864-2.375245,1.1892416-3.4889077,1.8732225l-17.0945866-28.3134398c-.2063962-.3234828-.6367308-.4170152-.9564765-.2102212-.3220185.2071688-.4156578.6372181-.2093885.9603817l17.0931597,28.3113587c-1.1057802.7432322-2.1572923,1.5457721-3.153171,2.4004764l-10.8048203-11.1483158c-.2539794-.2867148-.6916556-.3121316-.9774434-.0571819-.2856767.2551092-.3112409.6944684-.0569153.981406l10.8061641,11.1496833c-.9720594.9061531-1.8851528,1.8642131-2.736806,2.8683408L39.2502297,12.7569652c-.2955512-.2435896-.7322274-.2002264-.9742526.0968988-.242526.2969288-.1993171.7349559.0965061.9782174l44.7961637,36.5892911c-.8158733,1.0456058-1.5680259,2.1356093-2.2542294,3.2632376l-29.8927305-17.064742c-.3301888-.1941799-.7543086-.0826614-.9473685.2486831-.193234.331421-.0821675.7572668.2476599.951189l29.8958003,17.0665172c-.642133,1.1580831-1.2163934,2.3516529-1.7206901,3.574247l-8.8554153-3.4682035c-.3559947-.1396538-.7575833.0370073-.8967059.3944662-.1390941.3579047.0366985.760778.3930199.9007048l8.8546724,3.4679469c-.4547849,1.2420288-.8388545,2.5103758-1.1486783,3.7987788l-31.492371-6.4756661c-.3736491-.0820459-.7423929.1554293-.8242804.5306756-.0816503.3749336.1548756.745589.5285247.8276349l31.4901809,6.4752126c-.2569083,1.2960054-.4389583,2.6093802-.5451109,3.9333747l-28.4298917-1.8498842c-.3813869-.0222575-.7092087.2704781-.7314108.6534324-.0223629.3834419.2690488.712283.6509365.734737l28.428024,1.849789c-.0519056,1.3177172-.0281393,2.6434445.074585,3.9711106l-47.2326048,5.4377804c-.3812794.0379136-.6584701.378388-.6206256.7605568.0375679.3819154.3765429.6609117.757176.6233241l47.2299361-5.4375233c.1550062,1.3060421.3886251,2.6114245.6996519,3.9103425l-26.4395046,7.9160809c-.3694528.0965967-.5913123.4770331-.4945649.848376.0969196.3716423.4751759.5938936.8451725.4966409l26.440471-7.9163393c.3569289,1.2610558.7874142,2.5140495,1.2986993,3.7527525l-48.7594956,23.4428711c-.3502627.1540826-.5097959.5640691-.3563379.9157573.1534428.3516532.5617676.5118357.9120303.3577531l49.3873848-23.7190832c.3502279-.1540673.5097959-.5640691.3563531-.9157223-7.2210272-16.5488167.3130422-35.9111201,16.794798-43.1615404,16.4817409-7.2504138,35.7652998.3146587,42.9863269,16.8634754.1534428.3516532.5617676.5118357.9120316.3577525l14.5174625-6.3863163c.3502279-.1540673.5097959-.5640691.3563531-.9157223-.1534581-.3516881-.5618177-.5118553-.9120456-.357788Z"/>
          </g>
        </g>
        <g>
          <g>
            <path class="cls-1" d="m54.6497542,33.6325184c.1164403.3570418.0947332,1.3912537-.0158098,1.8226267-.1104175.431373-.4239783.0209135-.4671415.5486652-.0895888,1.9260605-.2357665,4.7792454-.2771731,7.9536925,3.166223-2.0682977,5.6457243-6.2419327,4.38847-10.0958174-1.2803416-3.9249404-6.3094843-3.495961-10.7184066-2.0459983-3.468742,1.1407952-8.2741637,3.9062946-7.727095,5.5834085.1977478.6064924,1.0257539,1.1642285,1.3548734,1.2928593.329245.1288828-.3257318.541736-.6499578.6484454-.3241006.1065834-3.0174103-.6672172-3.343393-1.6662792-.6750527-2.0696835,6.2857696-5.8207644,9.6898923-6.9401422,6.0298017-1.9830058,11.3024903-2.2154483,13.0716805,3.208211.8379186,2.5690885-.0961135,5.2073429-1.3553753,7.3994839-.3673893.6344611-.4015183,1.0801964.300135.8100843,3.0979649-1.177079,9.1819716-2.6642073,9.8221424-.7016111.1629914.499657-.2650021.837927-.5892282.9445104-.7455694.245293-4.0924757-.550429-8.4041553.8675335-3.2417587,1.0660861-4.3499493,2.1809284-4.8362884,2.3409295-.2916027.0958747-.6533456-.0222994-1.005678-.2222377.0225854,4.1410048.2473102,8.5712715,1.0148376,11.9144126.1794285.770399.3399104,1.1523859.6158288,1.3380879.0725242.3320968-.6557296,1.4010805-1.0123281,1.5183726s-.9824652-.1509302-1.2404407-2.0417148c-.7100601-5.2583668-1.617617-19.8156952-.2695192-22.9455435-.4140658-1.04933-.1048967-1.862186.2517018-1.9794782s1.2861134.0907093,1.4024283.4474991Z"/>
            <path class="cls-1" d="m63.3265655,40.9725373c-.0814329-.2497025.3441765-.7057686.6684026-.812352.3241006-.1065834,1.5152298.1339222,1.8054523.4732001.5803195.6781779.2545877,4.3016359.3742904,6.8699685.0193231.389042.2253522.3605694.3059068.0573232.6667714-1.9178714,4.2525811-8.3123721,5.8084647-8.8241236.6160797-.2025841,2.2811261.8301159,2.6186524,1.8649577.3258572.999062-.2542113,1.8616821-1.0140848,1.9531473-.5535934.0637485-1.2552467-1.2068114-1.6999283-1.1395354-1.8843758.9358175-4.3604892,5.7800712-5.585622,9.0672749-.1030145.7843833.0923492,2.8142556-.1077826,3.6308911-.444807.0670241-.6060417.6732645-.8123218.7014851-.2061546.0282207-1.2053079-.3937035-1.1853574-.9928887.1643716-3.0173436.329496-8.5637124-.6399199-12.1958633-.1736567.0177639-.454594-.4035303-.5361525-.6534848Z"/>
            <path class="cls-1" d="m77.9340536,36.0108654c-.1454249-1.2166383,1.2202393-1.9816199,1.8769728-1.2890797,3.1398734,3.3532199,6.5611861,3.0575328,10.1414749.4975152-.4997649-.9815501-1.0598829-2.2590391-.7093072-3.1647462.1754133-.4527905,3.0624557-.2956871,3.3117734.6888866.2494433.9846997-.5816997,2.8385707-.2790552,3.7660731.9227393,1.9488638,2.1973091,5.0855153,4.2016385,6.7181564.3432982.2822067.5794412.1254812.6732961-.5768859,1.1267608-8.4309241,2.704226-13.0587354,3.9361345-13.4639036.4538412-.1491664.9011577-.0987723,1.5885069,1.0184637.6376613.3042541,2.1655641,1.0262748,2.2030809,1.2511582.0747828.4493889-.1887136.8521633-.6750527,1.0120385-.0971172.0320002-1.1081906-.4255777-1.8753416-.6869968-.4821984-.1574814-1.0705483-.2008203-1.5967882,1.1571733-.5169549,1.2764812-2.0196372,6.3536815-2.1483741,10.031187.3192071,1.1984964-.8426866,1.8177133-1.556009,2.0522976-1.6208793.533043-4.2835733-2.8976577-6.4078563-8.6395554l-.0233383-.0713076c-1.4345497,1.1041336-2.8675938,1.7728626-4.2849535,2.1598889.2902225.3394039.4507043.7213908.5136925,1.1349999.1340067,1.1807325-2.2530198,6.6279511-3.4408867,8.5989882-.7788201,1.2438511-1.8528817,1.913084-2.962578,1.9224069-2.4695887.0221734-3.1689835-2.6716404-3.3775221-4.3018878-.292732-1.997872.5391638-4.8397183-.6015247-8.3365612-.1977478-.6064924.8344053-1.1831262,1.4920171-1.4783094Zm1.5969137,1.9244227c.0932275.2854823.1099156.5567282.1149346.7919425-.0424104,1.0807003-2.06531,6.763637.2282381,9.7235314.8054207,1.0388733,1.8620413-.4541763,2.6290668-1.7340592.4296246-.7732967,2.0515078-3.8353649,2.2633087-6.1571447.0521974-.609768-.1455504-1.2162603-.4823239-1.6984054-1.7164909.1300166-3.3134046-.2534821-4.7532243-.9258646Z"/>
            <path class="cls-1" d="m120.0395251,27.4186804c-.9640204,2.7666332-4.3510786,10.3209528-9.3011723,12.4228885-2.6747395,2.1440147-4.4614961-1.0221173-4.9021625-2.8131217-.9044201-3.6534424.4135639-8.1960878,2.7300738-11.3285818.4023967-.5273737.6901096-.3058919.8871046-.2519702.1969949.0534177.1894665-.2995926.4488222-.3847585.6484521-.2132928,2.3698365,1.4330807,2.8305788,2.6251519.2419148.6316894.1222121,1.1450787-.0762885,1.5261837-.0416575.092977.1720255.4177667.0383952.7778321-.634399,1.9074147-2.0806178,4.5165665-4.6083013,7.4419409.7998998,1.7915084,2.0525116,1.3402297,4.2784288-.4194045,2.4621857-1.9158557,5.2665404-5.6432514,6.9995939-10.124668.2476866-.1210717.9518494-.2736397.6749272.5285076Zm-12.441924,8.5168459c1.6932781-1.7419962,4.3788084-5.9441038,3.722075-8.17782-.1164403-.3567899-1.2544939-.6541147-1.5137241-.5688228-1.4913897.4904601-2.9739961,4.9686011-2.2083509,8.7466428Z"/>
            <path class="cls-1" d="m131.7122906,33.3784064c.961009-.355278,2.0141164-.9784004,3.1628352-2.7386645.4680198.0040315.5843347.3608214.5012706.5460195-1.0488412,1.8465639-2.1935449,3.2895974-3.5758972,3.783837-.3565985.1172921-1.9250295.0405672-2.6983287-1.0092668-1.5171119-1.2393156-2.3570381-6.4550995-2.6753669-8.6422011-.914458,2.0391951-1.8221404,3.8788298-2.2599209,6.8278894.2711504,1.4914118-.2021394,1.2516621-.5045329,1.8650837-.0830641.1851981-1.2999156,1.2966388-1.332539,1.3072216-.2592303.0854179-.9034163-.0188978-1.1726845-.4044122-.1465542-.228537-.6918663-.8000055-.7781927-1.2849222-.7559837-4.8482853-.761881-7.1776241-.7330219-10.9404216.0805546-.3033722.3789329-.5989333.6707866-.6949339s1.3925158-.0229293,1.5345529.5228382c.3101729,1.2807647.3825717,3.1532815-.2200822,4.4976687-.0506917,1.7154134.1325011,3.1565571.3204618,4.8331671.0772923.567185.5568557.6069963.6699083.2932934,1.4255156-4.1038392,3.525582-10.7603889,3.9470507-10.8989725s.9984004-.1307726,1.2743188.0549295c.5197153.3823648.7583678,1.8843594.6020266,2.725688-.2343863,2.8034208,1.1317798,9.7424292,3.2673555,9.3561588Z"/>
            <path class="cls-1" d="m149.0369286,22.1102974l.0232128.0713076c.698391,2.1409911,1.7310459,3.1054072,3.092695,2.6576561,1.5236366-.5010428,3.1461471-3.0102884,3.6738928-6.3446105.2476866-.1210717.6390415-.1311505.6748018.5285076.1075316,1.9799821-1.2050569,5.7698664-3.9065225,7.1717028-2.0556484,1.0711255-3.9809289-.4289793-4.8180946-2.4454971-1.866182,2.3125828-3.8785417,4.3970066-5.4819801,5.7537403-.2775496.2494505-.946705.5089799-1.1504755.6548706-2.559303,1.9482339-5.3140952.3255455-5.8639244-3.0101624-.7248661-4.4237154,1.5799747-7.5917372,1.7902699-7.9375664.2102952-.3459551-.1513222-.4638772.0706421-.7740526,1.1837263-1.6534287,2.4662009-2.2330862,3.085543-1.7651775.1877098.135686.2219644-.3101754.4630008-.2313087.6351518.186206,1.5925221.7008552,1.8138591,1.3791591.2326297.7135797-.0880831,1.4906559-.6715394,1.6825312-.6160797.2025841-1.2369274.169576-1.6434648-.5262398-1.6167387.2155605-3.6215699,4.1936666-3.1110143,7.7396437.4449325,3.0146979,2.3677035,2.8563346,3.9461724,1.8631939,1.6108414-1.0039754,4.1252245-3.529725,6.3313168-6.230846-.7075506-3.5996468-.0751592-8.1538828,2.5465046-10.2408263.5136925-.406176.6898587-.3058919.8868536-.2520962.8646446.2292929,2.5787515-.0182678,3.1090067,1.3876001.2420403.6318154.1015089,1.1916932-.0969918,1.5727982-.0415321.092977-.4954987.2421434-.6295055.6020829-.8283825,1.9715411-2.3769886,4.3772269-4.1342587,6.6935893Zm-.3358952-1.4698684c2.1270434-2.8330273,3.7238316-5.5312506,3.4070086-6.6125809-.1164403-.3567899-.6592429-.8104623-.9185987-.7251703-1.6857497.5544605-2.8825252,4.148438-2.4884099,7.3377512Z"/>
          </g>
          <g>
            <path class="cls-3" d="m54.6446097,33.6328963c.1164403.3570418.0948587,1.3911277-.0158098,1.8225007-.1104175.431373-.4239783.0211655-.467267.5487912-.0895888,1.9260605-.235892,4.7794974-.2770477,7.9536925,3.166223-2.0684237,5.6455988-6.2420586,4.3885954-10.0959434-1.2804671-3.9249404-6.3096097-3.495835-10.7185321-2.0459983-3.468742,1.1407952-8.2742892,3.9062946-7.7272204,5.5834085.1979987.6064924,1.0258794,1.1642285,1.3551244,1.2931112.3291196.1286308-.3259827.54161-.6502088.6481934-.3239751.1065834-3.0174103-.6670912-3.3431421-1.6661532-.6751782-2.0694315,6.2857696-5.8207644,9.6896413-6.9402682,6.0298017-1.9830058,11.3024903-2.2154483,13.0716805,3.208211.8381695,2.5690885-.095988,5.2073429-1.3553753,7.3996099-.3673893.6343351-.4015183,1.0803224.300135.8099583,3.0979649-1.176701,9.182097-2.6638293,9.8221424-.7014851.1631168.4999089-.2650021.838179-.5892282.9447624-.7455694.245167-4.0923502-.5508069-8.4040298.8671556-3.2417587,1.0660861-4.3499493,2.1810544-4.8362884,2.3410555-.2916027.0958747-.6532201-.0221734-1.0058034-.2223637.0227109,4.1413828.2474357,8.5713975,1.0148376,11.9144126.1796795.770651.3400358,1.1523859.6159542,1.3383399.0723988.3319708-.6556042,1.4009545-1.0124536,1.5181207-.3563475.1172921-.9824652-.1509302-1.2403152-2.0417148-.7100601-5.2582409-1.6177425-19.8154433-.2696447-22.9455435-.4139403-1.04933-.1046457-1.862186.2517018-1.9793522.3568494-.1174181,1.2861134.0907093,1.4025537.4474991Z"/>
            <path class="cls-3" d="m63.321421,40.9729153c-.0815584-.2497025.344051-.7057686.6682771-.812352s1.5153553.1339222,1.8055778.4730741c.580194.6783039.2545877,4.3018878.3744159,6.8700945.0191976.3889161.2253522.3608214.3059068.0575752.6665204-1.9181234,4.2523302-8.3126241,5.8083392-8.8243756.6160797-.2025841,2.2810006.8301159,2.6186524,1.8649577.3258572.999062-.2543368,1.8616821-1.0140848,1.9532733-.5537189.0634965-1.2552467-1.2069374-1.7000537-1.1396614-1.8843758.9358175-4.3604892,5.7801972-5.585622,9.0671489-.1028891.7846353.0926002,2.8142556-.1077826,3.6308911-.444807.0672761-.6059163.6732645-.8121963.7014851-.2060291.0284726-1.2053079-.3937035-1.1854829-.9927627.1646225-3.0170916.329496-8.5635864-.6396689-12.1957374-.1739076.0176379-.4547195-.4036563-.5362779-.6536108Z"/>
            <path class="cls-3" d="m77.9289091,36.0111174c-.1454249-1.2162603,1.2202393-1.9814939,1.8769728-1.2888278,3.1398734,3.3530939,6.5611861,3.0576588,10.1414749.4975152-.4997649-.981802-1.0600084-2.2591651-.7091818-3.1649981.1752878-.4526645,3.0623302-.2955611,3.311648.6890126s-.5815742,2.8384447-.2790552,3.7661991c.9228648,1.9486118,2.1973091,5.0856413,4.201513,6.7179044.3432982.2822067.5794412.1256072.6732961-.5768859,1.1268863-8.4307981,2.704226-13.0584834,3.9361345-13.4635256.4539667-.1492924.9011577-.0988983,1.5886324,1.0182117.6377868.3042541,2.1655641,1.0262748,2.2029555,1.2511582.0747828.4493889-.1887136.8521633-.6750527,1.0120385-.0971172.0320002-1.1079397-.4257037-1.8753416-.6869968-.482073-.1576074-1.0706737-.2009463-1.5966628,1.1572993-.5170803,1.2762292-2.0196372,6.3535555-2.1482486,10.0309351.3192071,1.1987484-.8428121,1.8178393-1.5561345,2.0524236-1.6208793.533043-4.2835733-2.8976577-6.4078563-8.6393035l-.0232128-.0715595c-1.4346752,1.1040076-2.8677193,1.7731145-4.285079,2.1600148.2902225.3391519.4505789.7211388.513818,1.134748.1338813,1.1808585-2.2532707,6.6279511-3.4410122,8.5991142-.7788201,1.2437251-1.8528817,1.913084-2.962578,1.9225329-2.4695887.0220474-3.168858-2.6716404-3.3776475-4.3021398-.2926065-1.997872.5392893-4.8395923-.6012737-8.3361833-.1979987-.6064924.8344053-1.1835042,1.4918916-1.4786873Zm1.5970392,1.9244227c.0931021.2854823.1096647.5568542.1148091.7920684-.0425358,1.0808263-2.0654354,6.763637.2282381,9.7236574.8052952,1.0386213,1.8620413-.4544283,2.6291923-1.7343111.4296246-.7731707,2.0512568-3.835113,2.2630577-6.1568927.0524483-.609768-.1455504-1.2165123-.482073-1.6984054-1.7164909.1298907-3.3135301-.253734-4.7532243-.9261166Z"/>
            <path class="cls-3" d="m120.0343807,27.4190583c-.9640204,2.7666332-4.3510786,10.3209528-9.3011723,12.4227625-2.6747395,2.1441407-4.4614961-1.0219913-4.902037-2.8131217-.904671-3.6533164.4135639-8.1959618,2.7300738-11.3284558.4022712-.5273737.6899842-.3058919.8868536-.2520962.1969949.0537956.1894665-.2994666.4489477-.3847585.6484521-.2131668,2.369962,1.4333327,2.8305788,2.6252779.2420403.6315634.1223376,1.1449528-.076414,1.5264357-.0415321.0925991.172151.4173887.0383952.7778321-.6342735,1.9070367-2.0804924,4.5164405-4.6081758,7.4416889.7997743,1.7915084,2.0525116,1.3402297,4.2784288-.4194045,2.4620603-1.9156037,5.2666659-5.6432514,6.9994684-10.124794.2476866-.1210717.9519749-.2733877.6750527.5286336Zm-12.4417986,8.5168459c1.6931526-1.7421222,4.378683-5.9442298,3.7218241-8.17782-.1163148-.3567899-1.2542429-.6541147-1.5137241-.5688228-1.4911387.4903341-2.9738707,4.9686011-2.2080999,8.7466428Z"/>
            <path class="cls-3" d="m131.7070207,33.3790363c.9611345-.355656,2.0141164-.9785264,3.1629607-2.7390424.4680198.0040315.5844601.3608214.501396.5463975-1.0489667,1.8463119-2.1936703,3.2893454-3.5760227,3.7834591-.3565985.1172921-1.9252804.0405672-2.6983287-1.0091408-1.5171119-1.2393156-2.3570381-6.4552255-2.6754924-8.6422011-.9142071,2.0393211-1.8218895,3.8788298-2.2597954,6.8278894.2710249,1.4914118-.2020139,1.2516621-.5045329,1.8649577-.0830641.1853241-1.3000411,1.2966388-1.3324135,1.3073476-.2594812.0852919-.9036672-.0190238-1.1729354-.4044122-.1463032-.228663-.6917408-.7998795-.7781927-1.2850482-.7558583-4.8481593-.7616301-7.1772462-.7328964-10.9401697.0806801-.3032462.3790584-.5989333.6706611-.6949339.2918536-.0958747,1.3925158-.0231813,1.5345529.5227123.3102984,1.2806387.3826972,3.1535335-.2198313,4.4975427-.0508172,1.7154134.1322501,3.1566831.3202109,4.8332931.0772923.567437.5571067.6072483.6700337.2935453,1.4253901-4.1038392,3.525582-10.7606409,3.9470507-10.8992245.4214688-.1387096.9984004-.1308985,1.2743188.0549295.5195898.3823648.7582423,1.8843594.6019011,2.72594-.2341354,2.8030429,1.1320308,9.7423032,3.2673555,9.3561588Z"/>
            <path class="cls-3" d="m149.0317841,22.1105494l.0232128.0713076c.698391,2.1409911,1.7309205,3.1055332,3.0925695,2.6576561,1.5237621-.5010428,3.1461471-3.0101624,3.6738928-6.3444845.2476866-.1209457.639167-.1312765.6750527.5287595.1074062,1.9796042-1.2050569,5.7694885-3.9065225,7.1715768-2.0557739,1.0711255-3.9810543-.4292313-4.8182201-2.4453711-1.866182,2.3122049-3.8785417,4.3967546-5.4819801,5.7537403-.2775496.2491986-.9468304.5088539-1.1504755.6548706-2.559303,1.9478559-5.3140952.3252936-5.8637989-3.0104144-.7249916-4.4237154,1.5798492-7.5917372,1.7900189-7.9376923.2104207-.3455772-.1513222-.4638772.0707676-.7739266,1.1837263-1.6534287,2.4660754-2.2332122,3.0854175-1.7653035.1879608.135812.2220898-.3099234.4631263-.2311827.6350263.186206,1.5926476.7007292,1.8137336,1.3790331.2328806.7135797-.0878321,1.4906559-.6715394,1.6825312-.6158288.2025841-1.236802.169702-1.6433393-.5261139-1.6167387.2155605-3.6215699,4.1935406-3.1111398,7.7395178.4449325,3.0146979,2.367578,2.8564606,3.9462979,1.8633199,1.6107159-1.0041014,4.1252245-3.529851,6.3313168-6.230846-.7075506-3.5997728-.0750337-8.1536308,2.5463791-10.2409523.513818-.4057981.6899842-.3057659.8869791-.2520962.8646446.2296709,2.5786261-.0182678,3.1090067,1.3877261.2420403.6318154.1015089,1.1915672-.0969918,1.5730502-.0416575.0925991-.4953733.2418914-.62938.6019569-.8286335,1.9714151-2.377114,4.376975-4.1343841,6.6933373Zm-.3357697-1.4697424c2.1269179-2.8331533,3.7237062-5.5312506,3.4068831-6.6125809-.1164403-.3567899-.6592429-.8102103-.9185987-.7249184-1.6857497.5543345-2.8825252,4.14806-2.4882844,7.3374992Z"/>
          </g>
        </g>
      </g>
    </g>
  </g>
</svg>