<?xml version="1.0" encoding="utf-8"?>
<!-- Generator: Adobe Illustrator 28.0.0, SVG Export Plug-In . SVG Version: 6.00 Build 0)  -->
<svg version="1.1" id="_レイヤー_2" xmlns="http://www.w3.org/2000/svg" xmlns:xlink="http://www.w3.org/1999/xlink" x="0px"
	 y="0px" viewBox="0 0 325 110" style="enable-background:new 0 0 325 110;" xml:space="preserve">
<style type="text/css">
	.st0{fill:#34403B;}
</style>
<g>
	<g>
		<path class="st0" d="M68.7,55.1C68.7,55.1,68.8,55.1,68.7,55.1c0.3,0,0.4-0.1,0.4-0.3l9.7-36.2c0.1-0.2-0.1-0.4-0.3-0.4
			c-0.2-0.1-0.4,0.1-0.4,0.3l-9.7,36.2C68.4,54.9,68.5,55.1,68.7,55.1z"/>
		<path class="st0" d="M297.2,78H80.1c0-0.5,0-1.1-0.1-1.6l17-2.2c0.2,0,0.3-0.2,0.3-0.4c0-0.2-0.2-0.3-0.4-0.3l-17,2.2
			c-0.1-0.5-0.2-1-0.3-1.5l9.8-2.3c0.2-0.1,0.3-0.3,0.3-0.4c-0.1-0.2-0.2-0.3-0.4-0.3l-9.8,2.3c-0.1-0.5-0.3-1-0.5-1.5l15.8-6.6
			c0.2-0.1,0.3-0.3,0.2-0.5c-0.1-0.2-0.3-0.3-0.5-0.2l-15.8,6.6c-0.2-0.5-0.4-0.9-0.7-1.4L97.6,59c0.2-0.1,0.2-0.3,0.1-0.5
			s-0.3-0.2-0.5-0.1L77.5,69.2c-0.3-0.5-0.6-0.9-0.9-1.3l10.2-7.6c0.2-0.1,0.2-0.3,0.1-0.5s-0.3-0.2-0.5-0.1l-10.2,7.6
			c-0.3-0.4-0.7-0.8-1-1.2l1.7-1.7c0.1-0.1,0.1-0.4,0-0.5s-0.4-0.1-0.5,0l-1.7,1.7c-0.4-0.4-0.8-0.7-1.2-1L83.9,51
			c0.1-0.2,0.1-0.4-0.1-0.5s-0.4-0.1-0.5,0.1L72.9,64.2c-0.4-0.3-0.9-0.6-1.3-0.9l18.9-32.8c0.1-0.2,0-0.4-0.1-0.5
			c-0.2-0.1-0.4,0-0.5,0.1L71,62.9c-0.5-0.3-0.9-0.5-1.4-0.7l6.6-15.8c0.1-0.2,0-0.4-0.2-0.5s-0.4,0-0.5,0.2L68.9,62
			c-0.5-0.2-1-0.4-1.5-0.5l1.2-4.3c0.1-0.2-0.1-0.4-0.3-0.4c-0.2-0.1-0.4,0.1-0.4,0.3l-1.2,4.3c-0.5-0.1-1-0.2-1.5-0.3l2.9-22.5
			c0-0.2-0.1-0.4-0.3-0.4c-0.2,0-0.4,0.1-0.4,0.3L64.5,61c-0.5-0.1-1.1-0.1-1.6-0.1v-38c0-0.2-0.2-0.4-0.4-0.4s-0.4,0.2-0.4,0.4
			v37.8c-0.5,0-1,0-1.5,0.1l-2.2-17c0-0.2-0.2-0.3-0.4-0.3c-0.2,0-0.3,0.2-0.3,0.4l2.2,17c-0.5,0.1-1.1,0.2-1.6,0.3l-1.7-5.8
			c-0.1-0.2-0.3-0.3-0.4-0.3c-0.2,0.1-0.3,0.3-0.3,0.4l1.7,5.8c-0.5,0.1-1,0.3-1.5,0.5l-9.6-22.3c-0.1-0.2-0.3-0.3-0.5-0.2
			s-0.3,0.3-0.2,0.5l9.6,22.3c-0.5,0.2-1,0.5-1.5,0.7L35.1,30.2C35,30,34.7,29.9,34.6,30c-0.2,0.1-0.2,0.3-0.1,0.5l18.9,32.8
			c-0.4,0.3-0.9,0.5-1.3,0.8L41.6,50.5c-0.1-0.2-0.3-0.2-0.5-0.1c-0.2,0.1-0.2,0.3-0.1,0.5l10.4,13.6c-0.4,0.3-0.8,0.7-1.2,1.1
			l-6.9-7.2c-0.1-0.1-0.4-0.1-0.5,0s-0.1,0.4,0,0.5l6.9,7.2c-0.4,0.4-0.7,0.7-1,1.1l-16-12.1c-0.2-0.1-0.4-0.1-0.5,0.1
			c-0.1,0.2-0.1,0.4,0.1,0.5l16.1,12.2c-0.3,0.4-0.6,0.9-0.9,1.4L17.7,52c-0.2-0.1-0.4,0-0.5,0.1c-0.1,0.2,0,0.4,0.1,0.5L47,69.9
			c-0.2,0.4-0.5,0.9-0.7,1.4l-15.8-6.6c-0.2-0.1-0.4,0-0.5,0.2s0,0.4,0.2,0.5L46,72c-0.2,0.5-0.4,1-0.5,1.5l-2.3-0.6
			c-0.2-0.1-0.4,0.1-0.4,0.3c-0.1,0.2,0.1,0.4,0.3,0.4l2.3,0.6c-0.1,0.5-0.2,1-0.3,1.5l-17-2.2c-0.2,0-0.4,0.1-0.4,0.3
			c0,0.2,0.1,0.4,0.3,0.4l17,2.2c-0.1,0.5-0.1,1.1-0.1,1.6H22.8c-0.2,0-0.4,0.2-0.4,0.4c0,0.2,0.2,0.4,0.4,0.4h22.4
			c0.2,0,0.4-0.2,0.4-0.4c0-9.3,7.6-16.9,16.9-16.9s16.9,7.6,16.9,16.9c0,0.2,0.2,0.4,0.4,0.4h217.4c0.2,0,0.4-0.2,0.4-0.4
			C297.5,78.2,297.4,78,297.2,78z"/>
		<path class="st0" d="M41.1,73.1c0.2,0,0.3-0.1,0.3-0.3c0.1-0.2-0.1-0.4-0.3-0.4L5,62.7c-0.2-0.1-0.4,0.1-0.4,0.3
			c-0.1,0.2,0.1,0.4,0.3,0.4L41.1,73.1C41,73.1,41,73.1,41.1,73.1z"/>
	</g>
</g>
<g>
	<path class="st0" d="M114.6,43.5c-1.1,1.8-2.7,4.7-3.2,5.6c-0.6,0.9-1.3,2-1.8,2.7c2.3,2.2,5.1,5.1,5.1,8.6c0,3.7-2.9,4.8-4.4,5.3
		c-0.2-1.8-1.7-2.8-2.3-3.2v-0.3c0.6,0.1,1.2,0.2,2,0.2c2.2,0,2.4-1.1,2.4-2.4c0-2.7-1.3-6.2-3.6-8.2c0.4-1,2.1-5.2,2.4-6.1
		c0.2-0.8,0.8-2.7,1-3.6h-5.7c0,1.4-0.2,16.7-0.1,19.1l0.2,11c0,1-0.3,2-1.8,2c-0.4,0-0.8-0.2-0.8-0.7c0-0.9,0.2-4.8,0.2-5.7
		c0.2-6.2,0.2-12.4,0.2-18.5c0-6.9,0-8.3-0.2-9.6l2.8,1.4h5.2l0.8-0.7c0.3-0.3,0.4-0.4,0.6-0.4s0.4,0.2,0.6,0.4l1.7,1.5
		c0.2,0.2,0.3,0.3,0.3,0.5C116.5,42.8,115.4,43.2,114.6,43.5z M138,56.1h-14.4c-0.4,0.9-1.1,2.3-2.5,4.3h11.5l0.8-0.8
		c0.4-0.4,0.6-0.6,0.8-0.6s0.3,0.1,0.7,0.4l1.4,1.2c0.3,0.2,0.3,0.4,0.3,0.5c0,0.6-0.8,0.9-1.4,1.2c-0.1,1-0.6,5.7-0.8,6.7
		c-0.9,4.5-3.4,5.1-5.8,5.7c-0.4-1.6-1.4-2.5-2.5-3.6l0.2-0.2c1,0.4,2.2,0.7,3.2,0.7c0.8,0,1.5-0.1,2-0.8c0.9-1.2,1-2.3,1.7-9.5
		h-2.9c-1.8,7.1-7.5,12.6-12.6,13.8V75c4.9-3.2,8.4-8.1,10.2-13.7h-2.7c-2,4.7-5.8,9.8-12.3,12.2v-0.2c3.6-2.2,8.1-7.4,9.8-12h-2.2
		c-1.3,1.6-5.2,6.1-8.8,7.4v-0.1c4.2-3.2,7.1-7.7,9.3-12.5c-2.2,0-4.3,0.2-5.7,0.4l-0.9-1.7c2,0.2,4.6,0.3,6.7,0.3h13.2l1.2-1.3
		c0.3-0.3,0.5-0.5,0.6-0.5c0.2,0,0.5,0.2,0.7,0.4l1.4,1.2c0.1,0.1,0.4,0.4,0.4,0.6C138.6,56.1,138.2,56.1,138,56.1z M131.5,42.8
		c0,1.2,0.2,7.5,0.2,8.3c0,1.5-1.2,1.7-1.6,1.7c-0.7,0-0.7-0.8-0.6-1.3h-8c-0.1,0.9-1,1.4-1.5,1.4s-0.7-0.2-0.7-0.8
		c0-0.2,0.1-1.3,0.1-1.5c0-5.2,0.1-5.7,0.1-6.9c0-1.7,0-2.2-0.3-4.1l2.8,1.5h7.4l0.6-0.6c0.2-0.2,0.4-0.4,0.6-0.4
		c0.2,0,0.5,0.2,0.7,0.3l1.1,0.7c0.3,0.2,0.5,0.3,0.5,0.6C132.7,41.8,132.7,42,131.5,42.8z M129.5,42h-8.1v3.9h8.1V42z M129.5,46.8
		h-8.1v3.7h8.1V46.8z"/>
	<path class="st0" d="M153.4,56c0.5-0.3,0.5-0.3,0.9-0.3c0.5,0,1,0.2,1,0.6c0,0.3-0.2,0.4-0.4,0.5c-0.3,0.2-1.9,0.9-4.6,1.8
		c-2.4,6.6-3.9,10.7-5.2,13.2c-0.3,0.5-0.4,0.9-0.8,0.9c-0.5,0-0.7-0.6-0.7-1c0-0.3,0-0.4,0.8-1.8c2.5-4.3,4.1-9.1,4.7-11
		c-1.6,0.4-3,0.4-3.3,0.4c-1.8,0-2.3-0.8-2.6-1.3c0.3,0.1,1,0.3,2.2,0.3s3.1-0.3,4.1-0.6c0.5-1.6,1-3.4,1-3.9c0-0.7-0.5-1-1.3-1.5
		c0.4-0.1,0.6-0.2,1.1-0.2c1.6,0,2,1.4,2,1.7c0,0.2,0,0.3-0.3,0.9c-0.6,1.2-0.8,1.7-1.1,2.6C151.5,57.1,152.6,56.6,153.4,56z
		 M157.7,71.4c1,0,2.2-0.1,3.7-0.3c0.4-0.1,0.5-0.1,0.6-0.1c0.4,0,1.2,0.5,1.2,0.9c0,0.8-3,0.9-4.5,0.9c-2.1,0-4-0.3-5.4-1.4
		c-0.4-0.3-1-1-1-2.3c0-0.2,0-0.9,0.4-1.6C152.9,69.6,153.4,71.4,157.7,71.4z M157.9,62.5c0.6-0.5,2.1-1.7,2.1-2.2s-1-0.5-4.3-0.6
		c1.2-1,3.5-1,3.6-1c1.6,0,3.8,0.6,3.8,1.9c0,0.6-0.4,0.6-1.2,0.6C160.9,61.2,160.2,61.4,157.9,62.5L157.9,62.5z M162.3,56.1
		c0,0.2-0.1,0.6-0.5,0.6c-0.3,0-0.4-0.1-1.3-1c-0.7-0.7-1.1-0.9-2.7-2C159.4,53.7,162.3,54.4,162.3,56.1z M160.6,51.7
		c1.2,0,2.7,0.4,3.4,1c0.5,0.3,0.5,0.9,0.5,1.1c0,0.3-0.1,0.6-0.5,0.6c-0.3,0-0.5-0.2-0.8-0.5c-1.1-1.1-2.1-1.6-3.6-2.2
		C160,51.7,160.1,51.7,160.6,51.7z"/>
	<path class="st0" d="M179.4,54.1c0-1.1-0.2-1.2-1.9-2c0.2-0.2,0.5-0.4,1.3-0.4c1.3,0,2.4,0.9,2.4,1.5c0,0.1-0.1,0.6-0.3,1.1
		c-0.1,0.5-0.2,1.1-0.3,1.9c1.8-0.4,2.6-0.7,4-1.2c0.2-0.1,0.4-0.2,0.6-0.2c0.5,0,1.4,0.5,1.4,0.8s-0.3,0.5-0.5,0.5
		c-0.8,0.3-3,0.9-5.7,1.3c-0.1,1.1-0.1,2.7-0.1,4.1c1.7-0.4,2.3-0.6,3.4-1.1c0.1-0.1,0.3-0.1,0.5-0.1c0.5,0,1.3,0.3,1.3,0.7
		s-0.3,0.5-0.6,0.6c-0.5,0.2-2.8,0.6-4.6,1c0.1,1.1,0.3,4.6,0.4,5.9c2.9,0.7,5.5,1.9,5.5,3.2c0,0.5-0.3,0.7-0.6,0.7
		c-0.2,0-0.3-0.1-1.2-0.7c-0.3-0.2-1.9-1.2-3.6-1.7c0,1.5-0.6,2.1-1,2.4c-1.2,0.9-2.8,0.9-3.1,0.9c-2.6,0-4.4-1.3-4.4-2.6
		c0-0.8,0.5-1.3,1.3-1.8c1.4-0.8,3.9-0.8,4.4-0.8c0.6,0,1,0,1.4,0.1c0-0.9-0.2-4.6-0.3-5.4c-1.3,0.2-2.6,0.3-3.9,0.3
		c-1.5,0-2.5-0.3-2.5-1.2c0-0.4,0.5-1.1,1.3-1.3c-0.2,0.2-0.4,0.5-0.4,0.8c0,0.5,0.5,0.6,1.9,0.6c1,0,2.2-0.1,3.7-0.4
		c0-1.4,0-2.2,0.1-4.2c-1,0.1-4.5,0.5-5.2,0.5s-2.7-0.2-3.4-1.7c0.4,0.2,1.5,0.6,3.3,0.6c0.5,0,2.6-0.1,5.3-0.6
		C179.3,56.1,179.4,54.4,179.4,54.1z M176.7,69.6c-1.7,0-3.4,0.4-3.4,1.5c0,0.7,1.1,1.3,3.1,1.3c1.1,0,3.4-0.3,3.1-2.6
		C179,69.8,178.3,69.6,176.7,69.6z"/>
	<path class="st0" d="M199.2,74.7c1.9-1.3,3.5-3.4,4.5-5.8c1-2.2,1.2-4.7,1.2-7.1c0-2.7-0.4-4.9-0.9-5.6c-0.3-0.4-0.8-0.8-1.3-0.8
		c-0.2,0-0.7,0.1-1.2,0.5c-2.4,2.3-3.6,7.3-3.7,7.6c-0.2,0.9-0.3,2.6-0.3,3c0,0.2,0.1,1.1,0.1,1.2c0,0.3-0.2,0.4-0.4,0.4
		c-0.3,0-0.7-0.3-0.8-0.5c-1-1.4-1-3.9-1-4.4c0-1.6,0.7-5.9,1-7.7c0.1-0.5,0.1-1,0.1-1.2c0-1.2-0.7-1.7-1.6-2.4
		c0.2,0,0.4-0.1,0.6-0.1c0.8,0,2.4,0.5,2.4,1.7c0,0.4-0.1,0.6-0.3,1.2c-0.2,0.4-1.3,4.3-1.3,7.3c0,0.3,0,1.8,0.2,2
		c0,0.1,0.1,0.1,0.1,0.1c0.1,0,0.2-0.1,0.2-0.3c0.4-1.6,1.8-6.8,4.7-8.7c0.4-0.3,1-0.3,1.1-0.3c3.1,0,3.4,5,3.4,7.4
		c0,3.4-0.5,7.7-4.2,10.9c-0.7,0.6-2.1,1.6-3,1.9v-0.3H199.2z"/>
	<path class="st0" d="M223.5,42.1c-2.7,3.2-6,5.7-9.7,7.7l-0.2-0.2c2.8-2.6,7.9-7.2,8.8-10.8l2.4,2.3c0.2,0.2,0.4,0.4,0.4,0.6
		C225.2,42.2,224.4,42.1,223.5,42.1z M223.3,50.8c-0.8,1.1-1.2,1.7-1.9,2.6l0.9,0.3c0.6,0.2,0.7,0.2,0.7,0.5c0,0.2-0.1,0.3-0.2,0.4
		c-0.1,0.1-0.7,0.5-0.9,0.6c0,2.5,0.2,14.8,0.2,17.6c0,1.2,0,1.4-0.2,1.7c-0.2,0.4-1.1,0.8-1.6,0.8c-0.8,0-0.8-0.6-0.8-0.8
		c0-1.2,0.2-6.9,0.2-8.1c0-1.3,0-2.2,0-10.8c-2.8,3.5-4.7,4.9-5.7,5.7l-0.2-0.2c3.6-4,7.1-10.3,7.8-13.4l2.4,1.8
		c0.4,0.4,0.6,0.4,0.6,0.6C224.8,50.5,224.6,50.5,223.3,50.8z M239.9,54.2H230c-1.4,0-3.6,0.2-5.1,0.5l-1-1.7c2,0.2,3.9,0.2,6.6,0.3
		v-5.9c-2,0-4.1,0.2-5.4,0.5l-1-1.7c3.3,0.2,6.3,0.3,6.4,0.3c0-5.7-0.2-6.1-0.7-7.7l3.4,1c0.4,0.1,0.6,0.3,0.6,0.5
		c0,0.5-0.6,0.8-1.3,1.2c0,0.8,0,4.3,0,5h3.3l0.7-0.8c0.3-0.4,0.4-0.5,0.6-0.5c0.1,0,0.2,0,0.8,0.4l1.2,0.8c0.2,0.2,0.4,0.4,0.4,0.6
		c0,0.4-0.4,0.4-0.6,0.4h-6.4v5.9h3.8l1-1.3c0.3-0.4,0.4-0.5,0.6-0.5c0.3,0,0.7,0.4,0.8,0.4l1.4,1.3c0.2,0.2,0.4,0.4,0.4,0.6
		C240.5,54.2,240.2,54.2,239.9,54.2z M227.1,70.7c-0.3,0.8-0.4,1.1-0.9,1.1c-0.2,0-0.3-0.2-0.5-0.6l-1.5-3c0.3,0,1.6,0.1,1.8,0.1
		c0.4,0,1.7-0.1,4.5-0.6c0-1,0-5.6,0-6.5c-2,0-4.1,0.2-5.4,0.4l-1-1.7c3.3,0.3,6.3,0.3,6.4,0.3c0-4.1,0-4.5-0.4-5.5l2.8,0.5
		c0.4,0.1,0.8,0.1,0.8,0.5c0,0.3-0.5,0.6-1.2,1c0,0.8,0,2.3,0,3.5h2.8l1.2-1.2c0.4-0.5,0.5-0.5,0.6-0.5c0.2,0,0.6,0.3,0.8,0.4
		l1.4,1.2c0.2,0.2,0.4,0.4,0.4,0.6c0,0.4-0.3,0.4-0.6,0.4h-6.6c0,1.6,0,4.7,0,6.2c4.7-0.8,6.8-1.3,8.6-1.8l0.1,0.3
		C237,67.6,233.3,68.8,227.1,70.7z M250.8,54.1h-5c0,2.6,0.3,16.1,0.1,17.7c-0.3,2.5-3.1,3.4-4.2,3.5c-0.7-1.9-2.1-2.9-3.3-3.2
		l0.1-0.2c0.5,0,2.8,0.1,3.1,0.1c1.3,0,1.7-0.2,2-0.6s0.3-3.4,0.3-4.2c0-1.5,0-3,0-4.6c0-2.8-0.1-5.7-0.1-8.5c-0.5,0-1.6,0-2.4,0.2
		L241,53c0.6,0,2.2,0.1,2.8,0.1h3.5l1.2-1.4c0.4-0.6,0.5-0.6,0.7-0.6c0.1,0,0.3,0.1,0.6,0.5l1.4,1.4c0.4,0.4,0.4,0.4,0.4,0.6
		C251.4,54.1,251.1,54.1,250.8,54.1z M249.5,44.6h-7c-0.6,0-1.6,0-2.2,0.2l-0.4-1.3c0.7,0,2.2,0.2,2.8,0.2h3.4l0.7-1.2
		c0.2-0.3,0.4-0.6,0.6-0.6s0.3,0,0.8,0.4l1.5,1.2c0.2,0.2,0.4,0.3,0.4,0.6S249.9,44.6,249.5,44.6z"/>
	<path class="st0" d="M290.5,72.5h-29.2c0,1.2,0,1.4-0.2,1.7c-0.4,0.6-1.4,0.8-1.8,0.8c-0.8,0-0.8-0.4-0.8-0.6
		c0-0.9,0.2-2.2,0.2-3.1c0-1.1,0.4-16.9,0.4-21.5c0-6.3-0.2-7.8-0.6-10.2l3.7,1.9h22.3l1.5-1.6c0.4-0.4,0.4-0.5,0.6-0.5
		s0.6,0.3,0.8,0.4l2,1.6c0.2,0.2,0.4,0.3,0.4,0.6c0,0.4-0.3,0.4-0.6,0.4h-28c0,0.5-0.1,18.8-0.1,22.3c0,1.6,0,4.2,0.1,6.7h24.4
		l1.6-1.8c0.4-0.4,0.4-0.5,0.6-0.5s0.6,0.3,0.8,0.4l2.2,1.8c0.2,0.2,0.4,0.4,0.4,0.6C291.1,72.4,290.8,72.5,290.5,72.5z M283.6,48
		c-2.1,3.6-3.8,6.1-5.9,8.7c1.7,1.5,6.7,5.9,6.7,8.7c0,0.7-0.4,1.4-1.2,1.4s-1.1-0.4-1.8-1.7c-1.7-3-3.7-5.4-5-6.8
		c-1.5,1.8-3.8,4.1-6.5,6.5c-2.1,1.8-3.6,2.8-6,4v-0.3c4.2-2.9,7.8-7.4,11.3-11.6c-2.2-2.2-4.3-3.9-9.2-7.8l0.2-0.3
		c1.5,0.8,5.4,3,10.1,6.7c2.8-3.8,4.9-7.5,5.3-9.1c0.2-0.8,0.2-1.2,0.2-1.6l3.2,2.1c0.3,0.2,0.4,0.4,0.4,0.5
		C285.2,47.8,284.8,47.8,283.6,48z"/>
</g>
<g>
	<path class="st0" d="M160.6,92.3c1-0.4,2-1.4,2.6-2.1c1-1.2,1.6-2.7,1.6-2.7s0,0-0.1,0s-1.3,0.2-1.4,0.2c-0.2,0-0.3,0-0.5-0.2
		c-0.8,1.1-1.4,1.6-2.3,2l0,0c1.3-1.1,2.2-2.8,2.2-3s-0.4-0.4-0.5-0.4c0.1,0,0.3-0.1,0.4-0.1c0.3,0,0.9,0.3,0.9,0.5
		c0,0.1,0,0.1-0.1,0.2s-0.4,0.5-0.4,0.6c0.1,0,0.2,0,0.3,0c0.5,0,1.4-0.1,1.6-0.2c0,0,0.1-0.1,0.2-0.2h0.1c0.1,0,0.4,0.3,0.5,0.4
		s0.1,0.1,0.1,0.2s-0.1,0.1-0.3,0.2c-0.1,0-0.2,0.2-0.3,0.4C164.5,89.3,163.2,91.6,160.6,92.3L160.6,92.3z M166.4,86.8
		c0,0.1-0.1,0.2-0.2,0.2c-0.1,0-0.1,0-0.4-0.3c-0.3-0.3-0.5-0.5-0.8-0.7C165.5,86,166.4,86.3,166.4,86.8z M167.2,86.4
		c0,0.1-0.1,0.2-0.1,0.2c-0.1,0-0.2-0.1-0.3-0.2c-0.5-0.4-0.6-0.5-1.1-0.8C166.1,85.7,167.2,85.8,167.2,86.4z"/>
	<path class="st0" d="M172,92.3c2.1-0.9,3.4-3,3.6-4.2c-0.6,0.1-3,0.3-3.4,0.5c-0.2,0.1-0.2,0.1-0.2,0.1c-0.2,0-0.8-0.5-0.8-0.9
		c0-0.1,0-0.1,0-0.3c0.2,0.3,0.5,0.5,0.9,0.5c0.3,0,3.1-0.2,3.3-0.3c0.1,0,0.1,0,0.4-0.2l0.1-0.1c0.1,0,0.7,0.4,0.7,0.6
		c0,0.1,0,0.1-0.3,0.2c-0.2,0.1-0.2,0.1-0.3,0.4c-0.1,0.2-0.7,1.8-1.9,2.7C173.5,91.9,172.8,92.2,172,92.3L172,92.3z M172.8,86.5
		c0.4,0,1.7-0.1,2-0.2s0.3-0.1,0.4-0.1c0.1,0,0.6,0.1,0.6,0.3c0,0.2-0.2,0.2-0.9,0.3c-0.4,0-2.3,0.2-2.5,0.2s-0.6-0.2-0.6-0.8
		C172.2,86.4,172.3,86.5,172.8,86.5z"/>
	<path class="st0" d="M183.8,87.3c0,0.1,0,0.3-0.3,0.3c-0.1,0-0.2-0.1-0.5-0.3c-0.5-0.5-0.9-0.7-1.3-0.9
		C182.7,86.3,183.8,86.7,183.8,87.3z M187.2,87.1c-0.6,1.2-1.6,2.2-2.7,3.1c-0.4,0.3-0.7,0.5-1.1,0.8c-0.2,0.2-0.3,0.2-0.5,0.5
		c-0.1,0.1-0.1,0.1-0.2,0.1c-0.3,0-0.8-0.6-0.8-1c0-0.1,0.1-0.2,0.1-0.3c0.1,0.3,0.4,0.5,0.5,0.5c0.3,0,1-0.5,1.3-0.8
		C185.7,88.8,186.2,88.2,187.2,87.1L187.2,87.1z"/>
	<path class="st0" d="M192.2,87.8c0.6,0,1.4,0.2,1.4,0.8c0,0,0,0.2-0.2,0.2c-0.1,0-0.2-0.1-0.3-0.2c-0.7-0.5-1.1-0.6-1.5-0.8
		C191.8,87.8,191.9,87.8,192.2,87.8z M192.9,86c0.8,0,1.5,0.3,1.5,0.8c0,0.1-0.1,0.3-0.2,0.3c-0.1,0-0.1,0-0.3-0.2
		c-0.6-0.6-1.2-0.8-1.4-0.9C192.6,86,192.7,86,192.9,86z M197.7,87.6c-0.5,1.2-2.1,2.8-3.8,3.9c-0.2,0.1-0.3,0.2-0.6,0.5
		c-0.1,0.1-0.1,0.1-0.1,0.1c-0.2,0-0.6-0.4-0.6-0.5c-0.2-0.2-0.2-0.5-0.2-0.8c0.2,0.3,0.5,0.5,0.7,0.5
		C193.6,91.3,196.2,89.4,197.7,87.6L197.7,87.6z"/>
	<path class="st0" d="M203.1,92.3c1.3-1.4,1.8-3.5,1.8-4.1c0-0.3-0.4-0.4-0.5-0.5c0.2-0.1,0.3-0.1,0.4-0.1c0.3,0,0.8,0.2,0.8,0.4
		c0,0,0,0.2-0.1,0.2c0.8-0.5,1.6-1.5,1.6-1.6c0,0,0-0.1-0.2-0.1c-0.9,0-3.5,0.4-3.5,0.4c-0.2,0-0.4,0.1-0.5,0.2c-0.1,0-0.1,0-0.1,0
		c-0.1,0-0.2-0.1-0.3-0.2c-0.3-0.3-0.3-0.4-0.3-0.6c0-0.1,0-0.2,0-0.4c0.3,0.5,0.6,0.6,0.8,0.6c0.6,0,3.8-0.3,4-0.3
		c0.1,0,0.2-0.1,0.3-0.1c0.1-0.1,0.1-0.1,0.1-0.1c0.1,0,0.3,0.2,0.4,0.3c0.1,0.1,0.3,0.3,0.3,0.4s-0.1,0.1-0.4,0.1
		c-0.1,0-0.2,0.1-0.6,0.3c-0.7,0.5-1,0.7-1.2,0.9c-0.2,0.1-0.4,0.2-0.5,0.2c-0.1,0.2-0.2,0.9-0.3,1c-0.1,0.5-0.5,1.5-1.2,2.2
		C203.5,92.1,203.2,92.3,203.1,92.3L203.1,92.3z"/>
	<path class="st0" d="M213.8,86.1c-0.1,0.2-0.3,0.5-0.8,1c0.3,0.4,0.8,1.4,0.8,3.1c0,2.3-0.7,2.4-1.3,2.5c0-0.2,0-0.4-0.6-0.8v-0.1
		c0.5,0.1,0.8,0.1,0.8,0.1c0.2,0,0.3-0.1,0.4-0.2c0.2-0.3,0.3-1.5,0.3-1.9c0-0.6,0-0.9-0.1-1.1c-0.2,0.3-0.9,1.2-1.9,1.8l0,0
		c0.7-0.6,1.5-1.9,1.8-2.5c-0.1-0.4-0.2-0.7-0.4-0.9c-0.6,0.6-1,0.9-1.3,1V88c0.4-0.4,0.8-0.9,1.1-1.3c-0.3-0.6-0.7-0.9-0.8-1
		l0.1-0.1c0.6,0.5,0.8,0.7,0.9,0.9c0.2-0.3,0.5-0.8,0.6-1c0-0.1,0.1-0.3,0.1-0.4l0.6,0.4c0.1,0.1,0.1,0.1,0.1,0.1
		C214.1,86,214,86,213.8,86.1z M218.5,92.7c-0.6-0.4-1.6-1.1-2.1-3.3h-0.1c-0.1,0.7-0.4,2.7-2.8,3.4v-0.1c0.4-0.1,1.3-0.6,2-2
		c0.2-0.5,0.3-0.9,0.4-1.3h-0.6c-0.3,0-0.8,0-1.1,0.1l-0.2-0.4c0.6,0,1.2,0.1,1.4,0.1h0.5c0.1-0.8,0.1-1.5,0.1-2.2h-0.6
		c-0.3,0-0.8,0-1.1,0.1l-0.2-0.4c0.6,0,1.2,0.1,1.4,0.1h0.4c0-0.5,0-1.1-0.2-1.6l0.8,0.2c0.1,0,0.1,0,0.1,0.1s0,0.1-0.3,0.2
		c0,0.2,0,0.5,0,1h1.4l0.2-0.3l0.1-0.1c0.1,0,0.1,0.1,0.1,0.1l0.3,0.3l0.1,0.1c0,0.1-0.1,0.1-0.1,0.1h-2.2c0,0.2,0,1.4-0.2,2.2h1.8
		l0.3-0.3c0.1-0.1,0.1-0.1,0.1-0.1s0.1,0.1,0.2,0.1l0.3,0.3l0.1,0.1c0,0.1-0.1,0.1-0.1,0.1h-2.5c0.9,2.3,2.1,2.6,2.9,2.8l0,0
		C218.8,92.3,218.7,92.4,218.5,92.7z M214.9,88.8c-0.2,0-0.2-0.2-0.3-0.4c-0.1-0.6-0.2-0.8-0.3-0.9h0.1c0.4,0.3,0.8,0.5,0.8,1
		C215.2,88.6,215,88.8,214.9,88.8z M217.9,87.9c-0.3,0.5-0.5,0.7-1,1.2h-0.1c0.4-0.6,0.5-1.2,0.5-1.4c0-0.2,0-0.3,0-0.4l0.6,0.3
		c0.1,0,0.1,0.1,0.1,0.1C218.2,87.8,218.1,87.9,217.9,87.9z"/>
	<path class="st0" d="M228.8,87.5c0,0.3,0,0.4,0,1.2c0,0.1,0,1.7,0,2.1c0,0.9,0,1,0,1.2c0,0.1,0,0.4-0.3,0.4c-0.2,0-0.2-0.1-0.2-0.3
		c0-0.1,0-0.4,0-0.5h-5.1c0,0.5,0,0.6,0,0.6c0,0.1-0.3,0.2-0.3,0.2c-0.2,0-0.2-0.2-0.2-0.2c0-0.2,0-0.5,0-0.6c0-1.1,0-2.7,0-2.8
		c0-1.1-0.1-1.5-0.1-1.9l0.8,0.2c0.1,0,0.1,0.1,0.1,0.1c0,0.1-0.1,0.1-0.3,0.3c0,0.4,0,3.9,0,4h2.3c0-0.6,0-3.5,0-4.1
		c0-1.2-0.1-1.5-0.2-2l0.8,0.2c0.1,0,0.1,0.1,0.1,0.1c0,0.1-0.1,0.2-0.3,0.3c0,0,0,0.1,0,0.2c0,1.6,0,1.7,0,3.3v1.9v0.1h2.4
		c0-1.1,0-2.8,0-3.3c0-0.6,0-0.8-0.2-1.3l0.7,0.2c0.1,0,0.2,0.1,0.2,0.1C229,87.4,228.9,87.4,228.8,87.5z"/>
	<path class="st0" d="M238.5,86.2l0.3-0.2c0.1-0.1,0.1-0.1,0.2-0.1c0,0,0.1,0,0.2,0.1l0.5,0.4c0.1,0,0.1,0.1,0.1,0.1
		c0,0.1,0,0.1-0.1,0.1s-0.3,0-0.5,0.1c-0.3,0.2-0.3,0.3-0.5,0.4h-0.1c0-0.1,0.1-0.6,0.1-0.7h-5.1c-0.2,0.7-0.6,1-0.8,1
		s-0.3-0.1-0.3-0.3c0-0.2,0.2-0.3,0.4-0.4c0.3-0.2,0.6-0.5,0.7-0.8l0,0c0,0.1,0,0.2,0,0.4h2.3c0-0.3,0-0.8-0.1-1l0.7,0.2
		c0.1,0,0.1,0,0.1,0.1s-0.1,0.1-0.3,0.2c0,0.1,0,0.5,0,0.5L238.5,86.2L238.5,86.2z M238,90l0.2-0.2l0.1-0.1h0.1l0.3,0.3
		c0.1,0,0.1,0.1,0.1,0.1s0,0.1-0.1,0.1s-0.1,0.1-0.2,0.1c0,0.3,0.1,1.6,0.1,1.8c0,0.1,0,0.4-0.3,0.4c-0.2,0-0.2,0-0.2-0.4h-4.2v0.2
		c0,0.2-0.2,0.3-0.4,0.3c-0.1,0-0.1-0.1-0.1-0.2s0.1-1.5,0.1-1.8c0-0.2,0-0.9-0.1-1.2L234,90H238z M237.2,87.1l0.2-0.3l0.1-0.1
		l0.1,0.1l0.3,0.3l0.1,0.1c0,0.1-0.1,0.1-0.1,0.1h-3c-0.3,0-0.7,0-1.1,0.1l-0.2-0.4c0.7,0.1,1.3,0.1,1.4,0.1
		C235,87.1,237.2,87.1,237.2,87.1z M233.9,90.2V91h1.9v-0.8H233.9z M233.9,91.2V92h1.9v-0.9L233.9,91.2L233.9,91.2z M237.5,88
		l0.2-0.2l0.1-0.1c0,0,0.1,0,0.1,0.1l0.2,0.2l0.1,0.1c0,0-0.1,0.2-0.2,0.3c0,0.1,0,0.5,0,0.5v0.2c0,0.2-0.2,0.3-0.3,0.3
		s-0.1-0.1-0.1-0.3h-3.2c0,0.3-0.2,0.3-0.3,0.3s-0.2,0-0.2-0.2c0-0.1,0-0.6,0-0.7s0-0.7,0-0.9l0.5,0.3L237.5,88L237.5,88z
		 M234.4,88.2V89h3.2v-0.8H234.4z M238.1,91v-0.8h-1.9V91H238.1z M238.1,92v-0.9h-1.9V92H238.1z"/>
	<path class="st0" d="M248.2,88.5h-3.5V92h1.8l0.3-0.4c0.1-0.1,0.1-0.1,0.1-0.1s0.1,0.1,0.2,0.1l0.5,0.4c0.1,0,0.1,0.1,0.1,0.1
		c0,0.1-0.1,0.1-0.1,0.1h-5.1c-0.3,0-0.8,0-1.1,0.1l-0.2-0.4c0.6,0,1.2,0.1,1.4,0.1h1.5c0-0.8,0-2.1,0-2.9c0-0.2,0-0.5,0-0.7H242
		c-0.3,0-0.8,0-1.1,0.1l-0.2-0.4c0.6,0.1,1.2,0.1,1.4,0.1h2.2c0-0.4,0-0.7,0-1.1c0-1.3,0-1.4-0.1-1.9l0.8,0.3c0,0,0.1,0,0.1,0.1
		s-0.2,0.2-0.3,0.3c0,0.2,0,0.3,0,1.3v1.1h2.3l0.4-0.5l0.1-0.1c0.1,0,0.1,0.1,0.2,0.1l0.5,0.5l0.1,0.1
		C248.4,88.5,248.3,88.5,248.2,88.5z"/>
	<path class="st0" d="M257.3,92.3c-0.3,0.2-0.9,0.2-1.6,0.2c-1.4,0-1.7,0-1.7-0.7c0-0.4,0-1.5,0-2h-1.2l0.5,0.2l0.1,0.1
		c0,0.1-0.1,0.1-0.3,0.2c-0.5,1.3-1.3,2.2-3,2.5v-0.1c1.2-0.5,1.9-1.1,2.2-1.7c0.3-0.5,0.3-0.9,0.4-1.2h-0.6c0,0.2,0,0.5-0.3,0.5
		c-0.1,0-0.2,0-0.2-0.1c0,0,0-0.2,0-0.3c0.1-0.9,0.1-1.7,0.1-2.3c0-0.6,0-1.5,0-1.9c0-0.1,0-0.2-0.1-0.4l0.7,0.4h3.1l0.2-0.2
		c0,0,0.1-0.1,0.2-0.1c0,0,0.1,0,0.1,0.1l0.3,0.3c0.1,0.1,0.1,0.1,0.1,0.1c0,0.1-0.1,0.2-0.3,0.3c0,0.3,0,0.7,0,0.9
		c0,0.9,0,2.3,0.1,2.8v0.2c0,0.2-0.2,0.3-0.3,0.3c-0.2,0-0.2-0.1-0.2-0.4h-1v0.1V91c0,0.2,0,1,0,1.1c0,0.2,0.3,0.2,0.5,0.2
		c1.1,0,1.1,0,1.3,0c0.3,0,0.4-0.1,0.6-0.6c0.1-0.2,0.2-0.9,0.2-1l0,0c0.1,1.1,0.1,1.2,0.2,1.3l0.1,0.1c0,0,0,0,0,0.1
		C257.5,92.1,257.4,92.2,257.3,92.3z M255.4,85.8H252v1.1h3.4V85.8z M255.4,87.1H252v1.1h3.4V87.1z M255.4,88.4H252v1.1h3.4V88.4z"
		/>
	<path class="st0" d="M260.3,92.1v-0.3h0.3c0.5,0,0.8-0.2,0.8-0.8v-3.7c0-0.5-0.2-0.8-0.8-0.8h-0.3v-0.2h0.1c0.5,0,1.1-0.2,1.3-0.3
		c0.1,0,0.1-0.1,0.2-0.1c0,0,0.1,0,0.1,0.1v5c0,0.5,0.2,0.8,0.7,0.8h0.4v0.3H260.3z"/>
	<path class="st0" d="M272.8,86.2h-3.3c0,0.1,0,2.4,0,2.5v2.1c0,1.2,0,1.3-0.3,1.5c-0.1,0.1-0.3,0.2-0.8,0.3c0-0.3,0-0.4-1-0.9v-0.1
		c0.1,0,0.9,0.1,1.1,0.1c0.4,0,0.4-0.1,0.4-0.7v-4.9h-2.3c-0.3,0-0.7,0-1.1,0.1l-0.2-0.4c0.5,0,0.9,0.1,1.4,0.1h4.8l0.4-0.4l0.1-0.1
		c0,0,0.1,0,0.1,0.1l0.5,0.4l0.1,0.1C272.9,86.2,272.8,86.2,272.8,86.2z"/>
	<path class="st0" d="M279.6,86.3c0,0.1,0,0.4,0,0.9c0,1.3,0,2.6,0.1,3.9c0,0.1,0,0.8,0,0.8c0,0.3-0.3,0.4-0.4,0.4
		c-0.2,0-0.2-0.1-0.1-0.3h-3.3c0,0.2,0,0.2,0,0.3c-0.1,0.1-0.2,0.2-0.3,0.2c-0.2,0-0.2-0.1-0.2-0.2s0-0.8,0-0.9c0-1.1,0-2.1,0-3.2
		c0-0.9,0-1.9-0.1-2.7l0.8,0.3h2.9l0.2-0.2c0-0.1,0.1-0.1,0.2-0.1c0,0,0.1,0,0.1,0.1l0.4,0.3C280,86,280,86,280,86.1
		C280,86.1,280,86.1,279.6,86.3z M279.2,86.1h-3.3v1.8h3.3V86.1z M279.2,88h-3.3v1.8h3.3V88z M279.2,90h-3.3v1.8h3.3V90z"/>
	<path class="st0" d="M283.7,92.3c-0.6,0-1-0.3-1-0.7c0-0.3,0.2-0.4,0.4-0.4c0.4,0,0.4,0.3,0.4,0.4c0,0.2,0,0.4,0.3,0.4
		s0.5-0.1,0.7-0.3c0.7-0.8,0.8-2,0.8-2.9c-0.4,0.6-0.7,1.1-1.5,1.1c-0.9,0-1.5-0.8-1.5-1.9c0-1.2,0.8-2.1,1.7-2.1c1,0,1.9,1,1.9,2.9
		C286.1,90.4,285.3,92.3,283.7,92.3z M285,86.8c-0.3-0.5-0.5-0.6-0.8-0.6c-0.9,0-1.1,1.2-1.1,1.9c0,0.4,0.1,1.5,1,1.5s1.2-1,1.4-1.3
		C285.3,87.5,285.2,87.1,285,86.8z"/>
	<path class="st0" d="M289.9,91.2c-0.9,1.1-1.4,1.4-1.7,1.6l0,0c0.5-0.5,0.9-1.1,1.2-1.8c0.1-0.2,0.1-0.3,0.1-0.4l0.7,0.4
		c0,0,0.1,0,0.1,0.1C290.2,91.1,290.1,91.1,289.9,91.2z M292.5,86.7h-1.1c0,0.5,0,2.8,0,3.3h0.4l0.2-0.2c0.1-0.1,0.1-0.1,0.1-0.1
		s0.1,0,0.1,0.1l0.2,0.2l0.1,0.1c0,0.1-0.1,0.1-0.1,0.1h-2.9c-0.2,0-0.7,0-1.1,0.1l-0.2-0.4c0.4,0,0.4,0,1,0.1c0-1.8,0-2,0-3.3
		c-0.4,0-0.5,0-0.6,0.1l-0.2-0.4c0.3,0,0.8,0,0.8,0c0-0.2,0-0.2,0-0.6c0-0.3-0.1-0.6-0.1-0.8l0.8,0.2c0.1,0,0.1,0.1,0.1,0.1
		c0,0.1-0.1,0.1-0.2,0.2c0,0.4,0,0.4,0,0.8h0.1h1.2c0-0.2,0-0.8,0-1L291,85l0.7,0.2c0,0,0.1,0,0.1,0.1s-0.1,0.2-0.3,0.3
		c0,0.2,0,0.4,0,0.8h0.4l0.2-0.2c0.1-0.1,0.1-0.1,0.1-0.1s0.1,0,0.1,0.1l0.2,0.2l0.1,0.1C292.6,86.7,292.5,86.7,292.5,86.7z
		 M289.7,89v0.4c0,0.3,0,0.4,0,0.7h1.3c0-0.1,0-0.9,0-1L289.7,89L289.7,89z M291,87.8h-1.3c0,0.5,0,0.5,0,1h1.3V87.8z M291,86.7
		h-1.3c0,0.2,0,0.2,0,0.9h1.3V86.7z M291.6,91.9c-0.2,0-0.2-0.1-0.3-0.3c-0.4-0.7-0.5-0.8-0.7-0.9l0,0c0.6,0.2,1.3,0.4,1.3,0.9
		C291.9,91.7,291.8,91.9,291.6,91.9z M295.2,86c0,3.1,0,3.5,0,5.6l0,0c0,0.4-0.1,0.8-0.9,1c-0.2-0.4-0.4-0.5-0.9-0.8l0,0
		c0.3,0,0.6,0,0.8,0c0.4,0,0.5,0,0.5-0.3v-2.2h-1.5c-0.1,1-0.1,2.4-1.8,3.4l0,0c0.3-0.3,0.7-0.7,1-1.3c0.3-0.6,0.5-1.2,0.5-4
		c0-0.7,0-1.6-0.1-2.2l0.7,0.3h1.3l0.1-0.2c0.1-0.1,0.1-0.1,0.1-0.1s0,0,0.1,0.1l0.3,0.3c0.1,0,0.1,0.1,0.1,0.1
		C295.6,85.8,295.5,85.9,295.2,86z M294.8,87.6h-1.5c0,0.1-0.1,1.3-0.1,1.6h1.5v-1.6H294.8z M294.8,85.8h-1.5v1.6h1.5V85.8z"/>
</g>
</svg>
