<?xml version="1.0" encoding="utf-8"?>
<!-- Generator: Adobe Illustrator 28.0.0, SVG Export Plug-In . SVG Version: 6.00 Build 0)  -->
<svg version="1.1" id="_レイヤー_2" xmlns="http://www.w3.org/2000/svg" xmlns:xlink="http://www.w3.org/1999/xlink" x="0px"
	 y="0px" viewBox="0 0 757 110" style="enable-background:new 0 0 757 110;" xml:space="preserve">
<style type="text/css">
	.st0{opacity:0.99;}
	.st1{fill:#34403B;}
	.st2{fill:#231815;}
	.st3{clip-path:url(#SVGID_00000085959007418925102720000003245800561323026053_);}
	.st4{fill:#E50012;}
	.st5{fill:#FFFFFF;}
</style>
<g id="_ヘッダー">
	<g>
		<g>
			<g class="st0">
				<path d="M419.6,73.9V75h-5.1v17.2h-1.1V73.9H419.6z"/>
				<path d="M431.5,88c-0.4-1.2-0.7-2.4-1.3-3.5c-1.3,1.4-2.9,2.6-4.8,3.7l-0.5-0.7c1.5-1.2,3-2.6,4.6-4.4c-1-2.1-2.3-4.2-3.9-6.3
					l0.8-0.6c1.8,2.1,3.1,4.1,4,5.8c1.3-1.7,2.4-3.7,3.3-5.7c1.7,0.9,2.6,1.6,2.6,2s-0.4,0.5-1.3,0.5h-0.2c-1.1,1.7-2.2,3.4-3.6,4.9
					c2.1,4.2,3.1,8.6,3.1,13.1c0,5.2-0.8,8.5-2.5,9.7c-0.7,0.5-1.6,0.7-2.7,0.8c0-0.8-0.4-1.4-1.2-1.7c-0.6-0.2-1.4-0.4-2.4-0.7V104
					c1.8,0.2,3.1,0.4,3.9,0.4c1,0,1.6-0.4,1.9-1.1c0.8-1.8,1.2-4.3,1.2-7.3c0-1.7-0.2-3.2-0.5-4.7c-1.6,3.2-3.8,5.9-6.7,8.2
					l-0.6-0.7c2.9-2.8,4.9-6.3,6.6-10.4C431.4,88.2,431.5,88,431.5,88z M452.7,92.6l1.8-2.2c0.7,0.6,1.5,1.4,2.3,2.4l-0.4,0.7h-10.1
					c1,2.4,2.3,4.4,3.8,6c1.7,1.8,4,3.4,7.1,4.8c-0.8,0.6-1.3,1.3-1.6,2.1c-5-2.8-8.2-6.7-9.9-11.8c-0.7,3.5-2.1,6.3-4.1,8.2
					c-1.7,1.7-4.1,3.1-7.1,4.2l-0.5-0.8c4-1.9,6.8-4.4,8.4-7.7c0.7-1.4,1.2-3.1,1.6-5.1h-8.7l-0.4-0.9h9.2v-0.2
					c0.2-1.1,0.2-2.1,0.2-3.1V82H436l-0.4-0.9h8.5V75c2.5,0.1,3.7,0.4,3.7,0.9c0,0.3-0.5,0.6-1.6,0.9V81h5.3l1.7-2.2
					c0.7,0.7,1.5,1.5,2.3,2.4l-0.4,0.7h-8.9v7.2c0,1.1-0.1,2.2-0.2,3.3C446,92.6,452.7,92.6,452.7,92.6z M437.4,83.7
					c2.7,2.1,4.1,4.1,4.1,5.9c0,1-0.4,1.6-1.3,1.6c-0.7,0-1-0.5-1.1-1.4c-0.1-1.7-1-3.6-2.4-5.6L437.4,83.7z M448,91.2
					c1.1-2.2,2-4.9,2.8-8c2,0.8,3.1,1.5,3.1,1.9c0,0.3-0.5,0.5-1.5,0.6c-0.9,1.9-2.1,3.8-3.7,5.8C448.8,91.6,448,91.2,448,91.2z"/>
				<path d="M467.5,102.2h9.4V76.5c2.4,0.1,3.6,0.4,3.6,0.8c0,0.3-0.5,0.7-1.5,1.1v23.8h9.7V82.7c2.4,0.2,3.5,0.5,3.5,1
					c0,0.4-0.4,0.7-1.4,1v21.6h-2.1v-3.2h-21.2v3.5h-2V83c2.3,0.1,3.5,0.4,3.5,0.9c0,0.3-0.5,0.6-1.5,1V102.2z"/>
				<path d="M514.1,81.6v-6.2c2.5,0.1,3.7,0.4,3.7,0.9c0,0.3-0.5,0.7-1.6,1v4.2h10.4l1.9-2.5c0.8,0.7,1.7,1.7,2.6,2.8l-0.4,0.6
					h-16.5c2.1,0.4,3.1,0.8,3.1,1.1c0,0.2-0.4,0.5-1.2,0.7v3.9h8.2l1.4-1.6c1.4,1.1,2.1,1.8,2.1,2.1c0,0.2-0.1,0.3-0.4,0.5l-0.8,0.6
					V100c0,1.9-1.2,2.8-3.5,2.8c0-0.6-0.4-1.1-1-1.4c-0.7-0.3-1.8-0.6-3.5-0.7v-1c1.6,0.2,3.2,0.4,4.8,0.4c0.9,0,1.3-0.4,1.3-1.1
					v-9.8h-8.6V107H514V89.1h-8v14h-2v-16c0.7,0.3,1.4,0.6,2,0.9l0.3,0.2h7.7v-5.8h-13.8l-0.4-0.9L514.1,81.6L514.1,81.6z"/>
				<path d="M537.2,107.2v-1.1h5.1V88.9h1.1v18.3C543.4,107.2,537.2,107.2,537.2,107.2z"/>
			</g>
			<g>
				<path class="st1" d="M648.1,55.3c0.4-1.3,0.8-2.1,2.1-2.2l19.9-2.8c0.5-0.1,0.7,0.4,0.7,0.7c-0.6,1.8-1.8,3.9-3,5.1l-15.6,2.2
					c-1.9,0.2-2.3,0.7-2.8,2.2l-1.5,5c-0.3,1,0,1.4,1.2,1.5l1.7,0.2c10.3,1,21.9,5.5,21.9,18.1c0,14.3-16.4,24.3-29.5,24.7
					c-0.9-0.3-1-2-0.2-2.6c12.8-0.7,23.7-8.6,23.7-20c0-11.8-12.5-14.7-22.2-14.9c-1.2,0-1.3-0.7-0.7-2.6
					C643.7,70,648.1,55.3,648.1,55.3z"/>
				<path class="st1" d="M731.2,79.3c0,3.6-3,5.2-5.1,6.6c3,1.7,5.7,4,5.7,8.1c0,4.6-3.6,7.4-8.7,7.4c-3.9,0-8-2-8-7.3
					c0-3.3,3-5.5,5.9-7.3c-2.5-1.4-4.9-3.5-4.9-6.8c0-4.4,3.6-7.1,8-7.1C727.9,72.9,731.2,75.1,731.2,79.3z M728.6,94.8
					c0-3.4-3.3-5.8-6.4-7.3c-2.9,2-4,4.3-4,6.2c0,3.7,2.1,6.4,5.3,6.4C726.7,100.1,728.6,98,728.6,94.8L728.6,94.8z M719.2,79
					c0,3,3,4.8,5.7,6.2c2-1.4,3.5-3.4,3.5-5.9c0-2.7-1.8-5.1-4.6-5.1C720.7,74.2,719.2,76.5,719.2,79L719.2,79z"/>
				<g class="st0">
					<path d="M740,91.4c2.7-2.2,4.6-5.2,5.9-8.8c1.2,0.4,1.8,0.7,1.8,1c0,0.2-0.3,0.3-0.8,0.4c-1,2-2,3.7-3.1,4.9
						c-0.9,1-2,1.9-3.3,2.8L740,91.4L740,91.4z M743.2,90.4l-0.2-0.5h9l0.7-0.9c0.8,0.6,1.2,1,1.2,1.2c0,0.1-0.1,0.2-0.2,0.3
						l-0.4,0.3c0,3.9-0.3,6.4-1,7.5c-0.4,0.8-1.2,1.2-2.3,1.2c0-0.4-0.3-0.7-0.7-0.9c-0.4-0.2-1.1-0.3-2.1-0.5v-0.5
						c1.3,0.2,2.3,0.3,3.1,0.3c0.7,0,1.1-0.4,1.3-1.2c0.3-1.4,0.5-3.5,0.5-6.3h-4.6c-0.2,2.4-0.7,4.2-1.7,5.7s-2.6,2.7-4.7,3.6
						l-0.3-0.4c2.3-1.2,3.8-2.9,4.6-5c0.4-1.2,0.7-2.5,0.8-3.9C746.3,90.4,743.2,90.4,743.2,90.4z M750.4,82.7
						c1.8,3.2,4,5.5,6.6,7.1c-0.4,0.3-0.7,0.7-1,1.2c-1.9-1.5-3.5-3.3-4.6-5.3c-0.4-0.8-0.9-1.7-1.4-2.7L750.4,82.7z"/>
				</g>
				<g class="st0">
					<path d="M704.5,91.5c-1.5,1.9-3,2.8-4.4,2.8c-1.1,0-2.4-0.5-3.9-1.6c-1.4-1-2.6-1.6-3.4-1.6c-1.1,0-2.4,0.7-3.9,2.1l-0.3-0.3
						c1.5-1.9,3-2.8,4.3-2.8c1.1,0,2.5,0.6,4.3,1.9c1.2,0.9,2.2,1.3,3.1,1.3c1.1,0,2.4-0.7,3.9-2.1L704.5,91.5L704.5,91.5z"/>
				</g>
			</g>
			<g class="st0">
				<g>
					<path d="M558.1,96.3c0.1,0.7,0.1,1.3,0.1,1.7c0,1.2-0.1,2-0.5,2.7c-0.2,0.4-0.5,0.6-0.8,0.6c-0.4,0-0.6-0.2-0.6-0.6
						c0-0.1,0.1-0.3,0.2-0.6c0.6-1,1-2.2,1-3.6c0-0.1,0-0.2,0-0.3C557.5,96.3,558.1,96.3,558.1,96.3z M562.1,93.8h1.4l0.9-1
						c0.8,0.7,1.2,1.1,1.2,1.3c0,0,0,0.1-0.1,0.2l-0.5,0.4c0,3.8-0.4,6.2-1,7c-0.4,0.5-1,0.7-1.9,0.7c0-0.4-0.3-0.7-0.7-0.9
						c-0.2-0.1-0.8-0.2-1.6-0.3v-0.6c0.9,0.1,1.6,0.1,2.3,0.1s1.1-0.3,1.2-0.8c0.3-1.2,0.5-3.1,0.5-5.6H559v0.9h-1.2V83.8
						c0.4,0.1,0.9,0.4,1.4,0.6h4.6l1-1.2c0.5,0.5,1,0.9,1.2,1.3l-0.2,0.4h-3.4v2.4h1l0.9-1.2c0.4,0.4,0.7,0.8,1.1,1.3l-0.2,0.4h-2.7
						v2.6h1l0.9-1.2c0.4,0.5,0.8,0.9,1.1,1.3l-0.3,0.4h-2.7v2.9H562.1z M559.1,96.2c0.5,1.2,0.8,2.2,0.8,3c0,0.7-0.2,1.1-0.7,1.1
						c-0.3,0-0.5-0.1-0.5-0.5v-0.1c0-0.1,0-0.2,0-0.2c0-0.4,0-0.7,0-1.1c0-0.6-0.1-1.2-0.2-2L559.1,96.2z M558.9,87.4h2.1V85h-2.1
						V87.4z M561,87.9h-2.1v2.6h2.1V87.9z M561,93.8V91h-2.1v2.8H561z M560.4,95.8c0.9,1.1,1.3,2.1,1.3,3c0,0.5-0.2,0.7-0.6,0.7
						c-0.2,0-0.4-0.1-0.4-0.3c0,0,0-0.3,0-0.8c0-0.8-0.2-1.7-0.7-2.5L560.4,95.8z M561.6,95.4c1,0.9,1.6,1.7,1.6,2.5
						c0,0.5-0.2,0.7-0.5,0.7s-0.4-0.2-0.5-0.7c-0.1-0.8-0.4-1.6-0.9-2.3C561.2,95.6,561.6,95.4,561.6,95.4z M573.5,84.8l0.8-1.1
						c0.8,0.7,1.2,1.2,1.2,1.3c0,0.1-0.1,0.2-0.2,0.3l-0.5,0.3v7.2h-1.2v-1.3h-2.5c0,0.3,0.1,0.5,0.1,0.8c0.5,3.4,2.2,6.2,5,8.3
						c-0.5,0.3-0.9,0.7-1.2,1.3c-2.6-2.6-4.1-6-4.5-10.4h-2.4c0,5-1.1,8.6-3.2,10.8l-0.5-0.4c1.6-2.4,2.3-5.9,2.3-10.6V84
						c0.7,0.3,1.1,0.6,1.5,0.7L573.5,84.8L573.5,84.8z M568.2,85.3V91h5.5v-5.7H568.2z"/>
					<path d="M584.4,92.3c0,0.1-0.3,0.3-0.8,0.5v9.6h-1.2V93c-0.9,1.1-1.9,2.1-3,3l-0.4-0.4c2.2-2.3,4-5.1,5.4-8.6
						c1.1,0.4,1.6,0.8,1.6,1.1c0,0.2-0.3,0.3-0.9,0.3c-0.7,1.3-1.3,2.4-2,3.3C584.1,91.9,584.4,92.1,584.4,92.3z M579.3,89.4
						c2.1-1.8,3.8-3.9,5-6.4c1.2,0.5,1.7,0.9,1.7,1.2c0,0.2-0.3,0.3-0.9,0.3c-1.4,2.1-3.2,3.9-5.5,5.3L579.3,89.4z M592.1,100.2
						c1,0.3,2.2,0.4,3.7,0.4c0.9,0,2,0,3.2-0.1c-0.3,0.5-0.6,0.9-0.7,1.4H596c-3,0-5.2-0.7-6.6-2c-0.7-0.7-1.3-1.7-1.8-3
						c-0.6,2.1-1.5,3.9-2.8,5.5l-0.5-0.3c1.4-2.3,2.3-5.2,2.6-8.8c1.3,0.3,2,0.6,2,0.9c0,0.2-0.3,0.3-0.9,0.4
						c-0.1,0.7-0.2,1.2-0.2,1.5c0.7,1.8,1.8,3,3.1,3.7v-8.1h-5.5l-0.2-0.6h5.7v-3.6h-4.3l-0.2-0.5h4.5v-4c1.5,0,2.2,0.2,2.2,0.6
						c0,0.2-0.3,0.4-0.9,0.6v2.7h2.7l1.1-1.5c0.5,0.5,1,1,1.4,1.5l-0.2,0.5h-5V91h3.8l1.1-1.5c0.4,0.4,0.9,0.9,1.3,1.5l0.2,0.2
						l-0.2,0.4h-6.2v3.7h2.8l1.1-1.4c0.4,0.4,0.8,0.8,1.1,1.2l0.2,0.2l-0.2,0.4h-5L592.1,100.2L592.1,100.2z"/>
					<path d="M612.6,90.8v5.6c0,1.1-0.7,1.6-2.2,1.6c0-0.4-0.2-0.7-0.6-0.9c-0.3-0.2-0.9-0.3-1.9-0.5V96c1.2,0.1,2.1,0.2,2.8,0.2
						c0.4,0,0.6-0.2,0.6-0.6v-4.8h-8.9l-0.2-0.6h4.3V85c1.4,0.1,2.1,0.2,2.1,0.5c0,0.2-0.3,0.4-0.9,0.6v4.1h3.6V83
						c1.5,0,2.2,0.2,2.2,0.6c0,0.2-0.3,0.4-1,0.6v2.4h3.9l1.1-1.5c0.7,0.6,1.2,1.2,1.5,1.6l-0.3,0.4h-6.2v3.1h6.3l1.1-1.5
						c0.5,0.5,1.1,1,1.5,1.6l-0.2,0.4C621.3,90.8,612.6,90.8,612.6,90.8z M602.5,97.9c1.8-1.5,3.2-3.5,4.4-6
						c1.2,0.5,1.9,0.9,1.9,1.2c0,0.2-0.3,0.3-1.1,0.3c-1.2,2.1-2.9,3.7-4.9,4.9L602.5,97.9z M602.5,101.9c6.2-1.1,10.8-3.6,13.7-7.3
						c1.1,0.6,1.6,1,1.6,1.3c0,0.2-0.2,0.3-0.6,0.3h-0.5c-2.2,2.3-4.8,3.9-7.6,4.9c-1.7,0.6-3.8,1.1-6.3,1.4
						C602.8,102.4,602.5,101.9,602.5,101.9z M615.7,91.6c1.8,0.8,3.2,1.6,4.1,2.6c0.6,0.7,1,1.2,1,1.8c0,0.6-0.2,0.8-0.7,0.8
						c-0.3,0-0.6-0.3-0.8-0.8c-0.6-1.4-1.9-2.7-3.8-4L615.7,91.6z"/>
				</g>
			</g>
			<g class="st0">
				<path d="M418.7,58.2v-2.6h-4.1l-0.1-0.4h10.7l0.8-1l0.2,0.1c0.3,0.3,0.6,0.6,0.8,0.9l-0.1,0.3h-4.6v2.6h2.7l0.6-0.7
					c0.6,0.5,0.9,0.8,0.9,0.9c0,0.1,0,0.1-0.1,0.2l-0.4,0.2v7.7h-1v-1.2h-8.7v1.2h-0.8v-8.8c0.3,0.1,0.6,0.2,0.9,0.4
					C416.4,58.2,418.7,58.2,418.7,58.2z M416.3,58.5V65h8.7v-6.5h-2.9v3.1c0,0.3,0.2,0.4,0.7,0.4c0.4,0,0.6-0.2,0.7-0.5
					c0.1-0.4,0.2-1,0.2-1.8l0.4,0.1c0,0.8,0,1.4,0.1,1.7c0.1,0.2,0.2,0.3,0.4,0.3c0,0.4-0.2,0.7-0.5,0.7c-0.2,0.1-0.7,0.1-1.4,0.1
					c-0.6,0-0.9-0.1-1.2-0.2c-0.2-0.1-0.4-0.4-0.4-0.8v-3.3h-1.8c0,2.3-0.9,4-2.7,5l-0.2-0.3c1.3-1,1.9-2.6,2.1-4.6v-0.2h-2.2V58.5z
					 M421.3,58.2v-2.6h-1.8v2.6H421.3z"/>
				<path d="M437.7,58c0.2,2.5,0.7,4.5,1.6,5.9c0.5,0.7,0.8,1.1,1,1.1s0.5-0.9,0.7-2.7l0.4,0.2c-0.1,1-0.1,1.7-0.1,2.2
					c0,0.7,0.2,1.1,0.5,1.2c-0.1,0.4-0.3,0.6-0.6,0.6c-0.5,0-1.2-0.5-1.9-1.4c-1.2-1.5-2-3.9-2.3-7.1h-7.4l-0.2-0.4h7.6
					c-0.1-0.8-0.1-2-0.1-3.7c0.9,0,1.4,0.2,1.4,0.4c0,0.1-0.2,0.2-0.5,0.3c0,1.3,0.1,2.3,0.1,2.9h2.4l0.7-0.9l0.4,0.4
					c0.2,0.2,0.4,0.4,0.5,0.6l-0.1,0.3C441.4,58,437.7,58,437.7,58z M434.2,64.5c0.9-0.2,2-0.4,3.1-0.7v0.4l-0.7,0.2
					c-2.3,0.7-4.3,1.2-6.2,1.5c-0.1,0.4-0.1,0.5-0.3,0.5c-0.2,0-0.4-0.4-0.7-1.3c1-0.1,1.5-0.2,1.6-0.2v-5.1
					c0.9,0.1,1.4,0.2,1.4,0.4c0,0.1-0.2,0.2-0.6,0.3v4.3c0.8-0.1,1.3-0.2,1.7-0.3v-6c0.9,0.1,1.3,0.2,1.3,0.4c0,0.1-0.2,0.2-0.5,0.3
					v1.9h1.2l0.7-1c0.3,0.3,0.5,0.6,0.7,0.9l0.1,0.2l-0.1,0.2h-2.5C434.2,61.6,434.2,64.5,434.2,64.5z M434.3,55.6l0.7-0.9
					c0.3,0.3,0.6,0.6,0.9,1l-0.2,0.2h-5.1l-0.1-0.3H434.3z M438.5,54.7c1.2,0.4,1.8,0.9,1.8,1.5c0,0.4-0.2,0.5-0.5,0.5
					c-0.2,0-0.4-0.1-0.5-0.4c-0.2-0.6-0.5-1.1-1-1.5L438.5,54.7z"/>
				<path d="M446.8,62.9c-0.7,1.1-1.7,2.1-2.9,2.9l-0.2-0.3c1.4-1.2,2.4-2.5,3-3.9h-2.5l-0.1-0.4h2.7v-1.7c0.9,0,1.3,0.2,1.3,0.3
					s-0.2,0.2-0.5,0.3v1h1.4l0.6-0.8c0.3,0.3,0.6,0.6,0.8,0.9l-0.2,0.2h-2.6V62c1.6,0.6,2.3,1.2,2.3,1.8c0,0.3-0.1,0.5-0.4,0.5
					c-0.1,0-0.3-0.1-0.4-0.3c-0.4-0.6-0.8-1.1-1.5-1.5v4.1h-0.8C446.8,66.7,446.8,62.9,446.8,62.9z M447.6,59
					c0.4-0.8,0.6-1.7,0.8-2.5c0.8,0.3,1.2,0.5,1.2,0.7c0,0.1-0.2,0.2-0.6,0.2c-0.2,0.4-0.6,1-1,1.7h1.3l0.6-0.8
					c0.3,0.3,0.5,0.6,0.7,0.9l-0.2,0.3H444l-0.1-0.4C443.9,59,447.6,59,447.6,59z M446.8,56v-1.9c0.9,0,1.3,0.2,1.3,0.3
					s-0.2,0.2-0.6,0.4V56h1.4l0.6-0.8c0.3,0.3,0.5,0.5,0.7,0.8l0.1,0.1l-0.2,0.3h-5.8l-0.2-0.3L446.8,56L446.8,56z M445.2,56.6
					c1,0.6,1.5,1.2,1.5,1.8c0,0.4-0.2,0.5-0.5,0.5c-0.2,0-0.3-0.2-0.4-0.5c0-0.5-0.3-1.1-0.8-1.6L445.2,56.6z M451.8,59.5v0.2
					c0,1.5-0.1,2.7-0.4,3.8c-0.3,1.2-0.9,2.3-1.8,3.2l-0.3-0.2c0.7-1.1,1.2-2.3,1.5-3.7c0.2-1,0.2-2.1,0.2-3.4v-4
					c0.4,0.1,0.7,0.3,0.9,0.4c1.1-0.3,2-0.8,2.8-1.4c0.6,0.4,0.9,0.7,0.9,0.9c0,0.1-0.1,0.1-0.2,0.1s-0.2,0-0.4-0.1
					c-0.9,0.3-2,0.6-3.2,0.9v3h3.2l0.7-0.9c0.4,0.3,0.7,0.6,0.9,1l-0.1,0.3h-1.9v7h-0.8v-7C453.7,59.5,451.8,59.5,451.8,59.5z"/>
				<path d="M462.2,60.3c0,0.1-0.2,0.2-0.5,0.3v6h-0.8V61c-0.6,0.8-1.3,1.5-2,2.1l-0.3-0.3c1.5-1.6,2.7-3.7,3.4-6.1
					c0.8,0.2,1.3,0.4,1.3,0.6c0,0.1-0.2,0.2-0.6,0.3c-0.3,0.7-0.7,1.5-1.2,2.4C461.9,60.1,462.2,60.2,462.2,60.3z M464.5,55.9v-1.8
					c0.9,0,1.4,0.1,1.4,0.3c0,0.1-0.2,0.2-0.6,0.4v1.1h4.3l0.5-0.7c0.7,0.7,1.1,1.1,1.1,1.3c0,0.1-0.1,0.1-0.2,0.1l-0.5,0.1
					c-0.3,0.3-0.7,0.6-1.2,0.8l-0.2-0.2c0.2-0.4,0.4-0.7,0.6-1.1h-9.2v0.1c0,0.7-0.1,1.3-0.4,1.8c-0.2,0.3-0.4,0.5-0.6,0.5
					c-0.1,0-0.2-0.1-0.4-0.2c-0.1-0.1-0.2-0.2-0.2-0.4s0.1-0.3,0.2-0.4c0.6-0.6,0.9-1.3,0.9-2.3h0.4l0.1,0.5
					C460.5,55.9,464.5,55.9,464.5,55.9z M465.9,60.4c0.1-0.7,0.2-1.3,0.3-1.9H463l-0.2-0.4h6.6l0.7-0.8c0.4,0.3,0.7,0.6,0.9,0.9
					l-0.2,0.2h-3.5c-0.3,0.7-0.7,1.4-1,1.9h2.6l0.5-0.6c0.6,0.4,0.8,0.7,0.8,0.8s0,0.1-0.1,0.2l-0.3,0.2v5.8H469v-0.9h-4.4v0.9h-0.8
					v-6.8c0.2,0.1,0.5,0.2,0.9,0.4C464.7,60.4,465.9,60.4,465.9,60.4z M464.6,60.7v2.1h4.4v-2.1H464.6z M469,65.5v-2.3h-4.4v2.3H469
					z"/>
				<path d="M473.3,65.6c0.4-1.1,0.6-2.4,0.7-3.9c0.8,0.2,1.2,0.3,1.2,0.5c0,0.1-0.1,0.2-0.4,0.2c-0.3,1.4-0.7,2.5-1.2,3.3
					L473.3,65.6z M477.4,55.7c0.7,0.3,1,0.6,1,0.8c0,0.1-0.2,0.2-0.6,0.2c-0.7,1.1-1.6,2.2-2.6,3.3c0.9-0.1,1.6-0.1,2.2-0.2
					c-0.1-0.3-0.3-0.6-0.6-1l0.2-0.2c1,0.7,1.5,1.5,1.5,2.1c0,0.4-0.2,0.5-0.5,0.5c-0.2,0-0.3-0.2-0.4-0.5c0-0.2-0.1-0.3-0.1-0.5
					c-0.4,0.1-0.7,0.2-1.2,0.2v6.3h-0.8v-6.2c-0.4,0.1-0.9,0.1-1.5,0.2c-0.1,0.3-0.2,0.5-0.3,0.5c-0.1,0-0.3-0.4-0.5-1.2
					c0.5,0,0.9,0,1.4,0C475.8,58.5,476.7,57.1,477.4,55.7z M475.8,53.9c0.7,0.3,1.1,0.5,1.1,0.7c0,0.1-0.2,0.2-0.5,0.2
					c-0.4,0.7-0.9,1.3-1.4,2c0.5,0.4,0.7,0.8,0.7,1.2s-0.2,0.5-0.5,0.5c-0.2,0-0.3-0.2-0.5-0.5c-0.2-0.6-0.7-1.2-1.3-1.7l0.2-0.2
					c0.3,0.2,0.7,0.3,1,0.5C475.1,55.9,475.5,55,475.8,53.9z M477,61.5c0.9,0.9,1.3,1.7,1.3,2.5c0,0.4-0.2,0.6-0.5,0.6
					c-0.2,0-0.4-0.2-0.4-0.6c0-0.8-0.3-1.6-0.7-2.4L477,61.5z M480.2,61.5l0.5-0.6c0.5,0.5,0.8,0.8,0.8,0.9c0,0.1-0.1,0.1-0.1,0.2
					l-0.3,0.2c-0.6,1.8-1.6,3.1-3.1,4l-0.2-0.3c1.2-1,2.1-2.3,2.6-4h-2l-0.1-0.3h1.9V61.5z M481.9,59.9H480v0.6h-0.8v-5
					c0.3,0.1,0.6,0.3,0.9,0.4h1.2c0.2-0.5,0.3-1.2,0.4-1.8c0.9,0.1,1.4,0.3,1.4,0.5c0,0.1-0.2,0.2-0.6,0.3c-0.3,0.5-0.5,0.8-0.7,1.1
					h2.3l0.5-0.6c0.6,0.4,0.8,0.7,0.8,0.9c0,0.1,0,0.1-0.1,0.2l-0.3,0.2v3.9h-0.8V60h-1.5c0.2,1,0.6,1.9,1.1,2.7
					c0.5-0.5,0.9-1.2,1.4-2c0.6,0.4,0.9,0.7,0.9,0.9c0,0.1-0.1,0.2-0.3,0.2c-0.1,0-0.1,0-0.2,0c-0.4,0.4-0.9,0.8-1.5,1.3
					c0.6,0.9,1.4,1.6,2.4,2.3c-0.3,0.2-0.6,0.5-0.7,0.8c-1.5-1.3-2.5-2.9-3-4.9v4.5c0,0.7-0.4,1.1-1.3,1c0-0.3-0.2-0.5-0.4-0.6
					c-0.1,0-0.5-0.1-1-0.2v-0.4c0.6,0.1,1.1,0.1,1.5,0.1c0.3,0,0.5-0.1,0.5-0.4v-5.4H481.9z M484.2,57.7v-1.4H480v1.4H484.2z
					 M484.2,59.5V58H480v1.5H484.2z"/>
			</g>
			<g>
				<path d="M417.9,25.5v4c0.7-0.3,1.6-0.7,2.8-1.3l0.2,0.4c-1,0.6-2,1.2-2.9,1.7l-0.1,0.1v7.7h-1.1V31c-0.6,0.3-1.3,0.6-2.1,1
					c0,0.5-0.2,0.8-0.3,0.8c-0.3,0-0.6-0.6-0.9-1.7c1.2-0.3,2.3-0.7,3.4-1.1v-4.5h-1.6c-0.3,1.5-0.7,2.9-1.3,4.2l-0.5-0.2
					c0.6-2.3,1-5,1-8.1c1.2,0.1,1.8,0.2,1.8,0.5c0,0.1-0.2,0.3-0.7,0.5c-0.1,1.1-0.2,1.9-0.3,2.5h1.5v-4.7c1.3,0,1.9,0.2,1.9,0.4
					c0,0.2-0.3,0.4-0.8,0.6V25h1.1l0.8-1.3c0.4,0.5,0.7,1,1.1,1.4l-0.2,0.4C420.6,25.5,417.9,25.5,417.9,25.5z M424.5,26.9v-3.1
					h-3.9l-0.2-0.5h4.1v-3.1c1.3,0.1,1.9,0.3,1.9,0.6c0,0.2-0.3,0.3-0.8,0.5v2h2.6l0.9-1.3c0.4,0.4,0.8,0.9,1.2,1.4l-0.2,0.4h-4.5
					v3.1h3.6l1-1.3c0.5,0.5,0.9,1,1.2,1.4l-0.2,0.4h-11.3l-0.2-0.5H424.5z M428.3,30.7v5.7c0,1-0.7,1.5-2.1,1.5
					c0-0.4-0.2-0.7-0.6-0.8c-0.3-0.1-1-0.3-2.1-0.4v-0.6c1.4,0.1,2.4,0.2,3,0.2c0.5,0,0.7-0.2,0.7-0.7v-5h-7.1l-0.2-0.5h7.2v-2.8
					c1.3,0.2,1.8,0.5,1.8,0.8c0,0.1-0.2,0.3-0.7,0.4v1.7h1l0.9-1.3c0.4,0.5,0.8,1,1,1.4l-0.2,0.4C431,30.7,428.3,30.7,428.3,30.7z
					 M421.7,31.2c2.1,0.9,3.1,1.8,3.1,2.9c0,0.5-0.2,0.8-0.7,0.8c-0.3,0-0.6-0.2-0.7-0.6c-0.3-0.9-0.9-1.8-2-2.7
					C421.4,31.5,421.7,31.2,421.7,31.2z"/>
				<path d="M437.5,32.7c-0.1,1.6-0.5,2.9-1.2,3.8c-0.4,0.5-0.8,0.8-1.1,0.8c-0.5,0-0.7-0.2-0.7-0.8c0-0.2,0.2-0.5,0.5-0.7
					c1-0.6,1.7-1.7,2-3.2L437.5,32.7z M437.7,25.8c-0.8,0.8-1.7,1.5-2.6,2.1l-0.4-0.4c2.4-1.9,4.3-4.4,5.5-7.2
					c1.2,0.2,1.8,0.4,1.8,0.7c0,0.2-0.3,0.3-0.9,0.4c0,0.1-0.2,0.3-0.3,0.5c-0.2,0.2-0.2,0.4-0.3,0.5h4.1l0.8-0.9
					c0.8,0.7,1.3,1.1,1.3,1.3c0,0.1-0.1,0.2-0.3,0.2l-0.6,0.2c-0.6,0.7-1.3,1.4-2.1,2h4.2l0.8-0.9c0.8,0.6,1.2,1,1.2,1.2
					c0,0.1-0.1,0.2-0.2,0.3l-0.5,0.3v5.6H448V31h-11.1l-0.2-0.5H448v-2.2h-10.4l-0.2-0.5H448v-2.1C448,25.8,437.7,25.8,437.7,25.8z
					 M443,25.3c0.7-0.9,1.3-1.7,1.6-2.4h-4.4c-0.6,0.9-1.3,1.7-2,2.4H443z M447.6,34.2c0,1,0,1.6,0.2,1.9c0.1,0.3,0.3,0.4,0.6,0.4
					c0,0.7-0.4,1.1-1,1.2c-0.7,0.1-1.9,0.2-3.7,0.2c-2.2,0-3.4-0.1-3.8-0.3c-0.3-0.2-0.5-0.6-0.5-1.2v-4.1c1.3,0.1,1.9,0.3,1.9,0.6
					c0,0.1-0.3,0.3-0.8,0.4v2.8c0,0.4,0.1,0.5,0.3,0.6c0.2,0.1,1.1,0.2,2.6,0.2c0.9,0,1.7,0,2.3-0.1c0.1,0,0.2,0,0.2,0
					c0.4,0,0.7-0.2,0.8-0.6c0.2-0.5,0.3-1.1,0.4-2C447,34.1,447.6,34.2,447.6,34.2z M442.4,31.6c2,0.9,3,1.9,3,2.7
					c0,0.5-0.2,0.7-0.7,0.7c-0.3,0-0.5-0.2-0.7-0.6c-0.2-0.7-0.9-1.6-1.9-2.5C442.1,31.9,442.4,31.6,442.4,31.6z M448.5,32.4
					c1.4,0.6,2.4,1.3,3,2.2c0.4,0.5,0.6,1,0.6,1.3c0,0.5-0.2,0.8-0.7,0.8c-0.3,0-0.5-0.2-0.7-0.7c-0.3-1.1-1.1-2.2-2.5-3.3
					C448.3,32.7,448.5,32.4,448.5,32.4z"/>
				<path d="M463,28.2c0.2,0.3,0.4,0.6,0.4,1c0,0.3,0,0.5-0.2,0.8c-0.3,0.5-0.7,0.7-1.2,0.7c-0.3,0-0.7-0.1-0.9-0.3
					c-0.4-0.3-0.5-0.7-0.5-1.1c0-0.5,0.2-0.9,0.6-1.2c0.3-0.2,0.5-0.3,0.8-0.3C462.4,27.7,462.7,27.9,463,28.2z"/>
				<path d="M474.9,32.7c-0.1,1.6-0.5,2.9-1.2,3.8c-0.4,0.5-0.8,0.8-1.1,0.8c-0.5,0-0.7-0.2-0.7-0.8c0-0.2,0.2-0.5,0.5-0.7
					c1-0.6,1.7-1.7,2-3.2L474.9,32.7z M475.1,25.8c-0.8,0.8-1.7,1.5-2.6,2.1l-0.4-0.4c2.4-1.9,4.3-4.4,5.5-7.2
					c1.2,0.2,1.8,0.4,1.8,0.7c0,0.2-0.3,0.3-0.9,0.4c0,0.1-0.2,0.3-0.3,0.5c-0.2,0.2-0.2,0.4-0.3,0.5h4.1l0.8-0.9
					c0.8,0.7,1.3,1.1,1.3,1.3c0,0.1-0.1,0.2-0.3,0.2l-0.6,0.2c-0.6,0.7-1.3,1.4-2.1,2h4.2l0.8-0.9c0.8,0.6,1.2,1,1.2,1.2
					c0,0.1-0.1,0.2-0.2,0.3l-0.5,0.3v5.6h-1.2V31h-11.1l-0.2-0.5h11.3v-2.2H475l-0.2-0.5h10.6v-2.1
					C485.4,25.8,475.1,25.8,475.1,25.8z M480.4,25.3c0.7-0.9,1.3-1.7,1.6-2.4h-4.4c-0.6,0.9-1.3,1.7-2,2.4H480.4z M485,34.2
					c0,1,0,1.6,0.2,1.9c0.1,0.3,0.3,0.4,0.6,0.4c0,0.7-0.4,1.1-1,1.2c-0.7,0.1-1.9,0.2-3.7,0.2c-2.2,0-3.4-0.1-3.8-0.3
					c-0.3-0.2-0.5-0.6-0.5-1.2v-4.1c1.3,0.1,1.9,0.3,1.9,0.6c0,0.1-0.3,0.3-0.8,0.4v2.8c0,0.4,0.1,0.5,0.3,0.6
					c0.2,0.1,1.1,0.2,2.6,0.2c0.9,0,1.7,0,2.3-0.1c0.1,0,0.2,0,0.2,0c0.4,0,0.7-0.2,0.8-0.6c0.2-0.5,0.3-1.1,0.4-2
					C484.4,34.1,485,34.2,485,34.2z M479.8,31.6c2,0.9,3,1.9,3,2.7c0,0.5-0.2,0.7-0.7,0.7c-0.3,0-0.5-0.2-0.7-0.6
					c-0.2-0.7-0.9-1.6-1.9-2.5C479.5,31.9,479.8,31.6,479.8,31.6z M485.9,32.4c1.4,0.6,2.4,1.3,3,2.2c0.4,0.5,0.6,1,0.6,1.3
					c0,0.5-0.2,0.8-0.7,0.8c-0.3,0-0.5-0.2-0.7-0.7c-0.3-1.1-1.1-2.2-2.5-3.3C485.7,32.7,485.9,32.4,485.9,32.4z"/>
				<path d="M497.9,29c0,0.1-0.3,0.3-0.7,0.5v8.7H496v-8.5c-1,1.1-2,2.1-3.1,2.9l-0.4-0.4c2.2-2.2,4-4.8,5.3-7.7
					c1,0.4,1.6,0.8,1.6,1.1c0,0.2-0.3,0.3-0.9,0.3c-0.6,1-1.1,1.9-1.6,2.6C497.5,28.6,497.9,28.8,497.9,29z M492.8,26
					c1.9-1.4,3.5-3.3,4.8-5.5c1,0.5,1.5,0.8,1.5,1.1c0,0.2-0.3,0.3-0.9,0.3c-1.3,1.8-3,3.3-5.1,4.5L492.8,26z M506.7,27.9v8.4
					c0,1.1-0.7,1.6-2.1,1.6c0-0.4-0.3-0.7-0.7-0.8c-0.3-0.1-1-0.2-2.2-0.4v-0.5c1,0.1,2,0.2,3,0.2c0.5,0,0.8-0.2,0.8-0.6v-7.7H499
					l-0.2-0.5h9l1.1-1.4c0.5,0.4,1,0.9,1.4,1.5l-0.2,0.4C510.2,27.9,506.7,27.9,506.7,27.9z M507,22.4l1.1-1.3
					c0.4,0.4,0.9,0.8,1.4,1.4l-0.2,0.4H500l-0.2-0.5H507z"/>
				<path d="M531.4,27.3c-0.4,0.3-0.7,0.7-0.9,1.2c-3.4-1.6-6.1-3.8-8.1-6.5c-0.8,1.1-1.5,2.1-2.1,2.7c-1.7,1.8-3.9,3.3-6.5,4.5
					l-0.3-0.4c2.6-1.4,4.7-3.2,6.3-5.3c0.7-0.9,1.3-1.9,2-3.2c1.1,0.3,1.6,0.6,1.6,0.8c0,0.2-0.3,0.3-0.8,0.4
					C525.3,24.2,528.1,26.1,531.4,27.3z M522.9,32.6v4h5l1.1-1.4c0.5,0.4,1,0.9,1.5,1.5l-0.2,0.4h-15.5l-0.2-0.5h7.3v-4H517
					l-0.2-0.5h5v-3.7h-4.9l-0.2-0.5h9l1-0.9c0.4,0.3,0.9,0.6,1.4,1l-0.2,0.4H523v3.7h2.8l1-1.2c0.3,0.3,0.8,0.7,1.3,1.3l-0.2,0.4
					C527.9,32.6,522.9,32.6,522.9,32.6z"/>
				<path d="M536.6,25.9c-0.3-0.3-0.5-0.8-0.3-1.1c0.2-0.2,0.5-0.1,0.8,0s0.7,0.2,1.3,0.2c0.7,0,1.9-0.4,2.6-0.6
					c0.7-0.2,2.2-0.7,3.6-1c1.3-0.4,2.8-0.7,3.5-0.8c0.7-0.1,1.6,0,1.9,0.2c0.4,0.2,0.6,0.6,0.4,0.9c-0.2,0.3-0.4,0.3-0.7,0.2
					c-0.4,0-0.8-0.2-1.3-0.2s-1.5,0.1-2.4,0.3c0,0-0.1,0-0.2,0c-0.3,0.2-0.7,0.6-1.1,0.9c-0.5,0.5-0.9,0.9-1.2,1.7
					c-0.2,0.6-0.3,1.4-0.5,2.3c-0.2,0.8-0.2,2.2-0.1,3.5c0.1,0.8,0.4,1.2,0.9,1.7c0.4,0.4,1.1,0.5,1.8,0.4s1.2,0,1.5,0
					c0.4,0.1,0.7,0.4,0.9,0.6c0.2,0.3,0,0.6-0.5,0.6s-1.3,0.1-2.1,0s-1.7-0.3-2.4-0.9c-0.6-0.5-0.8-1.1-1-2c-0.2-1-0.2-2.1,0-3.2
					c0.1-1.2,0.3-2,0.5-2.7s0.5-1.3,1-1.8c0.2-0.3,0.7-0.7,1.1-0.9c-0.4,0.1-0.7,0.2-1.1,0.4c-0.8,0.3-2.1,0.9-2.8,1.1
					s-1.5,0.6-2.3,0.7C537.6,26.6,537,26.3,536.6,25.9z"/>
				<path d="M571.9,28.5c0.1,1.2,0,2-0.3,3s-1,2.1-2.1,2.8s-2.2,1-3.6,1.3c-1.5,0.3-2.8,0.2-3.5,0c-0.2,0-0.3-0.1-0.3-0.2
					c0-0.1,0.1-0.2,0.3-0.2s0.6,0.1,1.2,0.1c0.9,0,1.8-0.1,2.6-0.4c0.9-0.3,1.8-0.7,2.7-1.3s1.7-1.8,1.9-3.1
					c0.2-1.3,0.1-2.5-0.3-3.6c-0.4-1.3-1-2.1-1.9-2.7c-1-0.6-2.4-0.9-3.8-0.8c-0.2,0-0.4,0.1-0.6,0.1c0,0.4,0,1.1,0.1,1.7
					c0,0.7-0.1,1.8-0.3,3c-0.2,1.3-0.7,2.8-1.5,3.9c-0.8,1.1-1.8,1.9-2.9,1.9c-1,0-1.8-0.6-2.2-1.7c-0.5-1.1-0.6-2-0.3-3.3
					c0.3-1.2,0.7-2.2,1.5-3.1c0.7-0.9,1.6-1.7,2.8-2.3c1.3-0.7,2.8-1,4.2-1c1.3,0,2.6,0.4,3.5,0.9c1,0.6,1.8,1.5,2.3,2.3
					C571.6,26.6,571.8,27.3,571.9,28.5z M563.4,23.6c-1,0.3-2,0.7-2.8,1.3c-1.2,0.8-2.2,2-2.6,3.2c-0.5,1.2-0.5,2.6-0.2,3.4
					s1.1,0.9,1.9,0.6c0.9-0.3,1.6-0.8,2.2-1.8c0.6-1,1.1-2.1,1.3-3.6C563.5,25.5,563.5,24.4,563.4,23.6z"/>
				<path d="M580.5,26.6c0,0.2-0.3,0.4-0.8,0.5v11h-1.1v-10c-0.4,1-1.1,2.3-2,3.7l-0.4-0.3c1.8-3.2,3-6.9,3.8-11.2
					c1.2,0.3,1.8,0.6,1.8,0.8c0,0.2-0.3,0.3-0.8,0.4c-0.4,1.5-0.9,3-1.5,4.6C580.1,26.2,580.5,26.4,580.5,26.6z M592.1,29.3l0.7-0.9
					c0.9,0.8,1.3,1.2,1.3,1.5c0,0.1-0.1,0.2-0.2,0.2l-0.6,0.2c-0.4,0.4-0.7,0.9-1.3,1.3c0,0,0.2,0.1,0.4,0.4l-0.2,0.4h-4.1v4.1
					c0,1.1-0.6,1.6-2,1.6c0-0.4-0.2-0.6-0.6-0.8c-0.2-0.1-0.9-0.2-1.9-0.4v-0.6c0.9,0.1,1.8,0.2,2.6,0.2c0.6,0,0.8-0.2,0.8-0.6v-3.4
					h-4.4l-0.2-0.5h7.9l0.9-1.1c0.1,0.1,0.2,0.1,0.3,0.2s0.2,0.1,0.2,0.2c0-0.1,0.1-0.2,0.1-0.3c0.2-0.4,0.3-0.7,0.4-1.1h-9.8V30
					c0,0.7-0.1,1.3-0.4,1.8c-0.2,0.5-0.5,0.7-0.9,0.7c-0.2,0-0.4-0.1-0.5-0.3c-0.1-0.1-0.2-0.3-0.2-0.4c0-0.2,0.2-0.4,0.4-0.7
					c0.5-0.5,0.8-1.3,0.9-2.5h0.5c0,0.2,0.1,0.4,0.1,0.8h9.8V29.3z M586.8,22.7v-2.4c1.3,0,2,0.2,2,0.5c0,0.2-0.3,0.3-0.8,0.5v1.4
					h3.7l0.9-1.3c0.4,0.4,0.8,0.8,1.3,1.3l-0.2,0.4h-12.3l-0.2-0.5h5.6V22.7z M590.4,24.6l0.7-0.8c0.8,0.6,1.2,1,1.2,1.2
					c0,0.1,0,0.2-0.2,0.2l-0.5,0.3v2.8h-1.1v-0.7h-6.3v0.8h-1.1V24c0.6,0.3,1,0.5,1.2,0.6H590.4z M584.2,25.1v2h6.3v-2H584.2z"/>
				<path d="M606.6,25.6h4.3l0.7-0.9c0.8,0.6,1.2,1,1.2,1.2c0,0.1-0.1,0.2-0.2,0.3l-0.5,0.4v6.1H611v-1h-4.4v2.4h5.7l1.1-1.3
					c0.5,0.4,0.9,0.9,1.4,1.4l-0.2,0.4h-7.9v3.6h-1.2v-3.6h-7.7l-0.2-0.5h7.9v-2.4H601v1.1h-1.2v-7.9c0.3,0.1,0.8,0.4,1.4,0.7h4.2
					v-2h-7.3l-0.2-0.5h7.5v-2.8c1.4,0,2.1,0.2,2.1,0.5c0,0.2-0.3,0.4-0.9,0.6v1.7h5.4l1-1.3c0.5,0.4,0.9,0.9,1.3,1.4l-0.2,0.4h-7.6
					C606.6,23.6,606.6,25.6,606.6,25.6z M605.4,26.1H601v2.2h4.4V26.1z M601,31.2h4.4v-2.4H601V31.2z M611,28.3v-2.2h-4.4v2.2H611z
					 M611,28.8h-4.4v2.4h4.4V28.8z"/>
				<path d="M619.4,32.6c0.1,0.7,0.1,1.2,0.1,1.6c0,1.1-0.1,1.9-0.4,2.5c-0.2,0.4-0.4,0.6-0.7,0.6c-0.4,0-0.6-0.2-0.6-0.6
					c0-0.1,0.1-0.3,0.2-0.6c0.6-0.9,0.9-2.1,0.9-3.3c0-0.1,0-0.2,0-0.2H619.4z M623.1,30.3h1.3l0.8-1c0.7,0.6,1.1,1,1.1,1.2
					c0,0,0,0.1-0.1,0.2l-0.5,0.4c0,3.5-0.3,5.7-0.9,6.4c-0.4,0.5-0.9,0.7-1.7,0.7c0-0.4-0.2-0.6-0.7-0.8c-0.2-0.1-0.7-0.2-1.5-0.3
					v-0.5c0.8,0.1,1.5,0.1,2.1,0.1s1-0.2,1.1-0.8c0.3-1.1,0.4-2.8,0.4-5.1h-4.4v0.9H619V21c0.4,0.1,0.8,0.3,1.3,0.6h4.2l0.9-1.1
					c0.5,0.5,0.9,0.9,1.1,1.2l-0.2,0.4h-3.2v2.2h0.9l0.8-1.1c0.4,0.4,0.7,0.8,1,1.2l-0.2,0.4h-2.5v2.4h0.9l0.8-1.1
					c0.4,0.4,0.7,0.8,1.1,1.2l-0.2,0.3h-2.5C623.1,27.7,623.1,30.3,623.1,30.3z M620.4,32.5c0.5,1.1,0.7,2,0.7,2.7s-0.2,1-0.6,1
					c-0.3,0-0.4-0.1-0.4-0.4v-0.1c0-0.1,0-0.2,0-0.2c0-0.3,0-0.7,0-1c0-0.6-0.1-1.1-0.2-1.8C619.9,32.6,620.4,32.5,620.4,32.5z
					 M620.1,24.3h1.9v-2.2h-1.9V24.3z M622.1,24.9h-1.9v2.4h1.9V24.9z M622.1,30.3v-2.5h-1.9v2.5H622.1z M621.5,32.1
					c0.8,1,1.2,2,1.2,2.8c0,0.4-0.2,0.7-0.5,0.7c-0.2,0-0.3-0.1-0.4-0.2c0,0,0-0.3,0-0.8c0-0.8-0.2-1.5-0.6-2.3L621.5,32.1z
					 M622.6,31.7c0.9,0.8,1.4,1.6,1.4,2.3c0,0.4-0.2,0.6-0.5,0.6c-0.2,0-0.4-0.2-0.4-0.6c-0.1-0.7-0.4-1.4-0.8-2.1L622.6,31.7z
					 M633.6,21.9l0.8-1c0.8,0.7,1.1,1.1,1.1,1.2s-0.1,0.2-0.2,0.3l-0.5,0.3v6.7h-1.1v-1.2h-2.3c0,0.2,0.1,0.5,0.1,0.7
					c0.5,3.1,2,5.7,4.6,7.7c-0.4,0.3-0.8,0.7-1.1,1.2c-2.4-2.4-3.8-5.5-4.2-9.6h-2.2c0,4.6-1,7.9-2.9,9.9l-0.4-0.3
					c1.5-2.2,2.2-5.4,2.2-9.7v-6.8c0.6,0.3,1.1,0.5,1.3,0.7h4.8V21.9z M628.7,22.4v5.3h5.1v-5.3C633.7,22.4,628.7,22.4,628.7,22.4z"
					/>
			</g>
		</g>
		<g>
			<g>
				<path class="st2" d="M2.4,104.6v-1.1l-1.9,0.1v-1.5l2-0.1c0-0.6,0-1.3,0-2l1.5,0.1c-0.1,0.9-0.1,1.5-0.1,1.8
					c0.5,0,1.1-0.1,1.8-0.2v1.5l-1.8,0.2v0.7c0.9-0.2,1.6-0.3,2.2-0.3c0.8,0.1,1.5,0.4,2,1c0.5,0.5,0.7,1.1,0.7,1.8
					c0,0.8-0.2,1.4-0.7,1.8c-0.4,0.4-0.9,0.7-1.6,0.7c-0.6,0.1-1.1-0.1-1.6-0.4c-0.4-0.3-0.7-0.8-0.8-1.5l1.4-0.4
					c0.1,0.5,0.4,0.7,0.9,0.7c0.3-0.1,0.5-0.2,0.6-0.6c0.1-0.3,0-0.6-0.1-0.9c-0.3-0.4-0.8-0.7-1.5-0.7c-0.5,0-1.1,0-1.7,0.2v2
					c0,0.5-0.1,1-0.4,1.3c-0.3,0.4-0.8,0.6-1.4,0.6s-1.2-0.3-1.6-0.7c-0.5-0.5-0.6-1.1-0.5-1.8c0.1-0.5,0.4-1,0.9-1.5
					C1.3,105.2,1.8,104.8,2.4,104.6z M2.4,106.3c-0.3,0.2-0.5,0.3-0.7,0.4c-0.2,0.2-0.3,0.4-0.3,0.7c0,0.2,0.1,0.4,0.3,0.4
					c0.1,0.1,0.3,0.1,0.4,0c0.1-0.1,0.2-0.2,0.2-0.4C2.4,107.2,2.4,106.8,2.4,106.3z M6.3,102.7l0.9-1.2c0.9,0.6,1.6,1.2,2.2,1.8
					l-1,1.2C7.8,103.7,7,103.2,6.3,102.7z"/>
				<path class="st2" d="M10.2,108.7c1-1.4,1.8-2.9,2.5-4.7c-0.4,0.1-1.1,0.2-2,0.5l-0.4-1.5c0.9-0.1,1.8-0.3,2.7-0.4
					c0.2-0.6,0.3-1.4,0.4-2.4l1.7,0.4l-0.5,1.8c1.1-0.2,1.8,0.1,2.2,0.8c0.3,0.6,0.4,1.5,0.2,2.7c-0.1,0.7-0.2,1.3-0.4,1.9
					c-0.3,0.8-0.7,1.3-1.1,1.6c-0.4,0.2-1,0.3-1.8,0.2l-0.4-1.6c0.6,0,1,0,1.1,0c0.2-0.1,0.4-0.2,0.5-0.5c0.3-0.5,0.5-1,0.6-1.6
					s0.2-1.2,0-1.5c-0.1-0.3-0.3-0.5-0.6-0.5c-0.2,0-0.5,0-0.8,0c-0.6,2.1-1.5,4-2.7,5.8L10.2,108.7L10.2,108.7z M16.6,101.9
					l1.4-0.7c0.8,1.3,1.4,2.8,2,4.5l-1.4,0.7C18.1,104.5,17.4,103,16.6,101.9z"/>
				<path class="st2" d="M21.8,100.1l1.5,0.3c-0.5,1.9-0.6,4-0.4,6.2l0.5-1.3l1.1,0.7c-0.4,1-0.7,2-0.9,3l-1.5,0.3
					C21.2,106.3,21.1,103.2,21.8,100.1z M24.3,102.5c1.5,0.1,2.5,0.1,3,0V100l1.5,0.1v2.3c0.4,0,0.9-0.1,1.5-0.1v1.5
					c-0.5,0.1-1,0.1-1.5,0.1c0.1,2.5-0.5,4.4-2,5.8l-1.1-1.1c0.7-0.6,1.1-1.4,1.4-2.2c0.2-0.6,0.3-1.4,0.3-2.5c-1,0.1-2,0.1-3,0
					C24.3,103.9,24.3,102.5,24.3,102.5z M28.9,100.9l0.7-0.5l0.9,1.1l-0.7,0.5L28.9,100.9z M29.7,100.2l0.7-0.5l0.8,1l-0.7,0.5
					L29.7,100.2z"/>
				<path class="st2" d="M31.7,102.7c1.4-0.2,2.6-0.4,3.5-0.6c-0.2-0.5-0.4-1-0.7-1.6l1.7-0.5c0.2,0.6,0.5,1.2,0.8,1.7
					c0.9-0.2,1.7-0.5,2.4-0.7l0.7,1.4c-0.9,0.3-1.7,0.5-2.4,0.7c0.6,1,1.3,1.9,2.1,2.8l-1,1c-0.6-0.4-1.3-0.6-2.1-0.7
					s-1.5-0.1-2.1,0.1s-0.8,0.5-0.7,1s0.7,0.8,1.6,0.9c1,0.1,2.1,0,3.2-0.4l0.5,1.4c-1.7,0.6-3.2,0.7-4.6,0.4
					c-0.7-0.1-1.2-0.4-1.6-0.8c-0.5-0.5-0.7-1-0.7-1.6c0-1.1,0.6-1.7,1.7-2.1c0.8-0.3,1.8-0.3,3-0.1c-0.3-0.5-0.6-1-0.9-1.5
					c-1.3,0.3-2.5,0.5-3.8,0.7C32.2,104.2,31.7,102.7,31.7,102.7z"/>
				<path class="st2" d="M41.1,103v-1.5c1.1-0.1,2.3-0.2,3.5-0.2V100l1.7,0.1v1.1h2.9v1.4c-1,0-2,0-3,0v1.3c0.7,0,1.6-0.2,2.7-0.4
					v1.5c-0.6,0.1-1.5,0.2-2.7,0.4v0.8c1.2,0.2,2.3,0.7,3.3,1.3l-0.8,1.3c-0.8-0.5-1.6-0.9-2.4-1.1c0,0.9-0.4,1.5-1.3,1.8
					c-0.5,0.1-1.1,0.2-1.6,0.2c-0.8-0.1-1.4-0.3-1.8-0.6c-0.4-0.4-0.5-0.9-0.4-1.5c0.1-0.7,0.6-1.1,1.3-1.3c0.4-0.1,1.1-0.2,2.1-0.1
					v-0.6c-0.7,0-1.3,0-1.7,0c-0.6,0-1.1-0.2-1.3-0.6c-0.1-0.2-0.2-0.5-0.1-0.8c0.1-0.2,0.2-0.5,0.4-1l1.6,0.3
					c-0.1,0.2-0.2,0.3-0.3,0.4c0,0.1,0,0.2,0.2,0.2c0.4,0,0.8,0,1.2,0v-1.4C43.4,102.8,42.2,102.9,41.1,103z M44.7,107.4
					c-0.5-0.1-0.9-0.1-1.4,0c-0.4,0.1-0.5,0.4-0.3,0.6s0.5,0.3,1,0.2C44.6,108.2,44.8,107.9,44.7,107.4z"/>
				<path class="st2" d="M50.4,101.3c3.5-0.2,6.4-0.5,8.9-1l0.3,1.5c-0.7,0.1-1.2,0.2-1.4,0.3c-0.4,0.1-0.8,0.3-1.3,0.7
					c-0.6,0.4-1.2,1-1.6,1.8c-0.5,0.9-0.6,1.7-0.3,2.3c0.3,0.4,0.7,0.7,1.3,0.9c0.3,0.1,0.8,0.2,1.6,0.3l-0.5,1.5
					c-0.8-0.1-1.5-0.3-1.9-0.5c-0.7-0.2-1.3-0.6-1.7-1.1c-0.8-0.8-1-1.9-0.5-3c0.4-1,1.1-1.9,2-2.6c-0.9,0.1-2.5,0.3-4.7,0.5
					C50.6,102.8,50.4,101.3,50.4,101.3z M57.2,103.5l0.9-0.4l0.6,1.2l-0.9,0.4L57.2,103.5z M58.4,102.9l0.9-0.4l0.6,1.2l-0.8,0.4
					L58.4,102.9z"/>
				<path class="st2" d="M60.2,107.3v-1.9l4.1-5.2h1.8v5.7h1.3v1.4h-1.3v2h-1.6v-2C64.4,107.3,60.2,107.3,60.2,107.3z M61.5,105.8
					h2.9v-3.7C64.4,102.1,61.5,105.8,61.5,105.8z"/>
				<path class="st2" d="M68.1,106.5h1.6c0.1,0.5,0.3,0.8,0.7,1.1c0.4,0.3,0.9,0.3,1.3,0.2c0.8-0.2,1.2-0.6,1.4-1.4
					c0.1-0.8-0.1-1.3-0.8-1.8c-0.4-0.2-0.7-0.3-1.2-0.2c-0.4,0.1-0.8,0.2-1.1,0.5h-1.7l0.8-4.8h5.1v1.5h-3.9l-0.4,1.8
					c1.2-0.6,2.2-0.6,3.2,0c0.7,0.4,1.2,1,1.4,1.9c0.2,0.9,0.1,1.6-0.3,2.4c-0.4,0.6-0.9,1.1-1.6,1.4c-0.6,0.3-1.3,0.3-2,0.2
					c-0.8-0.1-1.4-0.4-1.9-0.9C68.4,107.9,68.1,107.3,68.1,106.5L68.1,106.5z"/>
				<path class="st2" d="M85.2,100.1v8.7c0,0.8-0.4,1.2-1.1,1.2h-1.3l-0.4-1.5h0.8c0.3,0,0.4-0.2,0.4-0.5v-6.5h-5.4v4.4
					c0,0.6-0.1,1.3-0.4,2.1c-0.3,0.9-0.6,1.6-1,2.1l-1.3-1.5c0.7-0.9,1.1-2.2,1.1-3.9v-4.6C76.6,100.1,85.2,100.1,85.2,100.1z
					 M78.4,103.7H80v-0.5h-1.4v-1.1H80v-0.4h1.6v0.4H83v1.1h-1.4v0.5h1.7v1.1h-4.9C78.4,104.8,78.4,103.7,78.4,103.7z M78.7,108.8
					v-3.6h4.1v3.1h-2.5v0.5H78.7z M80.3,107.1h1v-0.7h-1V107.1z"/>
				<path class="st2" d="M88.7,99.7l1.8,0.3l-0.4,0.7h6v1.4h-3.3v1.1h3v1.5h-3v1.5h3.8v1.4h-3.8v2.2h-1.5v-2.2h-4.8v-1.4h1.8v-2.9
					c-0.5,0.5-0.8,0.8-1,0.9l-0.8-1.5C87.6,102,88.3,100.9,88.7,99.7z M88.4,103.3h2.9v-1.1h-2C89.2,102.3,88.9,102.7,88.4,103.3z
					 M89.8,106.3h1.5v-1.5h-1.5V106.3z"/>
			</g>
			<g>
				<g>
					<defs>
						<rect id="SVGID_1_" x="75.8" y="69.6" width="20.9" height="23.8"/>
					</defs>
					<clipPath id="SVGID_00000070817238975309464430000002482172756381770634_">
						<use xlink:href="#SVGID_1_"  style="overflow:visible;"/>
					</clipPath>
					<g style="clip-path:url(#SVGID_00000070817238975309464430000002482172756381770634_);">
						<g>
							<path class="st4" d="M91.9,72.3l-11,12.4h2.6c0.4,0,0.7,0.3,0.7,0.7v13.4l18.8-0.1v-14L91.9,72.3z"/>
							<path class="st5" d="M91.9,89.2c0,0-3.5-2.2-3.5-4.6c0-1,0.8-1.8,1.7-1.8c1,0,1.7,0.8,1.7,1.8c0-1,0.8-1.8,1.7-1.8
								c1,0,1.8,0.8,1.8,1.8C95.4,87,91.9,89.2,91.9,89.2z"/>
							<path class="st4" d="M82.3,78.3c0,0-2.2-1.4-2.2-2.9c0-0.6,0.5-1.1,1.1-1.1s1.1,0.5,1.1,1.1c0-0.6,0.5-1.1,1.1-1.1
								s1.1,0.5,1.1,1.1C84.5,76.9,82.3,78.3,82.3,78.3z"/>
							<path class="st4" d="M78.3,73.3c0,0-1.1-0.7-1.1-1.4c0-0.3,0.2-0.5,0.5-0.5s0.5,0.2,0.5,0.5c0-0.3,0.2-0.5,0.5-0.5
								s0.5,0.2,0.5,0.5C79.4,72.6,78.3,73.3,78.3,73.3L78.3,73.3z"/>
						</g>
					</g>
				</g>
			</g>
			<g>
				<path class="st2" d="M1.7,77.4c-0.8,0-1.2-0.6-1.2-1.5c0-1,0.3-1.6,1.6-3.3L30,33.5c0.6-0.8,1.1-1.2,2-1.2h1.5
					c0.9,0,1.3,0.3,1.3,0.7c0,0.3-0.2,0.6-0.4,1L6.6,72.3c-1,1.4,0.2,1.4,2.4,1.4h13.5c2.1,0,2.4-0.3,2.4-2.3v-16
					c0-0.6,0.1-1.3,0.8-1.7c1-0.7,3-1.4,4.4-1.5c1.2-0.1,1.2,1,1.2,2.7v16.8c0,1.7,0.3,2,1.7,2h5.6c0.8,0.6,0.8,2.9,0,3.7H34
					c-2.2,0-2.6,0.1-2.6,1.9v3.9c0,6.9,0.2,8,3.7,8.5l2.3,0.3c0.5,0.5,0.4,1.9-0.2,2.2c-3.1-0.2-6.3-0.3-9-0.3
					c-3.1,0-7,0.1-10.9,0.3c-0.6-0.3-0.7-1.7-0.2-2.2l3.9-0.3c3.6-0.3,3.9-1.7,3.9-8.5v-3.7c0-2.1-0.3-2.2-2.5-2.2L1.7,77.4
					L1.7,77.4z"/>
				<path class="st2" d="M50.1,36.7c0.4-1.4,0.9-2.2,2.3-2.4l20.9-3c0.5-0.1,0.8,0.4,0.8,0.8c-0.6,1.9-1.9,4.1-3.1,5.4L54.5,40
					c-2,0.3-2.4,0.7-3,2.4L50,47.6c-0.3,1,0,1.5,1.2,1.6l1.8,0.2c10.9,1,23,5.8,23,19.1c0,15.1-17.3,25.6-31.1,26
					c-1-0.3-1-2.1-0.3-2.7c13.5-0.8,24.9-9.1,24.9-21c0-12.4-13.1-15.5-23.4-15.7c-1.3,0-1.4-0.7-0.8-2.7
					C45.5,52.3,50.1,36.7,50.1,36.7z"/>
			</g>
			<g>
				<path class="st2" d="M79.6,42c-0.4,0-0.5,0.1-0.5,0.6v4.9c0,1.5,0.2,2.9,1.9,2.9c0.3,0,0.5-0.1,0.7-0.1c0.2-0.1,0.6-0.4,0.6-0.4
					c0.2,0,0.3,0.3,0.3,0.4c-0.5,0.5-1.4,1.2-2.7,1.2c-2.2,0-2.7-1.2-2.7-2.8v-6c0-0.7,0-0.8-0.5-0.8H76c-0.2-0.1-0.2-0.4-0.1-0.5
					c0.8-0.2,1.4-0.6,1.7-0.8c0.3-0.3,0.8-1,1.1-1.5c0.1-0.1,0.4-0.1,0.5,0.1v1.2c0,0.5,0,0.5,0.5,0.5h2.9c0.3,0.2,0.3,0.9,0,1.1
					L79.6,42L79.6,42z"/>
				<path class="st2" d="M85.7,36.5c0-1.5,0-1.7-0.8-2.2l-0.3-0.2c-0.1-0.1-0.1-0.4,0-0.5c0.6-0.2,1.9-0.6,2.8-1.1
					c0.1,0,0.2,0.1,0.3,0.2c0,0.8-0.1,2.1-0.1,3.2v5.5c0,0.2,0,0.4,0.1,0.5c0.9-0.7,2.2-1.4,3.5-1.4c2.5,0,3.3,1.5,3.3,3.4v4.3
					c0,1.9,0.1,2.2,1,2.3l0.7,0.1c0.2,0.1,0.1,0.6-0.1,0.6c-0.9-0.1-1.7-0.1-2.6-0.1s-1.7,0-2.4,0.1c-0.2-0.1-0.2-0.5-0.1-0.6
					l0.5-0.1c1-0.2,1-0.4,1-2.3v-3.7c0-1.7-0.8-2.8-2.5-2.8c-0.9,0-1.6,0.3-2,0.7c-0.5,0.4-0.5,0.5-0.5,1.4v4.4c0,1.9,0.1,2.1,1,2.3
					l0.5,0.1c0.2,0.1,0.1,0.6-0.1,0.6c-0.8-0.1-1.5-0.1-2.4-0.1s-1.7,0-2.5,0.1c-0.2-0.1-0.2-0.5-0.1-0.6l0.6-0.1c1-0.1,1-0.4,1-2.3
					C85.7,48.2,85.7,36.5,85.7,36.5z"/>
			</g>
		</g>
	</g>
</g>
<g>
	<g>
		<path class="st1" d="M172.1,70.2C172.1,70.2,172.1,70.2,172.1,70.2c0.3,0,0.4-0.1,0.4-0.3l9.7-36.2c0.1-0.2-0.1-0.4-0.3-0.4
			c-0.2-0.1-0.4,0.1-0.4,0.3l-9.7,36.2C171.8,69.9,171.9,70.1,172.1,70.2z"/>
		<path class="st1" d="M400.5,93.1H183.5c0-0.5,0-1.1-0.1-1.6l17-2.2c0.2,0,0.3-0.2,0.3-0.4c0-0.2-0.2-0.3-0.4-0.3l-17,2.2
			c-0.1-0.5-0.2-1-0.3-1.5l9.8-2.3c0.2-0.1,0.3-0.3,0.3-0.4c-0.1-0.2-0.2-0.3-0.4-0.3l-9.8,2.3c-0.1-0.5-0.3-1-0.5-1.5l15.8-6.6
			c0.2-0.1,0.3-0.3,0.2-0.5c-0.1-0.2-0.3-0.3-0.5-0.2L182,86.3c-0.2-0.5-0.4-0.9-0.7-1.4L201,74c0.2-0.1,0.2-0.3,0.1-0.5
			c-0.1-0.2-0.3-0.2-0.5-0.1l-19.7,10.9c-0.3-0.5-0.6-0.9-0.9-1.3l10.2-7.6c0.2-0.1,0.2-0.3,0.1-0.5c-0.1-0.2-0.3-0.2-0.5-0.1
			l-10.2,7.6c-0.3-0.4-0.7-0.8-1-1.2l1.7-1.7c0.1-0.1,0.1-0.4,0-0.5c-0.1-0.1-0.4-0.1-0.5,0l-1.7,1.7c-0.4-0.4-0.8-0.7-1.2-1
			l10.4-13.6c0.1-0.2,0.1-0.4-0.1-0.5c-0.2-0.1-0.4-0.1-0.5,0.1l-10.4,13.6c-0.4-0.3-0.9-0.6-1.3-0.9l18.9-32.8
			c0.1-0.2,0-0.4-0.1-0.5c-0.2-0.1-0.4,0-0.5,0.1L174.3,78c-0.5-0.3-0.9-0.5-1.4-0.7l6.6-15.8c0.1-0.2,0-0.4-0.2-0.5
			c-0.2-0.1-0.4,0-0.5,0.2L172.3,77c-0.5-0.2-1-0.4-1.5-0.5l1.2-4.3c0.1-0.2-0.1-0.4-0.3-0.4c-0.2-0.1-0.4,0.1-0.4,0.3l-1.2,4.3
			c-0.5-0.1-1-0.2-1.5-0.3l2.9-22.5c0-0.2-0.1-0.4-0.3-0.4c-0.2,0-0.4,0.1-0.4,0.3l-2.9,22.5c-0.5-0.1-1.1-0.1-1.6-0.1V38
			c0-0.2-0.2-0.4-0.4-0.4c-0.2,0-0.4,0.2-0.4,0.4v37.8c-0.5,0-1,0-1.5,0.1l-2.2-17c0-0.2-0.2-0.3-0.4-0.3c-0.2,0-0.3,0.2-0.3,0.4
			l2.2,17c-0.5,0.1-1.1,0.2-1.6,0.3l-1.7-5.8c-0.1-0.2-0.3-0.3-0.4-0.3c-0.2,0.1-0.3,0.3-0.3,0.4l1.7,5.8c-0.5,0.1-1,0.3-1.5,0.5
			l-9.6-22.3c-0.1-0.2-0.3-0.3-0.5-0.2c-0.2,0.1-0.3,0.3-0.2,0.5l9.6,22.3c-0.5,0.2-1,0.5-1.5,0.7l-18.9-32.8
			c-0.1-0.2-0.3-0.2-0.5-0.1c-0.2,0.1-0.2,0.3-0.1,0.5l18.9,32.8c-0.4,0.3-0.9,0.5-1.3,0.8L145,65.6c-0.1-0.2-0.3-0.2-0.5-0.1
			c-0.2,0.1-0.2,0.3-0.1,0.5l10.4,13.6c-0.4,0.3-0.8,0.7-1.2,1.1l-6.9-7.2c-0.1-0.1-0.4-0.1-0.5,0c-0.1,0.1-0.1,0.4,0,0.5l6.9,7.2
			c-0.4,0.4-0.7,0.7-1,1.1L136,70.2c-0.2-0.1-0.4-0.1-0.5,0.1c-0.1,0.2-0.1,0.4,0.1,0.5l16.1,12.2c-0.3,0.4-0.6,0.9-0.9,1.4
			l-29.7-17.2c-0.2-0.1-0.4,0-0.5,0.1c-0.1,0.2,0,0.4,0.1,0.5l29.7,17.2c-0.2,0.4-0.5,0.9-0.7,1.4l-15.8-6.6c-0.2-0.1-0.4,0-0.5,0.2
			c-0.1,0.2,0,0.4,0.2,0.5l15.8,6.6c-0.2,0.5-0.4,1-0.5,1.5l-2.3-0.6c-0.2-0.1-0.4,0.1-0.4,0.3c-0.1,0.2,0.1,0.4,0.3,0.4l2.3,0.6
			c-0.1,0.5-0.2,1-0.3,1.5l-17-2.2c-0.2,0-0.4,0.1-0.4,0.3c0,0.2,0.1,0.4,0.3,0.4l17,2.2c-0.1,0.5-0.1,1.1-0.1,1.6h-22.1
			c-0.2,0-0.4,0.2-0.4,0.4c0,0.2,0.2,0.4,0.4,0.4h22.4c0.2,0,0.4-0.2,0.4-0.4c0-9.3,7.6-16.9,16.9-16.9c9.3,0,16.9,7.6,16.9,16.9
			c0,0.2,0.2,0.4,0.4,0.4h217.4c0.2,0,0.4-0.2,0.4-0.4C400.9,93.2,400.7,93.1,400.5,93.1z"/>
		<path class="st1" d="M144.4,88.1c0.2,0,0.3-0.1,0.3-0.3c0.1-0.2-0.1-0.4-0.3-0.4l-36.2-9.7c-0.2-0.1-0.4,0.1-0.4,0.3
			c-0.1,0.2,0.1,0.4,0.3,0.4L144.4,88.1C144.4,88.1,144.4,88.1,144.4,88.1z"/>
	</g>
</g>
<g>
	<path class="st1" d="M218,58.6c-1.1,1.8-2.7,4.7-3.2,5.6c-0.6,0.9-1.3,2-1.8,2.7c2.3,2.2,5.1,5.1,5.1,8.6c0,3.7-2.9,4.8-4.4,5.3
		c-0.2-1.8-1.7-2.8-2.3-3.2v-0.3c0.6,0.1,1.2,0.2,2,0.2c2.2,0,2.4-1.1,2.4-2.4c0-2.7-1.3-6.2-3.6-8.2c0.4-1,2.1-5.2,2.4-6.1
		c0.2-0.8,0.8-2.7,1-3.6h-5.7c0,1.4-0.2,16.7-0.1,19.1l0.2,11c0,1-0.3,2-1.8,2c-0.4,0-0.8-0.2-0.8-0.7c0-0.9,0.2-4.8,0.2-5.7
		c0.2-6.2,0.2-12.4,0.2-18.5c0-6.9,0-8.3-0.2-9.6l2.8,1.4h5.2l0.8-0.7c0.3-0.3,0.4-0.4,0.6-0.4c0.2,0,0.4,0.2,0.6,0.4l1.7,1.5
		c0.2,0.2,0.3,0.3,0.3,0.5C219.9,57.8,218.8,58.2,218,58.6z M241.3,71.2h-14.4c-0.4,0.9-1.1,2.3-2.5,4.3h11.5l0.8-0.8
		c0.4-0.4,0.6-0.6,0.8-0.6c0.2,0,0.3,0.1,0.7,0.4l1.4,1.2c0.3,0.2,0.3,0.4,0.3,0.5c0,0.6-0.8,0.9-1.4,1.2c-0.1,1-0.6,5.7-0.8,6.7
		c-0.9,4.5-3.4,5.1-5.8,5.7c-0.4-1.6-1.4-2.5-2.5-3.6l0.2-0.2c1,0.4,2.2,0.7,3.2,0.7c0.8,0,1.5-0.1,2-0.8c0.9-1.2,1-2.3,1.7-9.5
		h-2.9c-1.8,7.1-7.5,12.6-12.6,13.8v-0.1c4.9-3.2,8.4-8.1,10.2-13.7h-2.7c-2,4.7-5.8,9.8-12.3,12.2v-0.2c3.6-2.2,8.1-7.4,9.8-12
		h-2.2c-1.3,1.6-5.2,6.1-8.8,7.4v-0.1c4.2-3.2,7.1-7.7,9.3-12.5c-2.2,0-4.3,0.2-5.7,0.4l-0.9-1.7c2,0.2,4.6,0.3,6.7,0.3h13.2
		l1.2-1.3c0.3-0.3,0.5-0.5,0.6-0.5c0.2,0,0.5,0.2,0.7,0.4l1.4,1.2c0.1,0.1,0.4,0.4,0.4,0.6C241.9,71.1,241.5,71.2,241.3,71.2z
		 M234.9,57.8c0,1.2,0.2,7.5,0.2,8.3c0,1.5-1.2,1.7-1.6,1.7c-0.7,0-0.7-0.8-0.6-1.3h-8c-0.1,0.9-1,1.4-1.5,1.4
		c-0.5,0-0.7-0.2-0.7-0.8c0-0.2,0.1-1.3,0.1-1.5c0-5.2,0.1-5.7,0.1-6.9c0-1.7,0-2.2-0.3-4.1l2.8,1.5h7.4l0.6-0.6
		c0.2-0.2,0.4-0.4,0.6-0.4c0.2,0,0.5,0.2,0.7,0.3l1.1,0.7c0.3,0.2,0.5,0.3,0.5,0.6C236,56.9,236,57,234.9,57.8z M232.9,57h-8.1v3.9
		h8.1V57z M232.9,61.9h-8.1v3.7h8.1V61.9z"/>
	<path class="st1" d="M256.8,71.1c0.5-0.3,0.5-0.3,0.9-0.3c0.5,0,1,0.2,1,0.6c0,0.3-0.2,0.4-0.4,0.5c-0.3,0.2-1.9,0.9-4.6,1.8
		c-2.4,6.6-3.9,10.7-5.2,13.2c-0.3,0.5-0.4,0.9-0.8,0.9c-0.5,0-0.7-0.6-0.7-1c0-0.3,0-0.4,0.8-1.8c2.5-4.3,4.1-9.1,4.7-11
		c-1.6,0.4-3,0.4-3.3,0.4c-1.8,0-2.3-0.8-2.6-1.3c0.3,0.1,1,0.3,2.2,0.3c1.2,0,3.1-0.3,4.1-0.6c0.5-1.6,1-3.4,1-3.9
		c0-0.7-0.5-1-1.3-1.5c0.4-0.1,0.6-0.2,1.1-0.2c1.6,0,2,1.4,2,1.7c0,0.2,0,0.3-0.3,0.9c-0.6,1.2-0.8,1.7-1.1,2.6
		C254.8,72.2,255.9,71.7,256.8,71.1z M261.1,86.4c1,0,2.2-0.1,3.7-0.3c0.4-0.1,0.5-0.1,0.6-0.1c0.4,0,1.2,0.5,1.2,0.9
		c0,0.8-3,0.9-4.5,0.9c-2.1,0-4-0.3-5.4-1.4c-0.4-0.3-1-1-1-2.3c0-0.2,0-0.9,0.4-1.6C256.3,84.6,256.8,86.4,261.1,86.4z M261.3,77.6
		c0.6-0.5,2.1-1.7,2.1-2.2c0-0.5-1-0.5-4.3-0.6c1.2-1,3.5-1,3.6-1c1.6,0,3.8,0.6,3.8,1.9c0,0.6-0.4,0.6-1.2,0.6c-1,0-1.7,0.2-4,1.3
		L261.3,77.6z M265.6,71.2c0,0.2-0.1,0.6-0.5,0.6c-0.3,0-0.4-0.1-1.3-1c-0.7-0.7-1.1-0.9-2.7-2C262.8,68.7,265.6,69.4,265.6,71.2z
		 M264,66.7c1.2,0,2.7,0.4,3.4,1c0.5,0.3,0.5,0.9,0.5,1.1c0,0.3-0.1,0.6-0.5,0.6c-0.3,0-0.5-0.2-0.8-0.5c-1.1-1.1-2.1-1.6-3.6-2.2
		C263.4,66.7,263.5,66.7,264,66.7z"/>
	<path class="st1" d="M282.7,69.1c0-1.1-0.2-1.2-1.9-2c0.2-0.2,0.5-0.4,1.3-0.4c1.3,0,2.4,0.9,2.4,1.5c0,0.1-0.1,0.6-0.3,1.1
		c-0.1,0.5-0.2,1.1-0.3,1.9c1.8-0.4,2.6-0.7,4-1.2c0.2-0.1,0.4-0.2,0.6-0.2c0.5,0,1.4,0.5,1.4,0.8c0,0.3-0.3,0.5-0.5,0.5
		c-0.8,0.3-3,0.9-5.7,1.3c-0.1,1.1-0.1,2.7-0.1,4.1c1.7-0.4,2.3-0.6,3.4-1.1c0.1-0.1,0.3-0.1,0.5-0.1c0.5,0,1.3,0.3,1.3,0.7
		c0,0.4-0.3,0.5-0.6,0.6c-0.5,0.2-2.8,0.6-4.6,1c0.1,1.1,0.3,4.6,0.4,5.9c2.9,0.7,5.5,1.9,5.5,3.2c0,0.5-0.3,0.7-0.6,0.7
		c-0.2,0-0.3-0.1-1.2-0.7c-0.3-0.2-1.9-1.2-3.6-1.7c0,1.5-0.6,2.1-1,2.4c-1.2,0.9-2.8,0.9-3.1,0.9c-2.6,0-4.4-1.3-4.4-2.6
		c0-0.8,0.5-1.3,1.3-1.8c1.4-0.8,3.9-0.8,4.4-0.8c0.6,0,1,0,1.4,0.1c0-0.9-0.2-4.6-0.3-5.4c-1.3,0.2-2.6,0.3-3.9,0.3
		c-1.5,0-2.5-0.3-2.5-1.2c0-0.4,0.5-1.1,1.3-1.3c-0.2,0.2-0.4,0.5-0.4,0.8c0,0.5,0.5,0.6,1.9,0.6c1,0,2.2-0.1,3.7-0.4
		c0-1.4,0-2.2,0.1-4.2c-1,0.1-4.5,0.5-5.2,0.5c-0.7,0-2.7-0.2-3.4-1.7c0.4,0.2,1.5,0.6,3.3,0.6c0.5,0,2.6-0.1,5.3-0.6
		C282.7,71.2,282.7,69.5,282.7,69.1z M280,84.6c-1.7,0-3.4,0.4-3.4,1.5c0,0.7,1.1,1.3,3.1,1.3c1.1,0,3.4-0.3,3.1-2.6
		C282.4,84.8,281.7,84.6,280,84.6z"/>
	<path class="st1" d="M302.6,89.7c1.9-1.3,3.5-3.4,4.5-5.8c1-2.2,1.2-4.7,1.2-7.1c0-2.7-0.4-4.9-0.9-5.6c-0.3-0.4-0.8-0.8-1.3-0.8
		c-0.2,0-0.7,0.1-1.2,0.5c-2.4,2.3-3.6,7.3-3.7,7.6c-0.2,0.9-0.3,2.6-0.3,3c0,0.2,0.1,1.1,0.1,1.2c0,0.3-0.2,0.4-0.4,0.4
		c-0.3,0-0.7-0.3-0.8-0.5c-1-1.4-1-3.9-1-4.4c0-1.6,0.7-5.9,1-7.7c0.1-0.5,0.1-1,0.1-1.2c0-1.2-0.7-1.7-1.6-2.4
		c0.2,0,0.4-0.1,0.6-0.1c0.8,0,2.4,0.5,2.4,1.7c0,0.4-0.1,0.6-0.3,1.2c-0.2,0.4-1.3,4.3-1.3,7.3c0,0.3,0,1.8,0.2,2
		c0,0.1,0.1,0.1,0.1,0.1c0.1,0,0.2-0.1,0.2-0.3c0.4-1.6,1.8-6.8,4.7-8.7c0.4-0.3,1-0.3,1.1-0.3c3.1,0,3.4,5,3.4,7.4
		c0,3.4-0.5,7.7-4.2,10.9c-0.7,0.6-2.1,1.6-3,1.9V89.7z"/>
	<path class="st1" d="M326.9,57.1c-2.7,3.2-6,5.7-9.7,7.7l-0.2-0.2c2.8-2.6,7.9-7.2,8.8-10.8l2.4,2.3c0.2,0.2,0.4,0.4,0.4,0.6
		C328.6,57.2,327.8,57.2,326.9,57.1z M326.7,65.9c-0.8,1.1-1.2,1.7-1.9,2.6l0.9,0.3c0.6,0.2,0.7,0.2,0.7,0.5c0,0.2-0.1,0.3-0.2,0.4
		c-0.1,0.1-0.7,0.5-0.9,0.6c0,2.5,0.2,14.8,0.2,17.6c0,1.2,0,1.4-0.2,1.7c-0.2,0.4-1.1,0.8-1.6,0.8c-0.8,0-0.8-0.6-0.8-0.8
		c0-1.2,0.2-6.9,0.2-8.1c0-1.3,0-2.2,0-10.8c-2.8,3.5-4.7,4.9-5.7,5.7l-0.2-0.2c3.6-4,7.1-10.3,7.8-13.4l2.4,1.8
		c0.4,0.4,0.6,0.4,0.6,0.6C328.2,65.6,328,65.6,326.7,65.9z M343.3,69.3h-9.9c-1.4,0-3.6,0.2-5.1,0.5l-1-1.7c2,0.2,3.9,0.2,6.6,0.3
		v-5.9c-2,0-4.1,0.2-5.4,0.5l-1-1.7c3.3,0.2,6.3,0.3,6.4,0.3c0-5.7-0.2-6.1-0.7-7.7l3.4,1c0.4,0.1,0.6,0.3,0.6,0.5
		c0,0.5-0.6,0.8-1.3,1.2c0,0.8,0,4.3,0,5h3.3l0.7-0.8c0.3-0.4,0.4-0.5,0.6-0.5c0.1,0,0.2,0,0.8,0.4l1.2,0.8c0.2,0.2,0.4,0.4,0.4,0.6
		c0,0.4-0.4,0.4-0.6,0.4h-6.4v5.9h3.8l1-1.3c0.3-0.4,0.4-0.5,0.6-0.5c0.3,0,0.7,0.4,0.8,0.4l1.4,1.3c0.2,0.2,0.4,0.4,0.4,0.6
		C343.9,69.2,343.6,69.3,343.3,69.3z M330.5,85.7c-0.3,0.8-0.4,1.1-0.9,1.1c-0.2,0-0.3-0.2-0.5-0.6l-1.5-3c0.3,0,1.6,0.1,1.8,0.1
		c0.4,0,1.7-0.1,4.5-0.6c0-1,0-5.6,0-6.5c-2,0-4.1,0.2-5.4,0.4l-1-1.7c3.3,0.3,6.3,0.3,6.4,0.3c0-4.1,0-4.5-0.4-5.5l2.8,0.5
		c0.4,0.1,0.8,0.1,0.8,0.5c0,0.3-0.5,0.6-1.2,1c0,0.8,0,2.3,0,3.5h2.8l1.2-1.2c0.4-0.5,0.5-0.5,0.6-0.5c0.2,0,0.6,0.3,0.8,0.4
		l1.4,1.2c0.2,0.2,0.4,0.4,0.4,0.6c0,0.4-0.3,0.4-0.6,0.4h-6.6c0,1.6,0,4.7,0,6.2c4.7-0.8,6.8-1.3,8.6-1.8l0.1,0.3
		C340.4,82.6,336.7,83.9,330.5,85.7z M354.2,69.2h-5c0,2.6,0.3,16.1,0.1,17.7c-0.3,2.5-3.1,3.4-4.2,3.5c-0.7-1.9-2.1-2.9-3.3-3.2
		l0.1-0.2c0.5,0,2.8,0.1,3.1,0.1c1.3,0,1.7-0.2,2-0.6c0.3-0.4,0.3-3.4,0.3-4.2c0-1.5,0-3,0-4.6c0-2.8-0.1-5.7-0.1-8.5
		c-0.5,0-1.6,0-2.4,0.2l-0.4-1.3c0.6,0,2.2,0.1,2.8,0.1h3.5l1.2-1.4c0.4-0.6,0.5-0.6,0.7-0.6c0.1,0,0.3,0.1,0.6,0.5l1.4,1.4
		c0.4,0.4,0.4,0.4,0.4,0.6C354.8,69.1,354.5,69.2,354.2,69.2z M352.8,59.6h-7c-0.6,0-1.6,0-2.2,0.2l-0.4-1.3c0.7,0,2.2,0.2,2.8,0.2
		h3.4l0.7-1.2c0.2-0.3,0.4-0.6,0.6-0.6c0.2,0,0.3,0,0.8,0.4l1.5,1.2c0.2,0.2,0.4,0.3,0.4,0.6C353.5,59.5,353.2,59.6,352.8,59.6z"/>
	<path class="st1" d="M393.9,87.5h-29.2c0,1.2,0,1.4-0.2,1.7c-0.4,0.6-1.4,0.8-1.8,0.8c-0.8,0-0.8-0.4-0.8-0.6
		c0-0.9,0.2-2.2,0.2-3.1c0-1.1,0.4-16.9,0.4-21.5c0-6.3-0.2-7.8-0.6-10.2l3.7,1.9H388l1.5-1.6c0.4-0.4,0.4-0.5,0.6-0.5
		c0.2,0,0.6,0.3,0.8,0.4l2,1.6c0.2,0.2,0.4,0.3,0.4,0.6c0,0.4-0.3,0.4-0.6,0.4h-28c0,0.5-0.1,18.8-0.1,22.3c0,1.6,0,4.2,0.1,6.7H389
		l1.6-1.8c0.4-0.4,0.4-0.5,0.6-0.5c0.2,0,0.6,0.3,0.8,0.4l2.2,1.8c0.2,0.2,0.4,0.4,0.4,0.6C394.5,87.5,394.2,87.5,393.9,87.5z
		 M387,63.1c-2.1,3.6-3.8,6.1-5.9,8.7c1.7,1.5,6.7,5.9,6.7,8.7c0,0.7-0.4,1.4-1.2,1.4s-1.1-0.4-1.8-1.7c-1.7-3-3.7-5.4-5-6.8
		c-1.5,1.8-3.8,4.1-6.5,6.5c-2.1,1.8-3.6,2.8-6,4l0-0.3c4.2-2.9,7.8-7.4,11.3-11.6c-2.2-2.2-4.3-3.9-9.2-7.8l0.2-0.3
		c1.5,0.8,5.4,3,10.1,6.7c2.8-3.8,4.9-7.5,5.3-9.1c0.2-0.8,0.2-1.2,0.2-1.6l3.2,2.1c0.3,0.2,0.4,0.4,0.4,0.5
		C388.6,62.9,388.1,62.9,387,63.1z"/>
</g>
<g>
	<path class="st1" d="M264,107.3c1-0.4,2-1.4,2.6-2.1c1-1.2,1.6-2.7,1.6-2.7c0,0,0,0-0.1,0c-0.1,0-1.3,0.2-1.4,0.2
		c-0.2,0-0.3,0-0.5-0.2c-0.8,1.1-1.4,1.6-2.3,2l0,0c1.3-1.1,2.2-2.8,2.2-3c0-0.2-0.4-0.4-0.5-0.4c0.1,0,0.3-0.1,0.4-0.1
		c0.3,0,0.9,0.3,0.9,0.5c0,0.1,0,0.1-0.1,0.2c-0.1,0.1-0.4,0.5-0.4,0.6c0.1,0,0.2,0,0.3,0c0.5,0,1.4-0.1,1.6-0.2
		c0,0,0.1-0.1,0.2-0.2c0,0,0.1,0,0.1,0c0.1,0,0.4,0.3,0.5,0.4c0.1,0.1,0.1,0.1,0.1,0.2c0,0.1-0.1,0.1-0.3,0.2
		c-0.1,0-0.2,0.2-0.3,0.4C267.9,104.4,266.6,106.6,264,107.3L264,107.3z M269.7,101.8c0,0.1-0.1,0.2-0.2,0.2c-0.1,0-0.1,0-0.4-0.3
		c-0.3-0.3-0.5-0.5-0.8-0.7C268.9,101.1,269.7,101.4,269.7,101.8z M270.5,101.5c0,0.1-0.1,0.2-0.1,0.2c-0.1,0-0.2-0.1-0.3-0.2
		c-0.5-0.4-0.6-0.5-1.1-0.8C269.5,100.8,270.5,100.8,270.5,101.5z"/>
	<path class="st1" d="M275.4,107.4c2.1-0.9,3.4-3,3.6-4.2c-0.6,0.1-3,0.3-3.4,0.5c-0.2,0.1-0.2,0.1-0.2,0.1c-0.2,0-0.8-0.5-0.8-0.9
		c0-0.1,0-0.1,0-0.3c0.2,0.3,0.5,0.5,0.9,0.5c0.3,0,3.1-0.2,3.3-0.3c0.1,0,0.1,0,0.4-0.2c0,0,0.1-0.1,0.1-0.1c0.1,0,0.7,0.4,0.7,0.6
		c0,0.1,0,0.1-0.3,0.2c-0.2,0.1-0.2,0.1-0.3,0.4c-0.1,0.2-0.7,1.8-1.9,2.7C276.8,106.9,276.1,107.3,275.4,107.4L275.4,107.4z
		 M276.2,101.5c0.4,0,1.7-0.1,2-0.2c0.3-0.1,0.3-0.1,0.4-0.1c0.1,0,0.6,0.1,0.6,0.3c0,0.2-0.2,0.2-0.9,0.3c-0.4,0-2.3,0.2-2.5,0.2
		c-0.2,0-0.6-0.2-0.6-0.8C275.6,101.5,275.7,101.5,276.2,101.5z"/>
	<path class="st1" d="M287.2,102.3c0,0.1,0,0.3-0.3,0.3c-0.1,0-0.2-0.1-0.5-0.3c-0.5-0.5-0.9-0.7-1.3-0.9
		C286.1,101.4,287.2,101.8,287.2,102.3z M290.6,102.2c-0.6,1.2-1.6,2.2-2.7,3.1c-0.4,0.3-0.7,0.5-1.1,0.8c-0.2,0.2-0.3,0.2-0.5,0.5
		c-0.1,0.1-0.1,0.1-0.2,0.1c-0.3,0-0.8-0.6-0.8-1c0-0.1,0.1-0.2,0.1-0.3c0.1,0.3,0.4,0.5,0.5,0.5c0.3,0,1-0.5,1.3-0.8
		C289.1,103.8,289.6,103.2,290.6,102.2L290.6,102.2z"/>
	<path class="st1" d="M295.5,102.9c0.6,0,1.4,0.2,1.4,0.8c0,0,0,0.2-0.2,0.2c-0.1,0-0.2-0.1-0.3-0.2c-0.7-0.5-1.1-0.6-1.5-0.8
		C295.1,102.9,295.3,102.9,295.5,102.9z M296.2,101.1c0.8,0,1.5,0.3,1.5,0.8c0,0.1-0.1,0.3-0.2,0.3c-0.1,0-0.1,0-0.3-0.2
		c-0.6-0.6-1.2-0.8-1.4-0.9C296,101.1,296.1,101.1,296.2,101.1z M301.1,102.6c-0.5,1.2-2.1,2.8-3.8,3.9c-0.2,0.1-0.3,0.2-0.6,0.5
		c-0.1,0.1-0.1,0.1-0.1,0.1c-0.2,0-0.6-0.4-0.6-0.5c-0.2-0.2-0.2-0.5-0.2-0.8c0.2,0.3,0.5,0.5,0.7,0.5
		C297,106.4,299.5,104.4,301.1,102.6L301.1,102.6z"/>
	<path class="st1" d="M306.4,107.4c1.3-1.4,1.8-3.5,1.8-4.1c0-0.3-0.4-0.4-0.5-0.5c0.2-0.1,0.3-0.1,0.4-0.1c0.3,0,0.8,0.2,0.8,0.4
		c0,0,0,0.2-0.1,0.2c0.8-0.5,1.6-1.5,1.6-1.6c0,0,0-0.1-0.2-0.1c-0.9,0-3.5,0.4-3.5,0.4c-0.2,0-0.4,0.1-0.5,0.2c-0.1,0-0.1,0-0.1,0
		c-0.1,0-0.2-0.1-0.3-0.2c-0.3-0.3-0.3-0.4-0.3-0.6c0-0.1,0-0.2,0-0.4c0.3,0.5,0.6,0.6,0.8,0.6c0.6,0,3.8-0.3,4-0.3
		c0.1,0,0.2-0.1,0.3-0.1c0.1-0.1,0.1-0.1,0.1-0.1c0.1,0,0.3,0.2,0.4,0.3c0.1,0.1,0.3,0.3,0.3,0.4c0,0.1-0.1,0.1-0.4,0.1
		c-0.1,0-0.2,0.1-0.6,0.3c-0.7,0.5-1,0.7-1.2,0.9c-0.2,0.1-0.4,0.2-0.5,0.2c-0.1,0.2-0.2,0.9-0.3,1c-0.1,0.5-0.5,1.5-1.2,2.2
		C306.9,107.2,306.6,107.4,306.4,107.4L306.4,107.4z"/>
	<path class="st1" d="M317.2,101.1c-0.1,0.2-0.3,0.5-0.8,1c0.3,0.4,0.8,1.4,0.8,3.1c0,2.3-0.7,2.4-1.3,2.5c0-0.2,0-0.4-0.6-0.8
		l0-0.1c0.5,0.1,0.8,0.1,0.8,0.1c0.2,0,0.3-0.1,0.4-0.2c0.2-0.3,0.3-1.5,0.3-1.9c0-0.6,0-0.9-0.1-1.1c-0.2,0.3-0.9,1.2-1.9,1.8l0,0
		c0.7-0.6,1.5-1.9,1.8-2.5c-0.1-0.4-0.2-0.7-0.4-0.9c-0.6,0.6-1,0.9-1.3,1l0-0.1c0.4-0.4,0.8-0.9,1.1-1.3c-0.3-0.6-0.7-0.9-0.8-1
		l0.1-0.1c0.6,0.5,0.8,0.7,0.9,0.9c0.2-0.3,0.5-0.8,0.6-1c0-0.1,0.1-0.3,0.1-0.4l0.6,0.4c0.1,0.1,0.1,0.1,0.1,0.1
		C317.5,101.1,317.3,101.1,317.2,101.1z M321.8,107.8c-0.6-0.4-1.6-1.1-2.1-3.3h-0.1c-0.1,0.7-0.4,2.7-2.8,3.4v-0.1
		c0.4-0.1,1.3-0.6,2-2c0.2-0.5,0.3-0.9,0.4-1.3h-0.6c-0.3,0-0.8,0-1.1,0.1l-0.2-0.4c0.6,0,1.2,0.1,1.4,0.1h0.5
		c0.1-0.8,0.1-1.5,0.1-2.2h-0.6c-0.3,0-0.8,0-1.1,0.1l-0.2-0.4c0.6,0,1.2,0.1,1.4,0.1h0.4c0-0.5,0-1.1-0.2-1.6l0.8,0.2
		c0.1,0,0.1,0,0.1,0.1s0,0.1-0.3,0.2c0,0.2,0,0.5,0,1h1.4l0.2-0.3c0,0,0.1-0.1,0.1-0.1c0.1,0,0.1,0.1,0.1,0.1l0.3,0.3
		c0,0,0.1,0.1,0.1,0.1c0,0.1-0.1,0.1-0.1,0.1h-2.2c0,0.2,0,1.4-0.2,2.2h1.8l0.3-0.3c0.1-0.1,0.1-0.1,0.1-0.1c0,0,0.1,0.1,0.2,0.1
		l0.3,0.3c0,0,0.1,0.1,0.1,0.1c0,0.1-0.1,0.1-0.1,0.1h-2.5c0.9,2.3,2.1,2.6,2.9,2.8v0C322.2,107.4,322.1,107.4,321.8,107.8z
		 M318.3,103.8c-0.2,0-0.2-0.2-0.3-0.4c-0.1-0.6-0.2-0.8-0.3-0.9l0.1,0c0.4,0.3,0.8,0.5,0.8,1C318.6,103.7,318.4,103.8,318.3,103.8z
		 M321.3,102.9c-0.3,0.5-0.5,0.7-1,1.2h-0.1c0.4-0.6,0.5-1.2,0.5-1.4c0-0.2,0-0.3,0-0.4l0.6,0.3c0.1,0,0.1,0.1,0.1,0.1
		C321.6,102.9,321.5,102.9,321.3,102.9z"/>
	<path class="st1" d="M332.1,102.6c0,0.3,0,0.4,0,1.2c0,0.1,0,1.7,0,2.1c0,0.9,0,1,0,1.2c0,0.1,0,0.4-0.3,0.4
		c-0.2,0-0.2-0.1-0.2-0.3c0-0.1,0-0.4,0-0.5h-5.1c0,0.5,0,0.6,0,0.6c0,0.1-0.3,0.2-0.3,0.2c-0.2,0-0.2-0.2-0.2-0.2
		c0-0.2,0-0.5,0-0.6c0-1.1,0-2.7,0-2.8c0-1.1-0.1-1.5-0.1-1.9l0.8,0.2c0.1,0,0.1,0.1,0.1,0.1c0,0.1-0.1,0.1-0.3,0.3c0,0.4,0,3.9,0,4
		h2.3c0-0.6,0-3.5,0-4.1c0-1.2-0.1-1.5-0.2-2l0.8,0.2c0.1,0,0.1,0.1,0.1,0.1c0,0.1-0.1,0.2-0.3,0.3c0,0,0,0.1,0,0.2
		c0,1.6,0,1.7,0,3.3v1.9v0.1h2.4c0-1.1,0-2.8,0-3.3c0-0.6,0-0.8-0.2-1.3l0.7,0.2c0.1,0,0.2,0.1,0.2,0.1
		C332.4,102.4,332.3,102.5,332.1,102.6z"/>
	<path class="st1" d="M341.8,101.3l0.3-0.2c0.1-0.1,0.1-0.1,0.2-0.1c0,0,0.1,0,0.2,0.1l0.5,0.4c0.1,0,0.1,0.1,0.1,0.1
		c0,0.1,0,0.1-0.1,0.1c-0.1,0-0.3,0-0.5,0.1c-0.3,0.2-0.3,0.3-0.5,0.4l-0.1,0c0-0.1,0.1-0.6,0.1-0.7h-5.1c-0.2,0.7-0.6,1-0.8,1
		c-0.2,0-0.3-0.1-0.3-0.3c0-0.2,0.2-0.3,0.4-0.4c0.3-0.2,0.6-0.5,0.7-0.8h0c0,0.1,0,0.2,0,0.4h2.3c0-0.3,0-0.8-0.1-1l0.7,0.2
		c0.1,0,0.1,0,0.1,0.1c0,0.1-0.1,0.1-0.3,0.2c0,0.1,0,0.5,0,0.5H341.8z M341.3,105l0.2-0.2c0,0,0.1-0.1,0.1-0.1c0,0,0.1,0,0.1,0
		l0.3,0.3c0.1,0,0.1,0.1,0.1,0.1c0,0,0,0.1-0.1,0.1c-0.1,0-0.1,0.1-0.2,0.1c0,0.3,0.1,1.6,0.1,1.8c0,0.1,0,0.4-0.3,0.4
		c-0.2,0-0.2,0-0.2-0.4h-4.2v0.2c0,0.2-0.2,0.3-0.4,0.3c-0.1,0-0.1-0.1-0.1-0.2c0-0.1,0.1-1.5,0.1-1.8c0-0.2,0-0.9-0.1-1.2l0.7,0.3
		H341.3z M340.5,102.2l0.2-0.3c0,0,0.1-0.1,0.1-0.1c0,0,0.1,0.1,0.1,0.1l0.3,0.3c0,0,0.1,0.1,0.1,0.1c0,0.1-0.1,0.1-0.1,0.1h-3
		c-0.3,0-0.7,0-1.1,0.1l-0.2-0.4c0.7,0.1,1.3,0.1,1.4,0.1H340.5z M337.3,105.2v0.8h1.9v-0.8H337.3z M337.3,106.2v0.9h1.9v-0.9H337.3
		z M340.9,103l0.2-0.2c0,0,0.1-0.1,0.1-0.1c0,0,0.1,0,0.1,0.1l0.2,0.2c0,0,0.1,0.1,0.1,0.1c0,0-0.1,0.2-0.2,0.3c0,0.1,0,0.5,0,0.5
		c0,0,0,0.2,0,0.2c0,0.2-0.2,0.3-0.3,0.3c-0.1,0-0.1-0.1-0.1-0.3h-3.2c0,0.3-0.2,0.3-0.3,0.3c-0.1,0-0.2,0-0.2-0.2
		c0-0.1,0-0.6,0-0.7c0-0.1,0-0.7,0-0.9l0.5,0.3H340.9z M337.8,103.2v0.8h3.2v-0.8H337.8z M341.5,106v-0.8h-1.9v0.8H341.5z
		 M341.5,107.1v-0.9h-1.9v0.9H341.5z"/>
	<path class="st1" d="M351.6,103.5h-3.5v3.6h1.8l0.3-0.4c0.1-0.1,0.1-0.1,0.1-0.1c0,0,0.1,0.1,0.2,0.1l0.5,0.4
		c0.1,0,0.1,0.1,0.1,0.1c0,0.1-0.1,0.1-0.1,0.1H346c-0.3,0-0.8,0-1.1,0.1l-0.2-0.4c0.6,0,1.2,0.1,1.4,0.1h1.5c0-0.8,0-2.1,0-2.9
		c0-0.2,0-0.5,0-0.7h-2.3c-0.3,0-0.8,0-1.1,0.1l-0.2-0.4c0.6,0.1,1.2,0.1,1.4,0.1h2.2c0-0.4,0-0.7,0-1.1c0-1.3,0-1.4-0.1-1.9
		l0.8,0.3c0,0,0.1,0,0.1,0.1c0,0.1-0.2,0.2-0.3,0.3c0,0.2,0,0.3,0,1.3v1.1h2.3l0.4-0.5c0,0,0.1-0.1,0.1-0.1c0.1,0,0.1,0.1,0.2,0.1
		l0.5,0.5c0,0,0.1,0.1,0.1,0.1C351.7,103.5,351.7,103.5,351.6,103.5z"/>
	<path class="st1" d="M360.6,107.3c-0.3,0.2-0.9,0.2-1.6,0.2c-1.4,0-1.7,0-1.7-0.7c0-0.4,0-1.5,0-2h-1.2l0.5,0.2
		c0,0,0.1,0.1,0.1,0.1c0,0.1-0.1,0.1-0.3,0.2c-0.5,1.3-1.3,2.2-3,2.5l0-0.1c1.2-0.5,1.9-1.1,2.2-1.7c0.3-0.5,0.3-0.9,0.4-1.2h-0.6
		c0,0.2,0,0.5-0.3,0.5c-0.1,0-0.2,0-0.2-0.1c0,0,0-0.2,0-0.3c0.1-0.9,0.1-1.7,0.1-2.3c0-0.6,0-1.5,0-1.9c0-0.1,0-0.2-0.1-0.4
		l0.7,0.4h3.1l0.2-0.2c0,0,0.1-0.1,0.2-0.1c0,0,0.1,0,0.1,0.1l0.3,0.3c0.1,0.1,0.1,0.1,0.1,0.1c0,0.1-0.1,0.2-0.3,0.3
		c0,0.3,0,0.7,0,0.9c0,0.9,0,2.3,0.1,2.8c0,0,0,0.2,0,0.2c0,0.2-0.2,0.3-0.3,0.3c-0.2,0-0.2-0.1-0.2-0.4h-1v0.1v0.9c0,0.2,0,1,0,1.1
		c0,0.2,0.3,0.2,0.5,0.2c1.1,0,1.1,0,1.3,0c0.3,0,0.4-0.1,0.6-0.6c0.1-0.2,0.2-0.9,0.2-1h0c0.1,1.1,0.1,1.2,0.2,1.3
		c0,0,0.1,0.1,0.1,0.1c0,0,0,0,0,0.1C360.9,107.1,360.8,107.2,360.6,107.3z M358.7,100.9h-3.4v1.1h3.4V100.9z M358.7,102.2h-3.4v1.1
		h3.4V102.2z M358.7,103.5h-3.4v1.1h3.4V103.5z"/>
	<path class="st1" d="M363.7,107.2v-0.3h0.3c0.5,0,0.8-0.2,0.8-0.8v-3.7c0-0.5-0.2-0.8-0.8-0.8h-0.3v-0.2h0.1c0.5,0,1.1-0.2,1.3-0.3
		c0.1,0,0.1-0.1,0.2-0.1c0,0,0.1,0,0.1,0.1v5c0,0.5,0.2,0.8,0.7,0.8h0.4v0.3H363.7z"/>
	<path class="st1" d="M376.1,101.2h-3.3c0,0.1,0,2.4,0,2.5v2.1c0,1.2,0,1.3-0.3,1.5c-0.1,0.1-0.3,0.2-0.8,0.3c0-0.3,0-0.4-1-0.9
		l0-0.1c0.1,0,0.9,0.1,1.1,0.1c0.4,0,0.4-0.1,0.4-0.7v-4.9h-2.3c-0.3,0-0.7,0-1.1,0.1l-0.2-0.4c0.5,0,0.9,0.1,1.4,0.1h4.8l0.4-0.4
		c0,0,0.1-0.1,0.1-0.1c0,0,0.1,0,0.1,0.1l0.5,0.4c0,0,0.1,0.1,0.1,0.1C376.3,101.2,376.2,101.2,376.1,101.2z"/>
	<path class="st1" d="M383,101.4c0,0.1,0,0.4,0,0.9c0,1.3,0,2.6,0.1,3.9c0,0.1,0,0.8,0,0.8c0,0.3-0.3,0.4-0.4,0.4
		c-0.2,0-0.2-0.1-0.1-0.3h-3.3c0,0.2,0,0.2,0,0.3c-0.1,0.1-0.2,0.2-0.3,0.2c-0.2,0-0.2-0.1-0.2-0.2c0-0.1,0-0.8,0-0.9
		c0-1.1,0-2.1,0-3.2c0-0.9,0-1.9-0.1-2.7l0.8,0.3h2.9l0.2-0.2c0-0.1,0.1-0.1,0.2-0.1c0,0,0.1,0,0.1,0.1l0.4,0.3
		c0.1,0.1,0.1,0.1,0.1,0.1C383.3,101.2,383.3,101.2,383,101.4z M382.6,101.1h-3.3v1.8h3.3V101.1z M382.6,103.1h-3.3v1.8h3.3V103.1z
		 M382.6,105.1h-3.3v1.8h3.3V105.1z"/>
	<path class="st1" d="M387.1,107.3c-0.6,0-1-0.3-1-0.7c0-0.3,0.2-0.4,0.4-0.4c0.4,0,0.4,0.3,0.4,0.4c0,0.2,0,0.4,0.3,0.4
		c0.3,0,0.5-0.1,0.7-0.3c0.7-0.8,0.8-2,0.8-2.9c-0.4,0.6-0.7,1.1-1.5,1.1c-0.9,0-1.5-0.8-1.5-1.9c0-1.2,0.8-2.1,1.7-2.1
		c1,0,1.9,1,1.9,2.9C389.5,105.4,388.7,107.3,387.1,107.3z M388.4,101.8c-0.3-0.5-0.5-0.6-0.8-0.6c-0.9,0-1.1,1.2-1.1,1.9
		c0,0.4,0.1,1.5,1,1.5c0.9,0,1.2-1,1.4-1.3C388.7,102.6,388.6,102.2,388.4,101.8z"/>
	<path class="st1" d="M393.3,106.2c-0.9,1.1-1.4,1.4-1.7,1.6l0,0c0.5-0.5,0.9-1.1,1.2-1.8c0.1-0.2,0.1-0.3,0.1-0.4l0.7,0.4
		c0,0,0.1,0,0.1,0.1C393.6,106.2,393.5,106.2,393.3,106.2z M395.9,101.8h-1.1c0,0.5,0,2.8,0,3.3h0.4l0.2-0.2
		c0.1-0.1,0.1-0.1,0.1-0.1c0,0,0.1,0,0.1,0.1l0.2,0.2c0,0,0.1,0.1,0.1,0.1c0,0.1-0.1,0.1-0.1,0.1h-2.9c-0.2,0-0.7,0-1.1,0.1
		l-0.2-0.4c0.4,0,0.4,0,1,0.1c0-1.8,0-2,0-3.3c-0.4,0-0.5,0-0.6,0.1l-0.2-0.4c0.3,0,0.8,0,0.8,0c0-0.2,0-0.2,0-0.6
		c0-0.3-0.1-0.6-0.1-0.8l0.8,0.2c0.1,0,0.1,0.1,0.1,0.1c0,0.1-0.1,0.1-0.2,0.2c0,0.4,0,0.4,0,0.8h0.1h1.2c0-0.2,0-0.8,0-1
		c0,0-0.1-0.3-0.1-0.3l0.7,0.2c0,0,0.1,0,0.1,0.1c0,0.1-0.1,0.2-0.3,0.3c0,0.2,0,0.4,0,0.8h0.4l0.2-0.2c0.1-0.1,0.1-0.1,0.1-0.1
		c0,0,0.1,0,0.1,0.1l0.2,0.2c0,0,0.1,0.1,0.1,0.1C396,101.8,395.9,101.8,395.9,101.8z M393.1,104v0.4c0,0.3,0,0.4,0,0.7h1.3
		c0-0.1,0-0.9,0-1H393.1z M394.4,102.8h-1.3c0,0.5,0,0.5,0,1h1.3V102.8z M394.4,101.8h-1.3c0,0.2,0,0.2,0,0.9h1.3V101.8z M395,106.9
		c-0.2,0-0.2-0.1-0.3-0.3c-0.4-0.7-0.5-0.8-0.7-0.9v0c0.6,0.2,1.3,0.4,1.3,0.9C395.3,106.7,395.2,106.9,395,106.9z M398.6,101.1
		c0,3.1,0,3.5,0,5.6v0c0,0.4-0.1,0.8-0.9,1c-0.2-0.4-0.4-0.5-0.9-0.8v0c0.3,0,0.6,0,0.8,0c0.4,0,0.5,0,0.5-0.3v-2.2h-1.5
		c-0.1,1-0.1,2.4-1.8,3.4l0,0c0.3-0.3,0.7-0.7,1-1.3c0.3-0.6,0.5-1.2,0.5-4c0-0.7,0-1.6-0.1-2.2l0.7,0.3h1.3l0.1-0.2
		c0.1-0.1,0.1-0.1,0.1-0.1c0,0,0,0,0.1,0.1l0.3,0.3c0.1,0,0.1,0.1,0.1,0.1C399,100.9,398.9,100.9,398.6,101.1z M398.2,102.6h-1.5
		c0,0.1-0.1,1.3-0.1,1.6h1.5V102.6z M398.2,100.8h-1.5v1.6h1.5V100.8z"/>
</g>
</svg>
