<?xml version="1.0" encoding="UTF-8"?>
<svg id="_レイヤー_2" data-name="レイヤー 2" xmlns="http://www.w3.org/2000/svg" viewBox="0 0 165.1626841 165.1626841">
  <defs>
    <style>
      .cls-1 {
        opacity: .7;
      }

      .cls-2 {
        stroke: #515151;
        stroke-width: .99px;
      }

      .cls-2, .cls-3 {
        fill: none;
        stroke-linecap: round;
        stroke-linejoin: round;
      }

      .cls-4 {
        fill: #fff;
        stroke-width: 0px;
      }

      .cls-3 {
        stroke: #6b6b6b;
        stroke-dasharray: 0 0 5.5018144 5.5018144;
        stroke-width: .5487132px;
      }
    </style>
  </defs>
  <g id="equipment">
    <g>
      <g class="cls-1">
        <circle class="cls-4" cx="82.5813904" cy="82.5813179" r="82.3070339" transform="translate(-34.2062806 82.5813692) rotate(-45)"/>
        <circle class="cls-3" cx="82.5813663" cy="82.5813179" r="82.3070218" transform="translate(-34.2062877 82.5813521) rotate(-45)"/>
      </g>
      <g>
        <g>
          <g>
            <path class="cls-2" d="m126.169786,84.6944199h-61.777269c-.2134106,0-.4165614-.090795-.5594844-.2493968-.1424409-.1588333-.2109613-.3707782-.187954-.5829738.0220238-.206815.5819903-5.0899366,3.7528903-7.2094241,1.5262346-1.0200933,3.368651-1.2242084,5.4763937-.6064825l.3441067.1008426c7.2351121,2.1214353,9.0315331,2.5426444,11.3443745.4403015,2.2022019-2.0017703,9.9831058-2.7467595,14.6082679-1.3987206,2.1023429.6130781,3.3480929,1.583994,3.7019965,2.8855362.4973087,1.8289745,5.7289534,1.3142705,9.9307271.901624,3.2888679-.3232979,6.3956444-.6292198,8.303187-.1013054,1.7606854.4865476,4.9849284,3.880655,5.6134347,4.5558895.2036329.2190611.2579595.5381935.1385259.8125647-.1194336.2741013-.3901213.4515448-.689197.4515448Zm-60.8868883-1.5037095h59.097815c-1.315254-1.2827005-2.8987466-2.6525318-3.67411-2.8669259-1.6373177-.4530298-4.7480284-.1470886-7.7554281.1485543-5.5013488.5406427-10.6982415,1.0514318-11.528915-2.0037181-.2016659-.7405922-1.150288-1.3928386-2.6721063-1.8363029-4.3872786-1.2802513-11.4868153-.4679566-13.1760296,1.0675736-3.0245442,2.7506744-5.6809909,1.9714153-12.7785606-.1098874l-.344126-.1008426c-1.657895-.4858147-3.075438-.3472888-4.2140006.4109301-1.8918637,1.261641-2.6706406,3.9310667-2.9545388,5.2906189Z"/>
            <path class="cls-2" d="m42.1276772,84.9127289h-3.1376137c-.4150764,0-.7518547-.3365276-.7518547-.7518547v-38.9059466c0-5.6215152,4.5781832-10.1950507,10.2053298-10.1950507,4.6814557,0,8.7491006,3.1687015,9.891578,7.7057686.1013247.4025989-.1429423.8113112-.5457918.9126359-.4023482.1015754-.8115619-.142923-.9128866-.5455219-.9735965-3.8679461-4.4416244-6.5691731-8.4328996-6.5691731-4.7979579,0-8.7016203,3.8990146-8.7016203,8.6913412v38.1540919h1.6339042v-38.1540919c0-3.8970668,3.1704179-7.0674654,7.0677161-7.0674654,3.2903336,0,6.1920308,2.3350966,6.8993366,5.5524933.0890786.4055495-.1674153.8066827-.5727141.8957613-.4077287.0903128-.8066634-.167396-.8957613-.5726948-.5570351-2.5333489-2.8409872-4.3718504-5.4308613-4.3718504-3.0681096,0-5.5640066,2.495897-5.5640066,5.5637559v38.9059466c0,.4153271-.336759.7518547-.7518547.7518547Z"/>
            <g>
              <path class="cls-2" d="m54.1578158,49.926355c-.247179,0-.4894789-.1218828-.6329033-.3455724-.1262798-.1960538-.2266403-.4192613-.2990756-.6639911l-.5981513-1.9139067c-.511522-1.6667084.421942-3.43694,2.0793356-3.9499277l2.5972217-.8020157c1.6583965-.5102877,3.433758.426339,3.9560411,2.0864326l.5927707,1.9185545c.0817502.2924608.1208992.5090727.1326439.722734.0225252.4145943-.2956429.76898-.7102372.7912545-.4092137.030355-.76898-.2951607-.7915052-.7100057-.0053806-.0981426-.0283879-.2187912-.0734189-.3795916l-.5859245-1.8952965c-.2741013-.8703047-1.2055981-1.3661671-2.0778699-1.096945l-2.595756.8015335c-.866872.2682385-1.3544031,1.1963026-1.0871481,2.0685744l.6006005,1.9210037c.034752.1174665.0773339.2138927.1253156.289028.2246732.3492559.1233485.8145125-.2261581,1.038935-.1257977.0807666-.2662714.1192021-.4057809.1192021Z"/>
              <path class="cls-2" d="m51.6697486,61.1960762c-.6373004,0-1.2682559-.2023987-1.7885912-.5893379-.7386251-.5492053-1.1585999-1.3852595-1.1522551-2.2942311.0107805-5.3153619,3.4318101-9.9424718,8.5126827-11.5100733,5.0799083-1.5683151,10.5146844.3269814,13.5206377,4.7152435.5124862.7550368.629972,1.6860322.3240308,2.5570891-.3127682.8915957-1.0357529,1.5893553-1.9344455,1.8664072l-16.5995085,5.122008c-.2887966.0890786-.5864066.1328947-.8825509.1328947Zm9.1583143-13.4332563c-1.0435827,0-2.1018608.1551691-3.1429943.4762685-4.4479692,1.3725312-7.443142,5.4235329-7.4524568,10.0802649-.0039149.5846902.3401918.9278326.5457918,1.0805525.3788587.2816996.8752032.3658798,1.3304122.226621l16.5995085-5.1219887c.4449493-.137311.8037513-.4841176.9594026-.9278326.1458736-.4165614.0925113-.8583093-.1478214-1.2119622-2.0142479-2.9403641-5.2761936-4.6019234-8.6918427-4.6019234Zm8.1020033,7.4600359h.0097969-.0097969Z"/>
            </g>
            <g>
              <path class="cls-2" d="m52.000645,132.3492357c-.7738785,0-1.5179034-.2638415-2.1273173-.7599353-1.447898-1.1894563-1.6608264-3.3282676-.4772521-4.7693193l4.0588315-4.9707538c.2633594-.322083.7366965-.3693125,1.0577959-.1067053.322083.2626072.3695632.7361951.1071874,1.0577766l-4.0602971,4.9724702c-.658842.8022664-.5389263,1.9912406.2657893,2.6525318.38719.3152367.872754.4601268,1.3764461.4096958.4978101-.0523787.9461729-.2951607,1.2618917-.6838164l4.7730028-5.8361601c.262858-.3210994.7366772-.3690618,1.0577766-.1059724.3216008.262858.3690811.7366772.1062232,1.0580274l-4.7715179,5.8342122c-.5673335.6980103-1.3739969,1.1351105-2.2707417,1.2291068-.1194336.0127283-.2393685.0188417-.3578185.0188417Z"/>
              <path class="cls-2" d="m113.2091341,132.3492357c-.1150365,0-.2305552-.005882-.3460738-.017376-.9045746-.0912964-1.71712-.5291487-2.2883491-1.2325396l-4.7705536-5.8322452c-.262858-.3213501-.2153777-.7951694.1062232-1.0580274.3210994-.2630894.7944366-.215127,1.0577766.1059724l4.7720193,5.8342122c.3186502.3925705.7704457.6356033,1.2736557.686497.5022072.0491967.9828727-.0956934,1.3661478-.4104287.3886556-.319383.6309555-.7719307.6813672-1.2738872.0504116-.5012429-.0964262-.9902397-.4145943-1.3766968l-4.0612807-4.974418c-.2623565-.3215815-.2148762-.7954201.1072067-1.0580274.3215815-.2621058.7949187-.2146255,1.0577766.106956l4.059815,4.9724702c.5722126.6962939.8380019,1.5778613.7474384,2.4804688-.0910457.8999269-.5252145,1.7114888-1.2232248,2.2849356-.605499.4973087-1.3495239.7621338-2.1253502.7621338Z"/>
            </g>
            <path class="cls-2" d="m124.130583,116.1618722c-.148805,0-.2990756-.0438161-.4297718-.1353439-.3406932-.2378836-.4238898-.706573-.1860062-1.0470155,2.2663254-3.246286,3.9751335-6.8104894,5.0779412-10.5937347.1165022-.3991854.5330636-.6277734.9324804-.5112712.3984333.1162515.6275227.5335457.5115027.9322297-1.1493044,3.9406129-2.9286001,7.6528884-5.289404,11.0337855-.1458543.2092642-.3793409.3213501-.6167423.3213501Z"/>
            <path class="cls-2" d="m130.1821207,101.6872318c-.0450311,0-.0905635-.0041656-.1365781-.0124776-.4087123-.0751353-.6789179-.466973-.604014-.8754539.1355753-.7376608.2496283-1.494414.3396904-2.2486987.0494474-.4123958.4234077-.7060908.8355527-.657627.4121644.048946.7068237.4231569.6573956.835302-.0934949.7856232-.2124463,1.5736956-.3534215,2.342695-.0665727.3624663-.3827736.6162601-.7386251.6162601Z"/>
            <path class="cls-2" d="m93.7094133,128.0544685h-22.2227401c-18.6426457,0-33.8098966-15.166788-33.8098966-33.8094145v-3.0419203c0-.4153271.336759-.7518547.7518547-.7518547h88.3491029c.4150764,0,.7518547.3365276.7518547.7518547v3.0314098c0,18.6482577-15.1716865,33.8199249-33.8201756,33.8199249Zm-54.5289465-36.09948v2.2900655c0,17.8134378,14.4922672,32.305705,32.3062064,32.305705h22.2227401c17.8193005,0,32.3164662-14.4969149,32.3164662-32.3162154v-2.2795551H39.1804668Z"/>
            <path class="cls-2" d="m127.0748428,91.9549885H38.4085554c-2.4136647,0-4.3775009-1.9635855-4.3775009-4.3772502,0-1.1784252.4527791-2.2800179,1.2751214-3.1018781.8287065-.8287065,1.9300485-1.2851497,3.1023795-1.2851497h88.6662874c2.4136647,0,4.3769995,1.9679826,4.3769995,4.3870278,0,1.172331-.4527791,2.2702596-1.2751021,3.0921005-.8277422.8284557-1.9295664,1.2851497-3.1018974,1.2851497Zm-88.6662874-7.2605686c-.770465,0-1.494414.3000592-2.039203.8448482-.5384442.537962-.8345885,1.261911-.8345885,2.0384702,0,1.5844761,1.2893154,2.8735407,2.8737915,2.8735407h88.6662874c.770465,0,1.494414-.3000592,2.0382387-.8445975.5389263-.5381935.8350513-1.2584782.8350513-2.0289432,0-1.5898374-1.2888139-2.8833184-2.87329-2.8833184H38.4085554Z"/>
            <g>
              <path class="cls-2" d="m69.6173154,62.581085c-.2927115,0-.570747-.1718123-.6921476-.4579282l-.7846397-1.8448655c-.1625168-.3820601.0151775-.8235766.397469-.9860741.3827736-.1632496.823808.0161418.9858234.3977004l.7846397,1.8448848c.1625168.3820408-.0151582.8235573-.3974497.9860741-.0959441.0408654-.1958031.0602085-.2936951.0602085Z"/>
              <path class="cls-2" d="m71.4117693,66.7975348c-.2927115,0-.570747-.1715809-.6921283-.4576775l-.8972269-2.1082249c-.1629989-.3820408.0151582-.8235573.3974497-.9863248.383275-.1634811.823808.0156789.9858427.397469l.8972269,2.1082249c.1629989.3820408-.0151775.8235573-.397469.9863248-.0959441.0408654-.1958031.0602085-.2936951.0602085Z"/>
              <path class="cls-2" d="m73.0931538,70.7511266c-.2927115,0-.5707277-.1718123-.6921283-.4579282l-.7846397-1.8448848c-.1625168-.3820408.0151582-.8235573.3974497-.9860548.383275-.1627675.823808.015891.9858427.3977004l.7846397,1.8448848c.1625168.3820408-.0151775.8235573-.397469.9860741-.0959248.0408654-.1957839.0602085-.2936951.0602085Z"/>
            </g>
            <g>
              <path class="cls-2" d="m64.8027143,62.581085c-.2927115,0-.570747-.1715809-.6921476-.4576775l-.7851218-1.8448848c-.1630182-.3820408.0151582-.8235573.3974497-.9863055.3822915-.1632496.823808.0156596.9858427.3974497l.7851218,1.8448848c.1629989.3820408-.0151582.8235573-.3974497.9863248-.0959441.0408654-.1958031.0602085-.2936951.0602085Z"/>
              <path class="cls-2" d="m66.5961846,66.7977662c-.2927115,0-.5707277-.1718123-.6921283-.457909l-.8967448-2.1084756c-.1624975-.3820408.0151775-.8235573.397469-.9860741.383275-.1634811.823808.016161.9858234.3977197l.8967448,2.1084563c.1625168.3820601-.0151775.8235766-.397469.9860741-.0959248.0408847-.1957839.0602085-.2936951.0602085Z"/>
              <path class="cls-2" d="m68.2780705,70.7511266c-.2927115,0-.570747-.1715809-.6921283-.4576775l-.7851411-1.8448848c-.1629989-.3820408.0151775-.8235573.397469-.9863055.3822915-.1627675.823808.0156596.9858234.3974497l.7851411,1.8448848c.1629989.3820408-.0151775.8235573-.397469.9863248-.0959441.0408654-.1958031.0602085-.2936951.0602085Z"/>
            </g>
            <g>
              <path class="cls-2" d="m61.3655235,66.1137184c-.2927115,0-.570747-.1715809-.6921283-.4576775l-.7851411-1.845367c-.1629989-.3820408.0151775-.823808.397469-.9863248.3832558-.1632304.823808.0156596.9858234.397469l.7851411,1.845367c.1629989.3820408-.0151775.823808-.397469.9863248-.0959441.0408654-.1958031.0602085-.2936951.0602085Z"/>
              <path class="cls-2" d="m63.1590132,70.3303996c-.2927115,0-.570747-.1718123-.6921476-.457909l-.8967255-2.1084756c-.1625168-.3820408.0151582-.8235573.3974497-.9860741.3827929-.1629989.823808.0159103.9858427.3977197l.8967255,2.1084563c.1625168.3820601-.0151582.8235766-.3974497.9860741-.0959441.0408847-.1958031.0602085-.2936951.0602085Z"/>
              <path class="cls-2" d="m64.8408798,74.2837601c-.2927115,0-.5707277-.1718123-.6926105-.4579282l-.7846589-1.845367c-.1620154-.3820408.0156596-.8235573.3979511-.9860741.3827929-.1627482.823808.0159103.9863248.3977197l.7846397,1.845367c.1620347.3820408-.0156596.8235573-.3979511.9860741-.0959248.0408654-.1957839.0602085-.2936951.0602085Z"/>
            </g>
            <g>
              <path class="cls-2" d="m56.5504403,66.1137184c-.2927115,0-.570747-.1718123-.6926297-.4579282l-.7846397-1.845367c-.1620347-.3820408.0156596-.8235573.3979511-.9860741.3822915-.1632304.823808.0156596.9863055.3977197l.7846589,1.845367c.1620154.3820408-.0156596.8235573-.3979511.9860741-.0959441.0408654-.1958031.0602085-.2936951.0602085Z"/>
              <path class="cls-2" d="m58.3444121,70.3301489c-.2927115,0-.570747-.1715616-.6921476-.4576583l-.8972269-2.1082249c-.1629989-.3820408.0151775-.8235573.397469-.9863248.3827736-.1629989.823808.0156596.9858234.397469l.8972269,2.1082249c.1629989.3820408-.0151582.8235573-.3974497.9863248-.0959441.0408654-.1958031.0601893-.2936951.0601893Z"/>
              <path class="cls-2" d="m60.0262787,74.2837601c-.2927115,0-.5707277-.1715809-.6921283-.4576775l-.7851411-1.845367c-.1629989-.3820408.0151775-.823808.397469-.9863248.3827736-.1627482.8242901.0156596.9858234.397469l.7851411,1.845367c.1629989.3820408-.0151775.823808-.397469.9863248-.0959248.0408654-.1957839.0602085-.2936951.0602085Z"/>
            </g>
            <path class="cls-2" d="m127.6734955,65.7434223h-24.936464c-.4150957,0-.7518547-.3365276-.7518547-.7518547v-29.1844838c0-.4153271.336759-.7518547.7518547-.7518547h24.936464c.4150764,0,.7518547.3365276.7518547.7518547v29.1844838c0,.4153271-.3367783.7518547-.7518547.7518547Zm-24.1846093-1.5037095h23.4327545v-27.6807743h-23.4327545v27.6807743Z"/>
            <path class="cls-2" d="m129.9290597,36.5589386h-29.4475924c-.4150764,0-.7518547-.3365276-.7518547-.7518547s.3367783-.7518547.7518547-.7518547h29.4475924c.4150764,0,.7518355.3365276.7518355.7518547s-.336759.7518547-.7518355.7518547Z"/>
            <path class="cls-2" d="m129.9290597,65.7434223h-29.4475924c-.4150764,0-.7518547-.3365276-.7518547-.7518547,0-.4153464.3367783-.7518547.7518547-.7518547h29.4475924c.4150764,0,.7518355.3365083.7518355.7518547,0,.4153271-.336759.7518547-.7518355.7518547Z"/>
            <path class="cls-2" d="m115.2052538,65.7434223c-.4150764,0-.7518547-.3365276-.7518547-.7518547v-29.1844838c0-.4153271.3367783-.7518547.7518547-.7518547.4150957,0,.7518547.3365276.7518547.7518547v29.1844838c0,.4153271-.336759.7518547-.7518547.7518547Z"/>
            <path class="cls-2" d="m127.6734955,51.1544782h-24.936464c-.4150957,0-.7518547-.3365276-.7518547-.7518547s.336759-.7518547.7518547-.7518547h24.936464c.4150764,0,.7518547.3365276.7518547.7518547s-.3367783.7518547-.7518547.7518547Z"/>
          </g>
          <path class="cls-2" d="m35.655181,67.9541869c-.4150764,0-.7518547-.3365276-.7518547-.7518547v-11.3925876c0-.4153271.3367783-.7518547.7518547-.7518547.4150957,0,.7518547.3365276.7518547.7518547v11.3925876c0,.4153271-.336759.7518547-.7518547.7518547Z"/>
          <path class="cls-2" d="m35.655181,53.3975456c-.4150764,0-.7518547-.3365083-.7518547-.7518355v-.9816771c0-.4153271.3367783-.7518547.7518547-.7518547.4150957,0,.7518547.3365276.7518547.7518547v.9816771c0,.4153271-.336759.7518355-.7518547.7518355Z"/>
        </g>
        <path class="cls-2" d="m85.4052427,50.2540692h-.0014657c-.4346702-.0005014-.8008007-.3017756-.8898793-.7322802-.2682385-1.322351-.9178043-2.5240342-1.8781712-3.4780562-.9594026-.965516-2.1581544-1.6148118-3.4719428-1.8813339-.4336867-.0900814-.7347102-.4562119-.7352116-.8913642,0-.4354031.3005606-.802035.7312967-.8918464,1.3147719-.2667729,2.5174386-.9168208,3.4812382-1.8803697.9574355-.9576862,1.6050342-2.1598708,1.8722892-3.4768219.08958-.4334553.4557104-.7347294.8903807-.7354623h.0014657c.4346702,0,.8008007.3002906.8908628.7307952.2682578,1.3221196.9158372,2.5243042,1.8732727,3.4812382.9633175.9637996,2.1655021,1.6138475,3.4763398,1.8796368.4351717.0905635.7361951.4574268.735713.8928299,0,.4354031-.3015249.8015335-.7327623.8906121,0,.0002507-.0005014.0002507-.0005014.0002507-2.6951136.5553188-4.7955087,2.6588959-5.3515603,5.358908-.0905635.4332046-.4571761.7332638-.8913642.7332638Zm-4.1532906-6.9837674c.9035911.4131286,1.731314.9897383,2.4469317,1.7100231.7176041.7129371,1.2937317,1.5416436,1.7068603,2.4484167.8375005-1.841452,2.3138057-3.319705,4.153792-4.1577069-.9036104-.4128779-1.7337632-.9890055-2.4533152-1.7090395-.715637-.7151549-1.2888332-1.5431092-1.7009783-2.4472017-.4116629.9033404-.9853413,1.7315647-1.700959,2.4472017-.7195519.7195327-1.5492419,1.2954288-2.4523316,1.7083067Zm10.2444788.1551691h.0097969-.0097969Zm-.1522378-.7361951c-.0004821,0-.0009643,0-.0014657.0002507.0005014-.0002507.0009835-.0002507.0014657-.0002507h0Z"/>
        <path class="cls-2" d="m37.9773179,124.0225592c-2.3524726,0-4.2663793-1.9618691-4.2663793-4.3730846,0-2.4075513,1.9139067-4.3662383,4.2663793-4.3662383,2.3490398,0,4.2600152,1.9586871,4.2600152,4.3662383,0,2.4112155-1.9109754,4.3730846-4.2600152,4.3730846Zm0-7.2356135c-1.523284,0-2.7626698,1.2841662-2.7626698,2.8625289,0,1.5822583,1.2393858,2.8693751,2.7626698,2.8693751,1.5198512,0,2.7563057-1.2871168,2.7563057-2.8693751,0-1.5783627-1.2364545-2.8625289-2.7563057-2.8625289Z"/>
        <path class="cls-2" d="m126.7811477,131.6722656c-2.3524726,0-4.26636-1.9618691-4.26636-4.3730846,0-2.407532,1.9138874-4.3662191,4.26636-4.3662191,2.348577,0,4.2595331,1.9586871,4.2595331,4.3662191,0,2.4112155-1.9109561,4.3730846-4.2595331,4.3730846Zm0-7.2355942c-1.523284,0-2.7626698,1.2841662-2.7626698,2.8625096,0,1.5822776,1.2393858,2.8693751,2.7626698,2.8693751,1.5193691,0,2.7558236-1.2870976,2.7558236-2.8693751,0-1.5783434-1.2364545-2.8625096-2.7558236-2.8625096Z"/>
      </g>
    </g>
  </g>
</svg>