<?xml version="1.0" encoding="UTF-8"?>
<svg id="_レイヤー_2" data-name="レイヤー 2" xmlns="http://www.w3.org/2000/svg" viewBox="0 0 165.1626841 165.1627809">
  <defs>
    <style>
      .cls-1 {
        opacity: .7;
      }

      .cls-2 {
        fill: #fff;
        stroke-width: 0px;
      }

      .cls-3 {
        stroke: #515151;
        stroke-width: 1.9204947px;
      }

      .cls-3, .cls-4 {
        fill: none;
        stroke-linecap: round;
        stroke-linejoin: round;
      }

      .cls-4 {
        stroke: #6b6b6b;
        stroke-dasharray: 0 0 5.5018144 5.5018144;
        stroke-width: .5487132px;
      }
    </style>
  </defs>
  <g id="equipment">
    <g>
      <g class="cls-1">
        <circle class="cls-2" cx="82.5812937" cy="82.5813663" r="82.3069593" transform="translate(-12.1617971 150.8682528) rotate(-80.7825231)"/>
        <circle class="waku cls-4" cx="82.5813179" cy="82.5813421" r="82.3070869" transform="translate(-14.1266969 148.0558561) rotate(-79.0993038)"/>
      </g>
      <rect class="cls-3" x="55.9137814" y="69.5164117" width="53.3350245" height="46.6556609" rx="2.8347" ry="2.8347"/>
      <path class="cls-3" d="m97.4907412,59.1918583v-1.5989203c0-6.5800602-5.3341219-11.9141821-11.9141821-11.9141821h-5.9905309c-6.5800602,0-11.9141821,5.3341219-11.9141821,11.9141821v11.9234736"/>
      <g>
        <path class="wave cls-3" d="m127.4641082,107.0884246c4.4785253-4.2241693,6.9446566-9.8302624,6.9446566-15.785079,0-5.8587071-2.4061234-11.4032438-6.7756666-15.6106689"/>
        <path class="wave cls-3" d="m120.7172841,102.9790447c3.3089519-3.1250567,5.1323211-7.27199,5.1323211-11.675699,0-4.3055671-1.7611352-8.3888145-4.9588789-11.4981918"/>
        <path class="wave cls-3" d="m37.6984791,107.0884246c-4.4785253-4.2241693-6.9446566-9.8302624-6.9446566-15.785079,0-5.8587071,2.4061234-11.4032438,6.7756666-15.6106689"/>
        <path class="wave cls-3" d="m44.4453032,102.9790447c-3.3089519-3.1250567-5.1323211-7.27199-5.1323211-11.675699,0-4.3055671,1.7611352-8.3888145,4.9588789-11.4981918"/>
      </g>
    </g>
  </g>
</svg>