<?xml version="1.0" encoding="UTF-8"?>
<svg id="_レイヤー_2" data-name="レイヤー 2" xmlns="http://www.w3.org/2000/svg" viewBox="0 0 165.1627767 165.1627809">
  <defs>
    <style>
      .cls-1 {
        opacity: .7;
      }

      .cls-2 {
        fill: #fff;
        stroke-width: 0px;
      }

      .cls-3 {
        stroke: #515151;
        stroke-width: 1.9204947px;
      }

      .cls-3, .cls-4 {
        fill: none;
        stroke-linecap: round;
        stroke-linejoin: round;
      }

      .cls-4 {
        stroke: #6b6b6b;
        stroke-dasharray: 0 0 5.5018144 5.5018144;
        stroke-width: .5487132px;
      }
    </style>
  </defs>
  <g id="equipment">
    <g>
      <g class="cls-1">
        <circle class="cls-2" cx="82.5814126" cy="82.5813663" r="82.3069481" transform="translate(-34.2063083 82.581399) rotate(-45)"/>
        <circle class="cls-4" cx="82.5813884" cy="82.5813904" r="82.3070328"/>
      </g>
      <g>
        <g>
          <path class="cls-3" d="m70.0776774,63.9237718c-11.4645097,0-20.7584754,9.293966-20.7584754,20.7584759h41.5168541c0-11.4645099-9.293869-20.7584759-20.7583786-20.7584759Z"/>
          <path class="cls-3" d="m111.5945314,63.9237718c0-11.4645099-9.2939658-20.7583792-20.7584754-20.7583792v41.5168551c11.4645097,0,20.7584754-9.293966,20.7584754-20.7584759Z"/>
          <path class="cls-3" d="m111.5945314,105.4406269c11.4644129,0,20.7583786-9.293966,20.7583786-20.7583792h-41.5168541c0,11.4644132,9.2939658,20.7583792,20.7584754,20.7583792Z"/>
          <path class="cls-3" d="m70.0776774,105.4406269c0,11.4645099,9.293869,20.7583792,20.7583786,20.7583792v-41.5167583c-11.4645097,0-20.7583786,9.2938692-20.7583786,20.7583792Z"/>
        </g>
        <path class="cls-3" d="m43.324219,98.402087s10.4280183-7.5165706,18.9024891,0c8.7239875,7.7379224,18.2301201,0,18.2301201,0"/>
        <path class="cls-3" d="m43.324219,106.6613038s10.4280183-7.5165706,18.9024891,0c8.7239875,7.7379224,18.2301201,0,18.2301201,0"/>
        <path class="cls-3" d="m43.324219,114.9205207s10.4280183-7.5165706,18.9024891,0c8.7239875,7.7379224,18.2301201,0,18.2301201,0"/>
        <line class="cls-3" x1="61.890567" y1="32.0071166" x2="61.890567" y2="56.4286879"/>
        <line class="cls-3" x1="51.3156261" y1="38.1125336" x2="72.4654111" y2="50.3232709"/>
        <line class="cls-3" x1="51.3156261" y1="50.3232709" x2="72.4654111" y2="38.1125336"/>
        <polyline class="cls-3" points="65.4941383 32.9940531 61.890567 36.8936957 58.2869957 32.9940531"/>
        <polyline class="cls-3" points="53.9721372 35.4851553 55.5475382 40.5558232 50.3685659 41.7267516"/>
        <polyline class="cls-3" points="50.3685659 46.709053 55.5475382 47.8800782 53.9721372 52.9506492"/>
        <polyline class="cls-3" points="58.2869957 55.4417515 61.890567 51.5421088 65.4941383 55.4417515"/>
        <polyline class="cls-3" points="69.8089 52.9506492 68.233499 47.8800782 73.4124713 46.709053"/>
        <polyline class="cls-3" points="73.4124713 41.7267516 68.233499 40.5558232 69.8089 35.4851553"/>
      </g>
    </g>
  </g>
</svg>