<?xml version="1.0" encoding="UTF-8"?>
<svg id="_レイヤー_2" data-name="レイヤー 2" xmlns="http://www.w3.org/2000/svg" viewBox="0 0 165.1626841 165.1626841">
  <defs>
    <style>
      .cls-1 {
        stroke-miterlimit: 10;
      }

      .cls-1, .cls-2 {
        stroke: #515151;
        stroke-width: 1.9204947px;
      }

      .cls-1, .cls-2, .cls-3 {
        fill: none;
      }

      .cls-4 {
        opacity: .7;
      }

      .cls-5 {
        fill: #fff;
      }

      .cls-5, .cls-6 {
        stroke-width: 0px;
      }

      .cls-6 {
        fill: #515151;
      }

      .cls-2, .cls-3 {
        stroke-linecap: round;
        stroke-linejoin: round;
      }

      .cls-3 {
        stroke: #6b6b6b;
        stroke-dasharray: 0 0 5.5018144 5.5018144;
        stroke-width: .5487132px;
      }
    </style>
  </defs>
  <g id="equipment">
    <g>
      <g class="cls-4">
        <circle class="cls-5" cx="82.5813904" cy="82.5813179" r="82.3070339" transform="translate(-34.2062806 82.5813692) rotate(-45)"/>
        <circle class="cls-3" cx="82.5813663" cy="82.5813179" r="82.3070218" transform="translate(-34.2062877 82.5813521) rotate(-45)"/>
      </g>
      <g>
        <g>
          <path class="cls-2" d="m105.6741738,66.6222789c0-12.7537023-10.3390714-23.0926769-23.0927834-23.0926769s-23.0927834,10.3389746-23.0927834,23.0926769c0,8.6222937,4.7290099,16.1355542,11.7313515,20.101883v10.8805943l22.7229605-3.7873698v-7.0932245c7.0024384-3.9663288,11.7312548-11.4795893,11.7312548-20.101883Z"/>
          <line class="cls-2" x1="93.9428223" y1="98.109984" x2="71.2199586" y2="101.8973538"/>
          <line class="cls-2" x1="93.9428223" y1="102.4025817" x2="71.2199586" y2="106.1899514"/>
          <path class="cls-2" d="m75.9603894,105.3905881c.524682,3.163578,3.2535898,5.5817997,6.5659293,5.5817997,3.6870017,0,6.675976-2.9889743,6.675976-6.6761696,0-.3748558-.0507164-.736355-.1101435-1.0943699"/>
          <line class="cls-2" x1="82.5813904" y1="31.1194836" x2="82.5813904" y2="36.4964821"/>
          <line class="cls-2" x1="64.8296008" y1="35.8760778" x2="67.5181485" y2="40.5326911"/>
          <line class="cls-2" x1="51.8343086" y1="48.8712732" x2="56.4910187" y2="51.5598209"/>
          <line class="cls-2" x1="47.0778112" y1="66.6230919" x2="52.4548097" y2="66.6230919"/>
          <line class="cls-2" x1="51.8343086" y1="84.3749493" x2="56.4910187" y2="81.6864016"/>
          <line class="cls-2" x1="113.3284723" y1="84.3749493" x2="108.6717622" y2="81.6864016"/>
          <line class="cls-2" x1="118.0850665" y1="66.6230919" x2="112.7079712" y2="66.6230919"/>
          <line class="cls-2" x1="113.3284723" y1="48.8712732" x2="108.6717622" y2="51.5598209"/>
          <line class="cls-2" x1="100.3331801" y1="35.8760778" x2="97.6447292" y2="40.5326911"/>
        </g>
        <g>
          <path class="cls-6" d="m106.1203616,129.4033314c0-.2444838.0391019-.4751271.1197254-.6919298.0793653-.2154477.1852502-.412022.317558-.5872064.1310495-.1751844.2810693-.3239459.4487043-.4461878.1675382-.1222419.3439808-.211673.5279728-.2696484-.2078983-.1058849-.3855992-.234418-.5330057-.385696-.1487615-.149923-.2697452-.3100086-.3668225-.4762885-.0957223-.167635-.1675382-.3365282-.2154477-.5079379s-.0718159-.3301403-.0718159-.4776436v-.1461483c0-.3188162.0542007-.6225336.1625053-.9124105.1071431-.2886187.2747781-.5456848.5029049-.7712951.22803-.2230939.5153905-.4033112.8632427-.5381354s.7560996-.2016072,1.227452-.2016072c.463803,0,.8696307.066783,1.2173861.2016072.346594.1348242.6364709.3150415.8683724.5381354.2319015.2256104.4057309.4826765.5216816.7712951.1159508.2898769.1739261.5935943.1739261.9124105v.1461483c0,.1475033-.0226481.3024592-.066783.4650613-.0441348.1638603-.1134343.3263656-.2091566.4889676-.0958191.1638603-.218061.3225909-.3654675.4776436-.1475033.1550527-.3252041.2936516-.5331025.4158935.183992.0579754.3616928.1486647.5331025.2759396.1713129.1260166.3213326.2747781.4498657.4461878.1272748.1714097.2293851.3654675.3049757.5809152.0755906.2168027.1134343.447446.1134343.6919298v.2078983c0,.3503687-.0630083.6767343-.1915414.9791935-.1272748.301201-.317558.5621386-.5684297.7826192-.2520332.2205774-.5620418.3932453-.9287675.5205202-.3679839.1260166-.7914268.1890249-1.2703286.1890249-.496517,0-.9338004-.0630083-1.3132052-.1890249-.379308-.1272748-.696866-.2999427-.9526739-.5205202-.2559047-.2204807-.447446-.4814182-.5747209-.7826192-.1285331-.3024592-.1915414-.6288248-.1915414-.9791935v-.2078983Zm1.5815954.1096596c0,.3843409.1310495.6792508.3957618.8871491.2633573.2079951.6112095.312525,1.0422018.312525s.7712951-.1045299,1.0182954-.312525c.2482585-.2078983.3717586-.5028082.3717586-.8871491v-.1222419c0-.2205774-.0378437-.4070859-.1134343-.5621386-.0768488-.1549559-.1764426-.2860054-.2999427-.3918903s-.2696484-.183992-.4372834-.2331597-.3478523-.0730741-.5393936-.0730741-.3730169.0239064-.5456848.0730741c-.1714097.0491678-.3225909.1247584-.4549954.2268686-.1323077.1020134-.2381927.2319015-.317558.3918903-.0806235.1588274-.1197254.3478523-.1197254.5684297v.1222419Zm.2155445-3.8904479c0,.1954128.0364887.3642093.1083046.5079379.0719127.1423736.1651185.2608408.2810693.3541434.1159508.0944641.245742.1637635.3894707.2078983.1436318.0453931.2872636.0680412.4309922.0680412.1524394,0,.2986845-.0226481.4385416-.0680412.1385989-.0441348.2646155-.1134343.3767916-.2078983.1121761-.0933026.2016072-.2117698.2697452-.3541434.0680412-.1437286.1020134-.312525.1020134-.5079379v-.1222419c0-.3843409-.1096596-.6717014-.3301403-.8632427-.2193192-.1915414-.5091961-.2873604-.8683724-.2873604-.3351732,0-.6187589.0958191-.8506604.2873604-.2318047.1915414-.3477555.4789018-.3477555.8632427v.1222419Z"/>
          <path class="cls-6" d="m119.7222176,128.2161427c0,1.2564881-.2595826,2.2142916-.7788445,2.8759272-.5192619.6603773-1.3031394.9905176-2.3491158.9905176-1.0308777,0-1.8260792-.3339149-2.3843463-1.0030999-.5596221-.6692817-.8393364-1.6232138-.8393364-2.8633449v-1.3698256c0-1.2401311.2771978-2.1929017.8330452-2.8583119.5544924-.664152,1.339628-.9968087,2.354052-.9968087,1.0233283,0,1.8059475.3326567,2.3491158.9968087.5431683.6654102.81543,1.6181809.81543,2.8583119v1.3698256Zm-1.546365-1.3825047c0-.5053246-.0453931-.9136687-.1373407-1.2236773-.0920444-.3100086-.2117698-.5482012-.3591763-.7158362-.1486647-.1675382-.3200744-.2797143-.5153905-.3364314-.1966711-.0567171-.3982783-.0857532-.6062734-.0857532-.1990907,0-.3969232.0290361-.5922393.0857532-.1966711.0567171-.3717586.1714097-.5280695.3427226-.1550527.1714097-.2810693.4121188-.3767916.7221274-.0958191.3100086-.1437286.7133198-.1437286,1.211095v1.395087c0,.5054214.0491678.9137655.1500198,1.2237741.099497.3100086.2293851.5507177.3893739.7221274.1588274.1700547.3390447.2847472.5393936.3414643.1990907.0579754.3982783.0857532.5986272.0857532.2079951,0,.4070859-.0277779.5986272-.0857532.1927996-.0567171.3604346-.1688932.5040664-.3364314.1437286-.1663768.2596794-.4058276.3478523-.7158362.0870115-.3100086.1310495-.7208691.1310495-1.2350982v-1.395087Z"/>
          <path class="cls-6" d="m122.0914651,125.8468952c.4209264,0,.7535831.1260166.9980669.379308.2458388.2520332.3680807.5935943.3680807,1.0233283v.317558c0,.4298308-.1222419.7712951-.3680807,1.0245866-.2444838.25213-.5771405.3794048-.9980669.3794048s-.7535831-.1272748-.999422-.3794048c-.2444838-.2532914-.3667257-.5947558-.3667257-1.0245866v-.317558c0-.429734.1222419-.7712951.3667257-1.0233283.2458388-.2532914.5784955-.379308.999422-.379308Zm0,2.4309976c.2230939,0,.3755333-.0655248.4548986-.1965743.0807203-.1297913.1197254-.3074921.1197254-.530586v-.284844c0-.2179642-.0390051-.3931486-.1197254-.5267145-.0793653-.1323077-.2318047-.1991875-.4548986-.1991875-.2243521,0-.3755333.0668798-.4562536.1991875-.0793653.133566-.1197254.3087503-.1197254.5267145v.284844c0,.2230939.0403602.4007947.1197254.530586.0807203.1310495.2319015.1965743.4562536.1965743Zm-.351627,3.5564361l3.4430018-5.8739994h.9187016l-3.4354525,5.8739994h-.926251Zm4.0189809-3.0510147c.4209264,0,.7535831.1260166.9980669.379308.245742.2532914.3679839.5935943.3679839,1.0233283v.3188162c0,.429734-.1222419.7700369-.3679839,1.0233283-.2444838.2532914-.5771405.379308-.9980669.379308s-.7536799-.1260166-.999422-.379308c-.2444838-.2532914-.3667257-.5935943-.3667257-1.0233283v-.3188162c0-.429734.1222419-.7700369.3667257-1.0233283.245742-.2532914.5784955-.379308.999422-.379308Zm0,2.4309976c.2229971,0,.3755333-.0655248.4548986-.195316.0806235-.1311463.1197254-.3075889.1197254-.530586v-.2861022c0-.2168027-.0391019-.3918903-.1197254-.5255531-.0793653-.133566-.2319015-.200349-.4548986-.200349-.2243521,0-.3756301.066783-.4562536.200349-.0793653.1336628-.1197254.3087503-.1197254.5255531v.2861022c0,.2229971.0403602.3994397.1197254.530586.0806235.1297913.2319015.195316.4562536.195316Z"/>
        </g>
        <g>
          <path class="cls-6" d="m41.3157942,123.6244735c.4372834,0,.8544351.0642665,1.2526166.1927996.39702.1272748.7473888.328882,1.0473315.6024019.301201.2746813.5393936.6275665.7158362,1.059817.1750876.431089.2633573.9540289.2633573,1.5690131v1.3056558c0,.6225336-.0882697,1.1506032-.2633573,1.5866283-.1764426.4347669-.4121188.7876521-.7095451,1.0586556-.2974263.2709066-.6452785.4674809-1.04346.5922393-.39702.1248552-.8179464.1866052-1.2627792.1866052-.4436713,0-.8645977-.0617501-1.2627792-.1866052-.39702-.1247584-.7447755-.3213326-1.0422018-.5922393-.2974263-.2710034-.5343607-.6238886-.7095451-1.0586556-.1751844-.4360252-.2633573-.9640947-.2633573-1.5866283v-1.3056558c0-.6149842.0881729-1.1379241.2633573-1.5690131.1751844-.4322505.413377-.7851357.714578-1.059817.301201-.2735199.6502147-.4751271,1.0484929-.6024019.39702-.1285331.814075-.1927996,1.2514551-.1927996Zm0,6.8695499c.2658737,0,.512874-.0339722.7422591-.1032717.2293851-.0693962.429734-.1928964.6011437-.3679839.1726679-.1751844.3062339-.413377.4033112-.7133198.0969805-.2999427.1448901-.6767343.1448901-1.1304715v-.9552871c0-.4536404-.0479095-.8291737-.1448901-1.1303747-.0970773-.2999427-.2306433-.5368772-.4033112-.7133198-.1714097-.1751844-.3717586-.2974263-.6011437-.3667257s-.4763853-.1046267-.7422591-.1046267c-.2571629,0-.5016467.0353272-.730935.1046267-.2293851.0692994-.429734.1915414-.6011437.3667257-.1726679.1764426-.3087503.413377-.4083441.7133198-.100852.301201-.151278.6767343-.151278,1.1303747v.9552871c0,.4537372.050426.8305287.151278,1.1304715.0995938.2999427.2356762.5381354.4083441.7133198.1714097.1750876.3717586.2985877.6011437.3679839.2292883.0692994.4737721.1032717.730935.1032717Z"/>
          <path class="cls-6" d="m46.3793966,126.741013h-.9463827v-1.1303747h.9463827v-.4171517c0-.6061766.1588274-1.0750126.4776436-1.4038946.318913-.3289788.8041059-.4940973,1.456837-.4940973.2218357,0,.4336055.017712.6339545.0542007.200349.0378437.3616928.0769456.4839347.1209837l-.2155445,1.1090816c-.2141895-.0731709-.4725138-.1096596-.7737148-.1096596-.4726106,0-.7095451.2520332-.7095451.7573578v.3831795h1.4946807v1.1303747h-1.4946807v4.9162927h-1.3535654v-4.9162927Z"/>
          <path class="cls-6" d="m50.7424551,126.741013h-.9464795v-1.1303747h.9464795v-.4171517c0-.6061766.1587306-1.0750126.4775468-1.4038946.318913-.3289788.8041059-.4940973,1.4569338-.4940973.2217389,0,.4335087.017712.6338577.0542007.200349.0378437.3616928.0769456.4839347.1209837l-.2155445,1.1090816c-.2141895-.0731709-.4725138-.1096596-.7737148-.1096596-.4726106,0-.7095451.2520332-.7095451.7573578v.3831795h1.4946807v1.1303747h-1.4946807v4.9162927h-1.3534686v-4.9162927Z"/>
        </g>
        <line class="cls-2" x1="93.7796395" y1="127.536892" x2="100.9580366" y2="127.536892"/>
        <line class="cls-2" x1="58.9583114" y1="127.536892" x2="88.5101713" y2="127.536892"/>
        <rect class="cls-1" x="88.5101713" y="122.3211405" width="5.2694682" height="10.4315029" rx="1.7313815" ry="1.7313815"/>
      </g>
    </g>
  </g>
</svg>