<?xml version="1.0" encoding="UTF-8"?>
<svg id="_レイヤー_2" data-name="レイヤー 2" xmlns="http://www.w3.org/2000/svg" viewBox="0 0 165.1627809 165.1626841">
  <defs>
    <style>
      .cls-1 {
        opacity: .7;
      }

      .cls-2 {
        fill: #fff;
      }

      .cls-2, .cls-3 {
        stroke-width: 0px;
      }

      .cls-4, .cls-5, .cls-6 {
        fill: none;
        stroke-linecap: round;
        stroke-linejoin: round;
      }

      .cls-4, .cls-6 {
        stroke: #515151;
        stroke-width: 1.9204947px;
      }

      .cls-5 {
        stroke: #6b6b6b;
        stroke-dasharray: 0 0 5.5018144 5.5018144;
        stroke-width: .5487132px;
      }

      .cls-3 {
        fill: #515151;
      }

      .cls-3, .cls-6 {
        fill-rule: evenodd;
      }
    </style>
  </defs>
  <g id="equipment">
    <g>
      <g class="cls-1">
        <circle class="cls-2" cx="82.5813904" cy="82.5813663" r="82.3069593" transform="translate(-12.1617148 150.8683497) rotate(-80.7825239)"/>
        <circle class="cls-5" cx="82.5813421" cy="82.5813663" r="82.3069613" transform="translate(-34.206329 82.5813491) rotate(-45)"/>
      </g>
      <g>
        <path class="cls-6" d="m129.1675584,52.747687H41.2390422c-1.1820589,0-2.1402496.9582875-2.1402496,2.1402496v49.0456209h92.2090154v-49.0456209c0-1.1819621-.9582875-2.1402496-2.1402496-2.1402496Z"/>
        <path class="cls-6" d="m39.0987926,103.9335575v8.1906917c0,1.1820589.9581907,2.1402496,2.1402496,2.1402496h87.9285162c1.1819621,0,2.1402496-.9581907,2.1402496-2.1402496v-8.1906917H39.0987926Z"/>
        <path class="cls-3" d="m86.7851377,109.0989797c0,.8736957-.7082868,1.5818858-1.5818858,1.5818858s-1.581789-.70819-1.581789-1.5818858c0-.8735989.70819-1.581789,1.581789-1.581789s1.5818858.70819,1.5818858,1.581789Z"/>
        <rect class="cls-4" x="76.3951563" y="114.2899537" width="17.6162879" height="10.9276328"/>
        <line class="cls-4" x1="70.6045872" y1="125.2175865" x2="99.8020133" y2="125.2175865"/>
        <rect class="cls-4" x="53.9458125" y="62.7021271" width="24.5193261" height="17.1037043"/>
        <line class="cls-4" x1="57.1313611" y1="67.3468356" x2="75.27959" y2="67.3468356"/>
        <rect class="cls-4" x="85.5494588" y="71.2540276" width="30.6491334" height="21.3796545"/>
        <line class="cls-4" x1="89.5313703" y1="76.1003433" x2="112.2166807" y2="76.1003433"/>
      </g>
    </g>
  </g>
</svg>