<?xml version="1.0" encoding="UTF-8"?>
<svg id="_レイヤー_2" data-name="レイヤー 2" xmlns="http://www.w3.org/2000/svg" xmlns:xlink="http://www.w3.org/1999/xlink" viewBox="0 0 83.0274709 67.1879719">
  <defs>
    <style>
      .cls-1 {
        fill: #e50012;
      }

      .cls-1, .cls-2, .cls-3 {
        stroke-width: 0px;
      }

      .cls-2 {
        fill: none;
      }

      .cls-3 {
        fill: #fff;
      }

      .cls-4 {
        clip-path: url(#clippath);
      }
    </style>
    <clipPath id="clippath">
      <rect class="cls-2" x="65.0824885" y="32.655302" width="17.9449824" height="20.3327829"/>
    </clipPath>
  </defs>
  <g id="top">
    <g>
      <g>
        <path class="cls-3" d="m2.0216051,62.6035922v-.9394691l-1.6530062.0746725-.0376554-1.2770909,1.7283169-.0753107c0-.5265367.0127645-1.0900906.0376554-1.6912997l1.3153844.0753107c-.0504199.7518306-.0753107,1.2656028-.0753107,1.5406783.425697-.0248908.9394691-.087437,1.5406783-.1876385l.0376554,1.3147462-1.5783337.1506214v.6388645c.7518306-.2004031,1.3906951-.2757138,1.9165936-.2252939.7007725.0746725,1.2777291.3510245,1.7283169.8265031.4008061.4263352.6139737.9522337.6388645,1.5783337.0248908.6516291-.1627477,1.164763-.5635538,1.5406783-.3510245.3759153-.8022505.5884447-1.3530398.6388645-.5258985.0497817-.9764863-.0631844-1.3524016-.3382599-.3759153-.2757138-.6012092-.7014107-.6765199-1.2777291l1.2400737-.3759153c.0995633.4263352.3503862.6146119.7518306.5635538.2750755-.0497817.4505878-.2125294.5258985-.4882431.0753107-.2501847.0376554-.513134-.1129661-.7888477-.2252939-.3759153-.6516291-.5884447-1.2777291-.6388645-.4505878-.0248908-.9394691.0370171-1.4653676.1876385l.0376554,1.7283169c0,.451226-.1129661.8271413-.3382599,1.1277459-.2757138.3503862-.6637554.5258985-1.164763.5258985-.5514275-.0248908-1.0147798-.2380584-1.3906951-.6388645-.4008061-.425697-.5514275-.9394691-.4505878-1.5406783.0753107-.4001679.3248572-.8137386.7511924-1.2400737.3759153-.3503862.789486-.6133355,1.2400737-.7888477Zm.0376554,1.3900569c-.2757138.1506214-.4639905.276352-.5635538.3759153-.2010413.1755122-.2757138.3631508-.2252939.5635538.0242526.1755122.0995633.3006046.2252939.3759153.1250924.0753107.2501847.0753107.3759153,0,.0995633-.0753107.1627477-.2004031.1876385-.3759153.0248908-.1499832.0248908-.4633523,0-.9394691Zm3.3443059-3.0813567l.789486-1.0147798c.7760832.5514275,1.4149477,1.0524352,1.9165936,1.5036612l-.8271413,1.0141416c-.6261-.5756801-1.2528383-1.0766878-1.8789383-1.503023Z"/>
        <path class="cls-3" d="m8.7906335,66.060226c.8762847-1.1768893,1.5783337-2.5044001,2.1042322-3.9831705-.3510245.0753107-.9145783.2131676-1.6912997.4135707l-.3006046-1.3153844c.7767214-.1250924,1.5534429-.2501847,2.3301643-.3759153.1499832-.5501511.2629492-1.226671.3382599-2.0289215l1.4653676.3006046-.451226,1.5783337c.9267046-.1506214,1.5534429.0880752,1.8789383.7141753.2757138.5010077.3382599,1.2649646.1882768,2.2918707-.0753107.6012092-.2010413,1.1405104-.3759153,1.615989-.2508229.7014107-.5635538,1.1519985-.9394691,1.3530398-.3261336.174874-.8399058.2252939-1.5406783.1499832l-.3006046-1.3524016c.5258985.0248908.8513939.0248908.9771245,0,.174874-.0504199.3248572-.1882768.4505878-.4135707.2259321-.425697.3880416-.8890493.4888814-1.3906951.1250924-.5507893.1372187-.9892508.0376554-1.3147462-.0753107-.2757138-.2386966-.425697-.4888814-.451226-.1499832,0-.3886798.0127645-.713537.0376554-.5265367,1.8036276-1.3032581,3.457272-2.3301643,4.9602949l-1.1271077-.789486Zm5.4861934-5.786798l1.2400737-.6388645c.6509908,1.1028551,1.2273092,2.3805842,1.7283169,3.8331873l-1.2400737.6012092c-.4761168-1.5783337-1.051797-2.8432983-1.7283169-3.7955319Z"/>
        <path class="cls-3" d="m18.7527081,58.7327496l1.2777291.2629492c-.4008061,1.6536444-.5010077,3.4323811-.3006046,5.3362103l.451226-1.1271077.9018138.6012092c-.3510245.8520321-.6139737,1.7040643-.7888477,2.5554582l-1.2777291.2252939c-.8271413-2.580349-.9152165-5.1983534-.2635875-7.8540131Zm2.1425258,2.0295597c1.2770909.0504199,2.1284848.0625462,2.55482.0370171l-.0376554-2.1418875,1.2777291.0753107.0376554,1.954249c.3759153-.0248908.8137386-.0625462,1.3153844-.1129661v1.2400737c-.451226.0753107-.8896875.1129661-1.3153844.1129661.1250924,2.1042322-.4384615,3.7578766-1.6906615,4.9602949l-.9771245-.9394691c.5756801-.5507893.9637217-1.164763,1.164763-1.8412829.174874-.5265367.2501847-1.2273092.2252939-2.1042322-.876923.0504199-1.7283169.0504199-2.55482,0v-1.2400737Zm3.9455151-1.3906951l.5635538-.4505878.7518306.9018138-.5641921.4505878-.7511924-.9018138Zm.6765199-.6012092l.5635538-.451226.7141753.8647967-.5641921.4505878-.713537-.8641584Z"/>
        <path class="cls-3" d="m27.2455857,60.9122925c1.2024184-.1499832,2.1916692-.3127309,2.9683906-.4882431-.1755122-.4008061-.3752771-.8513939-.6012092-1.3530398l1.4283505-.4135707c.2004031.5514275.425697,1.0275444.6765199,1.4283505.800974-.2004031,1.4774939-.4008061,2.0289215-.6012092l.5635538,1.2024184c-.7511924.2252939-1.4404768.4129324-2.0665768.5635538.5258985.876923,1.1271077,1.6664089,1.8036276,2.3671814l-.8265031.8647967c-.5016459-.3006046-1.1149814-.5010077-1.8412829-.6012092-.702049-.1002015-1.2904936-.0625462-1.7666105.1123278-.4761168.1755122-.6637554.451226-.5635538.8265031.1250924.4263352.5884447.6765199,1.3906951.7518306.8513939.0753107,1.7659722-.0376554,2.7430967-.3382599l.4135707,1.164763c-1.4532413.5010077-2.7807521.6261-3.9838087.3759153-.5763184-.1257306-1.0396707-.3631508-1.3900569-.7141753-.4008061-.4001679-.5890829-.8641584-.5635538-1.3900569.0242526-.9018138.5003694-1.4902585,1.4277123-1.7659722.7014107-.2259321,1.5655692-.2501847,2.5931135-.0753107-.276352-.4008061-.5393012-.8137386-.789486-1.2400737-1.077326.2252939-2.1546521.4263352-3.2313399.6012092l-.4135707-1.2777291Z"/>
        <path class="cls-3" d="m35.2917049,61.1752417v-1.2400737c.9771245-.0753107,1.9785016-.1372187,3.006046-.1876385l-.0376554-1.1277459,1.4660059.1129661-.0376554.9771245h2.5178028v1.2024184c-.8271413,0-1.6785352.0127645-2.5554582.0376554v1.1271077c.6012092-.0242526,1.3772924-.1372187,2.3295261-.3382599v1.2777291c-.5258985.1008398-1.2904936.2010413-2.2918707.3006046l.0376554.7141753c1.0269061.2010413,1.9663753.5635538,2.8184074,1.0900906l-.7141753,1.0894523c-.7014107-.451226-1.3779306-.7760832-2.0295597-.9771245,0,.7767214-.3752771,1.2777291-1.1271077,1.503023-.4505878.1250924-.9018138.174874-1.3530398.1506214-.6758817-.0504199-1.1775276-.2252939-1.503023-.5258985-.3510245-.3254954-.4633523-.7390661-.3382599-1.2400737.1250924-.5763184.5010077-.9522337,1.1277459-1.1277459.3759153-.0995633.9637217-.1372187,1.7659722-.1123278l-.0376554-.4888814c-.6261.0255291-1.1149814.0255291-1.4653676,0-.5514275-.0248908-.9145783-.1876385-1.0900906-.4882431-.1250924-.2004031-.1499832-.425697-.0746725-.6765199.0497817-.174874.1627477-.451226.3382599-.8265031l1.3524016.2252939c-.1257306.1755122-.2004031.2878401-.2252939.3382599-.0255291.1002015.0248908.1627477.1499832.1876385.3510245.0255291.6892844.0255291,1.0147798,0l-.0376554-1.2024184c-1.0275444.0753107-2.0289215.1499832-3.006046.2252939Zm3.0813567,3.7955319c-.4263352-.0995633-.8143768-.087437-1.164763.0376554-.3510245.1257306-.4384615.3006046-.2629492.5258985.1499832.2010413.4378233.2629492.8641584.1882768.4505878-.0753107.6388645-.3254954.5635538-.7518306Z"/>
        <path class="cls-3" d="m43.2254963,59.7098741c2.9805169-.1506214,5.5359751-.4378233,7.6657363-.8641584l.2252939,1.3153844c-.6267382.1002015-1.0275444.1755122-1.2024184.2252939-.3510245.1002015-.7269398.2878401-1.1271077.5635538-.5514275.3759153-1.0147798.8896875-1.3906951,1.5406783-.4505878.7767214-.5258985,1.4277123-.2252939,1.954249.2252939.3752771.6012092.6388645,1.1271077.7888477.2252939.0753107.6886462.1633859,1.3906951.2629492l-.4135707,1.3153844c-.7014107-.1257306-1.2528383-.2629492-1.6536444-.4135707-.6012092-.1997648-1.077326-.5003694-1.4277123-.9018138-.6765199-.7263016-.8265031-1.59046-.451226-2.5924753.3254954-.8513939.9018138-1.6032245,1.7289551-2.2548536-.8022505.1257306-2.1552903.2629492-4.0584812.4135707l-.1876385-1.3530398Zm5.8991259,1.8789383l.7518306-.3382599.5258985,1.0147798-.7511924.3759153-.5265367-1.0524352Zm1.0147798-.451226l.789486-.3382599.4882431,1.0147798-.7141753.3382599-.5635538-1.0147798Z"/>
        <path class="cls-3" d="m51.6711451,64.8578076v-1.6153508l3.4949273-4.4343965h1.5406783v4.8473289h1.1271077v1.2024184h-1.1271077v1.6912997h-1.3906951v-1.6912997h-3.6449105Zm1.164763-1.2400737h2.4801475v-3.1560291l-2.4801475,3.1560291Z"/>
        <path class="cls-3" d="m58.4216649,64.218943h1.3900569c.0753107.4014444.2878401.7141753.6388645.9394691.3759153.2259321.7518306.2884783,1.1271077.1882768.6765199-.1506214,1.0645615-.538663,1.1654013-1.164763.1250924-.6516291-.1008398-1.1519985-.6765199-1.5036612-.3006046-.174874-.6388645-.2374202-1.0147798-.1876385-.3759153.0504199-.6765199.2010413-.9018138.451226h-1.4277123l.6758817-4.1337919h4.3967411v1.2777291h-3.3066506l-.3006046,1.5406783c1.0013771-.4754786,1.9165936-.4888814,2.7430967-.0376554.6261.3510245,1.0269061.8896875,1.2024184,1.615989.174874.7269398.087437,1.4028214-.2629492,2.0289215-.3006046.5258985-.7518306.9145783-1.3530398,1.164763-.5514275.2259321-1.1271077.2878401-1.7283169.1882768-.6516291-.1008398-1.1902921-.3510245-1.615989-.7518306-.4505878-.425697-.7014107-.9637217-.7511924-1.615989Z"/>
        <path class="cls-3" d="m73.1053378,58.6950942v7.4027871c0,.6765199-.3261336,1.0147798-.9771245,1.0147798h-1.1271077l-.3382599-1.2777291h.6758817c.2501847,0,.3759153-.1372187.3759153-.4129324v-5.524487h-4.6596904v3.7202212c0,.5265367-.1002015,1.1277459-.3006046,1.8042658-.2252939.7511924-.5010077,1.339637-.8265031,1.7659722l-1.0900906-1.2400737c.6012092-.7760832.9018138-1.8789383.9018138-3.3066506v-3.9461533h7.3657699Zm-5.8244534,3.119012h1.3900569v-.4129324h-1.164763v-.9771245h1.164763v-.3759153h1.3530398v.3759153h1.164763v.9771245h-1.164763v.4129324h1.4653676v.9771245h-4.2084643v-.9771245Zm.3006046,4.3214304v-3.0437013h3.5319444v2.6307689h-2.1795429v.4129324h-1.3524016Zm1.3524016-1.4277123h.8641584v-.6012092h-.8641584v.6012092Z"/>
        <path class="cls-3" d="m76.1777593,58.3568343l1.503023.2629492-.3382599.6388645h5.1479335v1.2030566h-2.8184074v.9764863h2.5931135v1.2777291h-2.5931135v1.3153844h3.2319781v1.164763h-3.2319781v1.9165936h-1.3147462v-1.9165936h-4.0961365v-1.164763h1.503023v-2.4801475c-.4008061.4008061-.6892844.6516291-.8641584.7518306l-.7141753-1.3153844c.9771245-.6765199,1.6402416-1.5534429,1.9919043-2.6307689Zm-.3006046,3.0813567h2.4801475v-.9764863h-1.7289551c-.0753107.1755122-.3254954.5010077-.7511924.9764863Zm1.2024184,2.5931135h1.2777291v-1.3153844h-1.2777291v1.3153844Z"/>
      </g>
      <g class="cls-4">
        <g>
          <path class="cls-3" d="m78.908635,34.9623669l-9.5013163,10.5792481h2.2382696c.3395717,0,.6179924.2768972.6179924.6165286v11.4160685l16.1234776-.050755-.0062635-11.9818421-9.4721598-10.5792481Z"/>
          <path class="cls-1" d="m78.9119803,49.3952434s-3.0014774-1.9121917-3.0014774-3.9412435c0-.828665.6706157-1.5013949,1.4993536-1.5013949.829394,0,1.5021238.6727299,1.5021238,1.5013949,0-.828665.6728028-1.5013949,1.4992789-1.5013949.830852,0,1.5029258.6727299,1.5029258,1.5013949,0,2.0290519-3.0022046,3.9412435-3.0022046,3.9412435Z"/>
          <path class="cls-3" d="m70.6729835,40.0540816s-1.8802309-1.19807-1.8802309-2.4693847c0-.5184527.4210105-.9394632.9407677-.9394632.5184509,0,.9394632.4210105.9394632.9394632,0-.5184527.4210087-.9394632.9394632-.9394632.519105,0,.9401154.4210105.9401154.9394632,0,1.2713147-1.8795787,2.4693847-1.8795787,2.4693847Z"/>
          <path class="cls-3" d="m67.2468646,35.7869358s-.9133219-.5813528-.9133219-1.1976021.2057178-.4555535.4577684-.4555535c.2507397,0,.4555535.2035029.4555535.4555535,0-.2520506.2035029-.4555535.4555535-.4555535.2515986,0,.4564575.2035029.4564575.4555535,0,.6162493-.912011,1.1976021-.912011,1.1976021Z"/>
        </g>
      </g>
      <g>
        <path class="cls-3" d="m1.4358946,39.3191814c-.671095,0-1.0441383-.5220691-1.0441383-1.2681557,0-.8947933.2983708-1.3421899,1.3425091-2.8343631L25.6754111,1.8039193c.5220691-.6714141.9694658-1.0441383,1.7155523-1.0441383h1.2678366c.7457675,0,1.1188107.2236983,1.1188107.5964225,0,.2236983-.149345.5220691-.3730433.8204399L5.6871201,34.9932834c-.8947933,1.192845.149345,1.192845,2.0885956,1.192845h11.5601933c1.7899057,0,2.0882765-.2233792,2.0882765-1.9389316v-13.7231423c0-.5220691.0746725-1.1188107.6714141-1.4915349.8947933-.5967416,2.6103456-1.1934832,3.8035097-1.2681557,1.0441383-.0746725,1.0441383.820759,1.0441383,2.312294v14.3945564c0,1.4168624.2236983,1.7149141,1.491854,1.7149141h4.7732946c.671095.5227074.671095,2.4616389,0,3.133053h-4.0275272c-1.8645782,0-2.2376215.0740343-2.2376215,1.6402416v3.3564322c0,5.8921054.149345,6.8615712,3.2070873,7.2349335l1.9392507.2233792c.4473966.4473966.3727242,1.6408799-.149345,1.8648973-2.684699-.149345-5.4443896-.2240174-7.7563645-.2240174-2.6850181,0-6.0414503.0746725-9.322891.2240174-.5220691-.2240174-.5967416-1.4175007-.149345-1.8648973l3.3564322-.2233792c3.1324148-.2240174,3.3561131-1.4921731,3.3561131-7.2349335v-3.1324148c0-1.7902248-.2236983-1.8642591-2.162949-1.8642591H1.4358946Z"/>
        <path class="cls-3" d="m42.9774075,4.5578659c.3730433-1.1934832.7457675-1.8645782,1.9392507-2.0139231L62.891026.0082695c.4473966-.0746725.6714141.3730433.6714141.671095-.5220691,1.6408799-1.6408799,3.5054581-2.6850181,4.6242688l-14.0958665,2.013604c-1.7155523.2240174-2.0882765.5967416-2.5363114,2.0139231l-1.3425091,4.4749238c-.2980517.8947933,0,1.2681557,1.0444574,1.3421899l1.5662074.149345c9.3225718.8947933,19.7645926,4.9973121,19.7645926,16.3334879,0,12.9030215-14.841953,21.8528692-26.7008363,22.2255933-.8204399-.2980517-.8951124-1.7895866-.2236983-2.3116557,11.5605124-.6714141,21.4051534-7.7570027,21.4051534-17.9743678,0-10.5907275-11.2621416-13.2757457-20.0626443-13.4250906-1.1188107,0-1.1934832-.5967416-.6714141-2.312294l3.9528547-13.2754265Z"/>
      </g>
      <g>
        <path class="cls-3" d="m68.3312671,9.0544894c-.37783,0-.3995297.0666947-.3995297.5332381v4.1548533c0,1.2885789.155089,2.4661065,1.6217331,2.4661065.2221028,0,.4218676-.0443567.5999327-.1110514.1997648-.0666947.4888814-.3111353.5552569-.3111353.1780651,0,.2667786.2444407.2221028.37783-.3995297.4665434-1.1998655,1.0221194-2.3327172,1.0221194-1.9108496,0-2.3110175-1.0664762-2.3110175-2.399731v-5.0879402c0-.5999327-.0216997-.6442895-.4665434-.6442895h-.6216324c-.1333893-.0890326-.1557272-.3331541-.0670138-.4665434.6446086-.200084,1.1998655-.4888814,1.4219682-.6889653.2891165-.2664595.7109841-.8663922.9330869-1.3105977.1110514-.0446758.37783-.0446758.4665434.1110514v.9997815c0,.3998488.0223379.4221867.4001679.4221867h2.4661065c.2667786.1997648.2221028.7996976.0223379.9330869h-2.5107823Z"/>
        <path class="cls-3" d="m73.5525966,4.34406c0-1.3105977-.0216997-1.443987-.6886462-1.8438358l-.2221028-.1333893c-.1110514-.0666947-.1110514-.37783,0-.4445246.5558951-.177746,1.6000334-.5109002,2.399731-.9330869.0887135,0,.1774269.0443567.2221028.1333893-.0223379.6666274-.0663755,1.7774603-.0663755,2.7549039v4.6660726c0,.1997648.0216997.3775109.0887135.4218676.7996976-.6219515,1.8661738-1.1551896,2.9996637-1.1551896,2.1106144,0,2.8656362,1.3109169,2.8656362,2.8662744v3.7103287c0,1.5997143.0446758,1.8441549.8443734,1.9328684l.5999327.0666947c.1557272.1110514.1110514.4888814-.0440376.555576-.8003358-.0443567-1.4443062-.0666947-2.222304-.0666947-.7996976,0-1.4660059.0223379-2.0659386.0666947-.1557272-.0666947-.2004031-.4445246-.0446758-.555576l.4442055-.0666947c.8220355-.1330702.8443734-.3331541.8443734-1.9328684v-3.1770906c0-1.4219682-.6886462-2.377393-2.1106144-2.377393-.75566,0-1.3332548.2664595-1.7327845.5999327-.4001679.3331541-.4665434.4442055-.4665434,1.2218843v3.7326666c0,1.5997143.0440376,1.821817.8443734,1.9328684l.4665434.0666947c.155089.0890326.1110514.4888814-.0446758.555576-.6663083-.0443567-1.3109169-.0666947-2.0882765-.0666947-.8003358,0-1.4666441.0223379-2.1776282.0666947-.1557272-.0666947-.1997648-.4445246-.0446758-.555576l.5558951-.0666947c.8220355-.0887135.8437352-.3331541.8437352-1.9328684V4.34406Z"/>
      </g>
    </g>
  </g>
</svg>