<?xml version="1.0" encoding="UTF-8"?>
<svg id="_レイヤー_2" data-name="レイヤー 2" xmlns="http://www.w3.org/2000/svg" viewBox="0 0 143.8122975 33.0562448">
  <defs>
    <style>
      .cls-1 {
        fill: #e48022;
      }

      .cls-1, .cls-2, .cls-3 {
        stroke-width: 0px;
      }

      .cls-2 {
        stroke: #221815;
        stroke-linecap: square;
        stroke-miterlimit: 10;
      }
    </style>
  </defs>
  <g id="equipment">
    <g>
      <polygon class="cls-3" points="78.9357457 3.4790125 79.3533129 3.6709173 79.8863905 3.747465 80.2287114 3.7085788 80.4958626 3.5543353 80.6852414 3.3260703 80.7241276 3.0576179 80.6476565 2.7139956 80.3817301 2.4857306 79.9628616 2.2562409 79.5063316 2.064336 79.2015956 1.7959601 78.9733306 1.4899227 78.8968595 1.1099404 78.9733306 .6496596 79.2391804 .3060374 79.6581255 .0765476 80.1911266 0 80.5724102 .0388862 80.8759215 .1154338 81.0665251 .1919049 80.9523926 .6120747 80.6476565 .4979422 80.1911266 .4213946 79.8475043 .4979422 79.5815779 .6120747 79.4687467 .8415645 79.4298605 1.032168 79.5063316 1.3770916 79.772258 1.6065813 80.6852414 2.064336 80.9899774 2.2939023 81.1806576 2.5998631 81.2571286 3.020033 81.2182424 3.3649565 81.0276389 3.7085788 80.761789 3.9757299 80.3428439 4.1299734 79.8475043 4.2052197 79.4298605 4.1663335 79.0874631 4.0898624 78.8203119 3.9368437 78.9357457 3.4790125"/>
      <polygon class="cls-2" points="78.9357457 3.4790125 79.3533129 3.6709173 79.8863905 3.747465 80.2287114 3.7085788 80.4958626 3.5543353 80.6852414 3.3260703 80.7241276 3.0576179 80.6476565 2.7139956 80.3817301 2.4857306 79.9628616 2.2562409 79.5063316 2.064336 79.2015956 1.7959601 78.9733306 1.4899227 78.8968595 1.1099404 78.9733306 .6496596 79.2391804 .3060374 79.6581255 .0765476 80.1911266 0 80.5724102 .0388862 80.8759215 .1154338 81.0665251 .1919049 80.9523926 .6120747 80.6476565 .4979422 80.1911266 .4213946 79.8475043 .4979422 79.5815779 .6120747 79.4687467 .8415645 79.4298605 1.032168 79.5063316 1.3770916 79.772258 1.6065813 80.6852414 2.064336 80.9899774 2.2939023 81.1806576 2.5998631 81.2571286 3.020033 81.2182424 3.3649565 81.0276389 3.7085788 80.761789 3.9757299 80.3428439 4.1299734 79.8475043 4.2052197 79.4298605 4.1663335 79.0874631 4.0898624 78.8203119 3.9368437 78.9357457 3.4790125"/>
      <polygon class="cls-3" points="84.6046323 4.1295141 84.6046323 2.4088768 83.3102887 .0773896 83.9198373 .0773896 84.4904998 1.184804 84.6811034 1.6061986 84.9093683 2.0275932 85.0999719 1.6061986 85.3270121 1.184804 85.8988993 .0773896 86.4695618 .0773896 85.1376333 2.4088768 85.1376333 4.1295141 84.6046323 4.1295141"/>
      <polygon class="cls-2" points="84.6046323 4.1295141 84.6046323 2.4088768 83.3102887 .0773896 83.9198373 .0773896 84.4904998 1.184804 84.6811034 1.6061986 84.9093683 2.0275932 85.0999719 1.6061986 85.3270121 1.184804 85.8988993 .0773896 86.4695618 .0773896 85.1376333 2.4088768 85.1376333 4.1295141 84.6046323 4.1295141"/>
      <polygon class="cls-3" points="88.5244825 3.4790125 88.943351 3.6709173 89.4374659 3.747465 89.7798633 3.7085788 90.0845994 3.5543353 90.2363933 3.3260703 90.3128644 3.0576179 90.2363933 2.7139956 89.9704669 2.4857306 89.5515983 2.2562409 89.0938436 2.064336 88.7526709 1.7959601 88.5632921 1.4899227 88.4855963 1.1099404 88.5632921 .6496596 88.8279172 .3060374 89.2468623 .0765476 89.7798633 0 90.161147 .0388862 90.4646583 .1154338 90.6552618 .1919049 90.5034679 .6120747 90.3505258 .5355271 90.0845994 .459056 89.7422019 .4213946 89.399881 .4979422 89.1703147 .6120747 89.0185973 .8415645 88.9809359 1.032168 89.0185973 1.3005439 89.1703147 1.4899227 89.4374659 1.6831289 89.8187495 1.8348463 90.2363933 2.064336 90.5411293 2.2939023 90.7305081 2.5998631 90.8069792 3.020033 90.7693943 3.3649565 90.5800155 3.7085788 90.3128644 3.9757299 89.8939958 4.1299734 89.399881 4.2052197 89.0185973 4.1663335 88.6385384 4.0898624 88.3726886 3.9368437 88.5244825 3.4790125"/>
      <polygon class="cls-2" points="88.5244825 3.4790125 88.943351 3.6709173 89.4374659 3.747465 89.7798633 3.7085788 90.0845994 3.5543353 90.2363933 3.3260703 90.3128644 3.0576179 90.2363933 2.7139956 89.9704669 2.4857306 89.5515983 2.2562409 89.0938436 2.064336 88.7526709 1.7959601 88.5632921 1.4899227 88.4855963 1.1099404 88.5632921 .6496596 88.8279172 .3060374 89.2468623 .0765476 89.7798633 0 90.161147 .0388862 90.4646583 .1154338 90.6552618 .1919049 90.5034679 .6120747 90.3505258 .5355271 90.0845994 .459056 89.7422019 .4213946 89.399881 .4979422 89.1703147 .6120747 89.0185973 .8415645 88.9809359 1.032168 89.0185973 1.3005439 89.1703147 1.4899227 89.4374659 1.6831289 89.8187495 1.8348463 90.2363933 2.064336 90.5411293 2.2939023 90.7305081 2.5998631 90.8069792 3.020033 90.7693943 3.3649565 90.5800155 3.7085788 90.3128644 3.9757299 89.8939958 4.1299734 89.399881 4.2052197 89.0185973 4.1663335 88.6385384 4.0898624 88.3726886 3.9368437 88.5244825 3.4790125"/>
      <polygon class="cls-3" points="94.1178166 .497636 92.8623592 .497636 92.8623592 .0762414 95.8673123 .0762414 95.8673123 .497636 94.6508176 .497636 94.6508176 4.1297437 94.1178166 4.1297437 94.1178166 .497636"/>
      <polygon class="cls-2" points="94.1178166 .497636 92.8623592 .497636 92.8623592 .0762414 95.8673123 .0762414 95.8673123 .497636 94.6508176 .497636 94.6508176 4.1297437 94.1178166 4.1297437 94.1178166 .497636"/>
      <polygon class="cls-3" points="106.1793474 2.3321761 106.141686 1.7578394 106.1040246 1.147066 106.1040246 .6115389 105.8758362 1.3388943 105.5710236 2.1403478 104.8486437 4.0905514 104.4673601 4.0905514 103.8202266 2.179234 103.5543767 1.3388943 103.3636966 .6115389 103.3261117 .6115389 103.2872255 1.451802 103.2508654 2.3698376 103.1355082 4.1294375 102.6413168 4.1294375 102.944828 .0772365 103.5919616 .0772365 104.2767565 2.0274401 104.5062463 2.752346 104.6956251 3.4020056 104.8863052 2.752346 105.152155 2.0274401 105.8758362 .0772365 106.5229697 .0772365 106.7888195 4.1294375 106.2558185 4.1294375 106.1793474 2.3321761"/>
      <polygon class="cls-2" points="106.1793474 2.3321761 106.141686 1.7578394 106.1040246 1.147066 106.1040246 .6115389 105.8758362 1.3388943 105.5710236 2.1403478 104.8486437 4.0905514 104.4673601 4.0905514 103.8202266 2.179234 103.5543767 1.3388943 103.3636966 .6115389 103.3261117 .6115389 103.2872255 1.451802 103.2508654 2.3698376 103.1355082 4.1294375 102.6413168 4.1294375 102.944828 .0772365 103.5919616 .0772365 104.2767565 2.0274401 104.5062463 2.752346 104.6956251 3.4020056 104.8863052 2.752346 105.152155 2.0274401 105.8758362 .0772365 106.5229697 .0772365 106.7888195 4.1294375 106.2558185 4.1294375 106.1793474 2.3321761"/>
      <polygon class="cls-3" points="112.4584716 .0767007 112.9914726 .0767007 112.9914726 2.0269808 113.14319 1.7961897 113.3338701 1.6055862 114.5503648 .0767007 115.1987996 .0767007 113.7527387 1.7961897 115.3116308 4.1289017 114.7033835 4.1289017 113.371455 2.1411133 112.9914726 2.6000928 112.9914726 4.1289017 112.4584716 4.1289017 112.4584716 .0767007"/>
      <polygon class="cls-2" points="112.4584716 .0767007 112.9914726 .0767007 112.9914726 2.0269808 113.14319 1.7961897 113.3338701 1.6055862 114.5503648 .0767007 115.1987996 .0767007 113.7527387 1.7961897 115.3116308 4.1289017 114.7033835 4.1289017 113.371455 2.1411133 112.9914726 2.6000928 112.9914726 4.1289017 112.4584716 4.1289017 112.4584716 .0767007"/>
      <rect class="cls-3" x="117.5195702" y=".07716" width=".533001" height="4.052201"/>
      <rect class="cls-2" x="117.5195702" y=".07716" width=".533001" height="4.052201"/>
      <polygon class="cls-3" points="121.4763163 .497636 120.2585203 .497636 120.2585203 .0762414 123.2646982 .0762414 123.2646982 .497636 122.0093173 .497636 122.0093173 4.1297437 121.4763163 4.1297437 121.4763163 .497636"/>
      <polygon class="cls-2" points="121.4763163 .497636 120.2585203 .497636 120.2585203 .0762414 123.2646982 .0762414 123.2646982 .497636 122.0093173 .497636 122.0093173 4.1297437 121.4763163 4.1297437 121.4763163 .497636"/>
      <polygon class="cls-3" points="128.134887 4.013621 127.8689606 4.0901686 127.5265631 4.1666397 127.0700331 4.2055259 126.5370321 4.1290548 126.0429173 3.9748114 125.6240487 3.6699988 125.3192361 3.2874903 125.1298573 2.7519632 125.0521615 2.1411898 125.1298573 1.5291917 125.3192361 .9936646 125.6616336 .5734947 126.0805787 .2674574 126.5746935 .0768538 127.1841656 .0003827 127.6018094 .0379676 127.9442069 .1145152 128.134887 .1909863 128.0207545 .6111561 127.6406956 .4970237 127.1841656 .4593622 126.6511646 .5359098 126.2322961 .7277382 125.8898986 1.0701356 125.7005198 1.5291917 125.6240487 2.1023037 125.7005198 2.6754922 125.8898986 3.1344717 126.1946346 3.4793952 126.6511646 3.6699988 127.1841656 3.7465464 127.6406956 3.708885 128.0207545 3.5922264 128.134887 4.013621"/>
      <polygon class="cls-2" points="128.134887 4.013621 127.8689606 4.0901686 127.5265631 4.1666397 127.0700331 4.2055259 126.5370321 4.1290548 126.0429173 3.9748114 125.6240487 3.6699988 125.3192361 3.2874903 125.1298573 2.7519632 125.0521615 2.1411898 125.1298573 1.5291917 125.3192361 .9936646 125.6616336 .5734947 126.0805787 .2674574 126.5746935 .0768538 127.1841656 .0003827 127.6018094 .0379676 127.9442069 .1145152 128.134887 .1909863 128.0207545 .6111561 127.6406956 .4970237 127.1841656 .4593622 126.6511646 .5359098 126.2322961 .7277382 125.8898986 1.0701356 125.7005198 1.5291917 125.6240487 2.1023037 125.7005198 2.6754922 125.8898986 3.1344717 126.1946346 3.4793952 126.6511646 3.6699988 127.1841656 3.7465464 127.6406956 3.708885 128.0207545 3.5922264 128.134887 4.013621"/>
      <polygon class="cls-3" points="130.9895006 .0767007 130.9895006 1.7585283 132.9296764 1.7585283 132.9296764 .0767007 133.4626774 .0767007 133.4626774 4.1289017 132.9296764 4.1289017 132.9296764 2.2175844 130.9895006 2.2175844 130.9895006 4.1289017 130.456423 4.1289017 130.456423 .0767007 130.9895006 .0767007"/>
      <polygon class="cls-2" points="130.9895006 .0767007 130.9895006 1.7585283 132.9296764 1.7585283 132.9296764 .0767007 133.4626774 .0767007 133.4626774 4.1289017 132.9296764 4.1289017 132.9296764 2.2175844 130.9895006 2.2175844 130.9895006 4.1289017 130.456423 4.1289017 130.456423 .0767007 130.9895006 .0767007"/>
      <polygon class="cls-3" points="140.7685347 4.1295141 140.7685347 .0773896 141.3391206 .0773896 142.6321629 2.1404244 143.0510314 2.790084 143.355844 3.4410449 143.3934289 3.4410449 143.3181826 2.6383666 143.3181826 .0773896 143.8122975 .0773896 143.8122975 4.1295141 143.2792964 4.1295141 141.9862541 2.0639533 141.605047 1.3767088 141.2626496 .7270492 141.2249881 .7270492 141.2626496 1.4908413 141.2626496 4.1295141 140.7685347 4.1295141"/>
      <polygon class="cls-2" points="140.7685347 4.1295141 140.7685347 .0773896 141.3391206 .0773896 142.6321629 2.1404244 143.0510314 2.790084 143.355844 3.4410449 143.3934289 3.4410449 143.3181826 2.6383666 143.3181826 .0773896 143.8122975 .0773896 143.8122975 4.1295141 143.2792964 4.1295141 141.9862541 2.0639533 141.605047 1.3767088 141.2626496 .7270492 141.2249881 .7270492 141.2626496 1.4908413 141.2626496 4.1295141 140.7685347 4.1295141"/>
      <polygon class="cls-3" points="138.2190399 2.2174313 136.6588465 2.2174313 136.6588465 3.7086553 138.4096435 3.7086553 138.4096435 4.1300499 136.1258454 4.1300499 136.1258454 .0766242 138.4096435 .0766242 138.4096435 .4980188 136.6588465 .4980188 136.6588465 1.7960366 138.2190399 1.7960366 138.2190399 2.2174313"/>
      <polygon class="cls-2" points="138.2190399 2.2174313 136.6588465 2.2174313 136.6588465 3.7086553 138.4096435 3.7086553 138.4096435 4.1300499 136.1258454 4.1300499 136.1258454 .0766242 138.4096435 .0766242 138.4096435 .4980188 136.6588465 .4980188 136.6588465 1.7960366 138.2190399 1.7960366 138.2190399 2.2174313"/>
      <polygon class="cls-3" points="100.1683696 2.2174313 98.6081761 2.2174313 98.6081761 3.7086553 100.3589731 3.7086553 100.3589731 4.1300499 98.0751751 4.1300499 98.0751751 .0766242 100.3589731 .0766242 100.3589731 .4980188 98.6081761 .4980188 98.6081761 1.7960366 100.1683696 1.7960366 100.1683696 2.2174313"/>
      <polygon class="cls-2" points="100.1683696 2.2174313 98.6081761 2.2174313 98.6081761 3.7086553 100.3589731 3.7086553 100.3589731 4.1300499 98.0751751 4.1300499 98.0751751 .0766242 100.3589731 .0766242 100.3589731 .4980188 98.6081761 .4980188 98.6081761 1.7960366 100.1683696 1.7960366 100.1683696 2.2174313"/>
      <polygon class="cls-3" points="108.8123557 32.2796692 95.8681543 32.2796692 95.8681543 9.1305228 108.3307181 9.1305228 108.3307181 12.8641326 100.3229192 12.8641326 100.3229192 18.4626719 107.8792403 18.4626719 107.8792403 22.1047308 100.3229192 22.1047308 100.3229192 28.5473607 108.8123557 28.5473607 108.8123557 32.2796692"/>
      <path class="cls-3" d="m125.43245,13.4960331c-.812706-.4213946-2.2273825-.9932818-4.1236965-.9932818-2.3477918,0-3.4012401,1.2641838-3.4012401,2.5585274,0,1.6554952,1.1437744,2.4079583,3.9731273,3.7022253,3.7023019,1.6554952,5.3577205,3.7938528,5.3577205,6.83264,0,4.0346716-3.0400119,6.9844339-8.4278922,6.9844339-2.2875489,0-4.6064823-.6321302-5.6900903-1.294267l.8728724-3.7336864c1.2040174.7236811,3.1304146,1.2955684,4.9977937,1.2955684,2.4682012,0,3.7624683-1.1738576,3.7624683-2.8895959,0-1.6554952-1.1136912-2.6500018-3.6721421-3.7624683-3.4928676-1.5062274-5.6600071-3.6733669-5.6600071-6.6833721,0-3.7938528,2.9798455-6.7135319,7.9777157-6.7135319,2.1972227,0,3.8828011.5129456,4.9664091,1.0547496l-.9330389,3.6420589Z"/>
      <rect class="cls-1" x="52.0313264" y="10.0126575" width="4.9802643" height="19.3265118"/>
      <path class="cls-1" d="m69.2739825,24.8032638c-.5317763,0-.967026-.4326471-.967026-.9644234v-13.8258003h-4.9037167v14.6109491c0,2.6010879,2.1094991,4.7155626,4.7118883,4.7155626h6.2130636v-4.5362881h-5.0542093Z"/>
      <path class="cls-1" d="m35.2660213,19.6756454c0,.9908323.1404649,2.2387115,1.3620117,3.9706778l6.6256552,9.4099216,4.0120901-2.8281281-6.6495381-9.4362539c-.2307911-.3624529-.3838097-.6885458-.3838097-1.1162173,0-.4288963.1530187-.7562139.3838097-1.1161407l6.6495381-9.4362539-4.0120901-2.8269034-6.6256552,9.4061707c-1.2215468,1.7357171-1.3620117,2.9798455-1.3620117,3.9731273"/>
      <rect class="cls-1" x="16.6490293" y="10.0126575" width="4.981489" height="19.3265118"/>
      <path class="cls-1" d="m5.8707427,24.8032638c-.5317763,0-.9657247-.4326471-.9657247-.9644234v-13.8258003H0v14.6109491c0,2.6010879,2.1094991,4.7155626,4.7118883,4.7155626h6.2130636v-4.5362881h-5.0542093Z"/>
      <path class="cls-1" d="m38.3932209,19.6756454c0,.9908323-.1405414,2.2387115-1.3607869,3.9706778l-6.6282578,9.4099216-4.0107887-2.8281281,6.6495381-9.4362539c.2307911-.3624529.3812837-.6885458.3812837-1.1162173,0-.4288963-.1504926-.7562139-.3812837-1.1161407l-6.6495381-9.4362539,4.0107887-2.8269034,6.6282578,9.4061707c1.2202455,1.7357171,1.3607869,2.9798455,1.3607869,3.9731273"/>
    </g>
  </g>
</svg>