<svg version="1.1" id="レイヤー_1" xmlns="http://www.w3.org/2000/svg" x="0" y="0" viewBox="0 0 231 241" xml:space="preserve"><style>.st0{fill:#fff}.st1{fill:#98b13b}</style><path class="st0" d="M91.3 226.8C39.3 215.8.5 169.4 1 114.1 1.6 51.1 53.1.5 116.1 1s113.7 52.1 113.2 115.1c-.5 55-39.8 100.6-91.7 111"/><path class="st1" d="M137.6 228.1c-.5 0-.9-.3-1-.8-.1-.5.2-1.1.8-1.2 52.2-10.4 90.4-56.7 90.9-110C228.8 53.7 178.5 2.5 116.1 2h-1C53.2 2 2.5 52.1 2 114.2c-.5 53.6 37.2 100.6 89.5 111.7.5.1.9.6.8 1.2-.1.5-.6.9-1.2.8C37.9 216.5-.5 168.7 0 114.1.6 51 52.1 0 115.1 0h1c63.5.6 114.7 52.7 114.1 116.2-.2 26.6-9.8 52.5-26.8 72.9-16.8 20.1-40.2 34-65.7 39.1 0-.1-.1-.1-.1-.1z"/><path class="st1" d="M96.9 53.2l-4-3.2c-.5-.4-1.2-.7-1.9-.7-1.9-.1-5.5-.1-4.6.5 6.5 4.1 2.4 11 9.5 14.4 1.5 3.6 4.8 6.6 9.1 8.4 0 0 4.4.6 9.8.6 5 0 10-.6 10-.6 6-2.6 10.1-7.4 10.1-12.9 0-4-2.2-7.7-5.7-10.4h-28.6c-1.5 1.2-2.7 2.5-3.7 3.9zM96.5 49c-.2 0-.4-.1-.5-.4-.9-3.2-1.9-9.3 1.3-14.2.2-.2.5-.3.7-.1.2.2.3.5.1.7-3 4.5-2.1 10.3-1.2 13.3.1.3-.1.5-.3.6 0 .1-.1.1-.1.1zM133.3 48.9h-.1c-.3-.1-.4-.3-.3-.6.8-3 1.8-8.8-1.2-13.3-.2-.2-.1-.5.1-.7.2-.2.5-.1.7.1 3.2 4.8 2.2 10.9 1.4 14.1-.2.3-.4.4-.6.4zM114.9 79c-6.7 0-19.3-.7-19.3-3.4 0-.8.9-1.4 2.9-1.9.3-.1.5.1.6.4.1.3-.1.5-.4.6-2 .5-2.2 1-2.2 1 .3.8 6.6 2.3 18.3 2.3 11.7 0 18-1.5 18.3-2.4 0 0-.2-.5-2.5-1-.3-.1-.4-.3-.4-.6.1-.3.3-.4.6-.4 2.3.5 3.3 1.2 3.3 2 0 2.7-12.6 3.4-19.2 3.4zM129.4 26.5c-3.5-2.2-8.4-3.3-14.5-3.4h-.2c-6.1 0-11 1.2-14.5 3.4-1 .6-1.2 1.9-.6 2.8.6 1 1.9 1.2 2.8.6 2.9-1.8 7-2.7 12.4-2.7 5.3 0 9.5.9 12.4 2.7.3.2.7.3 1.1.3.7 0 1.3-.3 1.7-1 .7-.8.4-2.1-.6-2.7zM127.9 46.5c-1.6-2.1-5.8-3.6-13.1-3.6-7.2 0-11.5 1.4-13.1 3.6M117.4 40.4c0 1.4-1.1 2.5-2.5 2.5s-2.5-1.1-2.5-2.5 1.1-2.5 2.5-2.5c1.3 0 2.5 1.1 2.5 2.5zM63.2 168.6H63c-.1-.1-.2-.1-.3-.1 0 .1.1.1.2.2.1 0 .2.1.3.1.1 0 .2.1.2.1.1.1.1.1.2.1.3.2.6.4.8.6.3.2.5.5.7.8.2.3.4.6.5 1 .1.4.2.8.3 1.3v.1s0 .1.1.1v.5c0 .2-.1.3-.1.5v.6c0 .2-.1.3-.1.5-.1.2-.1.3-.2.5v.5c-.1.2-.1.3-.2.5s-.2.5-.3.7-.2.5-.3.7c0 .1 0 .1.1.2 0 0 .1.1.1.2-.1.3-.3.5-.6.6-.3.1-.5.3-.6.6 0 0-.1 0-.1.1 0 0-.1 0-.2.1-.1.2-.3.4-.4.5s-.3.3-.5.4c-.1 0-.1.1-.2.1-.1.1-.1.1-.2.1h-.1H61.8c-.1 0-.1 0-.2.1h-.7c-.1 0-.2 0-.2.1h-1.5c-.1 0-.2 0-.3-.1-.1 0-.2-.1-.3-.1h-.4c-.1 0-.1-.1-.1-.1s-.1-.1-.2-.1H57.6v-.1c-.1 0-.3-.1-.5-.2s-.3-.1-.4-.2c0 0-.1-.1-.1-.2s-.1-.2-.1-.2-.1-.1-.1-.2c-.1-.1-.1-.1-.1-.2s-.1-.1-.1-.2 0-.2-.1-.2l-.3-.6c-.1-.2-.2-.3-.2-.5v-.3-.3c0-.2-.1-.4-.1-.5-.1-.2-.1-.3-.1-.6v-.5-.4-.4-.5-.3-.4l.3-.3.3-.3c.1-.1.1-.2.2-.4s.2-.3.3-.3c.2-.1.3-.1.5 0s.4.1.5.1c.2 0 .3 0 .5-.1.2 0 .4-.1.6 0 .2 0 .4 0 .5.1.1 0 .3.1.4.2 0 .2.1.3.2.4-.1.4-.1.8 0 1.1s.1.8.1 1.2c.3-.2.5-.7.4-1.3v-.7c0-.2 0-.4-.1-.7-.1-.2-.2-.4-.4-.5-.2-.1-.3-.3-.4-.5l-1.2-.6c-.4-.2-.7-.5-.9-.9h-.3c0-.1-.1-.1-.1-.2v-.1c-.1-.1-.2-.2-.3-.4s-.2-.3-.3-.4l-.3-.6c0-.1-.1-.2-.1-.3v-.3-.4c0-.2 0-.3-.1-.5.1-.2.1-.3.1-.4 0-.1 0-.3.1-.5s.3-.3.4-.5c.1-.2.2-.3.3-.5.2-.2.5-.4.7-.5l.1-.1.1-.1c.2-.1.3-.2.5-.3s.3-.2.4-.3c.2 0 .4-.1.5-.2.1-.1.3-.2.5-.2h.1c0-.1 0-.1.1-.1s.2 0 .3-.1c.1 0 .1 0 .2.1 0 .1.1.1.2.1.3 0 .6-.1.9-.1.3-.1.6 0 1 .1.1 0 .2.1.3.2.1.1.2.1.3.2l.4.4c.1.1.3.4.4.6.1.2.1.4.2.7 0 .3.1.5.2.8 0 .2.1.3.2.5s.2.3.2.4c0 .1-.1.2-.1.3-.1.1-.1.2-.1.3-.2.2-.4.4-.5.7-.2-.2-.4 0-.5.2zm-7.3 7.4l-.1.1c-.1 0-.1 0-.1.1.1 0 .2 0 .2-.2 0 0 .1 0 .2-.1.1 0 .2-.1.2-.1.1 0 .1-.1.2-.1l.1-.1c.1-.1.1-.1 0-.2-.1.1-.2.2-.4.3l-.3.3zm-.2-.6h.1s0-.1.1-.1c-.1 0-.1 0-.2-.1v.2zm.2 1.5l.2-.2c.1-.1.2-.1.2-.2 0 0 0-.1.1-.1v-.1c-.1.1-.2.2-.3.2s-.2.2-.2.4zm0 .4c.1 0 .1.1 0 .2s0 .1.1.2c.2-.2.5-.4.8-.5v-.2c0-.1 0-.1-.1-.1l-.3.3c-.2.1-.4.1-.5.1zm.3-2.1c.1-.1.2-.1.2-.2.1-.1.2-.1.3-.1v-.1c-.1.1-.2.1-.4.2-.1-.1-.2 0-.1.2zm0-.8c.1-.1.2-.2.3-.2s.2-.2.2-.3l-.3.3c-.1 0-.2.1-.2.2zm.3 4.3v-.2h-.1-.1c.1.1.1.2.2.2zm-.1-12.6c-.1.1-.1.1 0 .1.1.1.1 0 0-.1zm.5 1.3h-.2l-.3.3c-.1.1-.1.2 0 .3.2-.2.3-.3.5-.4.2-.1.3-.3.5-.4v-.2c0-.1 0-.1-.1-.2-.1.1-.2.2-.2.3 0 .1-.1.2-.2.3zm-.3 11.7c0-.1 0-.2-.1-.2 0 .1 0 .1.1.2-.1 0 0 0 0 0zm0-5.7c.1.1.1.1.2.1v-.2c0-.1 0-.1-.1-.1 0 0-.1.1-.1.2 0-.1 0-.1 0 0zm6.8-8.4c-.1-.1-.1-.2-.1-.4 0-.1 0-.3-.1-.4 0-.1-.1-.2-.2-.3-.1-.1-.2-.2-.2-.3-.1 0-.3-.1-.4-.2-.1-.1-.2-.1-.4-.2-.3 0-.6 0-.9.1-.3.1-.6.1-1 .1-.4.2-.8.4-1.1.7-.3.3-.6.5-.9.8-.1.2-.1.4-.2.6 0 .2-.1.5-.2.7.1.1.1.3.1.5v.5c0 .4.2.7.4 1 .2.3.4.5.6.8.2.1.4.3.6.5.2.2.4.3.7.4.1.1.2.2.4.3.1.1.3.1.4.2.1.1.2.1.3.2.1.1.2.1.3.1.1.2.2.3.3.3s.3.2.3.4c.1 0 .2.1.2.1.1 0 .1.1.2.1 0 .2.1.3.2.4.1.1.1.2.2.3-.1.2 0 .4.1.6.1.2.2.4.2.6.1.3.1.5 0 .8 0 .3-.1.5-.1.8-.1.2-.2.3-.2.4-.1.1-.2.2-.2.4v.1c-.1.2-.2.3-.4.4-.2.1-.3.2-.5.3h-.3c-.1 0-.2 0-.3.1-.4 0-.8 0-1.2-.2-.3-.2-.6-.4-.8-.6-.2-.3-.3-.5-.3-.8V174v-1.4c-.2-.1-.3-.1-.5-.1h-.5c-.2 0-.3.1-.5.1h-.5v2.7c0 .1 0 .3-.1.4V176.6c0 .2.1.3.1.4 0 .1 0 .2.1.3v.4c.1.3.2.6.4.8.2.2.4.3.7.4.1 0 .1.1.2.1s.1.1.2.1c.3.1.7.1 1 .1.4 0 .7 0 1.1.1.1 0 .1 0 .2.1 0 0 .1 0 .2.1h.5c.1 0 .2 0 .2-.1h.2c.2-.2.4-.3.6-.4l.6-.3c.1-.1.3-.2.4-.3.1-.1.2-.2.4-.3.1-.2.1-.3.2-.5.1-.1.2-.3.3-.5.1-.2.2-.4.2-.6.1-.2.1-.4.2-.6.1-.4.1-.8.2-1.3.1-.4.1-.8.2-1.2 0-.3 0-.6-.1-.9s-.1-.5-.2-.7c-.1-.3-.2-.6-.3-.8 0-.1-.1-.2-.1-.2 0-.1-.1-.1-.1-.2l-.4-.4c-.2-.2-.3-.2-.4-.3-.1 0-.1-.1-.1-.1 0-.1-.1-.1-.1-.1-.1-.1-.2-.1-.3-.2-.1 0-.3-.1-.4-.2-.1-.1-.2-.1-.3-.2-.1-.1-.2-.2-.3-.2-.1-.1-.2-.1-.4-.1s-.2-.1-.3-.1c-.1 0-.1-.1-.1-.1l-.1-.1c-.1 0-.1-.1-.2-.1h-.2c0-.1-.1-.2-.2-.2s-.1-.1-.2-.1c0-.1-.1-.1-.1 0h-.1v-.1-.1c-.2-.1-.3-.2-.3-.4-.1-.2-.1-.4-.1-.6 0-.2.1-.4.2-.6.1-.2.2-.3.4-.4.2-.1.3 0 .5 0 .1.1.3.2.4.3s.2.3.2.4c.1.2.1.3.1.4.4-.1.7-.2 1.1-.3.3-.1.7-.1 1.2-.2 0-.3-.1-.5-.2-.7s-.3-.5-.3-.8zm-6.1 3c0 .1 0 .1-.1.1 0 0-.1 0-.1.1.1 0 .1 0 .2-.2.1 0 .2-.1.3-.1 0-.1 0-.1-.1-.1 0 .1-.1.1-.1.1 0 .1-.1.1-.1.1zm-.1 11.8c.1 0 .1 0 .2.1s.1.1.1 0c-.1 0-.1 0 0-.1v-.1c-.2-.1-.2 0-.3.1 0-.1 0-.1 0 0zm.9-11c0 .1-.1.1-.2.2l-.2.2c-.1 0-.1.1-.2.2 0 .1-.1.1-.1.2l.4-.4c.1-.1.3-.2.4-.3 0-.1 0-.1-.1-.1zm-.4 9.9s0-.1 0 0c-.1-.1-.1-.1-.2-.1.1 0 .1 0 .2.1-.1 0 0 0 0 0zm.2-8.7c.1.1.2.1.3.1.1-.2.1-.3.2-.4.1-.1.2-.2.3-.4-.2 0-.3.1-.4.2-.2.2-.3.3-.4.5zm1 9.6c-.1.1-.3.2-.4.3-.1.1-.2.2-.4.3.1.1.2.1.3.1 0-.1.1-.2.2-.3s.3-.4.3-.4zm-.4-9.3c.1 0 .1.1.2.1s.1.1.2.1v-.2-.2c.1-.1.2-.1.3-.2.1 0 .2-.1.2-.2l-.2-.2c-.1.2-.1.3-.3.4l-.4.4zm1.2 9.3l-.2.2-.2.2c-.1.1-.1.1-.2.1s-.1.1-.1.2h.4c0-.2.1-.4.3-.6.2-.2.4-.3.6-.4h-.4c0 .1 0 .1-.1.2.1 0 0 .1-.1.1zm-.6-8.9c.1 0 .1 0 .2.1l.1.1c0-.1 0-.2-.1-.3 0 .1 0 .1-.1.1-.1-.1-.1-.1-.1 0zm.5.3c.1.1.1.1.2-.1.1-.1.2-.2.2-.3.1 0 .2-.1.3-.1.1 0 .1-.1 0-.2-.2.1-.3.2-.4.3-.1.2-.2.4-.3.4zm.6 4.7c-.1 0-.1-.1-.1-.1 0-.1 0-.1-.1-.1 0 .1 0 .1-.1.1 0 0-.1 0 0 .1l.3.3c.1.1.2.2.4.2v-.1c0-.1 0-.1.1-.1.3-.1.5-.2.7-.4l.5-.5s.1-.1.2-.1.1-.1.1-.1c-.3.1-.6.3-.9.4-.4.2-.7.4-1.1.4zm-.2 4.6c.2 0 .3-.1.4-.1-.1-.1-.1-.2 0-.2.1-.1.1-.1 0-.1-.1.1-.1.2-.2.2-.1.1-.1.2-.2.2zm.4-9.1l.1-.1s-.1 0-.1.1c-.1 0-.1 0 0 0zm0 3.9c0-.1 0-.1 0 0 .1-.1.2-.1.2 0h.1c.3-.2.7-.3 1-.5.4-.1.7-.3.9-.6h.2c-.1 0-.1-.1 0-.2 0-.1 0-.1-.1-.1-.1.1-.3.2-.4.3-.1.1-.3.2-.4.3-.1 0-.2.1-.3.1-.1 0-.2.1-.3.1-.1.1-.2.1-.3.2-.1.1-.2.1-.4 0 0 .1-.1.1-.1.2-.1.1-.1.1-.1.2zm.3-8.9c-.1.1-.2.2-.2.3-.1.1-.1.2-.1.4.1-.1.2-.1.3-.2.1-.1.1-.2.2-.3h.1c0-.1 0-.1-.1-.2h-.2zm1.1 5.2c-.2.1-.4.2-.5.4s-.3.3-.5.4v.2c0 .1 0 .1-.1.1.2-.1.5-.3.7-.5.2-.2.5-.3.7-.4-.1 0-.1 0-.1-.1-.1 0-.1-.1-.2-.1zM61 173c-.1 0-.2 0-.3.1.1 0 .1.1 0 .2v.2c.2-.2.4-.4.7-.6.3-.1.5-.3.7-.5v-.2c0-.1.1-.1.1-.1-.3.1-.5.3-.7.4-.1.2-.3.3-.5.5zm1.5-.1c-.3.2-.5.3-.8.5-.3.2-.5.3-.7.5-.1 0-.1 0-.1-.1s-.1-.1-.1 0v.1c0 .1 0 .2.1.2.4-.1.7-.3 1-.5.3-.2.6-.4.8-.7l-.1-.1-.1.1zm-1.6-2c0-.1 0-.1 0 0 .1 0 .1-.1.1-.1s-.1 0-.1-.1h-.1c0 .1.1.2.1.2zm.6-3.6s0-.1-.1-.1-.1-.1-.1-.1c-.1 0-.2.1-.3.2-.1.2-.2.3-.2.4.1 0 .1 0 .1.1s.1 0 .2 0c0-.1.1-.2.2-.3.2 0 .2-.1.2-.2zm-.6 12.2c.1 0 .1 0 0 0 .1-.1.1-.1.2-.1h-.2v.1zm0 .7h.2c0-.1 0-.1-.1-.1l-.1.1c.1-.1.1 0 0 0zm.8-.1c.1 0 .2-.1.3-.1l.2-.2c-.2.1-.4.2-.5.3zm.2-4.2c.1 0 .2-.1.3-.2s.1-.2.1-.2l-.2.2c-.1.1-.1.2-.2.2s-.1.1-.2.1h.1l.1-.1zm.7-8.7v-.1c0 .1-.1.1 0 .1-.1 0-.1 0 0 0zm.4.4c-.1 0-.2.1-.2.2l-.2.2H62.9c.1-.1.1-.2.1-.4l.2-.2c0-.1.1-.1.2-.1.1-.1.1-.2.2-.3 0-.1.1-.2.2-.3h-.3c0 .1-.1.2-.1.2-.1.1-.1.1 0 .2-.1 0-.1.1-.2.1-.2.3-.2.4-.2.4zm-.4 7.2zM77.9 179.1v.1s.1 0 .1.1c0 0 .1 0 .1.1v.1c-.3.1-.5.3-.7.5-.2.2-.3.4-.5.7-.1-.1-.2-.1-.3-.1s-.2.1-.3.1c-.3 0-.5 0-.7.1-.2 0-.5.1-.7.1h-.7c-.2 0-.5-.1-.7-.2-.2-.8-.5-1.7-.7-2.5s-.5-1.6-.7-2.5c-.1-.1-.1-.1-.2-.1s-.1-.1-.2-.1c-.1.3-.2.6-.3 1-.1.3-.1.7-.2 1s-.1.7-.2 1-.1.6-.2.9c-.2.1-.4.2-.5.4-.1.2-.2.4-.3.5h-.2s-.1 0-.1-.1c-.1 0-.1 0-.1.1s0 .1-.1.1c-.3-.1-.6-.1-.9-.1-.3 0-.6 0-.8-.2-.3.2-.6.2-1 .2s-.7 0-.9-.1c0-.2.1-.3.1-.5.1-.1.1-.3.2-.4v-.2c-.1 0-.1 0-.1-.1.1-.1.1-.3.1-.5s.1-.3.2-.4v-.4c0-.2 0-.3.1-.4.1-.5.2-.9.3-1.3s.2-.9.2-1.4c.1-.6.2-1.3.3-1.9.1-.6.2-1.3.3-1.9v-.4-.4c0-.3.1-.6.2-.8.1-.3.2-.5.2-.8v-1.2-1.4c.1-.1.2-.2.2-.3 0-.1 0-.2.1-.4h.2c.1 0 .1 0 .1.1.2-.1.4-.3.5-.5-.1.1-.3.2-.4.3-.2.1-.3.1-.5 0l.7-.7c.2-.2.5-.4.7-.7h.4c.1 0 .1-.1.2-.3.3 0 .5.1.6.3-.1.1-.2.2-.2.4s0 .3-.1.5c-.1.4-.2.8-.3 1.3-.1.5-.2.9-.2 1.4v.8c0 .3 0 .5-.2.7-.2 1.1-.3 2.2-.4 3.2-.1 1-.3 2-.5 3.1 0 .1 0 .2.1.2s.1 0 .1.1c-.1.6-.2 1.2-.4 1.7s-.3 1.1-.3 1.6c.1.1.3.1.5.1h1.2c.2 0 .4 0 .5.1.1-.3.2-.8.2-1.4.1-.6.2-1.1.3-1.7 0-.1.1-.3.1-.4 0-.2.1-.3.2-.4.1-.1.1-.2.2-.2s.2 0 .4.1v.3c0 .1-.1.1-.1.2h.7c.2 0 .5-.1.7-.1.2 0 .5-.1.7-.1s.5.1.7.2v.3c0 .1.1.2.1.2 0 .1.1.1.2.2s.1.1.1.2 0 .2-.1.2-.1.1-.1.2c.1.3.3.6.4 1 .1.4.2.7.3 1.1.1 0 .2-.1.3-.2.1-.1.2-.1.4-.1.1.1.1.1.1.2s0 .2-.1.2c.3 0 .5 0 .7.1s.4.1.6.2c-.1-.5-.2-1-.3-1.4-.1-.4-.2-.9-.2-1.4-.2-1.4-.4-2.8-.7-4.2-.3-1.3-.7-2.7-1-4.2v-.1-.1s0-.1-.1-.1-.1-.1-.1-.1c-.1-.3-.1-.6-.2-1 0-.3-.1-.7-.2-1-.1-.4-.3-.8-.5-1.1-.2-.3-.3-.7-.5-1-.1 0-.2.1-.3.1-.1 0-.2 0-.3-.1-.2 0-.4 0-.7.1-.3.1-.5.2-.8.2-.3 0-.5.1-.7 0-.2 0-.4-.2-.5-.4.6-.1 1.1-.2 1.7-.3.6-.1 1.2-.1 1.8-.1 0 .1.1.2.1.2v.2c.1 0 .1 0 .2.1 0 0 .1.1.2.1.2.6.5 1.3.7 2 .3.7.4 1.4.4 2.2.5 1.7 1 3.4 1.3 5.1.3 1.7.6 3.5.8 5.2.2.1.2.3.2.5.1.2 0 .4 0 .6zm-11.5.9c.2 0 .3-.1.5-.2l.3-.3c.1-.1.2-.2.3-.4.1-.1.2-.3.2-.4 0 0 0-.1-.1-.1-.2.2-.4.5-.5.7-.2.3-.4.5-.7.7zm.5-1.2h-.2c-.1 0-.1 0 0 .2.2-.1.4-.3.6-.5.2-.2.3-.4.5-.6-.2.1-.3.3-.4.5s-.4.2-.5.4zm0-1.5c0 .1 0 .2-.1.3v.3c.1-.1.2-.2.2-.3.1-.1.1-.3-.1-.3zm.6-3.9V174c.1-.1.1-.3.2-.4l.3-.3.3-.3c.1-.1.2-.3.2-.4-.1 0-.2.1-.3.2-.1.1-.1.2-.2.3s-.1.2-.2.3c0 .1-.2.1-.3 0zm.9 6.5c-.1-.1-.1-.3-.1-.4 0-.1.1-.2.2-.4-.2 0-.3.1-.4.3-.1.2-.2.3-.3.4h.3s.1.1.3.1zm-.4-3.3c-.1 0-.2.1-.3.2.2 0 .3 0 .3-.2zm0-6c.1-.1.1-.1.1-.2s0-.1-.2-.2v.2c.1.1.1.1.1.2zm.3-2.3v.5l.2-.2c.1-.1.2-.1.3-.2.1-.1.2-.1.3-.1.1 0 .2 0 .3.1 0-.2.1-.4.1-.5 0-.2 0-.3.1-.5-.1 0-.2.1-.3.2-.1.1-.1.2-.2.3-.1.1-.1.2-.2.3s-.5.1-.6.1zm0 3.8c.1-.1.2-.2.3-.2.1-.1.2-.2.1-.4 0 .1-.1.2-.3.3-.1.1-.2.2-.1.3zm.5-2.1s.1 0 .1-.1c.1-.1.1-.1.1-.2 0 0 .1-.1.1-.2s0-.1-.1-.1c0 .1 0 .2-.1.3-.2.1-.2.2-.1.3zm.8 10.1c0-.2.1-.3.3-.5.2-.2.3-.3.4-.5-.1-.1-.3-.1-.4 0h-.4c.1.1.2.2.2.3-.1.1-.2.3-.3.5l.1.1.1.1zm.2-16c-.1 0-.1.1-.2.1 0 .1-.1.1-.1.2.2-.1.3-.2.3-.3zm1.8 5.9c0-.1.1-.2.2-.2 0-.1 0-.1-.1-.1l-.1-.1c.1-.6.2-1.1.2-1.6s.1-1.1.2-1.7h.2s.1.1.2.1c.2-.1.3-.1.4 0 .1 0 .2.1.3.2.1.8.3 1.5.4 2.2.1.7.3 1.4.6 2l-.1.1s-.1.1 0 .2c-.1 0-.1 0-.1-.1s0-.1-.1-.2c0 .1-.1.2-.3.1-.1-.1-.2-.1-.3-.1-.1.1-.2.2-.3.2-.1 0-.1-.1-.1-.2s0-.1-.1-.2h-.2-.2c0-.1-.1-.2-.1-.2-.1-.1-.1-.1-.2-.1s-.1-.1-.2-.1l-.2-.2zm1.2-2.3c-.1.1-.2.1-.3.2l-.3.3c.3-.1.5-.3.6-.5zm-.1 8.2s0-.1.1-.1l.1-.1h-.2c-.1 0-.1 0-.1.1l.1.1c-.1 0 0 0 0 0zm.2-6.8v.1h-.1-.1v.1c.1 0 .2-.1.2-.1.1 0 .1-.1.2-.1H73h-.1zm.6 1.3c0-.3-.1-.5-.2-.5s-.3.1-.5.3h.2c.1 0 .1-.1.2-.1s.1.1.1.2 0 .1.2.1zm.6 5.7c-.1.3-.3.5-.5.7-.2.2-.4.4-.5.7.2-.1.4-.3.6-.5.2-.3.4-.5.5-.7-.1-.1-.1-.1-.1-.2zm-.8 2.1c.2-.1.4-.2.6-.4l.6-.6c-.1 0-.1-.1-.1-.1 0-.1 0-.1-.1-.1-.2.2-.4.4-.5.6-.3.1-.4.4-.5.6zm1.3-.5c-.1.1-.1.2-.3.3-.1.1-.2.2-.4.3l-.3.3c-.1.1-.1.3 0 .4.1-.2.3-.4.5-.6s.4-.3.7-.3c-.1-.1-.1-.2-.1-.3 0 .1-.1 0-.1-.1zm-.6 2.4c.1-.3.3-.5.5-.6.2-.2.4-.3.6-.5 0-.2-.1-.3-.3-.3l-.4.4c-.1.1-.3.2-.4.3 0 .1 0 .1-.1.2s-.1.2-.2.2c0 .1.1.3.1.4.1.1.1.2.1.3.1-.1.1-.1.1-.2.1 0 .1-.1 0-.2zm2-.7h-.5c-.1.1-.3.1-.4.2l-.3.3c-.1.1-.2.2-.3.4.3-.1.6-.2.8-.4.2-.2.4-.4.7-.5zm.2.9v-.2-.1c0 .1-.1.1-.2.2-.1 0-.1.1-.2.2h.2c.1-.1.1-.1.2-.1zm.4-.7c0-.1.1-.1.2-.1s.1-.1.1-.2h-.3c0 .1 0 .1-.1.2 0 .1 0 .1.1.1zM83.5 163c0 .2 0 .3-.1.4.1.2.2.4.4.6.1.2.3.4.4.6.1-.1.2-.2.2-.3.1-.1.1-.2.3-.3.5-.1.9-.2 1.2-.4.3-.2.7-.3 1.1-.5h.1s0 .1.1.1c.2-.2.4-.2.7-.2h.8c.2.1.3.2.5.2h.6c.2 0 .5 0 .7-.1.2-.1.4-.1.6-.2l.2.2c0 .1.1.2.1.2l-.9 1.2-.9 1.2s-.1 0-.1.1-.1 0-.1 0c0 .2-.1.4-.2.5-.1.2-.2.3-.3.5-.1.2-.2.3-.3.5-.1.2-.2.3-.4.4-.2.4-.4.7-.6 1 0 .9-.1 1.8-.1 2.7-.1.9-.1 1.8-.1 2.8 0 .4 0 1-.1 1.5v1.5c0 .3 0 .5.1.8s0 .5-.1.7c0 .1 0 .1-.1.1s-.1 0-.2.1v.2c.1.1.1.1.1.2-.2.2-.4.5-.6.6-.2.2-.5.4-.7.6v.4c-.4.2-.6.1-.8-.2h-.5c-.2 0-.3 0-.4-.1-.3.1-.6.2-1 .2s-.7 0-1-.1c-.1-.1-.2-.2-.2-.4v-.4c0-.2 0-.3.1-.5v-.4c0-.1 0-.1-.1-.2 0-.1-.1-.1-.1-.2v-.2c0-.1.1-.1.1-.2 0-.2-.1-.3-.1-.4v-.5c0-.4 0-.9-.1-1.3-.1-.5-.1-1-.1-1.4v-1-1.2-1.2-1-.1-.1c0-.1-.1-.2-.1-.2-.1 0-.1-.1-.2-.2-.4-.4-.8-.9-1-1.5-.2-.2-.3-.4-.4-.6-.1-.2-.3-.4-.4-.6-.1 0-.1 0-.2-.1s-.1-.1-.2-.1c0-.1 0-.1-.1-.2s-.1-.1 0-.2c-.3 0-.5-.1-.5-.4-.1-.2-.2-.5-.2-.7 0-.1 0-.1-.1-.2v-.2c0-.1.1-.1.1-.2.1 0 .1-.1.2-.2.1-.2.3-.5.4-.8.1-.3.3-.5.4-.7.1 0 .2 0 .2.1s.1.1.2.1 0-.1 0-.1c-.1 0-.1-.1 0-.2.6 0 1.2-.1 1.8-.2s1.1-.1 1.8 0c-.2.1 0 .2.2.4zm-4.5 1.3c.1 0 .1-.1.2-.2l.2-.2c-.1 0-.2.1-.2.2l-.2.2zm1.3.8c-.1.1-.1.1-.2 0-.1.1-.1.2-.2.2s-.2.1-.3.1-.2.1-.3.2c-.1.1-.1.2-.1.3.2-.1.5-.2.7-.4.2-.1.3-.3.4-.4zm-1-.2c.1 0 .2-.1.3-.1.1-.1.2-.1.3-.1 0-.1-.1-.2-.2-.2-.1.1-.1.2-.2.2l-.2.2zm.3-1.4c.2.2.4.5.6.7s.4.5.6.7c.3.5.7 1 1.1 1.4.4.4.7.9 1 1.5.2.1.4.3.6.4s.3.3.4.6v2.7c0 .1 0 .3-.1.5h.1s.1 0 .1.1v1.4c0 .1 0 .2.1.3.1.3.1.6.1.9v.8c0 .2 0 .4.1.6s.1.4 0 .6c.1.1.1.2.1.4s-.1.4-.2.5v.4c0 .1 0 .3.1.5h1.2c.3 0 .8 0 1.3-.1.1 0 .1 0 .2.1s.1.1.1 0v-.8c0-.3-.1-.5-.1-.7 0-.8 0-1.5.1-2.2 0-.7.1-1.4.1-2.1 0-.7.1-1.4.1-2.1v-2.1c.1-.1.2-.1.2-.2s.1-.2.2-.2c.1-.3.2-.5.4-.6 0-.1 0-.2.1-.3l.2-.2c.1-.2.2-.4.4-.6.2-.2.3-.4.3-.5.3-.3.6-.6.8-1s.5-.7.8-1.1h-.4c-.1 0-.2.1-.4.1s-.4 0-.5-.1c-.2 0-.4-.1-.5-.1s-.4-.1-.5-.1-.4 0-.6.1c-.1.1-.1.2-.2.4s-.2.3-.3.3c0 .3-.1.5-.3.6 0 .1 0 .2-.1.3-.1.1-.2.2-.2.3 0 .1-.1.1-.1.2s0 .1-.1.2-.2.3-.3.5c-.1.2-.2.3-.3.4v.4c0 .1-.1.2-.3.2-.3-.3-.6-.7-.8-1.1-.2-.4-.4-.8-.7-1.2-.2-.3-.3-.5-.5-.7s-.3-.5-.4-.8c-.6 0-1.2 0-1.8.1-.8-.3-1.3-.3-1.8-.3zm.7 3.2c.1-.1.2-.1.2-.2-.1 0-.2.1-.2.2zm.4.4c-.1 0-.2.1-.3.1-.1 0-.1.1-.1.2.2-.1.4-.3.6-.4.2-.2.4-.3.6-.4 0-.1-.1-.1-.2-.2-.1.2-.2.3-.3.4s-.2.3-.3.3zm1 .2l-.6.3c-.2.1-.3.2-.4.4.3-.1.5-.2.7-.3.2-.1.4-.3.6-.5h-.2c-.1 0-.2.1-.1.1zm-.6 1.4c.1-.2.3-.3.5-.4.2-.1.4-.2.5-.4.1 0 .1-.1.2-.1s.1-.1 0-.1c-.2.1-.3.2-.5.3-.2.2-.4.3-.6.3 0 .1 0 .1-.1.2v.2zm1 6.9c.1 0 .2 0 .3-.1s.2-.1.2-.2c-.1 0-.2.1-.3.1l-.2.2zm.1 2.4c.2-.1.5-.2.7-.5-.2-.1-.3 0-.4.2s-.2.3-.3.3zm0-7.2c.2-.1.4-.2.6-.4s.3-.3.5-.3v-.1c0-.1 0-.1-.1 0-.1.2-.3.3-.5.4-.2 0-.4.2-.5.4zm0 3.2c.1 0 .2-.1.3-.2.1-.1.2-.1.3-.2.1-.1.2-.1.3-.2.1 0 .2-.1.3 0v-.2c-.5.3-.9.5-1.2.8zm.2-1.1c0 .1 0 .2-.1.3.2-.1.3-.2.5-.3l.6-.3v-.2-.2c-.4.1-.7.4-1 .7zm1.2 2.4l-.1.1c-.1.1-.1.1-.2 0-.1.1-.1.2-.2.3-.1.1-.2.1-.3.2-.1.1-.2.1-.3.2-.1.1-.2.2-.2.3.2-.1.4-.3.6-.5.2-.2.4-.3.7-.4v-.2c.1 0 .1 0 0 0zm-.7 3.7c-.1.2-.2.3-.3.3s-.2.2-.3.4c.3-.1.5-.3.7-.4.2-.2.4-.3.6-.6l-.1-.1c-.1.1-.4.3-.6.4zm-.5-.3c.2-.1.4-.3.5-.4.2-.1.4-.3.5-.4v-.1c-.2.2-.3.3-.6.5s-.3.2-.4.4zm.1-1.7c.2-.1.4-.2.5-.4.2-.1.4-.3.5-.4h.1c.1 0 .1 0 .1-.1-.3.1-.5.2-.7.4l-.5.5zm.1-1.7c.2-.1.3-.2.5-.3.2-.1.4-.2.5-.4l-.6.3c-.2.1-.3.2-.4.4zm0-4.1c.1-.1.2-.1.3-.2.1-.1.2-.1.4-.2v-.1-.1c-.1.1-.2.2-.4.3-.1.2-.2.3-.3.3zm1.3 7.9c-.1.2-.3.4-.6.5-.2.1-.4.3-.6.5.2 0 .4 0 .6-.1s.3-.2.4-.3c.1-.1.2-.2.4-.3.1-.1.2-.2.4-.3h-.3c-.2.1-.2.1-.3 0zm-.6-10v-.2-.1c-.1-.1-.1-.1-.2-.1s-.1-.1-.2-.1c0 .1.1.2.2.3.1 0 .1.1.2.2zm-.1 8.1c.1-.1.2-.1.3 0s.2 0 .3 0v-.2c0-.1 0-.1-.1-.2 0 .1-.1.2-.2.2s-.3.1-.3.2zm.8 2.8h.6c0-.1 0-.2.1-.3.1-.1.2-.2.3-.2.1-.1.2-.2.3-.2.1-.1.2-.2.2-.3-.2 0-.3.1-.5.2-.1.1-.2.2-.4.3l-.3.3s-.2.1-.3.2zm.8-15c0 .1 0 .2-.1.2-.1.1-.1.1-.1.2.3-.1.5-.2.7-.4.2-.2.5-.3.8-.3 0-.1.1-.1.2-.2s.1-.1 0-.1c-.2.1-.4.2-.7.3-.2.1-.5.2-.8.3zm.3 15.1h.1l.1-.1c-.1 0-.2 0-.2.1zm1.6-16.3c.1-.1.1-.1.1-.2 0 0-.1 0-.1-.1h-.1c.1.2.1.2.1.3-.1 0-.1 0 0 0zM103.1 179.1v.1s.1 0 .1.1c0 0 .1 0 .1.1v.1c-.3.1-.5.3-.7.5-.2.2-.3.4-.5.7-.1-.1-.2-.1-.3-.1s-.2.1-.3.1c-.3 0-.5 0-.7.1-.2 0-.5.1-.7.1h-.7c-.2 0-.5-.1-.7-.2-.2-.8-.5-1.7-.7-2.5s-.5-1.6-.7-2.5c-.1-.1-.1-.1-.2-.1s-.1-.1-.2-.1c-.1.3-.2.6-.3 1-.1.3-.1.7-.2 1s-.1.7-.2 1-.1.6-.2.9c-.2.1-.4.2-.5.4-.1.2-.2.4-.3.5H95s-.1 0-.1-.1c-.1 0-.1 0-.1.1s0 .1-.1.1c-.3-.1-.6-.1-.9-.1-.3 0-.6 0-.8-.2-.3.2-.6.2-1 .2s-.7 0-.9-.1c0-.2.1-.3.1-.5.1-.1.1-.3.2-.4v-.2c-.1 0-.1 0-.1-.1.1-.1.1-.3.1-.5s.1-.3.2-.4v-.4c0-.2 0-.3.1-.4.1-.5.2-.9.3-1.3s.2-.9.2-1.4c.1-.6.2-1.3.3-1.9.1-.6.2-1.3.3-1.9v-.4-.4c0-.3.1-.6.2-.8.1-.3.2-.5.2-.8v-1.2-1.4c.1-.1.2-.2.2-.3 0-.1 0-.2.1-.4h.2c.1 0 .1 0 .1.1.2-.1.4-.3.5-.5-.1.1-.3.2-.4.3-.2.1-.3.1-.5 0l.7-.7c.2-.2.5-.4.7-.7h.4c.1 0 .1-.1.2-.3.3 0 .5.1.6.3-.1.1-.2.2-.2.4s0 .3-.1.5c-.1.4-.2.8-.3 1.3-.1.5-.2.9-.2 1.4v.8c0 .3 0 .5-.2.7-.2 1.1-.3 2.2-.4 3.2-.1 1-.3 2-.5 3.1 0 .1 0 .2.1.2s.1 0 .1.1c-.1.6-.2 1.2-.4 1.7s-.3 1.1-.3 1.6c.1.1.3.1.5.1h1.2c.2 0 .4 0 .5.1.1-.3.2-.8.2-1.4.1-.6.2-1.1.3-1.7 0-.1.1-.3.1-.4 0-.2.1-.3.2-.4.1-.1.1-.2.2-.2s.2 0 .4.1v.3c0 .1-.1.1-.1.2h.7c.2 0 .5-.1.7-.1.2 0 .5-.1.7-.1s.5.1.7.2v.3c0 .1.1.2.1.2 0 .1.1.1.2.2s.1.1.1.2 0 .2-.1.2-.1.1-.1.2c.1.3.3.6.4 1 .1.4.2.7.3 1.1.1 0 .2-.1.3-.2.1-.1.2-.1.4-.1.1.1.1.1.1.2s0 .2-.1.2c.3 0 .5 0 .7.1s.4.1.6.2c-.1-.5-.2-1-.3-1.4-.1-.4-.2-.9-.2-1.4-.2-1.4-.4-2.8-.7-4.2-.3-1.3-.7-2.7-1-4.2v-.1-.1s0-.1-.1-.1-.1-.1-.1-.1c-.1-.3-.1-.6-.2-1 0-.3-.1-.7-.2-1-.1-.4-.3-.8-.5-1.1-.2-.3-.3-.7-.5-1-.1 0-.2.1-.3.1-.1 0-.2 0-.3-.1-.2 0-.4 0-.7.1-.3.1-.5.2-.8.2-.3 0-.5.1-.7 0-.2 0-.4-.2-.5-.4.6-.1 1.1-.2 1.7-.3.6-.1 1.2-.1 1.8-.1 0 .1.1.2.1.2v.2c.1 0 .1 0 .2.1 0 0 .1.1.2.1.2.6.5 1.3.7 2 .3.7.4 1.4.4 2.2.5 1.7 1 3.4 1.3 5.1.3 1.7.6 3.5.8 5.2.2.1.2.3.2.5.1.2 0 .4 0 .6zm-11.5.9c.2 0 .3-.1.5-.2l.3-.3c.1-.1.2-.2.3-.4.1-.1.2-.3.2-.4 0 0 0-.1-.1-.1-.2.2-.4.5-.5.7-.2.3-.4.5-.7.7zm.5-1.2h-.2c-.1 0-.1 0 0 .2.2-.1.4-.3.6-.5.2-.2.3-.4.5-.6-.2.1-.3.3-.4.5s-.4.2-.5.4zm0-1.5c0 .1 0 .2-.1.3v.3c.1-.1.2-.2.2-.3.1-.1.1-.3-.1-.3zm.6-3.9V174c.1-.1.1-.3.2-.4l.3-.3.3-.3c.1-.1.2-.3.2-.4-.1 0-.2.1-.3.2-.1.1-.1.2-.2.3s-.1.2-.2.3c0 .1-.2.1-.3 0zm.9 6.5c-.1-.1-.1-.3-.1-.4 0-.1.1-.2.2-.4-.2 0-.3.1-.4.3-.1.2-.2.3-.3.4h.3s.1.1.3.1zm-.4-3.3c-.1 0-.2.1-.3.2.2 0 .3 0 .3-.2zm0-6c.1-.1.1-.1.1-.2s0-.1-.2-.2v.2c0 .1.1.1.1.2zm.3-2.3v.5l.2-.2c.1-.1.2-.1.3-.2.1-.1.2-.1.3-.1.1 0 .2 0 .3.1 0-.2.1-.4.1-.5 0-.2 0-.3.1-.5-.1 0-.2.1-.3.2-.1.1-.1.2-.2.3-.1.1-.1.2-.2.3s-.5.1-.6.1zm0 3.8c.1-.1.2-.2.3-.2.1-.1.2-.2.1-.4 0 .1-.1.2-.3.3-.1.1-.2.2-.1.3zm.5-2.1s.1 0 .1-.1c.1-.1.1-.1.1-.2 0 0 .1-.1.1-.2s0-.1-.1-.1c0 .1 0 .2-.1.3-.2.1-.2.2-.1.3zm.8 10.1c0-.2.1-.3.3-.5.2-.2.3-.3.4-.5-.1-.1-.3-.1-.4 0h-.4c.1.1.2.2.2.3-.1.1-.2.3-.3.5l.1.1.1.1zm.2-16c-.1 0-.1.1-.2.1 0 .1-.1.1-.1.2.2-.1.3-.2.3-.3zm1.8 5.9c0-.1.1-.2.2-.2 0-.1 0-.1-.1-.1l-.1-.1c.1-.6.2-1.1.2-1.6s.1-1.1.2-1.7h.2s.1.1.2.1c.2-.1.3-.1.4 0 .1 0 .2.1.3.2.1.8.3 1.5.4 2.2.1.7.3 1.4.6 2l-.1.1s-.1.1 0 .2c-.1 0-.1 0-.1-.1s0-.1-.1-.2c0 .1-.1.2-.3.1-.1-.1-.2-.1-.3-.1-.1.1-.2.2-.3.2-.1 0-.1-.1-.1-.2s0-.1-.1-.2h-.2-.2c0-.1-.1-.2-.1-.2-.1-.1-.1-.1-.2-.1s-.1-.1-.2-.1l-.2-.2zm1.2-2.3c-.1.1-.2.1-.3.2l-.3.3c.3-.1.5-.3.6-.5zm-.1 8.2s0-.1.1-.1l.1-.1h-.2c-.1 0-.1 0-.1.1l.1.1c-.1 0 0 0 0 0zm.2-6.8v.1H98h-.1v.1c.1 0 .2-.1.2-.1.1 0 .1-.1.2-.1h-.1-.1zm.6 1.3c0-.3-.1-.5-.2-.5s-.3.1-.5.3h.2c.1 0 .1-.1.2-.1s.1.1.1.2c-.1.1 0 .1.2.1zm.6 5.7c-.1.3-.3.5-.5.7-.2.2-.4.4-.5.7.2-.1.4-.3.6-.5.2-.3.4-.5.5-.7-.1-.1-.1-.1-.1-.2zm-.8 2.1c.2-.1.4-.2.6-.4l.6-.6c-.1 0-.1-.1-.1-.1 0-.1 0-.1-.1-.1-.2.2-.4.4-.5.6-.3.1-.4.4-.5.6zm1.3-.5c-.1.1-.1.2-.3.3-.1.1-.2.2-.4.3l-.3.3c-.1.1-.1.3 0 .4.1-.2.3-.4.5-.6s.4-.3.7-.3c-.1-.1-.1-.2-.1-.3 0 .1-.1 0-.1-.1zm-.6 2.4c.1-.3.3-.5.5-.6.2-.2.4-.3.6-.5 0-.2-.1-.3-.3-.3l-.4.4c-.1.1-.3.2-.4.3 0 .1 0 .1-.1.2s-.1.2-.2.2c0 .1.1.3.1.4.1.1.1.2.1.3.1-.1.1-.1.1-.2.1 0 .1-.1 0-.2zm2-.7h-.5c-.1.1-.3.1-.4.2l-.3.3c-.1.1-.2.2-.3.4.3-.1.6-.2.8-.4.2-.2.4-.4.7-.5zm.2.9v-.2-.1c0 .1-.1.1-.2.2-.1 0-.1.1-.2.2h.2c.1-.1.1-.1.2-.1zm.4-.7c0-.1.1-.1.2-.1s.1-.1.1-.2h-.3c0 .1 0 .1-.1.2 0 .1 0 .1.1.1z"/><path class="st1" d="M110.6 165.8v-.1-.2c.2-.3.5-.7.8-1 .3-.3.5-.7.7-1.1h.2s.1 0 .1.1c0-.2.1-.3.2-.3s.1 0 .1.1l.1.1h.8c.3-.1.5-.1.8-.1h.4c.2 0 .3 0 .4-.1.1 0 .2 0 .3.2.1.3.1.6 0 .9-.1.3-.1.6-.1.9v1.1c0 .3 0 .6-.1.9 0 .1 0 .1.1.1s.1 0 .1.1v.6h.1v1.2c0 .1 0 .1.1.1V170.7c.1 0 .1.1.1.2v.3c0 .1 0 .2.1.3 0 .1 0 .3.1.4V173.8c0 .1 0 .2.1.3v.6c.1.1.1.2.1.4v2.4c0 .1 0 .1-.1.2.1.1.1.3.1.4 0 .2 0 .3-.1.4-.1 0-.1 0-.1-.1s0-.1-.1-.1v.2c.1.1.2.2.2.3-.1.2-.2.3-.4.5-.2.1-.3.3-.4.5-.1 0-.1.1-.2.1 0 .1-.1.1-.2.1-.1.2-.2.3-.3.3 0 .2-.1.3-.3.4-.2.1-.3.1-.5 0-.1 0-.2.1-.3.1h-.4c-.1 0-.1 0-.2.1-.1 0-.2.1-.3.1h-.3c-.1 0-.1-.1-.2-.2-.1 0-.1.1-.2.1 0 .1-.1.1-.2.1s-.1-.1-.2-.2v-.2-1-1c-.1.1-.2.2-.2.4s-.1.3-.3.3h-.1c0-.1 0-.1-.1-.1s-.2 0-.2.1c-.1.1-.1.2-.2.3-.1.1-.1.2-.2.3s-.1.1-.2.1-.1-.1-.1-.1c0-.1 0-.1-.1-.2-.1-.2-.2-.3-.3-.4-.1-.1-.2-.2-.4-.3l-.1-.1c-.1 0-.1 0-.1-.1l-.1-.1-.1-.1h-.1-.1c0-.1 0-.1-.1-.1s-.1 0-.2.1-.1.2-.2.2l-.2.2c-.1.1-.1.1-.2.1-.1.2-.2.3-.3.4s-.2.2-.3.4h-.4c-.1 0-.2 0-.2-.1s-.1-.1-.2-.1h-.1-.1s-.1 0-.1-.1h-.1s-.1 0-.1.1h-1.1s-.1 0-.1.1l-.1.1h-.3c-.1 0-.2 0-.3.1-.1-.1-.2-.2-.2-.3-.1-.1-.1-.2-.2-.4 0-.1 0-.1.1-.1 0 0 .1-.1.1-.2s0-.3-.1-.4v-.4h-.1c0 .1-.1.1-.2 0v-.1-.1h-.2c-.1 0-.1 0-.1-.1s.1-.1.1-.2c.1 0 .1-.1.1-.1l.1-.1c0-.1.1-.1.1-.1 0-.5-.1-1.1-.1-1.7V174l-.1-.1s0-.1-.1-.1c0 0 0-.1.1-.1v-.1c0-.2 0-.5-.1-.7-.1-.2-.1-.5-.1-.7v-.9-.8-.1-.1s0-.1-.1-.1v-.1-.7c0-.2.1-.4 0-.6v-.1-.1-.7-.7c0-.1 0-.2-.1-.3 0-.1-.1-.3-.1-.4 0-.1 0-.1-.1-.2 0-.1-.1-.1-.1-.2s0-.1.1-.2l.1-.1v-.2c0-.1 0-.2.1-.2l-.1-.1-.1-.1c.1-.2.3-.4.4-.6.1-.2.3-.3.4-.5 0-.1 0-.2.1-.4 0 0 0-.1.1-.1h.1v-.1-.1l.3-.3c.1-.1.2-.2.2-.3h.2s.1 0 .1.1c.1-.1.1-.1.2-.1h.4c.1 0 .3 0 .5-.1h.4c.1 0 .2.1.4.1.1 0 .2 0 .4-.1h.4c.2 0 .4.1.5.2l.4.4v.1l-.1.1c.1.5.1 1 .3 1.4.1.4.3.9.4 1.3l.3 1.2c.1.4.2.8.2 1.2v-.1-.2c0-.1 0-.1.1-.2l.1-.1c.1-.5.2-.9.3-1.3l.3-1.2c.6.1.6.2.7.3 0-.1 0 0 0 0zm-6.2-.7c-.1.1-.1.2-.1.2 0 .1-.1.1-.1.2h-.1-.1v.2l-.2.2c-.1 0-.1.1-.1.2.1-.1.2-.3.4-.4.1-.1.3-.2.4-.4l.2-.2c.1 0 .1-.1.1-.1v-.2c0-.1 0-.2-.1-.2-.1.1-.1.2-.2.2s0 .2-.1.3zm-.7.4c.1-.1.1-.2.2-.3.1-.1.1-.2.1-.3-.1.1-.1.2-.2.3 0 .1 0 .2-.1.3zm.4 1.2c0 .1-.1.2-.2.2s-.1.1-.1.3c.1-.1.3-.2.4-.3.1-.1.2-.3.3-.4-.1-.1-.2-.1-.3 0-.1-.1-.2 0-.1.2zm-.2 4.1h.1s0-.1.1-.1c-.1-.1-.2-.3-.1-.4-.1 0-.1 0-.1-.1 0 0 0-.1-.1-.1 0 .2 0 .4.1.7zm0-1c.1 0 .1-.1.2-.1 0-.1.1-.1.2-.1 0-.1.1-.2.2-.2l.1-.1c-.1.1-.2.2-.4.3-.3 0-.3.1-.3.2zm0 1.7v.2s0 .1.1.2c.1-.2.3-.4.4-.6s.3-.4.4-.6v-.1-.1s.1-.1.2-.1c.1-.1.1-.1 0-.1l-.6.6c-.2.1-.3.3-.5.6zm0 1.3c.1 0 .2-.1.2-.2-.1 0-.1 0-.1-.1s0-.1-.1-.1v.4zm.1 2.7c.1-.1.2-.1.2-.2.1-.1.1-.2.2-.2 0-.1 0-.1-.1-.1s0-.1 0-.1h-.1-.1v-.1s0-.1-.1-.1c-.1.1-.2.2-.1.4s.2.3.1.4zm.4 3.4c0 .1-.1.2-.2.3-.1 0-.1.2-.1.3.1 0 .2-.1.3-.2.1-.1.1-.2.2-.3.1-.1.2-.2.2-.3.1-.1.1-.2.2-.3-.1 0-.2.1-.3.3 0 0-.1.1-.3.2zm.6-11v-.2h-.1-.1c-.1.1-.1.2-.2.2s-.1.1-.2.3c-.1 0-.2.1-.2.1-.1 0-.1.1-.2.2.2 0 .4-.1.5-.2.2-.2.3-.3.5-.4zm-.5 10c0 .1-.1.2-.1.2s-.1.1-.2.1v.2c0 .1 0 .1-.1.1.1 0 .2 0 .2-.1.1-.1.1-.2.2-.3l.3-.3c.1-.1.1-.2.1-.4-.1.3-.2.5-.4.5zm-.3-8.8c.1.1.1 0 .1 0 .1 0 .1-.1.2-.2s.2-.2.3-.2c.1 0 .1.1.2.1v-.3-.2c-.2.1-.3.2-.4.4-.1.2-.3.3-.4.4zm0 8.4c.2 0 .3-.1.4-.2.1-.1.2-.2.4-.2v-.2c0-.1 0-.1-.1-.1-.1.1-.2.2-.4.3-.1.2-.2.3-.3.4zm.6-10.5c-.1.1-.1.2-.2.3l-.3.3c.1 0 .2-.1.3-.2.1-.1.2-.1.3-.2-.1 0-.1 0-.1-.1s.1-.1.1-.1h-.1zm-.5-.9c.1 0 .2 0 .3-.1.1 0 .2 0 .3.1v-.3c0-.1 0-.2-.1-.3-.1.1-.2.2-.2.3-.1.2-.2.2-.3.3zm.2 8c0-.1.1-.1.2-.1s.1 0 .2-.1c.1 0 .1-.1.1-.1s.1-.1 0-.2c-.1.1-.2.1-.3.2-.1.1-.2.2-.2.3zm0 2.6c.1 0 .2-.1.3-.2.1-.1.1-.2.1-.2l-.2.2-.2.2zm.1-12.5h.2c0-.1 0-.2-.1-.2 0 .1 0 .1-.1.1v.1zm0 8c.1.1.1.1.1 0l.1-.1c.1 0 .1 0 .1.1 0 0 0 .1.1.1v-.3-.3l-.2.2c-.1.1-.1.2-.2.3zm0 2.4h.2c0-.1.1-.1.2 0v-.1-.1c0 .1-.1.1-.2.1s-.2 0-.2.1zm.3-5c-.1 0-.1.1-.2.2l-.1.1c.1-.1.1-.1.2 0 .1 0 .1.1.2.1 0-.1 0-.3-.1-.4.1-.2.1-.3.1-.5 0 0 0 .1-.1.1 0 0-.1.1-.1.2.1 0 .1.1.1.1v.1zm.7 8.8c-.1.2-.2.4-.3.5-.2.1-.3.3-.4.5h.2c0-.2.1-.4.3-.6.2-.2.3-.3.4-.5-.1-.1-.1-.1-.1 0s0 .1-.1.1zm-.4-15.1l-.1-.1v.9c0 .2 0 .5.1.7 0 .2.1.3.1.5s0 .3.1.5v.7c0 .2 0 .4.1.6-.1.1-.1.2-.1.3v1.1c.1 1.5.1 3 0 4.6-.1 1.6-.1 3.1 0 4.6H106.9c.1 0 .1 0 .2-.1h.8v-1.2-1-.7c0-.2 0-.4-.1-.7v-.2-.2s0-.1-.1-.1v-.2c.1-.1.3-.1.4 0s.2.1.3.2c0 .1.1.1.1.2s.1.1.1.1c.1 0 .1.1.1.1.1.1.2.2.2.3s.1.2.2.3c.2.2.3.5.5.6.2.2.3.4.4.6.1 0 .2.1.3.2.1.1.1.2.3.2.1-.1.2-.3.3-.4.1-.2.2-.3.3-.4 0-.2.1-.3.2-.4.1-.1.1-.2.2-.3l.3-.3c.1-.1.2-.2.3-.2.1 0 .2 0 .3.1l.2.2v.2c0 .1-.1.2-.1.2.1.1.1.2.1.3v.3c0 .3 0 .6.1.9 0 .3.1.6.1.9 0 .1.1.2.1.3 0 .1.1.2.1.3v.4c0 .1 0 .3.1.4.1 0 .1-.1.2-.1s.1-.1.2-.1.1 0 .1.1.1.1.1.1c.3 0 .6-.1.8-.2s.5-.1.8-.1c0-.6-.1-1.2-.1-1.9s0-1.4-.1-2v-.5-.5c0-.5 0-.9-.1-1.3v-1.2-.5-.5-.8-.8-.8-.7c0-.5 0-1.1.1-1.6v-1.6c-.1.1-.1.1-.2 0s-.1-.1-.2-.1h-.6c-.2 0-.4 0-.6.1h-.5c-.2 0-.3 0-.4-.1-.1.3-.1.5-.2.8-.1.3-.1.5-.2.8v.2c0 .1-.1.2-.1.3-.1.4-.2.8-.2 1.2-.1.4-.1.8-.2 1.2-.1.3-.2.7-.2 1.1-.1.4-.1.7-.1 1.1-.1.1-.1.2-.1.3v.3c0 .1-.1.2-.1.3 0 .1 0 .2-.1.4 0 .2-.1.5-.2.7-.1.2-.1.4-.2.6 0 .1-.1.3-.1.4s-.1.2-.2.3c-.2-.1-.4-.2-.5-.3 0-.3-.1-.5-.2-.8-.1-.3-.1-.5-.2-.7v-.2-.2c0-.1 0-.1-.1-.2 0 0 0-.1-.1-.2v-.2-.2c0-.1 0-.2-.1-.2 0-.1-.1-.1-.1-.2s-.1-.2-.1-.3 0-.2-.1-.3c0-.2-.1-.4-.1-.5 0-.2-.1-.3-.1-.5-.1-.4-.2-.9-.3-1.2l-.3-1.2c-.2-.4-.3-.9-.4-1.4s-.2-.9-.3-1.4h-2.3zm0 14.9c.1 0 .1-.1.1-.2h-.1c-.1 0 0 0 0 0 .1.1.1.1 0 .2 0-.1 0-.1 0 0zm1.4 0l-.5.5c-.2.2-.3.4-.4.6h.2c.1-.1.2-.2.2-.3.1-.1.1-.2.2-.2l.1-.1.1-.1c.1-.1.2-.1.2-.2.1-.1.1-.1.1-.2h-.1-.1zm-.1 1.1v.1s0 .1.1 0c.1-.2.3-.4.4-.5.2-.1.3-.3.5-.5 0-.1 0-.1-.1-.1-.1.2-.3.3-.5.5s-.3.3-.4.5zm1.2-1.1c.1 0 .1 0 0 0h0c.1 0 0 0 0 0zm.8-3.6s.1-.1.1-.2 0-.1.1-.2l-.1-.1-.1-.1v.3c0 .1-.1.2 0 .3zm.4 1.9l.1.1-.1.1-.1.1h-.1-.1V177.1h.2v-.1-.1l.3-.3.3-.3c.1-.1.2-.1.3-.2s.1-.1.1-.2c-.2.1-.3.2-.5.3s-.3.1-.4.3zm-.4-1.2l.3-.3c.1-.1.2-.2.2-.3h-.1c0 .1-.1.2-.2.3s-.2.2-.2.3zm.4.4l-.2.2c-.1.1-.1.1 0 .2.1 0 .1 0 .2-.1l.2-.2c.1-.1.3-.2.4-.3.1-.1.1-.2-.1-.3-.1.1-.2.1-.2.2-.2.1-.3.2-.3.3zm.5 1.3s0 .1 0 0c-.1.1-.1.1-.1.2-.1 0-.1.1-.2.2l-.2.2v.4c0 .1-.1.1-.1.1l-.1.1c.1 0 .1 0 .2.1s.1.1.1 0v-.1c-.1 0-.2 0-.2-.1 0 0 .1 0 .1-.1s0-.1.1-.1v-.1s.1 0 .1-.1c.1-.2.2-.4.4-.6s.3-.3.4-.5c.1-.1.1-.1.2-.1s.1-.1.1-.2c-.2.1-.3.2-.4.3-.1.2-.2.3-.4.4zm1.5.2c-.2.1-.3.3-.4.4l-.4.4h-.1v.1c-.1 0-.1.1-.1.1.1 0 .1 0 .1.1l-.1.1v.1s.1 0 .1.1l-.1.1-.1.1c.1.1.1.2.2.3 0 .1.1.2.2.1 0 0 0-.1-.1-.1s-.1-.1-.1-.2c.1-.3.3-.6.5-.8.2-.3.4-.5.6-.8-.1 0-.1 0-.2-.1.1 0 0 0 0 0zm-1.3.7c.1 0 .1-.1.2-.1 0-.1 0-.1.1-.1l.3-.3c.1-.1.2-.2.3-.4-.2.1-.4.3-.5.4-.1.1-.3.3-.4.5zm.2-8.1h.1s0-.1.1 0v-.2s-.1-.1-.1-.2h-.1-.1c0 .1 0 .2.1.2.1.1.1.2 0 .2zm1.4-1.9s-.1 0-.1.1c-.1.1-.1.1-.2.1-.1.1-.3.2-.5.3-.2.1-.3.2-.3.3.2-.1.4-.2.5-.4.2-.2.4-.2.7-.1v-.2c0-.1-.1-.1-.1-.1zm-1.1 2.7c.1-.1.2-.1.4-.2s.3-.2.3-.4c.1 0 .2 0 .3-.1v-.1-.1c-.1.1-.2.2-.3.2-.1.1-.2.1-.3.2-.1.1-.2.1-.3.2-.1.1-.1.2-.1.3zm.1.6v.4c0 .1 0 .2.1.3v-.2c0-.1 0-.1-.1-.1 0-.2 0-.3.1-.4s.3-.2.4-.3v-.1s0-.1 0 0l-.3.3c.1 0 0 0-.2.1zm.3-3.4h-.1-.1c0 .1 0 .1.1.1l.1-.1zm.6 10l-.3.3c-.1.1-.2.2-.3.2.1 0 0 .1 0 .1-.1 0-.1.1-.1.1l.3-.3c.1-.1.2-.2.4-.3.1 0 .1-.1 0-.1zm-.4-8.9l-.1.1c-.1 0-.1.1 0 .1.1-.1.2-.2.3-.2.1-.1.2-.1.3-.2-.1 0-.2.1-.2.1-.2 0-.2 0-.3.1zm.3.4h.2v-.1c-.1.1-.1.1-.2.1zm.2-2h.4s0-.1.1-.2 0-.2 0-.2l-.2.2c-.2.1-.3.2-.3.2zm.9 7.6c-.1.2-.3.3-.4.5-.1.2-.2.3-.4.5 0 .1 0 .2-.1.3-.1.1-.1.2-.1.3.2-.2.4-.4.5-.6.1-.2.3-.5.4-.7 0 0 .1-.1.2-.1.1-.1.1-.1-.1-.2zm-.8-8.9l.1-.1c0-.1.1-.1 0-.1h-.1v.2c-.1-.1-.1 0 0 0zm.4 10.7c-.1 0-.1 0 0 0-.1 0-.1.1-.2.2s-.1.3-.1.4l.3-.3c.1-.1.1-.2.2-.3.1-.2.2-.3.3-.3.1-.1.1-.2 0-.4-.1.1-.2.3-.2.4-.1 0-.2.1-.3.3zm-.2-10.9c.1-.1.2-.1.2-.1l.2-.2c-.1 0-.3.1-.4.3zm.5 11.4l-.2.2c-.1.1-.1.1-.1.2 0-.1.1-.1.1-.2.1-.1.2-.1.2-.2.1-.1.2-.1.2-.2s.1-.1.1-.2v-.1c0-.1 0-.1-.1-.1l-.2.2c.1.3 0 .4 0 .4zm-.3 1.2v.2c0-.1 0-.1.1-.2 0 0 0-.1.1-.2 0 .1-.1.1-.2.2.1-.1 0-.1 0 0zm1 .6l-.3.3c-.1.1-.2.2-.2.4-.1.1-.2.1-.3.1-.1-.1-.2-.1-.2-.2v.9c.2-.1.3-.2.5-.4s.2-.3.4-.5c.1-.1.1-.2.2-.2s.1-.1.1-.2c-.1-.2-.1-.2-.2-.2.1 0 .1 0 0 0zm-.8 0s0-.1-.1-.1v.5c0-.1.1-.1.1-.2l.1-.1c0-.1 0-.1-.1-.1.1 0 0 .1 0 0zm0-14.4c.1 0 .2 0 .3-.1v-.2c.1-.1.1-.1 0-.2 0 .1-.1.2-.1.3-.1.1-.2.1-.2.2zm.3 13.3c.1-.1.2-.1.2-.1s.1-.1.1-.2c-.1 0-.2.1-.2.1-.1 0-.1.1-.1.2zm.1.9c.1 0 .2-.1.3-.2s.1-.2 0-.3c-.1.1-.1.2-.2.2-.2.1-.2.1-.1.3zm.7 1.3v.1s0 .1-.1.1-.2-.1-.2-.3c-.1 0-.2.1-.2.2s-.1.1-.2.2c.1 0 .1.1.1.2.2-.1.4-.1.7-.2.2 0 .4-.1.5-.3-.1 0-.1 0-.1-.1s0-.1-.1-.1c-.1.1-.2.1-.2.2-.1-.1-.1 0-.2 0zm0-.4c.1-.1.3-.2.5-.3.2-.1.3-.2.4-.3h-.1-.2l-.3.3c-.1.1-.3.2-.3.3zm1.1.3l-.2.2c-.1 0-.1.1-.2.2.1 0 .2-.1.3-.2.1-.1.1-.2.2-.3 0 0-.1 0-.1.1zm.8-.8c.1.1.1 0 0 0 .1-.1.1-.1 0 0 0 .1 0 .1 0 0zm.3-.3s.1 0 0 0l.1-.1h-.1c.1 0 .1 0 0 .1zM128 179.1v.1s.1 0 .1.1c0 0 .1 0 .1.1v.1c-.3.1-.5.3-.7.5-.2.2-.3.4-.5.7-.1-.1-.2-.1-.3-.1s-.2.1-.3.1c-.3 0-.5 0-.7.1-.2 0-.5.1-.7.1h-.7c-.2 0-.5-.1-.7-.2-.2-.8-.5-1.7-.7-2.5-.3-.8-.5-1.6-.7-2.5-.1-.1-.1-.1-.2-.1s-.1-.1-.2-.1c-.1.3-.2.6-.3 1-.1.3-.1.7-.2 1s-.1.7-.2 1c-.1.3-.1.6-.2.9-.2.1-.4.2-.5.4s-.2.4-.3.5h-.2s-.1 0-.1-.1c-.1 0-.1 0-.1.1s0 .1-.1.1c-.3-.1-.6-.1-.9-.1-.3 0-.6 0-.8-.2-.3.2-.6.2-1 .2s-.7 0-.9-.1c0-.2.1-.3.1-.5.1-.1.1-.3.2-.4v-.2c-.1 0-.1 0-.1-.1.1-.1.1-.3.1-.5s.1-.3.2-.4v-.4c0-.2 0-.3.1-.4.1-.5.2-.9.3-1.3s.2-.9.2-1.4c.1-.6.2-1.3.3-1.9.1-.6.2-1.3.3-1.9v-.4-.4c0-.3.1-.6.2-.8s.2-.5.2-.8v-1.2-1.4c.1-.1.2-.2.2-.3 0-.1 0-.2.1-.4h.2c.1 0 .1 0 .1.1.2-.1.4-.3.5-.5-.1.1-.3.2-.4.3-.2.1-.3.1-.5 0l.7-.7c.2-.2.5-.4.7-.7h.4c.1 0 .1-.1.2-.3.3 0 .5.1.6.3-.1.1-.2.2-.2.4s0 .3-.1.5c-.1.4-.2.8-.3 1.3-.1.5-.2.9-.2 1.4v.8c0 .3 0 .5-.2.7-.2 1.1-.3 2.2-.4 3.2-.1 1-.3 2-.5 3.1 0 .1 0 .2.1.2s.1 0 .1.1c-.1.6-.2 1.2-.4 1.7s-.3 1.1-.3 1.6c.1.1.3.1.5.1h1.2c.2 0 .4 0 .5.1.1-.3.2-.8.2-1.4.1-.6.2-1.1.3-1.7 0-.1.1-.3.1-.4 0-.2.1-.3.2-.4.1-.1.1-.2.2-.2s.2 0 .4.1v.3c0 .1-.1.1-.1.2h.7c.3 0 .5-.1.7-.1.2 0 .5-.1.7-.1s.5.1.7.2v.3c0 .1.1.2.1.2 0 .1.1.1.2.2s.1.1.1.2 0 .2-.1.2-.1.1-.1.2c.1.3.3.6.4 1 .1.4.2.7.3 1.1.1 0 .2-.1.3-.2.1-.1.2-.1.4-.1.1.1.1.1.1.2s0 .2-.1.2c.3 0 .5 0 .7.1s.4.1.6.2c-.1-.5-.2-1-.3-1.4-.1-.4-.2-.9-.2-1.4-.2-1.4-.4-2.8-.7-4.2-.3-1.3-.7-2.7-1-4.2v-.1-.1s0-.1-.1-.1-.1-.1-.1-.1c-.1-.3-.1-.6-.2-1 0-.3-.1-.7-.2-1-.1-.4-.3-.8-.5-1.1-.2-.3-.3-.7-.5-1-.1 0-.2.1-.3.1-.1 0-.2 0-.3-.1-.2 0-.4 0-.7.1-.3.1-.5.2-.8.2-.3 0-.5.1-.7 0-.2 0-.4-.2-.5-.4.6-.1 1.1-.2 1.7-.3s1.2-.1 1.8-.1c0 .1.1.2.1.2v.2c.1 0 .1 0 .2.1 0 0 .1.1.2.1.2.6.5 1.3.7 2 .3.7.4 1.4.4 2.2.5 1.7 1 3.4 1.3 5.1.3 1.7.6 3.5.8 5.2.2.1.2.3.2.5v.6zm-11.5.9c.2 0 .3-.1.5-.2l.3-.3c.1-.1.2-.2.3-.4.1-.1.2-.3.2-.4 0 0 0-.1-.1-.1-.2.2-.4.5-.5.7-.2.3-.4.5-.7.7zm.5-1.2h-.2c-.1 0-.1 0 0 .2.2-.1.4-.3.6-.5.2-.2.3-.4.5-.6-.2.1-.3.3-.4.5-.2.1-.4.2-.5.4zm0-1.5c0 .1 0 .2-.1.3v.3c.1-.1.2-.2.2-.3.1-.1.1-.3-.1-.3zm.6-3.9V174c.1-.1.1-.3.2-.4l.3-.3.3-.3c.1-.1.2-.3.2-.4-.1 0-.2.1-.3.2s-.1.2-.2.3c-.1.1-.1.2-.2.3-.1.1-.2.1-.3 0zm.9 6.5c-.1-.1-.1-.3-.1-.4 0-.1.1-.2.2-.4-.2 0-.3.1-.4.3-.1.2-.2.3-.3.4h.3s.1.1.3.1zm-.4-3.3c-.1 0-.2.1-.3.2.2 0 .3 0 .3-.2zm0-6c.1-.1.1-.1.1-.2s0-.1-.2-.2v.2c0 .1.1.1.1.2zm.3-2.3v.5l.2-.2c.1-.1.2-.1.3-.2.1-.1.2-.1.3-.1s.2 0 .3.1c0-.2.1-.4.1-.5 0-.2 0-.3.1-.5-.1 0-.2.1-.3.2-.1.1-.1.2-.2.3-.1.1-.1.2-.2.3-.3 0-.5.1-.6.1zm0 3.8c.1-.1.2-.2.3-.2s.2-.2.1-.4c0 .1-.1.2-.3.3s-.2.2-.1.3zm.5-2.1s.1 0 .1-.1c.1-.1.1-.1.1-.2 0 0 .1-.1.1-.2s0-.1-.1-.1c0 .1 0 .2-.1.3-.2.1-.2.2-.1.3zm.8 10.1c0-.2.1-.3.3-.5.2-.2.3-.3.4-.5-.1-.1-.3-.1-.4 0h-.4c.1.1.2.2.2.3-.1.1-.2.3-.3.5l.1.1c0 .1.1.1.1.1zm.2-16c-.1 0-.1.1-.2.1 0 .1-.1.1-.1.2.2-.1.3-.2.3-.3zm1.8 5.9c0-.1.1-.2.2-.2 0-.1 0-.1-.1-.1l-.1-.1c.1-.6.2-1.1.2-1.6s.1-1.1.2-1.7h.2s.1.1.2.1c.2-.1.3-.1.4 0 .1 0 .2.1.3.2.1.8.3 1.5.4 2.2.1.7.3 1.4.6 2l-.1.1s-.1.1 0 .2c-.1 0-.1 0-.1-.1s0-.1-.1-.2c0 .1-.1.2-.3.1-.1-.1-.2-.1-.3-.1-.1.1-.2.2-.3.2-.1 0-.1-.1-.1-.2s0-.1-.1-.2h-.4c0-.1-.1-.2-.1-.2s-.1-.1-.2-.1-.1-.1-.2-.1l-.2-.2zm1.2-2.3c-.1.1-.2.1-.3.2l-.3.3c.3-.1.5-.3.6-.5zm-.1 8.2s0-.1.1-.1l.1-.1h-.2c-.1 0-.1 0-.1.1l.1.1c-.1 0-.1 0 0 0zm.2-6.8v.1h-.1-.1v.1c.1 0 .2-.1.2-.1.1 0 .1-.1.2-.1h-.1-.1zm.6 1.3c0-.3-.1-.5-.2-.5-.2 0-.3.1-.5.3h.2s.1-.1.2-.1c0 0 .1.1.1.2-.1.1 0 .1.2.1zm.6 5.7c-.1.3-.3.5-.5.7-.2.2-.4.4-.5.7.2-.1.4-.3.6-.5.2-.3.4-.5.5-.7-.1-.1-.1-.1-.1-.2zm-.9 2.1c.2-.1.4-.2.6-.4l.6-.6c-.1 0-.1-.1-.1-.1 0-.1 0-.1-.1-.1-.2.2-.4.4-.5.6-.2.1-.3.4-.5.6zm1.4-.5c-.1.1-.1.2-.3.3-.1.1-.2.2-.4.3l-.3.3c-.1.1-.1.3 0 .4.1-.2.3-.4.5-.6s.4-.3.7-.3c-.1-.1-.1-.2-.1-.3s-.1 0-.1-.1zm-.6 2.4c.1-.3.3-.5.5-.6.2-.2.4-.3.6-.5 0-.2-.1-.3-.3-.3l-.4.4c-.1.1-.3.2-.4.3 0 .1 0 .1-.1.2s-.1.2-.2.2c0 .1.1.3.1.4.1.1.1.2.1.3.1-.1.1-.1.1-.2.1 0 0-.1 0-.2zm2-.7h-.5c-.1.1-.3.1-.4.2l-.3.3c-.1.1-.2.2-.3.4.3-.1.6-.2.8-.4.2-.2.4-.4.7-.5zm.2.9v-.2-.1c0 .1-.1.1-.2.2-.1 0-.1.1-.2.2h.2c.1-.1.1-.1.2-.1zm.4-.7c0-.1.1-.1.2-.1s.1-.1.1-.2h-.3c0 .1 0 .1-.1.2 0 .1 0 .1.1.1zM147.3 167.9c-.3.2-.5.3-.7.6-.2.2-.5.4-.8.5-.1.1-.1.2-.2.3-.4-.2-.8-.4-1.1-.8h-.4c-.1 0-.2-.1-.2-.2 0 1-.1 2 0 3s.1 2 .2 3v.1s-.1.1 0 .1c.2-.1.4-.1.7-.2.3 0 .5-.1.7-.3.1.1.2.1.3.1s.1 0 .2-.1c.4.1.8.1 1.2.2.4 0 .8.2 1.1.3 0 .2-.1.4-.2.6l-.3.6c0 .1-.1.3-.1.4s-.1.3-.1.4c0 .1-.1.2-.1.2 0 .1-.1.1-.1.2v.6c0 .1-.1.2-.1.3s-.1.2-.1.3c0 .1-.1.2-.1.3 0 .1 0 .2-.1.3 0 0 0 .1-.1.1l-.1.1c-.1.1-.1.2-.1.3 0 .1-.1.2-.2.2V179.7c-.1 0-.3.1-.4.2-.1.1-.2.2-.4.3-.1 0-.1.1-.2.1s-.1.1-.2.1c-.1.1-.3.2-.4.2s-.4.1-.6.1h-.2c-.1 0-.1 0-.2-.1h-.8c-.3 0-.5 0-.8-.1-.1 0-.2-.1-.3-.1-.1-.1-.2-.1-.3-.2-.1-.1-.2-.1-.3-.1s-.2-.1-.3-.1c-.2-.1-.3-.3-.4-.4s-.2-.2-.4-.3c-.1-.2-.2-.3-.3-.4-.1-.1-.2-.3-.3-.5-.1-.2-.2-.5-.2-.8 0-.3 0-.7-.1-1 0-.2 0-.4-.1-.5 0-.2-.1-.3-.1-.5v-.6-.6-1.5c0-.5 0-1.1.1-1.6v-.4-.4-.2-.3c0-.5.1-1 .1-1.5s.1-1 .2-1.5v-.1-.1c.1-.2.1-.4.2-.7 0-.3.1-.5.2-.7 0-.1.1-.1.1-.1.1 0 .1 0 .2-.1.4-.3.9-.6 1.3-.9s.9-.6 1.2-1h.3c.2-.2.5-.3.8-.3.3-.1.6-.1.9 0 .3 0 .6.1.8.3.2.1.4.3.5.5v.2c0 .1.1.1.2.2s.1.2.2.3v.2c.1.4.3.8.5 1.2.2.4.3.8.4 1.1v.7c-.2 0-.2.1-.1.2zm-7.6 4.6c.1 0 .2-.1.2-.2.1-.1.1-.2.2-.3-.1 0-.2 0-.2-.1s-.1-.1-.2-.1v.4c.1.1 0 .2 0 .3zm.1.8c0-.1 0-.1.1-.1v-.1h-.1-.1v.2h.1zm.2.5h-.3v.4c.2-.2.3-.4.5-.5l.5-.5c0-.1 0-.2-.1-.2-.1.1-.2.2-.3.4-.2.2-.2.3-.3.4zm-.2-2.3c.1-.1.1-.2.1-.2 0-.1 0-.1-.1-.2v.2c-.1.1-.1.2 0 .2zm.1 3.3c-.1 0-.1 0-.2-.1V175l.3-.3c.1-.1.3-.2.4-.3l.3-.3c.1-.1.1-.2 0-.3-.1.2-.3.4-.4.5-.2.1-.3.3-.4.5zm.5.3l.1-.1.1-.1c-.1 0-.1 0-.2.1s0 0 0 .1c-.2.1-.3.2-.4.2s-.2.2-.2.3c.1-.1.2-.1.3-.2 0-.1.1-.2.3-.3zm-.2-7.1c-.1 0-.1-.1-.1-.1l-.1-.1v.3c0 .1 0 .2-.1.2.1-.1.3-.2.4-.3.2-.1.3-.2.4-.3-.1 0-.2.1-.2.1-.1.1-.2.2-.3.2zm-.3 9c.1 0 .1 0 .1-.1 0 0 0-.1.1-.1-.1-.1-.1-.1-.2-.1v.3zm.1-8.1c.1 0 .2 0 .3-.1.1-.1.2 0 .3 0v-.3-.2c-.1.1-.2.2-.4.2-.1.2-.2.3-.2.4zm0 .7c0-.1.1-.1.1-.1.1 0 .1 0 .1-.1-.1 0-.2 0-.2.1v.1zm.2 8.9c0-.1.1-.2.1-.2.1-.1.1-.1.1-.2-.1.1-.2.1-.3.1-.1 0-.2-.1-.2-.1 0 .1.1.1.1.2l.2.2zm.4-12.4l-.3.3c-.1.1-.2.2-.2.4l.3-.3.3-.3.3-.3c.1-.1.1-.2.2-.4l-.3.3-.3.3zm-.5 4.1c.1 0 .2-.1.3-.2.1-.1.1-.2 0-.3 0 .1-.1.1-.2.2 0 .1 0 .2-.1.3zm.1 1.7c0-.1.1-.1.3-.2v-.4c-.1 0-.2.1-.3.2-.1.2-.1.3 0 .4zm0-.9c.1 0 .1 0 .2-.1 0 0 .1-.1.2-.1v-.1s0-.1-.1-.1c0 .1-.1.1-.2.2-.1 0-.1.1-.1.2zm0-5.2c.1 0 .2 0 .2-.1s.1-.1.2-.2l.2-.2c.1-.1.1-.1.1-.2-.1.1-.2.2-.4.3-.1.2-.2.3-.3.4zm0 6.9c.1 0 .2-.1.3-.2s.1-.2 0-.3c0 .1-.1.2-.2.2-.1.1-.1.2-.1.3zm0 4.7c.2-.1.4-.2.5-.4.2-.1.3-.3.5-.4v-.1-.1c-.2.1-.4.3-.6.4-.1.3-.3.4-.4.6zm.4 1.5c.1-.1.1-.1.1-.2h-.1v-.1h-.1c-.1 0-.1.1-.1.1s.1.2.2.2zm-.2-2.5c.1 0 .2-.1.4-.2l.3-.3h-.1v-.1l-.3.3c-.1.1-.2.1-.3.3zm.1-.7c.1-.1.2-.2.3-.2.1 0 .2-.1.2-.3-.1 0-.2.1-.3.2-.1.1-.2.2-.2.3zm.7 1.6l-.3.3-.3.3c.1.1.3.1.4-.1.1-.1.2-.2.4-.2-.1-.1-.1-.2-.2-.3.1 0 .1-.1 0 0zm-.3 1.3c.1-.1.2-.1.3-.2.1-.1.2-.1.2-.2v-.1c-.2 0-.3 0-.3.2-.1 0-.2.1-.2.3zm.1.8v-.1h-.1s.1 0 .1.1c0-.1 0 0 0 0zm4.7-14.5v-.4-.4c-.1-.3-.2-.6-.5-.7-.3-.2-.6-.2-1-.2-.1 0-.2 0-.3.1s-.2.1-.2.1h-.1-.1c-.2.1-.4.3-.5.4-.2.2-.3.3-.5.4-.1.2-.2.4-.3.5-.1.1-.2.3-.3.5-.1.3-.2.7-.3.9l-.3.9c.1.1.2.2.2.3 0 .1-.1.2-.1.2l-.2.2c-.1.7-.1 1.4-.2 2.1v2.1c-.1 0 0 .1.1.1s.1.1.1.1c0 .1 0 .2-.1.2s-.1.1-.1.2c.1.1.1.2.1.3v.3c0 .2.1.3.1.5.1.2.1.3.1.5v1c0 .1.1.3.1.4 0 .1.1.3.1.4.1.3.1.6.1.9s0 .6.1.9c0 .1 0 .1.1.2s.1.1.1.2c-.1.1-.1.1-.1.2v.3c.2.1.4.3.6.5.2.2.5.3.8.4.4.1.9.1 1.3 0l1.2-.3.6-.9c.2-.3.3-.6.4-1v-.2-.2c.1-.4.2-.7.4-1.1s.3-.7.4-1.1c-.2 0-.4 0-.7-.1-.2 0-.5-.1-.7-.1-.2.2-.3.5-.4.8l-.3.9c-.2.1-.3.2-.4.4-.1.2-.2.2-.4.3h-.8c-.1-.1-.2-.3-.3-.4-.2-.1-.2-.3-.2-.4v-.9-1.1c0-.5 0-.9-.1-1.4-.1-.5-.1-1-.1-1.5v-.8c0-.3.1-.5.1-.8v-1-1c0-.3.1-.6.2-.9.1-.3.2-.5.4-.7.3 0 .5 0 .6.1.2.1.3.2.4.4s.2.3.2.5.1.4.2.6c.1 0 .1 0 .2-.1s.1-.1.2-.1c.1.1.1.1.2.1h.3c.1 0 .2-.1.3-.1h.3c0-.5 0-.9-.2-1.2-.1-.3-.3-.6-.3-.9-.2-.1-.4-.2-.5-.4zm-4.4-.1c0 .1 0 .1 0 0 0 .1 0 .1 0 0 .1.1.1.1 0 0 .1.1.1.1 0 0zm0 14.8c0 .1.1.1.2 0s.1-.1 0-.2c0 .1 0 .1-.1.1s-.1.1-.1.1zm1.4.2h.2c0-.1-.1-.1-.2-.1 0-.1-.1 0 0 .1zm0 .5h.2s.1 0 .1-.1v-.1c0-.1 0-.1-.1-.1 0 .1-.1.1-.1.1-.1 0-.1.1-.1.2zm.9 0H143.9v-.1s0-.1-.1-.1h-.1s-.1.1-.1.2zm.3-4.5v.2c0 .1.1.2.1.2.1 0 .1-.1.2-.1s.1-.1.2-.1c-.1 0-.1 0-.2-.1 0-.1-.1-.1-.1-.2l-.2.1c.1-.1.1 0 0 0zm.2-9.1c0-.1 0-.1 0 0 .1-.1.1-.1.1-.2 0 0-.1.1-.1.2 0-.1 0-.1 0 0zm.3.3c-.1.1-.1.2 0 .1 0 0 .1 0 .2-.1.1 0 .1-.1.1-.2-.2.1-.3.1-.3.2zm.1 1.2c.1.1.2.1.2 0 .1-.1.1-.2 0-.2 0 .1-.1.1-.1.1 0-.1 0 0-.1.1zm.2 7.6h-.1s-.1 0 0 .1l.1-.1c.2 0 .2-.1.3-.1l.2-.2c.1-.1.1-.1 0-.2l-.5.5zm-.1 4.4c.1-.1.2-.1.3-.2.1-.1.2-.1.3-.2-.1 0-.2 0-.2.1h-.3c0 .1 0 .1-.1.2v.1zm.3-12.7s0-.1 0 0v-.2c-.1 0-.2 0-.2.1.1 0 .1 0 .2.1zm.1 1.1c0 .1.1.1.2.1s.1 0 .2-.1c-.1-.2-.1-.4-.1-.5l-.2.2c0 .1 0 .2-.1.3zm1.1-.4l-.1.1c0-.1.1-.1.1-.1 0-.1 0-.1 0 0zM154.4 163.3c.1.4.1.8 0 1.3s-.1.8-.1 1.2c0 .4-.1.7-.1 1.1 0 .4 0 .7-.1 1 0 .3-.1.7-.2 1-.1.3-.1.7-.2 1V173.5c0 .5.1 1 .2 1.5s.2 1 .2 1.5c0 .4.1.7.1 1.1 0 .4 0 .7.1 1-.1.2-.1.3-.1.5s.1.3.2.4c-.2.1-.3.3-.3.5s-.1.4-.2.7h-.3c-.1 0-.1-.1-.2-.1s-.1.1-.1.1c0 .1 0 .1-.1.1h-.6c-.2.1-.5.1-.7 0-.1 0-.1 0-.1.1s0 .1-.1 0c-.1 0-.3-.1-.4-.1-.2 0-.3 0-.5-.1-.2 0-.3 0-.5-.1-.2 0-.3-.1-.4-.2 0-.6-.1-1.2-.2-1.9s-.2-1.4-.2-2.1c0-.3-.1-.6-.1-.9 0-.3-.1-.6-.1-1 0-.2-.1-.3-.1-.5s-.1-.3-.1-.5c-.1-.3-.1-.7-.1-1 0-.4-.1-.7-.1-1.1 0-.2-.1-.5-.1-.7 0-.2-.1-.5-.1-.8 0-.2-.1-.4-.1-.6s-.1-.5-.1-.7c0-.2 0-.3-.1-.5 0-.2-.1-.4-.1-.6v-.5c0-.2-.1-.3-.2-.5.1-.2.1-.4.1-.6s-.1-.5-.1-.7c.2-.1.3-.3.4-.5.1-.2.2-.3.3-.5.1-.2.2-.3.4-.5.1-.1.3-.3.5-.4.1-.1 0-.1 0-.2-.1 0 0-.1 0-.1h.3c.1 0 .1.1.2.1.1.4.1.9.2 1.4 0 .5.1 1 .1 1.5v.7c0 .1.1.2.2.3.1.1.1.1.1.2-.1.1-.1.2-.2.3.1.6.2 1.3.2 2s0 1.4.1 2.1c0 .2 0 .5.1.7v.7c0 .7.1 1.3.1 1.9 0 .6.1 1.3.1 1.9 0 .3.1.6.1.9s.1.6.1 1c.1.1.2.2.3.2.1.1.2.1.3 0 .1 0 .2-.1.2-.2s.1-.2.3-.2c.1 0 .1.1.2.1s.1.1.1.2c.1 0 .2-.1.3-.1h.3c0-.1.1-.2.2-.2s.2 0 .3-.1c0-.1 0-.2-.1-.2-.1-.1-.1-.1-.1-.2s0-.1.1-.1.1 0 .1-.1c-.1-.2-.1-.4-.1-.6v-.6c0-.6-.1-1.2-.2-1.8s-.2-1.2-.2-1.8v-.9-1c0-.7 0-1.4.1-2 .1-.7.2-1.4.3-2.2 0-.5.1-1.1.1-1.6s.1-1.1.1-1.8c-.5-.2-1-.3-1.5-.2s-1.1.1-1.6.1c-.1-.1-.2-.1-.3-.2-.1 0-.2-.1-.2-.3.2 0 .4-.1.6-.1h2.2c.4.2.8.3 1.2.5zm-5.4 4.8c.1 0 .1-.1.1-.2s0-.1.1-.2c-.1-.1-.2-.1-.3-.1v.2c.1.1.1.2.1.3zm.9 1.4c-.1.1-.1.2-.2.3-.1.1-.2.2-.2.3s-.1.2-.1.4c0 .1 0 .3.1.4.1-.3.2-.6.4-.9l.3-.9c0-.1.1-.1.1-.1.1 0 .1 0 .1-.1v-.1c-.1.1-.1.2-.2.3-.2.2-.3.3-.3.4zm-.4 2.2c.1-.1.1-.2.1-.2 0-.1 0-.1.1-.3-.1 0-.1-.1-.2-.1s-.1-.1-.2-.1c0 .1.1.3.1.4.1.1.1.2.1.3zm0-5.4c.1-.1.1-.2.2-.3 0-.1.1-.2.3-.2v-.2c0-.1 0-.1-.1-.2-.1.1-.1.3-.2.5-.2.1-.3.3-.2.4zm.6 5.3c-.1.1-.1.3-.2.4-.1.1-.1.3-.2.4 0 0-.1 0-.1.1 0 0 0 .1.1.1.2-.4.4-.7.7-.9v-.2-.2c-.1 0-.1.1-.1.1-.1.1-.1.2-.2.2zm-.4-6.8c.1 0 .1 0 .1-.1s0-.1-.1-.2V164.8zm0-.7s.1 0 0 0c.1 0 .1-.1 0 0 0-.1 0-.1 0 0zm0 9.5s.1.1.1.2c.1 0 .1-.1.1-.2s.1-.1.2-.2.1-.1.2-.1.1 0 .2.1v-.5c0-.2 0-.3-.1-.4-.1.2-.2.3-.3.5s-.2.5-.4.6zm.1-6.8c0 .1.1.1.1.1.1 0 .1.1.1.2v.2c0 .1-.1.1-.1.2 0 0 0 .1-.1.2s0 .1 0 .1c0-.1.1-.1.1-.2.1-.1.1-.1.1-.2v-.4c0-.1-.1-.3-.1-.4 0 .1 0 .1-.1.2zm.3 1.4c-.1.1 0 .1 0 .1h.1s0-.1-.1-.1zm.1 8.3v.2c0 .1 0 .1.1.1 0-.1.1-.2.1-.2l.2-.2c0-.1.1-.1.1-.2s0-.2-.1-.3c-.1 0-.1.1-.1.1v.2c0 .1 0 .1-.1.2s-.1 0-.2.1zm0-6c.1 0 .1 0 .1-.1s0-.1-.1-.1v.2c0-.1 0-.1 0 0zm.1 3.8c0-.1 0-.2.1-.2.1-.1.1-.1 0-.2 0 .1 0 .2-.1.2s-.1.2 0 .2zm0 .9h.2c.1 0 .1 0 .1-.1v-.2l-.1-.1c0 .1 0 .1-.1.2 0 .1-.1.1-.1.2zm.1 3.1l.3-.6c.1-.2.1-.4-.1-.7-.1.2-.1.4-.2.6-.1.2-.1.4 0 .7zm.1 1c.1-.1.1-.2 0-.1v.1zm.1.4c0-.1 0-.2-.1-.2 0 .1 0 .2.1.2zm.1-.7c0-.1 0-.2.1-.2.1-.1.1-.1 0-.2 0 .1 0 .1-.1.2-.1 0-.1.1 0 .2zm.7.6l-.3.3c-.1.1-.1.2 0 .4H151.4c0-.1 0-.2.1-.3 0-.1.1-.1.2-.2l.2-.2c0-.1.1-.1.1-.2h-.1s-.1 0-.1-.1l-.1.1c-.2.1-.2.1-.3.2zm.4.7h.8c0-.1 0-.1-.1-.1s-.1 0-.1-.1c.1-.1.2-.2.2-.4l.3-.3c.1 0 .1 0 .2.1 0 .1.1.1.2.1 0-.1.1-.1.1-.2 0 0 .1-.1.1-.2-.4 0-.7 0-.9.2l-.6.6h-.1c.1 0 .1.1 0 .1s-.1.2-.1.2z"/><path class="st1" d="M164.2 167.8h-.5c-.2 0-.3 0-.4.2-.1 0-.2 0-.3-.1h-.3c-.1 0-.1 0-.1-.1s0-.1-.1 0c0 1.2-.1 2.5-.2 3.7s-.2 2.5-.2 3.6v1c0 .3 0 .6-.1 1s-.1.7-.1 1v.5c0 .1 0 .3-.1.5-.1-.1-.2-.1-.3 0s-.2.1-.3.1c-.1.1-.2.2-.3.2 0 .2-.1.4-.3.5l-.4.4c.1 0 .2-.1.3-.2.1-.1.1-.2.2-.3.1-.1.1-.2.2-.3.1-.1.1-.2.2-.3h.2s.1 0 .1.1l.1-.1.1-.1c.3 0 .4.1.5.2l-.4.4c-.1.2-.2.3-.3.4 0 .1 0 .1.1.1s.1 0 0 .1-.1.1-.2.1c-.1.1-.2.2-.2.3 0 .1-.1.2-.3.2v-.1-.1c-.1 0-.1 0-.1.1s0 .1-.1.1c0-.1-.1-.1-.1-.1 0-.1 0-.2.1-.2s.1-.1.1-.1c-.3 0-.5.1-.7.2h-.2c0-.1-.1-.1-.1-.1-.2 0-.4 0-.6-.1-.2 0-.4-.1-.5-.2 0-.1.1-.2.2-.2s.2 0 .2-.1c0 0 0-.1-.1-.1 0 0-.1 0-.1-.1-.1 0-.1 0-.1.1s0 .1-.1.1c-.1-.1-.1-.1-.1-.2s0-.2-.1-.3v-.6-.5c0-.1-.1-.1-.1-.1-.1 0-.1-.1-.1-.1 0-.1 0-.2.1-.3 0-.1.1-.2.1-.2 0-.9 0-1.8-.1-2.7s-.1-1.8-.2-2.6c-.1-.2-.2-.5-.2-.8 0-.3-.1-.5-.2-.8v-.2c0-.1.1-.1.1-.2 0 0 0-.1-.1-.1v-.1-.8c0-.3 0-.5-.1-.7v-.7c0-.3 0-.5.1-.8-.1 0-.1 0-.2.1 0 .1-.1.1-.1.1-.1 0-.2 0-.2-.1s-.1-.1-.2-.1h-.2-.2c-.1 0-.1 0-.1.1v.1c-.3-.1-.5-.1-.7 0-.2.1-.4.1-.7.1h-.1s0 .1-.1 0c-.1 0-.2 0-.2-.1s-.1-.1-.2-.1c-.1-.5-.2-.9-.2-1.3-.1-.4-.1-.8-.3-1.3.1-.1.1-.1.2-.1s.1-.1.2-.1c0-.1.1-.2.1-.2.1-.1.1-.2.2-.3.1-.1.2-.1.2-.2s.1-.2.2-.3c.1 0 .1-.1.2-.2s.1-.1.2-.1c0-.1 0-.2.1-.2.1-.1.2-.1.3-.1.1 0 .2 0 .4.1h.6c.2 0 .4-.1.6-.1h2.6c.1 0 .2 0 .3-.1s.2 0 .3 0h.6c.1 0 .3 0 .4-.1.1-.1.2-.1.4-.1h.3c.1 0 .2 0 .3.1h.6c.2 0 .4 0 .6-.1h.8c.2 0 .4.1.6.3.1.2.1.5 0 .7 0 .3-.1.5 0 .8v.6c0 .2 0 .4-.1.5 0 .2-.1.4 0 .5 0 0 0 .1-.1.1 0 0-.1 0 0 .1h-.1-.1v.2c-.1 0-.2 0-.2.1-.1.1-.1.1-.1.2v.1h-.1c0 .1-.1.2-.1.4-.1.3-.2.4-.2.6zm-9.2-3.2v.2l-.1.1s-.1 0-.1.1-.1.1-.1.2v.2c.1-.2.3-.4.4-.6.2-.2.3-.4.4-.6h-.1c-.1.1-.1.2-.2.3 0-.1-.1 0-.2.1zm.4 2.5c.1-.2.2-.3.3-.4.1-.1.2-.2.3-.4h-.1s0-.1-.1-.1c-.1.1-.2.3-.3.4s-.1.3-.1.5c-.1.1-.1.2-.2.2s-.1 0-.2-.1v.2s0 .1.1.1h.2c.1 0 .1 0 .2-.1-.1-.1-.1-.2-.1-.3zm1.1-.8c.1.1.2.2.2.3-.1.2-.2.3-.3.4-.1.1-.3.2-.3.4h.3c.1-.2.2-.4.4-.6.2-.2.3-.4.4-.5h-.3c-.1 0-.4-.1-.4 0zm6.4-3h-.6c-.1 0-.2 0-.3.1-.1 0-.2 0-.3.1h-.6c-.1 0-.2 0-.3.1h-.3c-.8.1-1.5.1-2.3.1h-2.1v.5c0 .2.1.4.1.6v.2c0 .1 0 .2.1.3 0 .1.1.2.1.2h-.1v.2c.1.1.1.1 0 .2h.4c.1 0 .3 0 .4.1h1.7c.1 0 .2.1.3.2 0 .1 0 .2-.1.2s-.1 0-.2.1l.1.1.1.1c.1 0 .1-.1.1-.2s.1-.1.1-.2c.1.2.2.3.2.5v.6c0 .3.1.5.1.8v.7c.1.1.1.2.1.4V170.5l.1.1v.3c0 .1 0 .2-.1.3.2.1.2.2.3.4 0 .1-.1.1-.1.1-.1 0-.1.1-.1.2.1.4.1.9 0 1.2 0 .4 0 .7.1 1-.1.1-.1.2 0 .2.1.1 0 .1 0 .2s0 .1.1.1.1.1 0 .1v.2c0 .1 0 .2-.1.3h.1s-.1 0-.1.1l.1.1V175.7c.1 0 .1 0 .1.1v3.1h.7c.1 0 .1-.1.2-.1s.1-.1.2-.1.1 0 .2.1c0 .1.1.1.2.1v-2.3c0-.8.1-1.5.1-2.3v-.5-.5c0-.3.1-.6.1-.9s.1-.6.1-.9c0-.2 0-.4.1-.6 0-.2 0-.4.1-.6v-.7c0-.2 0-.4.1-.6-.1-.4-.1-.9-.1-1.4 0-.5-.1-1.1-.2-1.6.5-.1 1-.1 1.5 0s1 .1 1.6.2c.1-.4.1-.8.1-1.3v-1.4h-1c-.4-.2-.8-.2-1.1-.2zm-5.3 3.1c-.2.1-.3.2-.4.4-.1.2-.2.3-.3.5 0 0 .1-.1.2-.1h.2c.1-.2.2-.3.3-.5s.2-.3.3-.5h-.2-.1v.2zm.4.8c.1-.1.2-.3.4-.4.1-.1.2-.3.3-.5h-.2-.1c0 .2-.1.4-.2.5-.2.1-.2.2-.2.4zm.8.6c-.1.1-.1.1-.1.2 0 0-.1.1-.1.2s-.1.2-.2.3c-.1.2-.2.3-.2.4v.1s0 .1.1.1c.2-.2.3-.4.4-.6.1-.2.3-.4.4-.6h.2v-.2c0-.1 0-.1-.1-.1 0 .1-.1.1-.1.2-.2-.1-.3-.1-.3 0zm.2 1.5v.2s-.1 0-.1.1v.1c-.1.1-.1.2-.2.2-.1.1-.2.1-.2.2v.2c-.1.1-.1.2-.2.2-.1.1-.1.1-.1.3.1 0 .2-.1.3-.2.1-.1.2-.2.3-.4.2-.1.3-.2.4-.4v-.3c0-.1 0-.2-.1-.3 0 0 0 .1-.1.1zm-.6 2.1c0-.1 0-.1.1-.2s.1-.1 0-.1c0 .1 0 .1-.1.2s-.1.1 0 .1zm.6.1l-.1.1s0 .1-.1.1c0 0-.1.1-.2.1s-.1.1 0 .1c.2-.2.4-.4.6-.5v-.4-.5c-.1.1-.2.1-.3.3.2.1.3.2.2.4 0 0 0 .2-.1.3zm-.3 1.7c0-.1.1-.2.2-.3s.2-.2.2-.3c0-.1.1-.2.1-.3 0-.1 0-.1-.1-.1s-.1.1-.2.2-.1.2-.2.3c-.1.1-.1.2-.1.3 0 0 0 .1.1.2zm0 .7c.1 0 .1-.1.2-.1 0 0 .1-.1.1-.2H158.7v.2c.1 0 0 .1 0 .1zm.2 2.5c.1-.1.2-.2.4-.3.1-.1.2-.3.2-.5-.2.1-.3.2-.4.4-.2.1-.2.3-.2.4zm0 1.6c.1.1.1.2.1.2v.2c0-.1.1-.2.2-.2.1-.1.1-.2.2-.2.1-.1.1-.2.1-.3v-.3c-.1.1-.2.2-.2.3s-.3.2-.4.3zm0-2.7c.1-.1.2-.1.2-.2.1 0 .2-.1.3-.1v-.2s0-.1-.1-.1l-.3.3c0 .1-.1.2-.1.3zm.1 1.8c.1-.1.2-.1.2-.1.1 0 .1.1.2.2s.1.1.1.2v-.3-.4c-.1.1-.2.2-.3.2-.1 0-.2.1-.2.2zm.1-2.8h.2c0-.1.1-.1.1-.1v-.1c-.1 0-.1 0-.2.1s0 .1-.1.1zm0-.8c0-.1 0-.1.1-.2.1 0 .1-.1.1-.1-.1 0-.1.1-.2.1v.2zm0-5s0 .1 0 0 0-.1 0 0c0-.1 0-.1 0 0zm.2 10.9l.2-.2.2-.2c-.1 0-.2.1-.3.2 0 .1 0 .2-.1.2h-.1.1l-.2.1s.1 0 .2-.1zm1.1-.1c-.2.1-.4.3-.6.4-.2.1-.3.3-.4.6h.2c.1-.2.3-.4.5-.6.2-.2.3-.4.4-.6h-.1v.2c0-.1 0 0 0 0zm1.9-12.9c.1 0 .1-.1.1-.2-.1 0-.2.1-.1.2zm1.2.2s-.1 0-.1.1h-.1c-.1.1-.2.3-.3.4-.1.1-.2.3-.3.5h.3c.1-.2.3-.4.5-.6s.4-.3.5-.6h-.5v.2zM170.7 163c0 .2 0 .3-.1.4.1.2.2.4.4.6.1.2.3.4.4.6.1-.1.2-.2.2-.3.1-.1.1-.2.3-.3.5-.1.9-.2 1.2-.4.3-.2.7-.3 1.1-.5h.1s0 .1.1.1c.2-.2.4-.2.7-.2h.8c.2.1.3.2.5.2h.6c.2 0 .5 0 .7-.1.2-.1.4-.1.6-.2l.2.2c0 .1.1.2.1.2l-.9 1.2-.9 1.2s-.1 0-.1.1-.1 0-.1 0c0 .2-.1.4-.2.5s-.2.3-.3.5c-.1.2-.2.3-.3.5-.1.2-.2.3-.4.4-.2.4-.4.7-.6 1 0 .9-.1 1.8-.1 2.7s-.1 1.8-.1 2.8c0 .4 0 1-.1 1.5v1.5c0 .3 0 .5.1.8 0 .3 0 .5-.1.7 0 .1 0 .1-.1.1s-.1 0-.2.1v.2c.1.1.1.1.1.2-.2.2-.4.5-.6.6-.2.2-.5.4-.7.6v.4c-.4.2-.6.1-.8-.2h-.5c-.2 0-.3 0-.4-.1-.3.1-.6.2-1 .2s-.7 0-1-.1c-.1-.1-.2-.2-.2-.4v-.4c0-.2 0-.3.1-.5v-.4c0-.1 0-.1-.1-.2 0-.1-.1-.1-.1-.2v-.2c0-.1.1-.1.1-.2 0-.2-.1-.3-.1-.4v-.5c0-.4 0-.9-.1-1.3s-.1-1-.1-1.4v-1-1.2-1.2-1-.1-.1c0-.1-.1-.2-.1-.2-.1 0-.1-.1-.2-.2-.4-.4-.8-.9-1-1.5-.2-.2-.3-.4-.4-.6-.1-.2-.3-.4-.4-.6-.1 0-.1 0-.2-.1 0 0-.1-.1-.2-.1 0-.1 0-.1-.1-.2 0 0-.1-.1 0-.2-.3 0-.5-.1-.5-.4s-.2-.5-.2-.7c0-.1 0-.1-.1-.2s0-.1 0-.2.1-.1.1-.2c.1 0 .1-.1.2-.2.1-.2.3-.5.4-.8.1-.3.3-.5.4-.7.1 0 .2 0 .2.1s.1.1.2.1 0-.1 0-.1c-.1 0-.1-.1 0-.2.6 0 1.2-.1 1.8-.2s1.1-.1 1.8 0c-.2.1 0 .2.2.4zm-4.5 1.3c.1 0 .1-.1.2-.2l.2-.2c-.1 0-.2.1-.2.2l-.2.2zm1.2.8c-.1.1-.1.1-.2 0-.1.1-.1.2-.2.2s-.2.1-.3.1-.2.1-.3.2c-.1.1-.1.2-.1.3.2-.1.5-.2.7-.4.2-.1.4-.3.4-.4zm-.9-.2c.1 0 .2-.1.3-.1.1-.1.2-.1.3-.1 0-.1-.1-.2-.2-.2-.1.1-.1.2-.2.2-.1.1-.2.1-.2.2zm.3-1.4c.2.2.4.5.6.7.2.3.4.5.6.7.3.5.7 1 1.1 1.4.4.4.7.9 1 1.5.2.1.4.3.6.4s.3.3.4.6v2.7c0 .1 0 .3-.1.5h.1v1.5c0 .1 0 .2.1.3.1.3.1.6.1.9v.8c0 .2 0 .4.1.6s.1.4 0 .6c.1.1.1.2.1.4s-.1.4-.2.5v.4c0 .1 0 .3.1.5h1.2c.3 0 .8 0 1.3-.1 0 0 .1 0 .2.1s.1.1.1 0v-.8c0-.3-.1-.5-.1-.7 0-.8 0-1.5.1-2.2 0-.7.1-1.4.1-2.1s.1-1.4.1-2.1v-2.1c.1-.1.2-.1.2-.2s.1-.2.2-.2c.1-.3.2-.5.4-.6 0-.1 0-.2.1-.3l.2-.2c.1-.2.2-.4.4-.6.2-.2.3-.4.3-.5.3-.3.6-.6.8-1 .2-.4.5-.7.8-1.1h-.4c-.1 0-.2.1-.4.1s-.4 0-.5-.1c-.2 0-.4-.1-.5-.1-.2 0-.4-.1-.5-.1s-.4 0-.6.1c-.1.1-.1.2-.2.4s-.2.3-.3.3c0 .3-.1.5-.3.6 0 .1 0 .2-.1.3-.1.1-.2.2-.2.3 0 .1-.1.1-.1.2s0 .1-.1.2-.2.3-.3.5c-.1.2-.2.3-.3.4v.4c0 .1-.1.2-.3.2-.3-.3-.6-.7-.8-1.1-.2-.4-.4-.8-.7-1.2-.2-.3-.3-.5-.5-.7s-.3-.5-.4-.8c-.6 0-1.2 0-1.8.1-.7-.3-1.2-.3-1.7-.3zm.7 3.2c.1-.1.2-.1.2-.2-.1 0-.2.1-.2.2zm.3.4c-.1 0-.2.1-.3.1s-.1.1-.1.2c.2-.1.4-.3.6-.4.2-.2.4-.3.6-.4 0-.1-.1-.1-.2-.2-.1.2-.2.3-.3.4s-.1.3-.3.3zm1.1.2l-.6.3c-.2.1-.3.2-.4.4.3-.1.5-.2.7-.3.2-.1.4-.3.6-.5h-.2c-.1 0-.2.1-.1.1zm-.6 1.4c.1-.2.3-.3.5-.4.2-.1.4-.2.5-.4 0 0 .1-.1.2-.1s.1-.1 0-.1c-.2.1-.3.2-.5.3-.2.2-.4.3-.6.3 0 .1 0 .1-.1.2v.2zm1 6.9c.1 0 .2 0 .3-.1.1-.1.2-.1.2-.2-.1 0-.2.1-.3.1l-.2.2zm.1 2.4c.2-.1.5-.2.7-.5-.2-.1-.3 0-.4.2s-.2.3-.3.3zm0-7.2c.2-.1.4-.2.6-.4s.3-.3.5-.3v-.1c0-.1 0-.1-.1 0-.1.2-.3.3-.5.4-.2 0-.4.2-.5.4zm0 3.2c.1 0 .2-.1.3-.2s.2-.1.3-.2c.1-.1.2-.1.3-.2.1 0 .2-.1.3 0v-.2c-.5.3-.9.5-1.2.8zm.2-1.1c0 .1 0 .2-.1.3.2-.1.3-.2.5-.3l.6-.3v-.2-.2c-.4.1-.7.4-1 .7zm1.2 2.4l-.1.1c-.1.1-.1.1-.2 0 0 .1-.1.2-.2.3-.1.1-.2.1-.3.2-.1.1-.2.1-.3.2s-.2.2-.2.3c.2-.1.4-.3.6-.5s.4-.3.7-.4v-.2c.1 0 0 0 0 0zm-.7 3.7c-.1.2-.2.3-.3.3-.2.1-.2.2-.3.4.3-.1.5-.3.7-.4.2-.2.4-.3.6-.6l-.1-.1c-.1.1-.4.3-.6.4zm-.5-.3c.2-.1.4-.3.5-.4.2-.1.4-.3.5-.4v-.1c-.2.2-.3.3-.6.5s-.3.2-.4.4zm0-1.7c.2-.1.4-.2.5-.4.2-.1.4-.3.5-.4h.1c.1 0 .1 0 .1-.1-.3.1-.5.2-.7.4l-.5.5zm.2-1.7c.2-.1.3-.2.5-.3.2-.1.4-.2.5-.4l-.6.3c-.2.1-.3.2-.4.4zm0-4.1c.1-.1.2-.1.3-.2.1-.1.2-.1.4-.2v-.1-.1c-.1.1-.2.2-.4.3-.1.2-.2.3-.3.3zm1.2 7.9c-.1.2-.3.4-.6.5s-.4.3-.6.5c.2 0 .4 0 .6-.1s.3-.2.4-.3c.1-.1.2-.2.4-.3.1-.1.2-.2.4-.3h-.3c-.1.1-.2.1-.3 0zm-.5-10v-.2-.1c-.1-.1-.1-.1-.2-.1s-.1-.1-.2-.1c0 .1.1.2.2.3l.2.2zm-.1 8.1c.1-.1.2-.1.3 0h.3v-.2c0-.1 0-.1-.1-.2 0 .1-.1.2-.2.2-.2 0-.3.1-.3.2zm.8 2.8h.6c0-.1 0-.2.1-.3.1-.1.2-.2.3-.2s.2-.2.3-.2.2-.2.2-.3c-.2 0-.3.1-.5.2-.1.1-.2.2-.4.3l-.3.3c-.1 0-.2.1-.3.2zm.8-15c0 .1 0 .2-.1.2s-.1.1-.1.2c.3-.1.5-.2.7-.4.2-.2.5-.3.8-.3 0-.1.1-.1.2-.2s.1-.1 0-.1c-.2.1-.4.2-.7.3-.3.1-.5.2-.8.3zm.2 15.1h.1l.1-.1s-.1 0-.2.1zm1.6-16.3s.1 0 0 0c.1-.1.1-.1.1-.2 0 0-.1 0-.1-.1h-.1c.2.2.2.2.1.3zM66.3 73.9c-.6 3.7.5 7.2 1.5 9.5-.4-.4-.7-.8-.9-1-.3-.3-1-.8-1.9-1.3-.1-1-.3-2.7-.4-3.3.3-2.9 1.1-11.4-.4-17.3-1.3-5-8-11.6-8-11.6s-6.6 8.8-4.1 15.6C54.8 72 61.8 77 63.9 78.4c.1 1 .2 1.7.2 2.2-.7-.4-1.5-.8-2.1-1.2-1.2-1.5-6.2-7.5-13.3-9.3-6.2-1.6-13.3 5-13.3 5s6.3 5.3 10.8 6c5 .8 11.9-.4 14.7-1 2.1 1.3 3.8 2.4 4.5 3.1 3.3 3.2 4.5 5 5.5 5.7l1.7-.6c-.3-.2-1.8-1.7-3.2-3.2 1.1-1.6 4-6 4.9-9.7.8-3.2-.9-8.9-.9-8.9s-6.4 2.8-7.1 7.4zM171.3 67.2c-6.6 3-10.5 9.5-11.6 11.5-.9.2-1.5.3-1.9.3.3-.7.6-1.4.9-2 1.3-1.2 6.2-6.1 7.3-12.5 1-5.6-5.3-11.5-5.3-11.5s-4.2 6-4.6 10.1c-.4 4.5 1.2 10.5 1.9 13-1 2-1.9 3.6-2.5 4.2-2.6 3.1-4.1 4.3-4.7 5.3l.7 1.5c.3-.5 4-4.6 4.8-5.5.3-.3.6-1 1-1.8.8-.2 2.3-.5 2.9-.6 2.6.1 10.2.2 15.4-1.6 4.4-1.5 9.7-7.9 9.7-7.9s-8.1-5.1-14-2.5z"/><g><path class="st1" d="M131 218.9c-4.6-2.9-11.1-3.4-16.2-3.4-5.4 0-11 .4-16.1 3.4 0 8.4 3.8 15.2 9.5 18.2v2.7s4 .9 6.5.9 6.6-.9 6.6-.9v-2.6c5.8-2.9 9.7-9.8 9.7-18.3z"/><path class="st0" d="M101.6 221.3c4.1-2.4 8.8-2.8 13.2-2.8 4.2 0 9.7.4 13.4 2.8 0 9.3-6 16.8-13.3 16.8-7.4.1-13.3-7.5-13.3-16.8z"/><path class="st1" d="M98.7 218.9c5.1 1.7 6.2 2.4 16 2.4 8.5 0 10.6-.6 16.2-2.4 0 11.5-7.1 19.9-16.1 19.9s-16.1-8.4-16.1-19.9zM106 201.4s3.5-1.6 5.1-.6c1.5 1 2.4 3.8 1 4.8-1.4 1.1-4.5 1.5-4.3 2.8.3 1.3 3.5 3.3 3.5 3.3s-1.3 1.2-3.1.5c-1.7-.7-3.2-1.6-3.5-3.1-.3-1.5.7-3.2 2-3.5 1.3-.3 2.9-.1 2.9-1.4.1-1.3-3.6-2.8-3.6-2.8zM124.1 195s-4.3-2.2-6.2-1.1c-1.9 1.2-3.1 4.5-1.5 5.9 1.6 1.4 5.5 2.1 5.1 3.7-.4 1.6-4.6 3.8-4.6 3.8s1.6 1.5 3.7.8c2.2-.8 4-1.8 4.5-3.7.5-1.9-.7-4-2.3-4.4-1.6-.4-3.6-.3-3.5-1.9.2-1.5 4.8-3.1 4.8-3.1z"/></g><g><path class="st1" d="M36.9 106.2l-.1 9.2c0 2.6.2 6.4.5 11.6.4 5.1.5 9.3.5 12.5 0 3.2-.4 5.9-1.3 8.2-.9 2.3-2.4 4.2-4.5 5.7-.6 0-1.1-.2-1.5-.5-.4-.3-.6-.7-.6-1.3 0-.5.2-1 .7-1.5.5-.4 1-.8 1.6-1 1.6-2 2.4-4.8 2.4-8.4 0-2-.1-4.8-.3-8.5-.2-3.7-.3-6.2-.3-7.5 0-1.3-.1-2.9-.1-4.9 0-2 0-3.6-.1-4.9-.1-3.4-.3-6.4-.8-9.2-.1 0-.4.1-.8.2-.8.2-1.4.3-1.8.3-.4 0-.8-.1-1.1-.5-.3-.3-.5-.7-.5-1.1 0-1.4 2.4-2.1 7.1-2.1 2.3 0 3.4.5 3.4 1.6s-.9 1.6-2.6 1.5v.6zM59 130.7l.2 3.7v.9l-.1.6v3.5c0 3.5-.5 6-1.5 7.4-.9 1.4-2.4 2-4.3 2-2.4 0-4.2-.9-5.4-2.6-1.1-1.5-1.9-3.4-2.4-5.9-.6-3-1.2-5.1-1.5-6.3 0-.1-.3-4.5-.7-13.3-.4-8.8-.6-13.7-.6-14.6-.3-.3-.4-.7-.4-1.2s.2-.9.5-1.3.7-.6 1.2-.6c1.4 0 2.2 1.4 2.2 4.2l.6 20.7c.2.5.4 1.6.6 3.2.2 1.6.2 2.8.2 3.7 0 .9.1 2 .4 3.3.3 1.3.7 2.6 1.1 3.9.5 1.3 1.1 2.4 2 3.4.8.9 1.7 1.4 2.6 1.4 1.5 0 2.3-1.4 2.4-4.1v-27.9c0-1.1-.2-2.8-.6-5.1-.4-2.3-.6-3.8-.6-4.6 0-.8.2-1.4.6-1.7.4-.3.8-.5 1.4-.5l1.8 1.4v1l-.5 3.6c0 2.3.1 5.7.4 10.1s.4 7.7.5 9.9v.1l-.1 1.7zM62.8 147c0-1.1.4-1.6 1.3-1.6.4 0 1 .2 1.8.5.7.3 1.4.5 1.9.5s1.1-.3 1.7-1c.6-.7 1.1-1.5 1.5-2.5.7-2 1.1-3.9 1.1-5.6 0-1.7-.3-3.4-.9-5.3-.6-1.9-1.3-3.7-2.1-5.3-.8-1.7-1.7-3.3-2.5-5-2-4-3-7.6-3-10.9 0-3.1 1-5.5 2.9-7.3 1-.9 2.3-1.4 3.7-1.4.7 0 1.4.2 2.1.6.7.4 1.2.9 1.4 1.6v1.3c-1.7 0-2.8-.2-3.3-.6-.7.1-1.4.4-1.9 1-1 1.2-1.5 2.5-1.5 4s.2 3.1.7 4.7c.4 1.6 1 3.1 1.6 4.6s1.2 2.7 1.9 4c.6 1.2 1.2 2.2 1.6 3 .4.8.7 1.2.7 1.2v.5c.1.5.4 1.3.7 2.4.3 1.1.6 1.9.8 2.6.5 1.7.7 3.3.7 4.7 0 1.4-.2 2.8-.5 4-.3 1.3-.8 2.5-1.5 3.6-.6 1.1-1.5 2.1-2.6 2.8-1.1.7-2.1 1.1-3 1.1s-1.7 0-2.4-.1c-.6-.1-1.3-.3-1.9-.6-.7-.6-1-1-1-1.5zM86.7 113.1l-.1 7.7c0 3.6.3 6.7.9 9.1-.3 1.3-.4 2.8-.4 4.5l.5 10.7c0 1.9-.6 2.9-1.7 2.9-.7 0-1.1-.3-1.5-.9-.3-.6-.5-1.3-.5-2.1l.5-9.5c0-2.1-.1-5.1-.4-9.3-.3-4.1-.4-7.2-.4-9.3l.1-5.2c0-2.8-.2-4.7-.6-5.6l-3.2.3c-.5 0-1-.1-1.4-.5-.4-.3-.6-.7-.6-1.2s.5-.9 1.4-1.2c.9-.3 2.1-.6 3.5-.7 2.4-.3 4.4-.4 6-.4.5 0 .9.2 1.3.5s.6.7.6 1.2-.2.9-.5 1.1c-.3.3-.8.4-1.3.4l-2.1-.1h-.6c.4 2.6.5 5 .5 7.6zM121.2 146.4c0 1.3-.5 1.9-1.4 1.9-.7 0-1.5-.5-2.2-1.6v-.2c-.1-1.6-.6-3.8-1.5-6.5-.9-2.8-1.4-4.6-1.6-5.6-.2-1-.6-2.8-1-5.5-.5-2.7-.9-4.7-1.2-6.1v23.5c0 1.3-.6 1.9-1.9 1.9-.5 0-.9-.2-1.2-.5-.3-.3-.5-.7-.5-1.2v-.5l.3-35v-7.3c0-.5.1-.8.3-1 .2-.2.8-.3 1.7-.3s1.9.3 2.8.9c1 .6 1.7 1.4 2.3 2.4 1.2 2 1.8 4.2 1.8 6.6 0 1.9-.5 4.2-1.5 6.7-.1.3-.3.8-.7 1.7-.3.9-.6 1.4-.6 1.5 0 1.6.3 3.5.8 5.8s1 4.2 1.4 5.6 1.1 3.6 2.1 6.7c1 3 1.6 4.7 1.7 5.2v.9zm-9.2-41.2l-.3 12.2c0 1.2 0 2.1.1 2.7.7-.6 1.3-1.4 1.9-2.3l.9-5.1c0-2.1-.3-3.8-.8-5.2-.6-1.5-1.2-2.2-1.8-2.3zM130.7 144.4h1.2c1.6 0 2.4.3 2.4 1 .2.7.1 1.1-.2 1.4-.3.3-.7.4-1.3.4h-7.5c-1.1 0-1.7-.5-1.7-1.4 0-.9.6-1.4 1.8-1.4h1.8c.2 0 .3-1 .3-3s-.2-6-.6-12.1c-.4-6.1-.6-10.7-.6-13.8l.1-6.1c0-1.3 0-2.4-.1-3.3-.5.2-1 .3-1.4.3-.9 0-1.4-.5-1.4-1.4 0-.5.3-.9.9-1.3.6-.4 1.3-.6 2.2-.8 1.7-.3 2.9-.4 3.7-.4.8 0 1.4.2 1.7.5.3.3.5.7.5 1.1 0 .4-.1.8-.4 1.1s-.6.5-1 .5h-1c-.4 0-.7.1-.9.2-.2.2-.3.5-.3 1 0 3.9.3 9.7.8 17.4.5 7.7.8 13.5.8 17.4v2.7zM150.6 136.9l-2.2.2c-1.3 0-2-.6-2-1.7 0-1 1.2-1.6 3.7-1.9.5-.1 1-.1 1.6-.1.6 0 1.1.3 1.5.9.4.6.6 1.4.6 2.5 0 1 .2 2.7.6 5.1.4 2.3.6 3.9.6 4.7 0 1.5-.5 2.2-1.5 2.2s-1.6-.4-2-1.2v-.1c-.2.1-.6.3-1.2.7-1.2.7-2.2 1-3.2 1s-1.8-.2-2.7-.6c-.9-.4-1.7-.8-2.3-1.4-.6-.6-1.2-1.3-1.7-2.2-.5-.9-.9-1.8-1.3-2.7-.3-.9-.6-1.9-.9-3.1-.2-1.2-.4-2.3-.5-3.2-.1-.9-.2-2.1-.3-3.3-.1-1.6-.1-3.4-.1-5.7v-4.4c0-9.3 1.3-15.5 4-18.5 1.5-1.8 3.5-2.7 6-2.7 1.6 0 2.4.6 2.4 1.7 0 .4-.2.8-.5 1-.3.3-.7.4-1.1.4l-1.6-.3c-1.4 0-2.6.9-3.4 2.7-.9 1.9-1.4 3.7-1.7 5.5-.3 1.8-.4 3.3-.6 4.3-.1 1.1-.2 2.3-.2 3.6-.1 1.9-.1 3.8-.1 5.6v3.7c0 3.9.2 6.6.5 8.2.3 1.6.7 2.8 1 3.8.3.9.7 1.7 1.2 2.4 1.1 1.4 2.5 2.1 4.2 2.1s3.1-.8 4.2-2.5c-.1-3.5-.4-5.7-1-6.7zM167.5 123.7l-.5-19.5c0-.3.1-.6.5-1 .3-.3.7-.5 1.1-.5.4 0 .8.3 1.1 1 .3.7.5 1.8.5 3.4 0 4.4.2 10.9.6 19.6.4 8.7.6 15.3.6 19.6 0 .5-.2 1-.5 1.5s-.7.7-1.2.7c-1 0-1.5-.7-1.5-2 0-7.4-.2-14.4-.5-21-1.1-.2-2-.3-2.9-.3-.9 0-1.7.2-2.4.5 0 2.2.2 5.5.5 10s.5 7.9.5 10.2c0 .4-.1.7-.3 1.1-.2.3-.5.5-.9.5-.6 0-1.1-.3-1.4-.8-.3-.5-.5-1.9-.6-4.2-.1-2.3-.1-4.8-.2-7.5 0-2.7 0-4.3-.1-4.9-.7-10.3-1.1-19.1-1.1-26.4v-.4c.1-.6.4-.9 1-.9 1.2 0 1.9.4 2.1 1.2-.1 1.4-.2 2.9-.2 4.5l.4 12.2-.1 2.2c0 .6 0 1.1.1 1.5l5.4-.3zM183.2 113.1l-.1 7.7c0 3.6.3 6.7.9 9.1-.3 1.3-.4 2.8-.4 4.5l.5 10.7c0 1.9-.6 2.9-1.7 2.9-.7 0-1.1-.3-1.5-.9-.3-.6-.5-1.3-.5-2.1l.5-9.5c0-2.1-.1-5.1-.4-9.3-.3-4.1-.4-7.2-.4-9.3l.1-5.2c0-2.8-.2-4.7-.6-5.6l-3.2.3c-.5 0-1-.1-1.4-.5-.4-.3-.6-.7-.6-1.2s.5-.9 1.4-1.2c.9-.3 2.1-.6 3.5-.7 2.4-.3 4.4-.4 6-.4.5 0 .9.2 1.3.5s.6.7.6 1.2-.2.9-.5 1.1c-.3.3-.8.4-1.3.4l-2.1-.1h-.6c.3 2.6.5 5 .5 7.6zM199.1 148.8c-1-.3-1.7-.9-2.3-2.1 0-.7.2-1.3.7-1.8.5-.6 1.1-.8 1.8-.8s1.3.3 1.7.8c.4.6.7 1.2.7 2 0 1.4-.9 2.2-2.6 2.3v-.4zm1.6-16.9l-.1 3.3c0 2.5-.3 3.7-.9 3.7s-.9-1.7-.9-5.2v-9.9l-.5-19.5c0-.6.3-1.2.8-1.6.5-.5 1-.7 1.6-.7s.9.1 1.2.4c.3.3.4.6.4 1 0 3.2-.2 7.9-.7 14.2-.6 6.4-.9 11.2-.9 14.3z"/></g><path class="st1" d="M14.7 117.2l1.4 4.5h4.7l-3.8 2.7 1.5 4.5-3.8-2.8-3.8 2.8 1.4-4.5-3.8-2.7h4.7zM212.7 117.2l1.4 4.5h4.7l-3.8 2.7 1.5 4.5-3.8-2.8-3.8 2.8 1.4-4.5-3.8-2.7h4.7z"/></svg>