<?xml version="1.0" encoding="UTF-8"?>
<svg id="_レイヤー_2" data-name="レイヤー 2" xmlns="http://www.w3.org/2000/svg" xmlns:xlink="http://www.w3.org/1999/xlink" viewBox="0 0 167 67.3043867">
  <defs>
    <style>
      .cls-1 {
        fill: #231815;
        stroke: #231815;
        stroke-miterlimit: 10;
        stroke-width: 1.2078687px;
      }

      .cls-2 {
        fill: #fff;
        stroke-width: 0px;
      }

      .cls-3 {
        filter: url(#luminosity-noclip);
      }

      .cls-4 {
        mask: url(#mask);
      }
    </style>
    <filter id="luminosity-noclip" x="0" y="0" width="131.9631901" height="67.3043867" color-interpolation-filters="sRGB" filterUnits="userSpaceOnUse">
      <feFlood flood-color="#fff" result="bg"/>
      <feBlend in="SourceGraphic" in2="bg"/>
    </filter>
    <mask id="mask" x="0" y="0" width="131.9631901" height="67.3043867" maskUnits="userSpaceOnUse">
      <g class="cls-3">
        <g>
          <path class="cls-1" d="m16.4766326,20.4272261c.0723617.2209838.0588718.8610881-.009825,1.1280776-.0686188.2669896-.2634806.012944-.2903044.3395851-.0556748,1.1920959-.1465168,2.9580166-.1722488,4.9227758,1.9676444-1.2801307,3.5085266-3.863317,2.7272078-6.2486004-.7956663-2.4292618-3.9210192-2.1637538-6.6609371-1.266329-2.1556443.706072-5.1419661,2.4177214-4.8019911,3.4557369.1228901.3753761.6374532.7205755.841984.8001889.2046088.0797694-.2024255.3352965-.4039153.4013421-.2014118.0659676-1.8751649-.4129605-2.0777464-1.0313095-.4195105-1.2809884,3.9062817-3.6026435,6.0217685-4.2954596,3.7472109-1.227341,7.023915-1.3712066,8.1233755,1.9856568.5207232,1.590085-.0597296,3.2229787-.8422959,4.5797598-.2283135.3926867-.2495229.6685655.1865184.5013852,1.9252255-.728529,5.7061219-1.6489568,6.1039551-.4342479.1012907.3092525-.1646851.5186178-.3661749.5845855-.4633329.1518191-2.5432626-.3406768-5.2227492.5369422-2.0145859.6598322-2.7032692,1.3498412-3.0055039,1.4488706-.181216.0593397-.4060206-.0138017-.624977-.1375495.0140357,2.5629905.1536905,5.3050138.6306692,7.3741828.1115056.4768228.2112368.7132457.3827058.8281823.0450701.2055445-.4075022.8671702-.6291097.9397658s-.6105515-.0934152-.77087-1.2636778c-.4412657-3.254559-1.0052656-12.2645207-.1674923-14.2016765-.2573205-.6494614-.0651879-1.1525621.1564197-1.2251577s.7992532.0561427.8715369.2769705Z"/>
          <path class="cls-1" d="m21.8688235,24.9701812c-.0506064-.1545483.213888-.4368211.4153777-.5027887.2014118-.0659676.9416372.0828884,1.1219955.2928776.3606386.4197444.1582131,2.6624098.2326022,4.252027.0120083.2407896.1400448.2231671.1901053.035479.414364-1.1870274,2.6427599-5.1447733,3.6096613-5.4615115.3828618-.1253853,1.4176022.5137833,1.6273575,1.1542776.2025035.6183491-.1579792,1.1522502-.6302014,1.2088607-.3440298.0394558-.7800711-.7469313-1.0564178-.7052922-1.1710424.5792051-2.7098192,3.5774573-3.4711761,5.612005-.0640182.4854781.0573903,1.7418261-.0669813,2.247266-.2764246.0414832-.3766237.4167033-.5048161.4341699-.1281144.0174666-.7490367-.2436748-.7366385-.6145282.1021485-1.8675233.2047648-5.3003352-.3976772-7.548381-.1079187.0109946-.2825068-.2497569-.3331911-.4044611Z"/>
          <path class="cls-1" d="m30.9466242,21.8992555c-.0903741-.7530135.7583158-1.2264833,1.1664418-.7978496,1.9512694,2.0754071,4.0774389,1.8923976,6.3024038.3079269-.3105781-.6075104-.6586626-1.3981862-.4407979-1.9587551.1090103-.2802455,1.9031583-.1830095,2.0580965.4263723.1550161.6094598-.3614964,1.7568755-.1734184,2.3309342.5734349,1.2062095,1.3655143,3.147576,2.6111017,4.158066.2133421.1746661.3600928.077664.4184188-.3570517.7002238-5.2181486,1.680537-8.0824381,2.4461046-8.3332087.2820389-.0923235.5600231-.0611331.9871752.6303573.3962736.1883118,1.3457864.6351919,1.3691012.7743789.0464736.2781401-.1172758.5274291-.4195105.6263806-.0603534.0198059-.6886833-.2634027-1.1654281-.4252027-.2996615-.0974699-.6652906-.1242936-.9923216.7162088-.3212608.790052-1.2551004,3.9324816-1.3351037,6.2085988.1983707.7417849-.5236863,1.1250366-.9669794,1.2702278-1.0072929.3299161-2.66202-1.7934462-3.9821523-5.3472767l-.0145035-.0441344c-.8914987.683381-1.7820617,1.0972772-2.6628777,1.3368192.1803583.2100671.2800895.4464901.3192334.7024851.0832783.7307903-1.4001356,4.1022352-2.1383337,5.3221685-.4839965.7698563-1.1514704,1.1840644-1.8410895,1.1898346-1.5347221.0137238-1.9693599-1.6535574-2.0989558-2.6625658-.1819178-1.2365422.3350625-2.995445-.3738166-5.1597447-.1228901-.3753761.5185399-.7322719.9272117-.9149695Zm.9923995,1.1910822c.0579361.1766934.0683069.3445756.0714259.4901566-.0263559.6688774-1.2834837,4.1862153.1418382,6.0181816.5005274.6429894,1.1571627-.2811032,1.6338295-1.0732606.2669896-.4786162,1.2749063-2.373821,1.4065297-3.8108392.032438-.3774035-.0904521-.7527795-.2997394-1.0511934-1.0667106.0804712-2.0591101-.1568876-2.9538838-.573045Z"/>
          <path class="cls-1" d="m57.113004,16.5812977c-.599089,1.7123512-2.703971,6.3879434-5.7801991,7.6888937-1.6622127,1.3269942-2.7725898-.6326186-3.0464413-1.7411243-.5620504-2.2612237.2570086-5.0728015,1.6966001-7.0115948.2500688-.3264072.4288676-.1893255.5512898-.1559518.1224222.0330618.1177436-.1854267.2789199-.2381385.4029796-.1320132,1.4727312.8869761,1.7590588,1.6247843.1503376.3909713.0759485.7087231-.0474094.9446003-.025888.0575462.106905.2585682.0238606.4814233-.3942463,1.1805554-1.2929967,2.7954368-2.8638216,4.6060376.4970965,1.1088176,1.2755301.8295078,2.6588229-.2595818,1.5301215-1.1857798,3.2728833-3.4927754,4.3498867-6.2664569.1539245-.0749349.5915253-.1693637.4194325.327109Zm-7.7320143,5.2713282c1.0522851-1.0781731,2.7212037-3.6789819,2.3130777-5.061495-.0723617-.2208278-.7796033-.404851-.9407015-.3520613-.9268218.3035603-1.8481853,3.0752144-1.3723762,5.4135563Z"/>
          <path class="cls-1" d="m64.3670259,20.2699487c.5972176-.2198921,1.2516695-.605561,1.965539-1.6950406.2908502.0024952.3631339.223323.3115138.3379476-.6518007,1.1428931-1.363175,2.0360293-2.2222358,2.3419288-.2216076.0725956-1.1963066.0251082-1.6768722-.6246651-.9428069-.7670491-1.4647777-3.9952523-1.6626026-5.3489142-.5682885,1.2621183-1.1323663,2.4007227-1.4044243,4.225983.168506.923079-.1256192.7746908-.3135412,1.1543555-.0516201.1146246-.8078305.8025282-.8281043.8090782-.1610983.0528677-.5614266-.0116964-.728763-.2503027-.0910759-.1414483-.4299592-.4951471-.4836067-.7952764-.4698049-3.0007474-.4734698-4.4424442-.4555353-6.771351.0500605-.187766.2354873-.3706975.4168593-.4301152s.8653768-.0141916.9536455.3236001c.1927565.7927032.2377486,1.9516593-.1367698,2.7837404-.0315023,1.0617201.0823426,1.9536867.1991505,2.9913903.0480332.3510476.3460571.375688.4163134.1815279.8858844-2.5399876,2.1909674-6.6599234,2.4528885-6.7456969s.6204544-.080939.7919235.0339975c.3229763.2366569.4712865,1.1662858.3741285,1.687009-.145659,1.7351202.7033428,6.029878,2.030493,5.7908038Z"/>
          <path class="cls-1" d="m75.1333952,13.2957823l.0144255.0441344c.434014,1.3251228,1.0757558,1.9220285,1.9219505,1.6449021.9468616-.3101102,1.9551682-1.8631567,2.283135-3.9268674.1539245-.0749349.3971314-.0811729.4193545.327109.0668254,1.2254696-.7488807,3.5711412-2.4277023,4.4387793-1.2774795.6629513-2.473942-.265508-2.9941974-1.5135906-1.1597359,1.431326-2.4103137,2.7214376-3.406768,3.5611603-.1724827.1543923-.5883283.3150227-.7149612.4053188-1.5904749,1.2058196-3.3024362.2014898-3.6441267-1.8630787-.4504669-2.7379685.9818728-4.698751,1.1125604-4.9127949.1306876-.2141219-.094039-.2871073.0439004-.4790841.7356248-1.023356,1.5326167-1.3821232,1.9175059-1.0925206.116652.0839801.1379394-.1919767.2877311-.1431638.3947141.1152484.9896704.43378,1.1272199.8536024.1445674.4416556-.0547391.9226111-.4173271,1.0413684-.3828618.1253853-.7686866.1049556-1.0213286-.3257054-1.0047197.1334168-2.250619,2.5955845-1.933335,4.7902947.2765026,1.8658858,1.4714056,1.7678701,2.4523427,1.1531859,1.0010549-.6213901,2.5636143-2.1846514,3.934587-3.8564551-.4397062-2.227928-.0467076-5.0466796,1.5825213-6.3383507.3192334-.2513944.4287116-.1893255.5511338-.1560298.5373321.1419162,1.6025611-.0113065,1.9320874.8588268.1504156.3910492.0630825.7375742-.0602754.9734514-.02581.0575462-.3079269.1498697-.3912052.3726469-.514797,1.2202452-1.4771758,2.7091954-2.5692286,4.1428607Zm-.2087415-.9097451c1.3218478-1.7534445,2.3141694-3.4234548,2.1172802-4.0927222-.0723617-.2208278-.4096855-.5016191-.5708617-.4488294-1.0476065.343172-1.7913408,2.5675911-1.5464185,4.5415516Z"/>
        </g>
      </g>
    </mask>
  </defs>
  <g id="_スライド" data-name="スライド">
    <g>
      <g>
        <path class="cls-2" d="m41.1008172,51.0145473c-.1204948,1.8973972-.0603194,3.3732785.1806702,4.3372369.2409896.9636705.301165,1.5660005.1806702,1.716583s-.2710773.2712213-.4818352.3616284c-.2109019.0901192-.3915721.0901192-.6325617,0-.2409896-.0904071-.4818352-1.7770464-.7529125-5.0901495-.2409896-3.3433348-.301309-8.0721439-.1808142-14.2163709-.3312527.1505825-.6927371.1505825-1.1143969-.0601754-.3915721-.2110458-.1204948-.9639584.8132319-2.319201.9337267-1.3555305,2.1082991-2.319201,3.524005-2.9517627,1.415562-.60233,2.3492887-.813088,2.8311239-.6325617.4518915.1808142.8132319.6325617,1.0843092,1.3854743.2710773.7229688,0,1.7770464-.7529125,3.1625206-1.0542215,1.6264639-2.1686185,3.2529277-3.3433348,4.9997424,1.5059691-.7226809,2.9818504-.8433196,4.4878195-.3613404.4216598.3313967.6927371.7831442.7831442,1.3252988.0902631.5723863,0,1.0843092-.2710773,1.5662884-1.6565516,2.8008923-3.7649946,5.0296862-6.3551289,6.7767888Zm-.1808142-13.1320617c-.1505825.8133759-.1806702,2.0782114-.1806702,3.8250261,2.1082991-2.3793764,3.4035102-4.2465419,3.9456648-5.541897.5722423-1.3250109.7228248-2.1383868.5119229-2.4093202-.2107579-.2409896-.8132319-.2110458-1.8071341.0901192-.9638144.3313967-1.9878043,1.1145409-3.0420258,2.3796643.5421546.2709333.7228248.8433196.5722423,1.6564076Zm4.7588968,7.0779538c.5120669-.9939021.6626494-1.8069901.4216598-2.4997272-.9337267-.3313967-1.8372218-.3313967-2.7107731.0299437-.8433196.3915721-1.7469587.6927371-2.6805414.9337267,0,1.9578605.0601754,3.9456648.2710773,5.9334691,2.5901343-1.9575726,4.1564228-3.433454,4.6985774-4.3974124Zm8.5237474-1.9878043c3.5540927-.7831442,5.6020724-1.2651234,6.1744587-1.3854743.5420107-.1203508,1.3251549-.2107579,2.2588816-.301165s1.4758813-.0904071,1.5963761-.0601754c.1203508.0299437.2408456.1505825.3613404.301165.0904071.1505825.0904071.3313967,0,.5119229-.0601754.1808142-.1505825.301165-.2409896.3313967-.0902631.0299437-.2710773.0601754-.60233.0904071-.3312527.0299437-.5722423.0601754-.7831442.0299437-.2107579-.0299437-.4818352-.0299437-.8132319,0-.301165.0302317-.7228248.0904071-1.2649795.2110458-.5119229.1203508-1.4757374.3613404-2.921531.7226809-1.4456497.3313967-2.4697835.60233-3.1625206.7529125-.1204948.2712213-.3915721.7532005-.8734073,1.3555305-.4819792.6325617-1.1747163,1.6866393-2.1084431,3.1924644,2.7107731-1.8069901,4.8793916-2.9514748,6.4756237-3.4636856,1.6264639-.4816913,2.9517627-.6625055,3.9757525-.5119229,1.0542215.1505825,1.7469587.813088,2.1987062,2.0782114.4216598,1.2651234.3915721,3.0721135-.0601754,5.4514899-.4819792,2.3796643-.7530565,3.8552577-.8132319,4.3974124-.0601754.5723863-.1806702.8735513-.301165.9639584-.1505825.0904071-.3614844,0-.602474-.2409896-.2408456-.2712213-.2107579-1.0843092.1204948-2.4096081.3313967-1.3552426.5421546-2.9517627.6927371-4.7889845.1505825-1.8069901.0904071-3.1020573-.2107579-3.9154332-.7228248-.301165-1.5059691-.4215159-2.4396958-.3915721-.0300877.2409896-.1806702.6325617-.4517475,1.2651234-.2710773.60233-.7228248,1.6866393-1.3252988,3.2828715-.6324177,1.5962322-1.3251549,2.9517627-2.1082991,4.0962473-.8132319,1.1444847-1.3854743,1.6566955-1.7469587,1.5662884-.3613404-.0904071-.4818352-.2712213-.3915721-.5421546.0904071-.2712213.4216598-.6627934.9337267-1.2950672.4819792-.602618,1.2649795-2.018036,2.2287939-4.2468299.9638144-2.1988501,1.5662884-3.5540927,1.7469587-4.0058403-.9337267.1805263-1.9577166.5421546-3.1023452,1.114253-.0902631.3613404-.1806702.6927371-.2710773.9639584-.0902631.2709333-.6625055,1.3250109-1.7468147,3.222696-1.0542215,1.9276289-1.6565516,2.9817064-1.8674535,3.222696-.2107579.2409896-.4818352.2712213-.7830003.0904071-.3313967-.1808142.1505825-1.2651234,1.5360568-3.2831594,1.0540776-1.8671655,1.6565516-3.0721135,1.7770464-3.5840365-.9337267.5723863-1.9879483,1.2046601-3.0722575,2.018036-.4517475.2107579-.6927371.0904071-.6927371-.4218038-1.6565516,3.0421698-2.5600466,4.5782265-2.7408608,4.6985774-.1806702.1206388-.3613404.1808142-.5421546.1808142-.2107579,0-.3312527-.1505825-.4216598-.4517475-.0902631-.2712213.0904071-.6927371.4518915-1.204948.3914281-.4816913.9638144-1.415418,1.6263199-2.7709485.6927371-1.3552426,1.8373657-3.1322889,3.4035102-5.3308512-3.0721135.5418667-4.6985774.813088-4.8792476.7828563-.1505825-.0299437-.2710773-.1203508-.3614844-.301165-.0904071-.2107579.0300877-.4517475.3313967-.7226809.3312527-.0302317,2.2588816-.4819792,5.8129743-1.2651234Zm-3.3433348-8.3128455c-.0300877-2.1686185.1808142-3.2831594.6325617-3.3732785.4517475-.0904071.6927371.0299437.7228248.3311088.0302317.301165,0,.7532005-.1204948,1.3252988,1.7770464-1.2950672,3.7349069-1.9575726,5.9033814-1.9878043,1.1446286.1505825,1.8975412.3313967,2.3492887.60233.4518915.2712213.6927371.9337267.7831442,2.1084431.0904071,1.1444847-.2409896,2.7107731-.9638144,4.7587528.60233-.2709333.9337267-.3613404,1.0542215-.2709333.1204948.0901192.1505825.2407017.0902631.4517475-.0601754.1805263-.5722423.4517475-1.6263199.813088-.6626494,1.0843092-1.1747163,1.4456497-1.5059691,1.0540776-1.5362007.602618-2.8011802.903783-3.7649946.9639584-.9939021.0601754-1.4757374-.0302317-1.4757374-.2409896-1.3252988-2.2287939-2.0481237-4.3974124-2.0783553-6.5357992Zm1.8373657,3.3433348c1.9878043-1.1447726,4.1263351-2.0784993,6.3551289-2.8314119.2409896-.1505825.5120669-.0904071.8132319.1808142.2107579-.9034951.1806702-1.6264639-.0300877-2.1084431-.2109019-.5119229-.3915721-.8433196-.602474-1.0540776-2.8613556-.4517475-5.2106443.2409896-7.0779538,2.1084431,0,1.1744284.1806702,2.4093202.5421546,3.7046752Zm6.9876907-1.9276289c-2.2289379.7828563-4.4878195,1.716583-6.7467011,2.8008923.2408456.6325617.4818352,1.1444847.7529125,1.5962322,1.6565516-.1505825,3.2529277-.5720984,4.7588968-1.2950672.60233-.9337267,1.0239899-1.9575726,1.2348917-3.1020573Z"/>
        <path class="cls-2" d="m73.3089609,45.3261271c-.7097415,4.4682178-1.0855691,7.5373108-1.1482404,9.2703494s-.1670567,2.672508-.2714422,2.7978504c-.1252426.1043855-.250585.1460998-.3549705.1043855-.0835283-.0419139-.208771-.1462994-.3131565-.2923991-.1252426-.1460998-.1043855-1.2735828.0417143-3.4032064.1461996-2.1088663.4802132-4.8230885,1.0230975-8.1428664-.5428844.1460998-.9812835.3131565-1.3571111.5428844s-.6889841.3548707-.918712.3967846c-.208771.0417143-.3966848,0-.5010703-.1043855-.1043855-.1045851-.1252426-.2297279-.0417143-.3550703.0625714-.1043855.3340136-.2714422.7725125-.4592562.4383991-.1670567,1.1691973-.5219274,2.1713379-.9813833.1253424-1.0438549.2714422-1.7537959.3967846-2.1713379.1043855-.3967846.187814-.6682268.2297279-.7933696.0207573-.1043855.1668571-.1253424.396585-.0626712s.3131565.3548707.2297279.8350839c-.1043855.5011701-.1880136,1.1065261-.2506848,1.7747529.9813833-.4592562,1.7330386-.7933696,2.275923-1.0230975.5219274-.208771.8769978-.2297279,1.0230975-.0417143.1251428.187814.0834286.3758277-.1670567.6055556-.2714422.208771-.5011701.2921995-.6472699.2295283-.5219274.2297279-1.3779683.6472699-2.5890794,1.2735828Zm1.7957098,5.1989162c-.1670567-.1253424-.1670567-.3131565,0-.5428844.1670567-.2504853.8560408-.7516553,2.0669524-1.4613968,1.2111112-.7099411,2.1922948-1.1901542,2.9022359-1.4615964s1.127483-.3758277,1.2945397-.3131565.2504853.187814.2504853.396585c-.0209569.2297279-.1880136.5011701-.5219274.8769978-.3550703.3758277-.6265125.2923991-.7726123-.2297279-1.6494105.918712-3.2361497,1.858381-4.7394604,2.8395647-.1460998.0626712-.3131565.0209569-.4802132-.1043855Zm.5845986,5.136245c0-.2714422.1670567-.4592562.5011701-.5219274.3548707-.0626712,1.0648118-.1670567,2.1713379-.2714422,1.0857687-.1043855,2.1086667-.2504853,3.069093-.4384989.939669-.1670567,1.4825533-.2921995,1.6286531-.3341134.1460998-.0417143.2297279.0836281.2297279.3758277,0,.3131565-.1880136.5011701-.5638413.522127-.396585.0417143-1.0855691.1460998-2.1086667.2712426-1.0230975.1670567-2.5054513.4384989-4.4889751.8143266-.2923991,0-.4384989-.1251428-.4384989-.4175419Zm6.4098278-12.4021136c.1670567.3758277.3131565.6682268.4384989.918712.1043855.2504853.208771.4802132.3131565.6680272.0626712.208771.0209569.3550703-.1253424.4177415-.1670567.0834286-.3339138.1043855-.5009705.0624716-.1670567-.0417143-.3550703-.3548707-.6265125-.8977551s-.4175419-1.0855691-.4175419-1.6284535c-.0207573-.5428844,0-.8560408.0417143-.9813833.0419139-.1043855.2297279-.1460998.5428844-.1253424.2923991.0209569.3967846.2714422.2506848.6889841-.0836281.2297279-.0626712.5428844.0834286.8769978Zm2.7768935,1.0440545c.0834286,0,.1253424.1043855.1253424.3131565,0,.187814-.1880136.2921995-.522127.2714422-.3758277,0-.6680272-.4384989-.8350839-1.3572109-.187814-.918712-.2297279-1.6703674-.1253424-2.2757234.1043855-.6265125.3133561-.8979547.6265125-.8560408.3131565.0624716.396585.2295283.2921995.5009705-.187814,1.0648118-.0626712,2.1922948.3131565,3.403406h.1253424Z"/>
        <path class="cls-2" d="m93.9443217,52.2739729c0-1.4406395.0417143-2.7976508.1043855-4.0295193-1.8164671.6889841-3.0900499,1.2109116-3.8626622,1.6076962-.7516553.396585-1.336254.605356-1.732839.6472699-.3758277.0417143-.5845986-.0836281-.5638413-.3341134.0209569-.2714422.1460998-.4384989.3758277-.5219274.208771-.0836281.7933696-.2923991,1.7120817-.6891837.8977551-.3756281,2.2340091-.9185125,4.008762-1.6284535.1043855-1.2528254.1253424-2.5471656.1043855-3.9253334-2.1296236.730898-3.6746486,1.1484399-4.6767892,1.336254-1.0023402.1880136-1.545025.1880136-1.64961.0419139-.1043855-.1462994-.1043855-.3341134.0209569-.5638413.1043855-.208771.3131565-.2921995.6055556-.2297279.2921995.0626712.8977551-.0207573,1.8581814-.2712426.9394694-.2297279,2.1922948-.6265125,3.7163629-1.1901542-.0207573-.2297279-.0834286-.4802132-.187814-.7516553-.1043855-.2504853-.1043855-.4175419.0209569-.5011701.1043855-.0626712.2504853-.1251428.396585-.1670567.1460998-.0417143.2714422.0836281.3967846.3550703.1043855.2714422.208771.5636417.2714422.8560408,1.336254-.3967846,2.2340091-.6682268,2.6932653-.7933696.4175419-.1462994.6682268-.1045851.7099411.0834286.0417143.2297279-.187814.5011701-.6472699.8143266-.5011701.3131565-.8350839.4384989-1.0230975.3341134-.187814-.1045851-.7306984,0-1.6076962.3131565.0209569,1.1899546,0,2.4844944-.0417143,3.799991.6682268-.2923991,1.3152971-.6472699,1.9418096-1.0440545.605356-.396585,1.0855691-.6263129,1.4823538-.6680272.3758277-.0419139.5845986-.0209569.6682268.0624716.0624716.0836281.0417143.2089706-.0626712.3967846s-.5428844.4592562-1.336254.8350839c-.7933696.3550703-1.7120817.8352835-2.7142223,1.3781679-.1462994,1.4613968-.1670567,2.9439502-.0626712,4.5097325,2.1086667.1880136,3.5702631.6055556,4.3636327,1.2945397.7933696.6680272,1.1484399,1.0648118,1.0648118,1.1691973-.0834286.1253424-.187814.2297279-.2921995.2923991-.1043855.0834286-.2923991.0417143-.5428844-.1253424-.2714422-.1460998-.5845986-.3548707-.8769978-.6682268-1.2109116-.7514558-2.4844944-1.1272834-3.8207483-1.1272834-.3133561,1.5031111-1.1693969,2.6098368-2.5264082,3.277864-1.2109116.3131565-2.1505805.1670567-2.8605216-.396585-.7097415-.5638413-.6680272-1.1901542.1253424-1.858381,1.2109116-1.2735828,2.6934649-1.8998957,4.4472609-1.9208526Zm-.1253424.8979547c-1.524068.1251428-2.5888798.4592562-3.1944354,1.0021406s-.7933696,1.0230975-.5636417,1.3570113c.6263129.3758277,1.2943401.3967846,2.0459955.0836281,1.0648118-.5011701,1.6286531-1.3154966,1.7120817-2.4427801Z"/>
        <path class="cls-2" d="m104.5852216,42.3178986c.2297279,0,.396585.0417143.5009705.1460998.1043855.1253424,0,.7306984-.2712426,1.8164671-.2714422,1.1065261-.2089706,2.7978504.2295283,5.0526168.3550703,0,.6055556.0209569.730898.0419139.1043855.0417143.1460998.1460998.1251428.2921995-.0417143.1670567-.187814.3341134-.4175419.4802132-.2297279.1253424-.5636417.0836281-1.0230975-.1251428-.5219274-1.4406395-.7516553-2.7768935-.6472699-4.0714332.0836281-1.2735828.208771-2.4010658.3550703-3.382449.0624716-.1670567.208771-.2504853.4175419-.2504853Zm7.1614831,1.7537959c-.3131565-1.4823538-.3967846-2.3176372-.2504853-2.5054513.1460998-.1670567.3131565-.1880136.4592562-.0836281.1460998.1462994.2921995.4177415.4592562.8143266.1462994.3758277.2714422,1.7747529.3758277,4.1758187.0836281,2.3801089-.2921995,4.4889751-1.1065261,6.2844853-.8350839,1.7747529-1.336254,2.7561361-1.545025,2.9231928-.208771.187814-.4592562.3548707-.7516553.5009705-.3131565.1462994-.4802132.1462994-.5011701-.0207573-.0207573-.1880136.2297279-.6472699.7516553-1.3989252.522127-.7306984,1.1484399-2.0879093,1.858381-4.0714332.4802132-2.9439502.5636417-5.136245.2504853-6.6185987Z"/>
        <path class="cls-2" d="m117.4878958,50.000731c-.3383824-.0283109-.4230454-.4513563-.2820303-1.2127841.1410151-.7900083.8460908-2.1438076,2.1154967-4.1463305,1.2691363-1.9744816,2.397527-3.6103111,3.4129439-4.9077583,1.0154169-1.2694059,1.6641404-1.9181295,1.974212-1.9461707.2820303-.0283109.4513563.0563521.5077084.1973673s.0283109.3103412-.084663.5077084c-.1127043.169326-.3383824.4230454-.733117.7616975-.3950042.3664237-1.0720386,1.2974471-2.0591446,2.8486137.3383824.4513563.3950042,1.7204926.1129739,3.8076784-.3103412,2.0871859-.253989,5.3310733.0843934,9.6464602.1129739.6487236.0283109,1.0434581-.1973673,1.156432-.2537194.084663-.4793976,0-.6487236-.3103412-.169326-.2820303-.3383824-.9590647-.4793976-2.0025228-.169326-1.0154169-.2256782-2.5385422-.169326-4.5130237.0563521-1.974212.169326-4.0050457.2820303-6.0075685-1.5231253,1.7768447-2.6512464,3.7230154-3.3563221,5.7255383,0,.3103412-.169326.4513563-.4796672.3950042Zm1.1283908-7.5026526c-.3103412-.169326-.4796672-.3103412-.4796672-.3950042s.253989-.902443.7333866-2.397527c.4513563-1.5231253,1.2127841-2.9049658,2.1718489-4.202413.9590647-1.2977168,1.4667732-1.9464403,1.5231253-2.0027925s.1973673-.084663.4513563-.084663c.2537194,0,.3947345.084663.4510867.2256782.0566218.1410151-.3664237.8180496-1.2127841,2.0308337-.8744017,1.241095-1.6075187,2.48219-2.1718489,3.7796372-.5921018,1.2974471-.902443,2.143538-.902443,2.6229355-.084663.4513563-.253989.6206823-.5640606.423315Zm6.9666333,2.5665834c-.6767648.253989-1.0154169.3103412-1.0434581.1410151-.0283109-.169326-.0566218-.3947345-.0283109-.6487236.0283109-.2256782.084663-.3666933.2256782-.3947345.1127043-.0283109.5357497-.2256782,1.2691363-.5923714.7616975-.338652,1.8617773-.8744017,3.384633-1.5514362.1129739-.987106.169326-1.8615077.1129739-2.7075985-1.2974471.4513563-2.2565119.902443-2.8769246,1.2974471-.6487236.3947345-1.0154169.5077084-1.2127841.3383824-.1976369-.1127043-.253989-.3666933-.2256782-.6767648.0280413-.3103412.5640606-.6206823,1.5231253-1.0154169.9587951-.3666933,1.889549-.7333866,2.7922616-1.156432v-2.4258379c0-.1690564.1410151-.2537194.4793976-.2537194.338652,0,.5360193.1410151.5923714.4510867.0563521.3103412.0563521.9027126-.0283109,1.7488034.9590647-.3100715,1.6360992-.6204127,2.0874555-.8744017.4230454-.2537194.7897387-.3383824,1.071769-.2537194s.4230454.2820303.4230454.5640606-.3103412.4793976-.9307539.6770345c-.5923714.1973673-1.4667732.5640606-2.651516,1.071769,0,.3947345-.0280413,1.2974471-.0563521,2.7075985,1.2127841-.4510867,2.1718489-.81778,2.8488833-1.1844733.7050757-.338652,1.1281211-.5077084,1.3254884-.5360193.1976369,0,.338652.1410151.4513563.4230454.1129739.2820303,0,.5077084-.3383824.7053453-.3383824.1690564-1.7204926.733117-4.1180196,1.6638708-2.7359094,1.410421-4.4283607,2.2284706-5.0770843,2.48219Zm4.5693759,2.228201c.987106-.5640606,1.7768447-.987106,2.397527-1.241095.5921018-.2537194.9307539-.3383824.987106-.2537194s.084663.1973673.084663.3383824v.3666933c0,.084663-.1129739.1973673-.3666933.3103412-.2256782.1410151-.6487236.3947345-1.2691363.7614278-.5923714.3666933-1.2130538.6770345-1.8334665,1.0154169-.1410151,1.241095-.2256782,2.228201-.253989,2.9615876-.0280413.7616975-.0843934,1.156432-.1690564,1.2694059-.084663.1127043-.2256782.1690564-.4513563.1410151-.2256782-.0283109-.3383824-.1976369-.3103412-.4796672.0283109-.3100715.0283109-.733117.0566218-1.1844733.0280413-.4796672,0-1.1847429-.0283109-2.2001597-.987106.4513563-1.7768447.8744017-2.312864,1.241095-.5640606.4230454-.9590647.5640606-1.2691363.4230454-.3103412-.1410151-.4513563-.3103412-.4513563-.5077084s.1410151-.3947345.4230454-.5640606c.2820303-.1410151.6487236-.3666933,1.156432-.6204127.5077084-.253989,1.325758-.6770345,2.4538791-1.2130538.0283109-1.2408254.1127043-2.1998901.1973673-2.7922616s.1973673-.902443.3103412-.9307539c.084663-.0283109.2256782-.0283109.3947345,0,.169326.0283109.3103412.2256782.423315.5360193-.1410151.8741321-.1976369,1.7485338-.169326,2.6229355Zm2.5665834,4.2590347c1.156432-.6204127,1.8617773-.902443,2.1718489-.7614278.3103412.1410151.338652.3947345.1129739.7333866-.2256782.3666933-.3950042.5921018-.4796672.6487236-.0843934.0563521-.2256782.0563521-.3666933,0-.1690564-.0283109-.3664237,0-.5921018.1127043-.2256782.1410151-.3950042.2256782-.5077084.3103412-.084663.084663-.6770345.3947345-1.7488034.9590647-1.071769.5640606-2.1718489,1.0434581-3.29997,1.4665035-1.1283908.3950042-1.7771143.5923714-1.8898186.5360193-.1129739-.0563521-.1976369-.1973673-.2820303-.4513563-.084663-.2256782.4230454-.5640606,1.5511665-1.0154169,2.397527-1.0434581,4.1743717-1.8898186,5.3308037-2.5385422Zm2.48219-10.8309334c.0563521-.1410151.1127043-.1973673.1973673-.1410151.0563521.084663.7050757-.2256782,1.9461707-.8744017,1.241095-.6767648,2.48219-1.1281211,3.7796372-1.3254884,1.2974471-.2256782,1.9461707-.3103412,2.0025228-.2820303.0563521.0563521.084663.2254085.0563521.4793976-.0280413.2537194-.1690564.4793976-.4510867.6204127s-.4513563.253989-.5360193.2820303c-.084663.0566218-.4513563.084663-1.0434581.1129739-.6206823.0280413-1.0720386.084663-1.2974471.1127043,0,.084663,0,.2820303-.0283109.5360193-.0283109.2820303,0,.6487236.0563521,1.1000799.0563521.4793976.084663,1.3254884.084663,2.5948943,0,1.2974471.084663,4.9357995.2537194,10.9436377-.0843934.8460908-.1410151,1.3821102-.2537194,1.6358296-.1127043.253989-.1973673.3950042-.2820303.3666933-.084663-.0280413-.3666933-.1127043-.8460908-.2537194-.5077084-.1410151-.8744017-.3383824-1.1000799-.5077084-.253989-.1973673-.3950042-.4230454-.4513563-.6487236s0-.3666933.1973673-.4230454c.1976369-.0283109.3666933.0280413.5923714.2256782.2256782.1973673.6206823.3100715,1.156432.3383824-.0280413-1.7768447-.084663-3.1589548-.1410151-4.0897087-.0563521-.9027126-.084663-1.4667732-.084663-1.7207622,0-.2254085-.0280413-.733117-.0563521-1.5794774-.0283109-.81778-.0563521-2.0025228-.1410151-3.5256481-.084663-1.4948144-.1127043-2.3692161-.1127043-2.5948943s-.0283109-.5357497-.0566218-.9590647c-.0280413-.3947345-.0280413-.7614278,0-1.071769-.2537194.1129739-.6767648.338652-1.2127841.6770345-.5640606.3103412-.902443.5077084-1.0434581.5357497-.1410151.0566218-.3666933.169326-.6487236.3666933-.2822999.1976369-.4796672.1129739-.6206823-.1973673,0-.3383824.0283109-.5640606.084663-.7333866Zm1.3537993-4.0333566c-.2537194-.0280413-.4230454-.1127043-.5077084-.2820303-.084663-.1410151-.0563521-.3103412.0283109-.5077084s.1973673-.3383824.3103412-.3947345c.1127043-.0566218.5077084-.3103412,1.2408254-.7333866.7053453-.4230454,1.4384623-.7897387,2.2565119-1.0154169.7897387-.253989,1.2127841-.4230454,1.2694059-.4796672.0563521-.0280413.1127043.084663.1973673.3666933.084663.253989.084663.4796672,0,.6206823s-.169326.2820303-.253989.3666933c-.0843934.1127043-.4230454.1690564-1.0154169.1973673-.5640606.0280413-1.3818405.3947345-2.4819204,1.156432-.4513563.5077084-.8180496.7333866-1.0437277.7050757Z"/>
        <path class="cls-2" d="m148.5609458,36.9614682c.1973673-.1129739.5357497-.3103412,1.071769-.5923714s1.2691363-.6204127,2.228201-1.1000799c.9590647-.4513563,1.9744816-.8180496,3.0462506-1.1281211,1.071769-.3103412,2.312864-.6206823,3.6949742-.9590647,1.4101514-.3383824,2.312864-.5357497,2.7922616-.5640606s.7897387-.0283109,1.0154169,0,.4230454.0563521.5923714.1410151c.1410151.084663.2820303.169326.3666933.2537194.084663.084663.084663.1976369.0563521.338652-.0283109.1127043-.1127043.2256782-.1973673.3100715-.1129739.084663-.2256782.1410151-.3666933.1410151-.169326,0-.3666933,0-.6206823-.0280413-.2537194-.0283109-.5357497,0-.9307539.0280413-.3947345.0283109-.81778.1129739-1.2974471.1976369-.4793976.084663-1.0154169.1973673-1.5511665.3383824-.5077084.1410151-1.4384623.4230454-2.7642203.8460908-1.3537993.4513563-2.3411749.7616975-2.9898985.9873756-.6204127.2537194-1.1844733.4793976-1.6075187.6767648-.4513563.169326-.9027126.4513563-1.410421.7616975-.5077084.3100715-.902443.5640606-1.241095.81778.1410151.1410151.2820303.3103412.423315.5077084.1410151.1976369.2820303.5077084.5074388.9873756.1976369.4793976.423315,1.4665035.6206823,2.9332767.1973673,1.4384623.2820303,2.6512464.2820303,3.553959,0,.9590647-.0283109,1.9461707-.084663,2.9615876s-.169326,2.143538-.3103412,3.384633c-.1410151,1.241095-.2537194,2.058875-.3100715,2.48219.5923714-.084663,2.6229355-.5923714,6.1488533-1.495084,3.4973373-.902443,5.8102013-1.4948144,6.8819703-1.7485338,1.071769-.253989,1.7771143-.3950042,2.2001597-.423315.4230454-.0280413.7614278,0,1.071769.0283109s.5923714.1127043.8460908.2537194c.253989.1412848.338652.338652.2256782.6206823-.1127043.3103412-.5923714.4230454-1.4667732.3947345-.9307539-.0280413-1.7204926.0566218-2.4538791.2256782-.7614278.1976369-3.0179397.7616975-6.7973072,1.7204926-3.7796372.9873756-5.951486,1.5797471-6.4028423,1.7207622-.5077084.1410151-.8744017.0843934-1.156432-.169326-.2820303-.253989-.3666933-.5360193-.2537194-.8460908.1127043-.3666933.1973673-.8744017.2537194-1.5231253s.1410151-1.4384623.253989-2.312864c.084663-.8460908.1690564-1.7771143.2256782-2.7078682.0563521-.902443-.0283109-2.6229355-.253989-5.1614777-.2537194-2.5385422-.7614278-4.1463305-1.5231253-4.7667431-.7897387-.6487236-1.0434581-1.1283908-.7333866-1.5514362.253989-.4230454.5923714-.3383824.9873756.2256782.3947345-.3947345.7333866-.6487236.9307539-.7614278Zm4.5127541,14.0181992c-.3100715-.1410151-.1973673-.8180496.3666933-2.0027925.5360193-1.156432,1.6924513-2.7922616,3.469296-4.9357995-1.0154169-.253989-1.7768447-.3666933-2.228201-.3103412-.4793976.084663-.987106.1410151-1.5511665.169326-.5923714.0280413-.7053453-.1129739-.4796672-.4513563.253989-.3103412.7616975-.5923714,1.4948144-.7616975.7333866-.1973673,1.8898186-.1410151,3.469296.1976369.6487236-.8463605,1.2130538-1.6077883,1.7488034-2.312864.5077084-.6487236,1.156432-1.156432,1.8898186-1.4667732s1.1000799-.2820303,1.1281211.084663c0,.3383824-.3666933.7333866-1.0434581,1.156432-.6770345.3947345-1.6358296,1.3537993-2.8205724,2.7922616,1.1000799.169326,2.0025228.3950042,2.6512464.7050757.6487236.2822999.7897387.5360193.4796672.7333866-.338652.1976369-.9590647.253989-1.8898186.1129739-.9027126-.1129739-1.5794774-.253989-2.0027925-.4230454l-3.3280112,5.2744516c-.5923714,1.1281211-1.0437277,1.5794774-1.3540689,1.4384623Z"/>
        <g class="cls-4">
          <g>
            <path class="cls-2" d="m52.5203269,14.9427801c.0700972.004161.1372311-.0087443.1974534-.0351291.1434905-.0628665.2474267-.2022384.2571023-.3693091l.2711699-4.3984678c.0139665-.2372248-.1671431-.4407232-.4044287-.4545341-.2372019-.0142086-.4408314.1671905-.4545341.4044287l-.2711906,4.3984769c-.0139448.2372153.1671638.4407142.4044278.4545345Z"/>
            <path class="cls-2" d="m59.735016,21.6787508c.1106317.043224.228275.0375161.3291793-.0066924s.1848532-.1268227.2280772-.2374544l6.2642441-15.9668495c.086564-.2212885-.0227863-.4708768-.2441468-.5572565-.2213289-.0866515-.4708955.0226893-.5572365.244138l-6.2643589,15.9666418c-.0864398.2215178.0228062.470868.2442416.5574729Z"/>
            <path class="cls-2" d="m93.4464678,5.7883067l-4.8086283,4.2782614c-.177448.1580894-.1933037.430034-.0353699.6074212.1270618.1428347.3279246.1810117.4940066.1082474.040379-.017691.0787891-.0418187.1135189-.0726394l4.8086188-4.278283c.177448-.1580894.1933037-.430034.0353699-.6074212-.1578333-.177457-.4295901-.1928792-.607516-.0355863Z"/>
            <path class="cls-2" d="m131.3601297,7.1760883l-45.1641635,20.7361449c-.2176474.0953563-.3168119.3491191-.2214456.5667893.0953568.2176486.3491325.3167802.5667798.221424l45.1641635-20.7361449c.2176702-.0953663.3168119-.3491191.2214551-.5667677-.0953663-.2176702-.3491191-.3168119-.5667893-.2214456Z"/>
            <path class="cls-2" d="m9.7207647,41.6928782c.0700377.0040839.1371458-.0089391.1973681-.0353238.1434905-.0628665.2474524-.2021207.257166-.3691048.0139191-.237333-.1672-.4408531-.4045235-.4547505l-6.4245958-.3748589c-.2367959-.0138706-.4407366.1674069-.4545341.4044287-.0138974.2373235.1672.4408531.4045235.4547505l6.4245958.3748589Z"/>
            <path class="cls-2" d="m22.071214,33.0436237c.1106317.043224.228275.0375161.3291793-.0066924s.1848748-.1268321.2280772-.2374544c.0864709-.2215056-.0227751-.4708559-.2442416-.5574729L.9862946,24.0661228c-.2213272-.0866523-.4709154.022698-.5572565.2441468-.0865441.2212798.0228062.470868.2441468.5572565l21.3980292,8.1760976Z"/>
            <path class="cls-2" d="m22.8674825,12.6649017c.1270523.1428131.3279246.1810117.4940066.1082474.040379-.017691.0787417-.0419269.1134146-.0728775.1775645-.1578825.1934202-.4298271.0353916-.6074307l-4.278524-4.8088745c-.1579433-.1774089-.4296241-.1932512-.6074307-.0353916-.1775333.1578946-.1934202.4298271-.0353605.6074429l4.2785024,4.808884Z"/>
            <path class="cls-2" d="m78.6351997,31.2247776l-8.6316546,3.7817248c-.3482055-.7533211-.7369536-1.4757252-1.1603492-2.1678863L108.7526364,7.9325843c.2000203-.1281802.2582418-.3942601.1299772-.5944733-.1281793-.2000184-.396088-.2587049-.5943631-.1300255l-39.9088311,24.9056617c-.459948-.6871086-.9554719-1.3415557-1.4844142-1.9603658l18.3912657-16.2509539c.1774696-.1580989.1933348-.4300218.0353916-.6074307-.157739-.1774725-.4294819-.1929266-.607516-.0355863l-18.3925381,16.252053c-.5608071-.6039983-1.1539342-1.1710869-1.7753589-1.7002684l15.5340483-19.9682052c.15067-.1838862.1238395-.4550036-.0600209-.6055559-.1836698-.1507648-.4553053-.1239395-.6054477.0599735l-15.5348177,19.9689808c-.6471564-.5070232-1.3214248-.9749047-2.019324-1.4013524l4.6664669-7.7962752c.120085-.2051263.051086-.468705-.1538862-.5887285-.2051263-.120085-.4687639-.0511616-.5887406.1539173l-4.6671839,7.7974663c-.716777-.3990642-1.4556362-.7557482-2.2123698-1.0691613l.4735641-1.0913962c.0864493-.2214962-.0227967-.4708464-.2442416-.5574729-.2211458-.0864738-.4707124.022867-.5572565.2441468l-.473737,1.0918846c-.7687802-.2826259-1.5538084-.5210943-2.3512703-.713646l3.3628039-15.6837114c.050751-.2320359-.0962472-.4614671-.3284508-.5122478-.2322294-.0508983-.4616227.0961864-.5122477.3284508l-3.3623343,15.6815454c-.8021266-.1596336-1.6149404-.2733677-2.4343776-.3393457l.3417368-6.0142688c.0139665-.2372248-.1671526-.4407449-.4044287-.4545341-.2370937-.014256-.440784.1672987-.4545341.4044287l-.3418141,6.0139157c-.8157014-.0322525-1.6363386-.0170757-2.4581664.0467784l-1.7469954-15.0549855c-.0234102-.236583-.2340874-.4092526-.4705147-.3857816-.2368579.0227827-.4094298.234036-.3857721.4705364l1.7469271,15.0538289c-.8084226.0963352-1.6165052.2399549-2.4205306.4332799L39.8918262.321436c-.0601235-.2298351-.2952594-.3674918-.5251716-.3073087-.2290894.0598226-.367383.2952117-.3073081.5251714l5.9918417,23.0037543c-.7803871.2217871-1.5555809.49028-2.32214.8079171l-4.4989405-10.6812297c-.0953663-.2176702-.3491407-.3168024-.5667893-.2214456-.2176702.0953663-.3168119.3491191-.2214456.5667893l4.4989405,10.6812297c-.753194.3482014-1.4760923.7360569-2.1681763,1.1593929l-10.6234042-17.5240265c-.1282646-.2002131-.3956954-.2581031-.5944008-.1301121-.2001179.1282229-.2583099.3943932-.1301241.5944087l10.6225175,17.5227384c-.6871854.4600084-1.340646.9567241-1.9595332,1.4857259l-6.7146388-6.9000228c-.1578351-.1774563-.4298283-.1931875-.6074307-.0353916-.1775333.1578946-.1934202.4298271-.0353699.6074212l6.7154739,6.9008692c-.6040848.560845-1.1715253,1.1538167-1.7007838,1.7753011L6.9066221,7.506728c-.1836698-.1507648-.4550416-.1239261-.6054478.0599735-.1507174.183778-.1238653.454886.0599735.6054478l27.8385062,22.646196c-.5070232.6471564-.9744473,1.3217919-1.4008873,2.0197144l-18.5767909-10.5618743c-.2051953-.1201837-.4687639-.0511616-.5887407.1539173-.120085.2051263-.0510629.4686948.1539078.588719l18.5786986,10.5629729c-.3990526.7167719-.7559258,1.4555076-1.0693202,2.2122073l-5.5031841-2.1465739c-.2212324-.0864359-.470799.0229049-.5572565.2441468-.0864398.2215178.0228062.470868.2442416.5574729l5.5027224,2.146415c-.2826254.7687284-.5213048,1.5537459-.7138443,2.3511767l-19.5708849-4.0079815c-.2322036-.0507806-.4613589.0961998-.5122478.3284508-.0507415.2320575.0962472.4614671.3284508.5122478l19.5695239,4.0077009c-.1596553.8021361-.27279,1.6150227-.3387583,2.4344821l-17.667712-1.1449481c-.2370123-.0137758-.4407366.1674069-.4545341.4044287-.0138974.2373235.1672.4408531.4045235.4547505l17.6665513,1.1448892c-.0322566.8155742-.0174871,1.6361061.0463507,2.4578379L.387835,48.9041011c-.2369455.0234659-.4092052.2341956-.3856868.4707311.0233465.2363788.234002.4090578.4705459.3857938l29.3509703-3.3654442c.0963284.8083482.2415105,1.6162879.4347976,2.4202268l-16.430789,4.8994969c-.2295959.0597866-.3674701.2952499-.3073466.525085.0602305.2300204.2952973.3675783.5252312.3073857l16.4313895-4.8996568c.2218129.7805048.4893373,1.5560197.8070746,2.3226897L.9825091,66.4798964c-.2176702.0953663-.3168119.3491191-.2214456.5667893.0953568.2176486.3491096.3167902.5667798.221424l30.6917134-14.6804431c.2176486-.0953568.3168119-.3491191.2214551-.5667677-4.4874961-10.2425528.1945396-22.2264559,10.4371011-26.7139557,10.2425522-4.4874958,22.2262899.1947516,26.713786,10.4373044.0953568.2176486.3491096.3167903.5667806.2214236l9.0218545-3.9526803c.2176486-.0953568.3168119-.3491191.2214551-.5667677-.0953663-.2176702-.3491407-.3168024-.5667893-.2214456Z"/>
          </g>
        </g>
      </g>
      <g>
        <path class="cls-2" d="m16.4734356,20.42746c.0723617.2209838.0589498.8610101-.009825,1.1279997-.0686188.2669896-.2634806.0131-.2903823.3396631-.0556748,1.1920959-.1465947,2.9581725-.1721708,4.9227758,1.9676444-1.2802087,3.5084486-3.863395,2.7272858-6.2486784-.7957443-2.4292618-3.9210972-2.1636759-6.6610151-1.266329-2.1556443.706072-5.1420441,2.4177214-4.8020691,3.4557369.123046.3753761.6375311.7205755.8421399.8003449.2045308.0796134-.2025814.3352185-.4040712.4011861-.2013338.0659676-1.8751649-.4128825-2.0775904-1.0312316-.4195884-1.2808325,3.9062817-3.6026435,6.0216125-4.2955375,3.7472109-1.227341,7.023915-1.3712066,8.1233755,1.9856568.5208792,1.590085-.0596516,3.2229787-.8422959,4.5798377-.2283135.3926088-.2495229.6686435.1865184.5013072,1.9252255-.7282951,5.7061999-1.6487229,6.1039551-.4341699.1013687.3094085-.1646851.5187738-.3661749.5847414-.4633329.1517411-2.5431847-.3409107-5.2226712.5367083-2.0145859.6598322-2.7032692,1.3499191-3.0055039,1.4489486-.181216.0593397-.4059426-.0137238-.625055-.1376275.0141136,2.5632245.1537685,5.3050918.6306692,7.3741828.1116615.4769787.2113147.7132457.3827838.8283382.0449921.2054666-.4074242.8670922-.6291877.9396098-.2214516.0725956-.6105515-.0934152-.770792-1.2636778-.4412657-3.254481-1.0053435-12.2643647-.1675703-14.2016765-.2572426-.6494614-.0650319-1.1525621.1564197-1.2250797.2217635-.0726736.7992532.0561427.8716148.2769705Z"/>
        <path class="cls-2" d="m21.8656264,24.9704151c-.0506843-.1545483.21381-.4368211.4152998-.5027887s.9417152.0828884,1.1220735.2927996c.3605607.4198224.1582131,2.6625658.2326801,4.2521049.0119303.2407117.1400448.223323.1901053.035635.4142081-1.1871834,2.642604-5.1449292,3.6095834-5.4616674.3828618-.1253853,1.4175243.5137833,1.6273575,1.1542776.2025035.6183491-.1580572,1.1522502-.6302014,1.2089387-.3441077.0392999-.7800711-.7470093-1.0564958-.7053702-1.1710424.5792051-2.7098192,3.5775352-3.4711761,5.611927-.0639403.485634.0575462,1.7418261-.0669813,2.247266-.2764246.0416391-.3765457.4167033-.5047381.4341699-.1280365.0176226-.7490367-.2436748-.7367165-.6144503.1023044-1.8673674.2047648-5.3002573-.3975212-7.5483031-.1080746.0109166-.2825847-.2498349-.3332691-.4045391Z"/>
        <path class="cls-2" d="m30.9434272,21.8994115c-.0903741-.7527795.7583158-1.2264053,1.1664418-.7976937,1.9512694,2.0753291,4.0774389,1.8924756,6.3024038.3079269-.3105781-.6076664-.6587406-1.3982642-.4407199-1.9589111.1089324-.2801675,1.9030803-.1829315,2.0580185.4264503s-.3614184,1.7567975-.1734184,2.3310122c.5735129,1.2060536,1.3655143,3.147654,2.6110237,4.15791.2133421.1746661.3600928.077742.4184188-.3570517.7003017-5.2180706,1.680537-8.0822822,2.4461046-8.3329748.2821169-.0924015.5600231-.0612111.9872531.6302014.3963516.1883118,1.3457864.6351919,1.3690232.7743789.0464736.2781401-.1172758.5274291-.4195105.6263806-.0603534.0198059-.6885274-.2634806-1.1654281-.4252027-.2995835-.0975479-.6653685-.1243716-.9922436.7162868-.3213388.7898961-1.2551004,3.9324037-1.3350257,6.2084428.1983707.7419409-.5237643,1.1251146-.9670574,1.2703057-1.0072929.3299161-2.66202-1.7934462-3.9821523-5.3471208l-.0144255-.0442903c-.8915767.683303-1.7821397,1.0974331-2.6629557,1.3368972.1803583.2099112.2800115.4463342.3193114.7023291.0832003.7308683-1.4002916,4.1022352-2.1384117,5.3222465-.4839965.7697783-1.1514704,1.1840644-1.8410895,1.1899126-1.5347221.0136458-1.9692819-1.6535574-2.0990338-2.6627217-.1818398-1.2365422.3351405-2.995367-.3736606-5.1595107-.123046-.3753761.5185399-.7325058.9271337-.9152034Zm.9924775,1.1910822c.0578581.1766934.068151.3446536.071348.4902346-.0264338.6689554-1.2835616,4.1862153.1418382,6.0182595.5004495.6428335,1.1571627-.2812591,1.6339074-1.0734165.2669896-.4785382,1.2747504-2.373665,1.4063737-3.8106833.0325939-.3774035-.0904521-.7529355-.2995835-1.0511934-1.0667106.0803932-2.0591881-.1570435-2.9538838-.573201Z"/>
        <path class="cls-2" d="m57.109807,16.5815317c-.599089,1.7123512-2.703971,6.3879434-5.7801991,7.6888157-1.6622127,1.3270722-2.7725898-.6325407-3.0463633-1.7411243-.5622064-2.2611458.2570086-5.0727235,1.6966001-7.0115168.2499908-.3264072.4287896-.1893255.5511338-.1560298.1224222.0332957.1177436-.1853488.2789978-.2381385.4029796-.1319353,1.4728092.8871321,1.7590588,1.6248622.1504156.3908933.0760265.7086452-.0474873.9447563-.02581.0573123.106983.2583342.0238606.4814233-.3941683,1.1803215-1.2929187,2.7953588-2.8637437,4.6058817.4970185,1.1088176,1.2755301.8295078,2.6588229-.2595818,1.5300435-1.1856239,3.2729613-3.4927754,4.3498088-6.2665349.1539245-.0749349.5916033-.1692077.4195105.327187Zm-7.7319364,5.2713282c1.0522071-1.078251,2.7211257-3.6790599,2.3129218-5.061495-.0722837-.2208278-.7794473-.404851-.9407015-.3520613-.9266658.3034823-1.8481073,3.0752144-1.3722203,5.4135563Z"/>
        <path class="cls-2" d="m64.3637509,20.2703385c.5972956-.220126,1.2516695-.605639,1.965617-1.6952745.2908502.0024952.3632118.223323.3115918.3381816-.6518787,1.1427371-1.363253,2.0358733-2.2223137,2.3416949-.2216076.0725956-1.1964625.0251082-1.6768722-.6245871-.9428069-.7670491-1.4647777-3.9953302-1.6626806-5.3489142-.5681326,1.2621962-1.1322104,2.4007227-1.4043463,4.225983.168428.923079-.1255412.7746908-.3135412,1.1542776-.0516201.1147026-.8079085.8025282-.8280263.8091561-.1612542.0527897-.5615826-.0117744-.7289189-.2503027-.0909199-.1415263-.4298813-.4950691-.4836067-.7953544-.4697269-3.0006694-.4733138-4.4422102-.4554574-6.771195.0501385-.187688.2355653-.3706975.4167813-.4301152.181372-.0593397.8653768-.0143476.9536455.3235221.1928345.7926252.2378266,1.9518153-.1366138,2.7836624-.0315802,1.0617201.0821866,1.9537647.1989946,2.9914682.0480332.3512035.3462131.3758439.4163914.1816839.8858065-2.5399876,2.1909674-6.6600794,2.4528885-6.7458529.2619211-.0858515.6204544-.081017.7919235.0339975.3228983.2366569.4712085,1.1662858.3740505,1.687165-.1455031,1.7348863.7034988,6.0298,2.030493,5.7908038Z"/>
        <path class="cls-2" d="m75.1301982,13.2959382l.0144255.0441344c.434014,1.3251228,1.0756778,1.9221064,1.9218725,1.6449021.9469396-.3101102,1.9551682-1.8630787,2.283135-3.9267894.1539245-.0748569.3972093-.0812509.4195105.3272649.0667474,1.2252356-.7488807,3.5709073-2.4277023,4.4387013-1.2775575.6629513-2.47402-.265664-2.9942754-1.5135126-1.1597359,1.4310921-2.4103137,2.7212817-3.406768,3.5611603-.1724827.1542364-.5884063.3149447-.7149612.4053188-1.5904749,1.2055857-3.3024362.2013338-3.6440487-1.8632346-.4505449-2.7379685.9817948-4.698751,1.1124045-4.9128729.1307656-.213888-.094039-.2871073.0439784-.4790061.7356248-1.023356,1.5325387-1.3822012,1.9174279-1.0925986.1168079.084058.1380174-.1918208.2878091-.1430858.3946361.1152484.9897484.4337021,1.1271419.8535244.1447233.4416556-.0545831.9226111-.4173271,1.0413684-.3827058.1253853-.7686087.1050336-1.0212506-.3256274-1.0047197.1334168-2.250619,2.5955065-1.933413,4.7902168.2765026,1.8658858,1.4713277,1.7679481,2.4524207,1.1532639,1.0009769-.6214681,2.5636143-2.1847294,3.934587-3.8564551-.4397062-2.228006-.0466296-5.0465236,1.5824433-6.3384287.3193114-.2511604.4287896-.1892476.5512118-.1560298.5373321.1421501,1.6024831-.0113065,1.9320874.8589048.1504156.3910492.0630825.7374963-.0602754.9736073-.025888.0573123-.3078489.1497138-.3911272.3725689-.514953,1.2201672-1.4772538,2.7090394-2.5693066,4.1427047Zm-.2086636-.9096671c1.3217698-1.7535225,2.3140914-3.4234548,2.1172022-4.0927222-.0723617-.2208278-.4096855-.5014631-.5708617-.4486734-1.0476065.3430941-1.7913408,2.5673572-1.5463405,4.5413956Z"/>
      </g>
    </g>
  </g>
</svg>