<?xml version="1.0" encoding="UTF-8"?>
<svg id="_レイヤー_2" data-name="レイヤー 2" xmlns="http://www.w3.org/2000/svg" viewBox="0 0 546.8110352 59.6542969">
  <defs>
    <style>
      .cls-1 {
        fill: #fff;
        stroke-width: 0px;
      }
    </style>
  </defs>
  <g id="_スライド" data-name="スライド">
    <g>
      <g>
        <path class="cls-1" d="m.8852539,40.8046875c1.2651367,1.2016602,2.6567383,2.0239258,4.4907227,2.0874023,1.6445312.0629883,3.4785156-.1899414,5.1865234-.3164062,3.6049805-.3164062,9.0444336-.7587891,13.7875977-1.2016602.7592773-.0634766,1.012207-.1899414,1.0751953-.7587891.3798828-4.0478516.7592773-9.1079102.6958008-13.472168,0-1.7705078-.4423828-2.7192383-2.7827148-3.6049805-2.5297852.1264648-4.996582.4428711-7.5263672.7587891-.7592773.0634766-1.328125.1899414-1.8344727.1899414-.8852539,0-1.7075195-.4428711-2.7827148-1.6445312-1.2016602-1.2646484-1.7709961-2.3398438-2.2138672-3.668457l.9487305-.5058594c.8857422.6958008,1.6445312,1.1386719,2.4667969,1.4545898.6958008.3164062,1.6445312.3798828,2.9091797.3798828,2.4667969,0,5.3764648-.1899414,9.5507812-.6328125,4.8701172-.5058594,8.8544922-1.1381836,11.7006836-1.7709961.8222656-.1894531,1.4545898-.5058594,2.1503906-.9487305.4428711-.315918.9487305-.6323242,1.5180664-.6323242,1.0117188,0,2.5932617.5058594,4.2373047,1.2651367,1.4550781.6323242,2.0239258,1.4545898,2.0239258,2.4033203,0,.8852539-.3793945,1.3916016-2.0239258,1.4545898-2.0239258.0634766-3.6049805.1264648-6.0083008.3164062-3.4785156.3164062-6.894043.6958008-10.1831055,1.0751953,1.3286133.6323242,2.2768555,1.0751953,2.7832031,1.5180664.8852539.5688477,1.1381836,1.0751953,1.1381836,1.5810547,0,.4428711-.0629883.8222656-.2529297,1.2651367-.3164062.7587891-.4428711,1.5810547-.6323242,2.5297852-.5693359,3.5419922-1.012207,6.6411133-1.7075195,11.1948242,3.3520508-.1264648,5.8818359-.2529297,9.0439453-.3793945,1.6445312-.0634766,2.5932617-.0634766,4.6171875-.1899414,1.2651367-.0634766,1.8974609-.3164062,2.5932617-.6958008.5693359-.2529297.9487305-.5058594,1.6445312-.5058594,1.2016602,0,3.3520508,1.0751953,4.996582,2.2138672,1.0117188.6953125,1.5180664,1.5810547,1.5180664,2.2133789,0,1.0117188-.5693359,1.7070312-1.8974609,1.7070312-.7592773,0-3.2890625-.3789062-4.8071289-.5683594-2.3398438-.1904297-4.8066406-.3164062-7.5898438-.3798828-4.3637695-.0634766-8.3486328,0-12.6494141.1269531-5.4389648.2529297-12.2700195,1.1376953-16.2543945,1.8974609-1.328125.3154297-2.2768555.4423828-3.0991211.8212891-.5063477.3164062-1.1386719.5068359-1.6445312.5068359-.9487305,0-3.0361328-1.328125-4.4907227-3.1630859-.8852539-1.2011719-1.4545898-2.4663086-1.5810547-3.4780273l.8852539-.4428711Z"/>
        <path class="cls-1" d="m71.9731445,9.434082c2.0239258-1.7080078,3.9848633-2.7197266,5.4394531-2.7197266,2.7197266,0,5.0595703,1.4545898,5.0595703,2.3398438,0,.7592773-.1264648,1.1386719-.315918,1.5180664-.3798828.7592773-.5063477,1.5810547-.3164062,3.0361328.2529297,2.4663086.4428711,3.7314453.7587891,6.0717773,5.9453125-1.012207,9.2973633-1.7709961,10.4995117-2.4667969.3793945-.1899414.8217773-.5693359,1.4545898-.5693359.8222656,0,1.8974609.1264648,3.1621094.7592773,1.3916016.6323242,1.8974609,1.3911133,1.8974609,2.1503906,0,1.1381836-.6958008,1.3911133-3.6049805,1.644043-1.9609375.1899414-5.7553711.6328125-12.8393555,1.7709961.5058594,3.3525391.8857422,6.0717773,1.3916016,9.234375,3.4155273-.5693359,8.1586914-1.2016602,10.9418945-1.7075195,1.2646484-.253418,2.1503906-.5063477,3.3520508-.9487305.4428711-.1899414,1.0117188-.5063477,1.4545898-.5063477,1.7709961,0,5.1865234,1.5180664,5.1865234,3.0991211,0,1.1386719-.4428711,1.7080078-2.0239258,1.7080078-1.581543,0-3.4155273,0-5.2495117.0629883-4.1113281.1264648-8.2856445.6958008-13.0922852,1.328125,1.1381836,6.8310547,2.1503906,12.5864258,2.7192383,16.128418.4428711,2.3398438.5693359,3.1621094.5693359,4.0478516,0,1.2646484-.9487305,2.2138672-2.4033203,2.2138672-2.1503906,0-2.5932617-1.2021484-2.9091797-2.8466797-.1899414-1.0117188-.3798828-2.9091797-.5063477-4.3007812-.3793945-3.8583984-.9487305-8.4750977-1.8339844-14.4204102-4.8066406.9487305-9.3608398,2.0239258-11.7641602,2.6567383-1.7709961.5058594-2.9726562.9487305-3.7949219,1.328125-.5058594.315918-1.1381836.5058594-1.6445312.5058594-1.2646484,0-2.7192383-1.1386719-3.9208984-2.4667969-.6958008-.7587891-1.3286133-1.7075195-1.9609375-3.0356445l.8222656-.6958008c1.3916016.9487305,2.5297852,1.5180664,3.984375,1.5810547,1.3286133,0,2.6567383-.1894531,4.237793-.5058594,4.4907227-.8222656,9.1079102-1.7075195,13.6616211-2.5297852-.5058594-3.0361328-1.012207-6.3881836-1.5180664-9.1079102-2.7197266.5058594-5.3759766,1.012207-8.0957031,1.6445312-1.1386719.3164062-2.0239258.5693359-2.65625.8222656-.3793945.1899414-.7592773.3164062-1.2016602.3164062-1.8974609,0-4.6806641-2.8461914-5.565918-5.0600586l.6323242-.7587891c1.8974609,1.328125,3.2890625,1.5180664,4.6801758,1.5180664,1.3286133,0,2.7197266-.1899414,4.1113281-.3798828,2.2138672-.315918,4.4907227-.7587891,7.5263672-1.328125-.5058594-3.3520508-.8852539-5.6923828-1.4545898-8.4750977-.2529297-1.328125-.8222656-1.8974609-1.6445312-1.8974609-.8852539,0-1.8974609.1264648-2.8461914.2529297l-.3793945-1.0117188Z"/>
        <path class="cls-1" d="m110.4248047,26.4477539c1.012207,1.5175781,2.2768555,2.2133789,3.5419922,2.2133789.9487305,0,1.7709961-.0629883,2.9726562-.1894531,4.5537109-.4428711,9.6767578-1.0751953,16.9501953-1.7709961.0634766-1.3916016.0634766-2.7197266,0-3.8583984,0-1.328125-.315918-1.8974609-1.0751953-2.1503906-.7587891-.315918-1.5810547-.5058594-2.2768555-.5693359v-.9487305c1.1386719-.5058594,2.0239258-.6323242,3.0991211-.6323242.9487305,0,2.65625.5693359,4.3007812,1.328125,1.1386719.5063477,1.7709752,1.2016602,1.7709752,1.8974609,0,.3164062-.1264439.6958008-.3163853.8857422-.1894531.315918-.2529297.6958008-.315918,1.0751953-.1264648.6323242-.1899414,1.2646484-.3164062,2.4663086,3.7319336-.2529297,6.0087891-.5058594,9.6137695-.8217773,1.2016602-.0634766,2.340332-.3164062,3.1621094-.7592773.8222656-.4428711,1.581543-.7587891,2.0239258-.7587891.6958008,0,2.340332.5058594,3.4790039,1.1381836,2.1503906,1.0751953,2.9726562,1.7080078,2.9726562,3.1625977,0,.7587891-.6328125,1.4545898-1.7080078,1.4545898-1.328125,0-2.4663086-.3164062-3.6679688-.5058594-1.8344727-.2529297-3.4790039-.3793945-5.25-.3793945-3.7944336,0-6.640625.1264648-10.6884766.3793945-1.3286133,15.0527344-8.2856445,22.8950195-21.1879883,28.3344727l-.8222656-1.328125c10.2460938-6.1982422,15.875-13.4711914,16.9501953-26.4370117-5.7553711.6323242-10.1196289,1.3911133-14.1040039,2.1503906-1.7709961.315918-2.7832031.6323242-3.6054688.9487305-.6323242.2529297-1.328125.6958008-1.8974609.6958008-1.0751953,0-2.2768555-1.1386719-3.2255859-2.7197266-1.0751953-1.581543-1.3911133-2.7197266-1.644043-3.8583984l1.2646484-.4423828Zm28.0820312-19.4174805c2.7827148,0,4.8066406.4428711,7.0205078,1.8344727,2.0874023,1.2651367,3.0356445,2.2768555,3.0356445,3.2885742,0,.6958008-.3793945,1.2021484-1.5810547,1.3916016-.8222656.0634766-1.5810547.3164062-2.2768555.5058594-10.3725586,3.6054688-20.2392578,5.6923828-30.3588867,6.3251953l-.1264648-1.5180664c9.6767578-1.5810547,16.3178711-3.668457,22.6425781-6.4511719,1.4545898-.6328125,2.2768555-1.0751953,3.0361328-1.581543.5688477-.3793945.8222656-.5688477.8222656-.9487305-.0634766-.6323242-.7592773-1.2016602-2.5302734-1.8974609l.3164062-.9487305Z"/>
        <path class="cls-1" d="m180.5629883,9.8764648c1.2651367-.6323242,2.909668-1.1381836,3.7949219-1.1381836,1.0751953,0,2.4033203.3793945,4.1113281,1.3916016,1.7075195,1.0751953,2.7827148,2.2133789,2.7827148,3.0991211,0,.5688477-.2529297.9487305-.8852539,1.5175781-.5063477.5063477-.8222656,1.2016602-.9487305,1.8344727-.4428711,2.0239258-.8222656,3.5415039-1.2016602,5.5654297,4.1743164-.2529297,7.2734375-.6323242,10.8149414-.9487305,1.0751953-.1264648,1.7709961-.2529297,2.2773438-.8217773.5058594-.5693359.9487305-.8222656,1.4545898-.8222656.6958008,0,1.8974609.8852539,3.2255859,2.0239258,1.5810547,1.328125,2.2133789,2.2768555,2.2133789,2.9726562,0,.5058594-.1264648,1.0117188-1.0751953,1.5175781-.6323242.3798828-1.0751953.6958008-1.2016602,1.7709961-.9487305,7.5263672-2.4663086,14.6738281-4.1743164,20.1757812-.6958008,2.0869141-1.7709961,3.6054688-3.5415039,4.8066406-1.2651367.9492188-2.5932617,1.5820312-3.6054688,1.5820312-1.0751953,0-1.5175781-.4433594-1.7709961-1.5820312-.2529297-1.0751953-.7587891-1.5175781-1.644043-2.1503906-.6958008-.4423828-1.8344727-1.0751953-3.7319336-1.8974609l.4428711-1.328125c2.65625.6328125,4.4907227.8857422,5.8818359.8857422.7592773-.0634766,1.5180664-.1269531,1.9609375-.4423828.4428711-.2529297,1.1381836-.9492188,1.6445312-2.4667969,1.8974609-5.0600586,3.4150391-12.2070312,4.2373047-20.7451172.0634766-.3164062-.1894531-.5063477-.5058594-.5063477-4.237793.1899414-7.8427734.5063477-13.4716797,1.1386719-1.5810547,6.3881836-3.5419922,11.7006836-6.4511719,16.3178711-3.2890625,5.3125-8.7285156,10.3095703-16.8242188,13.2822266l-.6958008-1.328125c5.5029297-3.2890625,9.7402344-7.4003906,12.6499023-11.8276367,2.7827148-4.3007812,4.8701172-9.3608398,6.5141602-16.0014648-3.4785156.315918-5.8818359.6323242-8.222168,1.1381836-1.328125.1899414-2.1503906.4428711-2.65625.6958008-.4428711.1899414-.8852539.3793945-1.3916016.3793945-.6953125.0634766-1.8339844-.6958008-2.8461914-1.9604492-1.2646484-1.4545898-1.8969727-2.7832031-2.2133789-4.237793l.9487305-.5058594c1.7709961,1.6445312,2.9091797,2.0239258,4.6801758,2.0239258,2.2768555.0634766,6.3881836-.2529297,12.3334961-.7587891.6958008-3.9848633,1.0751953-6.9575195,1.0751953-9.4243164,0-.5688477-.0634766-1.0117188-.4428711-1.2646484-.5058594-.3164062-1.8339844-.6323242-3.4155273-.8222656l-.1264648-1.1386719Z"/>
      </g>
      <g>
        <path class="cls-1" d="m461.5571289,21.0615234c3.6054688,1.2016602,4.0478516,1.5810547,4.0478516,2.1503906,0,.6953125-.5058594,1.0117188-2.4667969,1.3911133-1.4550781,2.2138672-3.0361328,4.1113281-4.6171875,5.8188477h3.7314453c1.1386719-1.3916016,1.9609375-2.4667969,3.2255859-3.7949219,4.9335938,4.1743164,5.4394531,5.1865234,5.4394531,5.7558594,0,.6953125-.3164062,1.2016602-.9482422,1.2016602h-13.8515625c-.1259766.3793945-.4423828.6323242-.8222656.8222656v6.2612305h7.6533203c1.1386719-1.4545898,2.0234375-2.5297852,3.2890625-3.984375,5.0595703,4.1743164,5.7548828,5.3759766,5.7548828,5.9453125,0,.6958008-.3164062,1.2016602-.9482422,1.2016602h-15.7490234c.0634766,7.0834961.2529297,9.8666992.2529297,11.4477539,0,1.2021484-1.7705078,2.0869141-3.7314453,2.0869141-.9492188,0-1.4550781-.3789062-1.4550781-1.1386719,0-1.7705078.1904297-4.9960938.2529297-12.3959961h-9.8027344l-5.5029297.2529297v-3.7949219l5.5029297.3793945h9.8027344v-7.0834961h-8.4746094l-5.5029297.2529297v-3.7949219l5.5029297.3793945h3.6679688c-.3164062-.3793945-.5058594-.8852539-.5693359-1.5180664-.4423828-2.9091797-1.6445312-5.5024414-3.5419922-7.2734375l.5693359-.5688477h-8.6650391l-.2529297.2529297v33.7744141c0,1.3916016-1.8339844,2.4033203-3.8574219,2.4033203-1.0751953,0-1.4550781-.4433594-1.4550781-1.2021484,0-1.7705078.3798828-8.2226562.3798828-31.0541992,0-4.1743164-.0634766-6.3881836-.2529297-8.9179688,2.3398438.6958008,3.9208984,1.2016602,4.9326172,1.5810547h17.5195312v-6.8305664h-19.9228516l-6.3876953.315918v-3.7949219l6.3876953.3164062h19.9228516c0-3.3520508-.1259766-5.7553711-.3154297-7.9057617,7.0830078.6953125,7.8427734,1.1381836,7.8427734,1.8974609,0,.6953125-.5068359,1.2646484-2.59375,2.0239258v3.984375h16.3808594c1.265625-1.6445312,2.4667969-3.0991211,3.9853516-4.7436523,6.3242188,5.3759766,6.5771484,5.9453125,6.5771484,6.7041016,0,.6958008-.3789062,1.2021484-.9482422,1.2021484h-25.9951172v6.8305664h17.4560547c.8222656-1.8339844,1.3916016-2.1503906,1.8974609-2.1503906.6328125,0,1.265625.1899414,3.1630859,1.6445312s2.2763672,1.9604492,2.2763672,2.5932617c0,.6953125-.5058594,1.1381836-2.2138672,2.1503906v5.3125c0,18.4052734.3164062,22.7060547.3164062,24.7929688,0,3.6054688-3.7314453,5.3759766-7.96875,5.3759766-.2529297-2.5927734-1.7080078-3.7949219-5.5029297-4.9960938l.1269531-1.0751953c2.0869141.1894531,3.7949219.3789062,5.5654297.3789062,1.9609375,0,2.5302734-.5058594,2.5302734-2.5292969v-28.3349609h-11.6376953Zm-18.5947266,0c5.4394531,2.0239258,7.2099609,4.8696289,7.2099609,7.3364258,0,.8857422-.2529297,1.5180664-.6953125,2.0239258h6.4511719c1.328125-3.0356445,2.4033203-6.1982422,3.2255859-9.3603516h-16.1914062Z"/>
        <path class="cls-1" d="m507.8510742,5.1860352c1.2011719-1.4545898,2.2128906-2.65625,3.4150391-3.8579102,4.9970703,4.3637695,5.6289062,5.1860352,5.6289062,5.8188477,0,.6958008-.3789062,1.2016602-1.0117188,1.2016602h-21.5673828l-.2529297.2529297v35.1655273h12.6494141c1.2011719-1.4545898,2.2138672-2.5932617,3.4150391-3.8579102,4.9970703,4.3642578,5.6289062,5.25,5.6289062,5.8183594,0,.6962891-.3789062,1.2021484-1.0117188,1.2021484h-20.6816406v3.7949219c0,1.4541016-1.4550781,2.4667969-3.4160156,2.4667969-1.0751953,0-1.5175781-.3798828-1.5175781-1.1386719,0-1.8349609.3798828-8.6015625.3798828-37.1264648,0-4.7436523-.0634766-8.222168-.1904297-11.8271484,2.59375.9487305,4.1113281,1.5810547,5.0605469,2.0869141h13.4716797Zm-11.9541016,9.550293c3.3525391,2.0239258,6.1982422,4.3012695,8.6650391,6.578125,1.1386719-3.5419922,2.0234375-7.2734375,2.7832031-11.1948242,5.5019531,1.4545898,6.3242188,1.9604492,6.3242188,2.7192383,0,.6958008-.5058594,1.0751953-2.5292969,1.4550781-.8857422,3.5415039-2.0244141,6.9570312-3.4794922,10.1826172,1.265625,1.3916016,2.2773438,2.7197266,3.1630859,3.9848633,1.7705078,2.4663086,2.7197266,4.6801758,2.7197266,6.1982422,0,1.9604492-1.0126953,3.0356445-2.2773438,3.0356445-1.1386719,0-1.8974609-.8852539-2.9091797-3.2255859-.8222656-1.9604492-1.7080078-3.8579102-2.7197266-5.7553711-2.7197266,5.1230469-6.0722656,9.4868164-9.7402344,12.7128906l-.9482422-.7592773c3.2255859-4.1743164,6.0712891-9.550293,8.3486328-15.6855469-2.0878906-3.1621094-4.7441406-6.2612305-8.0957031-9.2973633l.6953125-.9487305Zm7.96875,43.1982422c13.7880859-7.2099609,19.9238281-18.0253906,19.9863281-39.1503906,5.8193359.8222656,6.8310547,1.2651367,6.8310547,2.1503906,0,.5693359-.4423828,1.0751953-1.9609375,1.6445312.3798828,2.340332.7597656,4.6171875,1.3916016,6.894043,1.7714844,6.3881836,4.8701172,12.2070312,9.1708984,17.2036133,2.2773438,2.65625,4.8066406,4.9960938,7.5263672,7.2099609l-.6318359.9492188c-2.0878906-.2529297-4.1748047.5058594-5.6923828,1.9599609-7.0839844-7.5263672-11.3212891-16.3808594-12.5234375-29.409668-.7587891,9.6767578-4.1738281,19.1635742-11.9541016,25.3618164-3.4785156,2.8466797-7.3994141,4.6806641-11.5742188,6.1982422l-.5693359-1.0117188Zm34.4072266-45.0957031c.8857422-1.5175781,1.3916016-1.9604492,1.8974609-1.9604492.7587891,0,1.328125.2529297,3.2890625,1.9604492,1.7705078,1.5180664,2.1503906,2.1508789,2.1503906,2.7832031,0,.7587891-.6328125,1.328125-2.7832031,1.8339844-1.8339844,2.5302734-3.9208984,4.8701172-6.2617188,7.0205078l-1.0117188-.6323242c1.0117188-2.5297852,1.8339844-5.1865234,2.5302734-7.8427734h-16.7607422c-2.2138672,3.6049805-4.8066406,6.9570312-7.7167969,9.9931641l-.9482422-.6958008c4.3007812-7.1469727,7.1464844-14.9262695,9.1074219-24.1606445,6.2617188,1.9609375,6.9570312,2.5297852,6.9570312,3.2890625,0,.6958008-.5693359,1.2016602-2.7197266,1.6445312-.7587891,2.2133789-1.7705078,4.4902344-2.9091797,6.7670898h15.1796875Z"/>
      </g>
      <path class="cls-1" d="m248.8662109,24.0205078l-8.8955078,8.8959961,8.8955078,8.8535156-1.3911133,1.3916016-8.8955078-8.8959961-8.8540039,8.8959961-1.3911133-1.3916016,8.8959961-8.8535156-8.8959961-8.8959961,1.3911133-1.3911133,8.8540039,8.8959961,8.8955078-8.8959961,1.3911133,1.3911133Z"/>
      <path class="cls-1" d="m405.5678711,24.0205078l-8.8964844,8.8959961,8.8964844,8.8535156-1.3916016,1.3916016-8.8955078-8.8959961-8.8535156,8.8959961-1.3916016-1.3916016,8.8955078-8.8535156-8.8955078-8.8959961,1.3916016-1.3911133,8.8535156,8.8959961,8.8955078-8.8959961,1.3916016,1.3911133Z"/>
      <g>
        <path class="cls-1" d="m282.6118164,58.5205078h-22.5288086v-2.9990234h1.5395508c4.78125-.0810547,5.7539062-1.2148438,5.7539062-7.0498047V12.4897461c0-5.7539062-.9726562-6.9692383-5.7539062-6.9692383h-1.5395508v-2.9985352h22.5288086v2.9985352h-1.5400391c-4.78125,0-5.7539062,1.215332-5.7539062,6.9692383v35.9819336c0,5.7539062.9726562,6.96875,5.7539062,7.0498047h1.5400391v2.9990234Z"/>
        <path class="cls-1" d="m307.0854492,20.9990234c9.5625,0,17.2607422,8.6713867,17.2607422,19.3681641,0,10.6162109-7.6982422,19.2871094-17.2607422,19.2871094-9.4824219,0-17.2617188-8.6708984-17.2617188-19.2871094,0-10.6967773,7.7792969-19.3681641,17.2617188-19.3681641Zm0,35.9003906c6.1582031,0,9.8867188-6.3212891,9.8867188-16.5322266,0-10.2919922-3.7285156-16.612793-9.8066406-16.612793-6.1582031,0-9.9667969,6.3208008-9.9667969,16.612793,0,10.1298828,3.8085938,16.5322266,9.8867188,16.5322266Z"/>
        <path class="cls-1" d="m369.9702148,17.5141602c-5.1054688-8.0229492-10.2109375-11.9125977-15.7216797-11.9125977-2.5927734,0-3.1601562.5673828-3.1601562,2.9985352v39.871582c0,5.7539062.9726562,6.96875,5.8349609,7.0498047h2.0263672v2.9990234h-23.5019531v-2.9990234h2.0263672c4.78125-.0810547,5.7539062-1.2958984,5.7539062-7.0498047V8.6000977c0-2.3500977-.5673828-2.9985352-2.9179688-2.9985352-5.5917969,0-10.859375,3.9707031-15.9648438,12.074707l-2.5117188-1.1342773,4.1328125-14.0200195h42.4648438l4.1328125,14.0200195-2.59375.972168Z"/>
      </g>
    </g>
  </g>
</svg>